<svg width="61" height="68" viewBox="0 0 61 68" fill="none" xmlns="http://www.w3.org/2000/svg">
<path d="M47.6467 29.1164C46.9804 24.9568 2.35352 25.3828 2.35352 29.1165C2.35352 60.3157 17.0072 65.8621 26.998 65.8621M47.6467 29.1164C48.313 33.276 48.9788 63.7823 26.998 65.8621M47.6467 29.1164C61.6341 27.7302 60.3142 41.9216 56.3057 49.2228C52.2972 56.524 38.3216 65.8623 26.998 65.8621" stroke="#F2E8E1" stroke-width="3" stroke-linecap="round"/>
<path d="M24.9995 22.1837C24.9995 22.1837 33.6586 20.1037 33.6585 13.8639C33.6584 7.62413 14.3422 6.93081 24.3334 2.07764" stroke="#F2E8E1" stroke-width="3" stroke-linecap="round"/>
<path d="M47.2932 29.2704C46.6269 25.1108 2 25.5368 2 29.2706C2 60.4697 16.6537 66.0162 26.6445 66.0162C48.6253 63.9364 47.9595 33.4301 47.2932 29.2704Z" fill="#F2E8E1" stroke="#F2E8E1" stroke-width="3" stroke-linecap="round"/>
<ellipse cx="24.5" cy="29.5" rx="21.5" ry="2.5" fill="#3F8AC2" fill-opacity="0.32"/>
</svg>
