<svg width="642" height="412" viewBox="0 0 642 412" fill="none" xmlns="http://www.w3.org/2000/svg">
<path d="M10 218.298H4.624V215.218H15.992L10.812 222.19C13.836 222.442 15.796 224.654 15.796 227.818C15.796 231.458 13.164 234.146 9.58 234.146C7.508 234.146 5.688 233.25 4.652 231.682C4.092 230.842 3.868 230.114 3.7 228.714L6.92 228.602C7.144 230.058 8.124 230.926 9.496 230.926C11.092 230.926 12.352 229.694 12.352 228.07C12.352 226.418 11.148 225.214 9.468 225.214C8.824 225.214 8.292 225.354 7.76 225.69L5.744 223.982L10 218.298ZM28.704 215.218L23.916 222.582C24.364 222.442 24.588 222.414 24.896 222.414C27.78 222.414 30.076 224.878 30.076 227.93C30.076 231.374 27.304 234.146 23.86 234.146C20.5 234.146 17.924 231.57 17.924 228.154C17.924 226.446 18.484 224.906 19.968 222.554L24.616 215.218H28.704ZM24.056 225.382C22.516 225.382 21.312 226.586 21.312 228.098C21.312 229.638 22.46 230.786 23.972 230.786C25.484 230.786 26.688 229.582 26.688 228.098C26.688 226.558 25.54 225.382 24.056 225.382ZM43.824 220.874V228.126C43.824 230.282 43.376 231.626 42.284 232.662C41.248 233.642 39.82 234.146 38.028 234.146C36.152 234.146 34.556 233.586 33.548 232.578C32.512 231.542 32.148 230.198 32.148 227.286V221.322C32.148 218.914 32.512 217.542 33.408 216.562C34.416 215.442 36.04 214.826 37.916 214.826C39.624 214.826 41.08 215.33 42.144 216.282C43.348 217.346 43.824 218.634 43.824 220.874ZM35.76 221.322V227.678C35.76 229.162 35.816 229.498 36.152 229.946C36.516 230.506 37.272 230.842 38.028 230.842C38.812 230.842 39.54 230.478 39.904 229.89C40.184 229.414 40.296 228.854 40.296 227.65V221.154C40.296 219.894 40.156 219.362 39.736 218.886C39.344 218.438 38.728 218.186 38.028 218.186C37.188 218.186 36.488 218.522 36.152 219.11C35.872 219.586 35.76 220.146 35.76 221.322ZM51.58 219.866L48.192 221.686V218.354L55.192 214.714V233.782H51.58V219.866ZM84.2505 227.09L87.3585 215.106H91.3625L86.1545 233.782H82.2905L79.3505 221.546L76.4105 233.782H72.5465L67.4505 215.106H71.5105L74.5065 226.894L77.5305 215.106H81.3385L84.2505 227.09ZM102.45 222.47V220.818H106.006V233.782H102.45V231.99C101.246 233.53 99.8461 234.23 97.9421 234.23C94.3021 234.23 91.6981 231.402 91.6981 227.454C91.6981 223.366 94.4421 220.37 98.2221 220.37C99.9861 220.37 101.19 220.986 102.45 222.47ZM98.9501 223.366C96.9341 223.366 95.5061 225.018 95.5061 227.398C95.5061 229.666 96.9901 231.374 98.9221 231.374C100.91 231.374 102.506 229.526 102.506 227.286C102.506 224.99 101.05 223.366 98.9501 223.366ZM113.074 220.818V233.782H109.518V220.818H113.074ZM111.31 215.134C112.458 215.134 113.27 215.974 113.27 217.15C113.27 218.242 112.43 219.082 111.31 219.082C110.162 219.082 109.322 218.242 109.322 217.122C109.322 215.974 110.162 215.134 111.31 215.134ZM126.54 222.47V220.818H130.096V233.782H126.54V231.99C125.336 233.53 123.936 234.23 122.032 234.23C118.392 234.23 115.788 231.402 115.788 227.454C115.788 223.366 118.532 220.37 122.312 220.37C124.076 220.37 125.28 220.986 126.54 222.47ZM123.04 223.366C121.024 223.366 119.596 225.018 119.596 227.398C119.596 229.666 121.08 231.374 123.012 231.374C125 231.374 126.596 229.526 126.596 227.286C126.596 224.99 125.14 223.366 123.04 223.366ZM137.164 233.782H133.608V215.106H137.164V233.782ZM150.63 222.47V220.818H154.186V233.782H150.63V231.99C149.426 233.53 148.026 234.23 146.122 234.23C142.482 234.23 139.878 231.402 139.878 227.454C139.878 223.366 142.622 220.37 146.402 220.37C148.166 220.37 149.37 220.986 150.63 222.47ZM147.13 223.366C145.114 223.366 143.686 225.018 143.686 227.398C143.686 229.666 145.17 231.374 147.102 231.374C149.09 231.374 150.686 229.526 150.686 227.286C150.686 224.99 149.23 223.366 147.13 223.366ZM170.69 228.154H160.554C160.862 229.946 162.178 231.066 163.942 231.066C165.258 231.066 166.378 230.422 166.938 229.386L170.214 230.282C168.926 232.802 166.658 234.23 163.914 234.23C159.798 234.23 156.858 231.318 156.858 227.286C156.858 223.226 159.686 220.37 163.69 220.37C167.834 220.37 170.718 223.282 170.718 227.454L170.69 228.154ZM160.554 226.11H167.05C166.742 224.402 165.51 223.366 163.746 223.366C162.038 223.366 160.89 224.346 160.554 226.11ZM192.291 230.562H185.123L184.003 233.782H179.943L186.383 215.106H191.171L197.555 233.782H193.355L192.291 230.562ZM191.283 227.426L188.707 219.698L186.103 227.426H191.283ZM206.712 220.818H210.352L205.62 233.782H201.952L197.276 220.818H200.972L203.828 228.546L206.712 220.818ZM224.803 228.154H214.667C214.975 229.946 216.291 231.066 218.055 231.066C219.371 231.066 220.491 230.422 221.051 229.386L224.327 230.282C223.039 232.802 220.771 234.23 218.027 234.23C213.911 234.23 210.971 231.318 210.971 227.286C210.971 223.226 213.799 220.37 217.803 220.37C221.947 220.37 224.831 223.282 224.831 227.454L224.803 228.154ZM214.667 226.11H221.163C220.855 224.402 219.623 223.366 217.859 223.366C216.151 223.366 215.003 224.346 214.667 226.11ZM230.937 230.786L228.445 237.478L226.037 236.918L227.661 229.974L230.937 230.786ZM7.676 259.522V267.782H5.324V249.106H7.676V257.506H16.776V249.106H19.128V267.782H16.776V259.522H7.676ZM29.157 254.566C32.965 254.566 35.681 257.394 35.681 261.37C35.681 265.15 32.769 268.09 29.073 268.09C25.237 268.09 22.549 265.29 22.549 261.314C22.549 257.31 25.237 254.566 29.157 254.566ZM29.157 256.526C26.497 256.526 24.733 258.458 24.733 261.342C24.733 264.198 26.497 266.13 29.129 266.13C31.677 266.13 33.497 264.142 33.497 261.342C33.497 258.458 31.761 256.526 29.157 256.526ZM38.9249 254.874H41.0529V256.694C42.1729 255.182 43.2929 254.566 44.8889 254.566C46.0649 254.566 47.1289 254.958 47.8849 255.63C48.6969 256.414 48.9769 257.31 48.9769 259.074V267.782H46.8489V259.55C46.8489 258.402 46.7089 257.786 46.3729 257.338C45.9809 256.806 45.2249 256.47 44.3569 256.47C43.4049 256.47 42.5369 256.834 41.8929 257.562C41.2769 258.234 41.0529 258.85 41.0529 259.914V267.782H38.9249V254.874ZM58.743 254.566C62.551 254.566 65.267 257.394 65.267 261.37C65.267 265.15 62.355 268.09 58.659 268.09C54.823 268.09 52.135 265.29 52.135 261.314C52.135 257.31 54.823 254.566 58.743 254.566ZM58.743 256.526C56.083 256.526 54.319 258.458 54.319 261.342C54.319 264.198 56.083 266.13 58.715 266.13C61.263 266.13 63.083 264.142 63.083 261.342C63.083 258.458 61.347 256.526 58.743 256.526ZM70.6388 267.782H68.5108V249.106H70.6388V267.782ZM82.4133 254.874H84.5693V263.134C84.5693 264.898 84.2333 265.878 83.2813 266.746C82.3293 267.614 81.0132 268.09 79.5573 268.09C78.1013 268.09 76.7573 267.586 75.8333 266.718C74.9653 265.878 74.5453 264.702 74.5453 263.134V254.874H76.6733V263.078C76.6733 264.898 77.8493 266.186 79.5573 266.186C80.4533 266.186 81.3213 265.822 81.8533 265.206C82.2733 264.702 82.4133 264.17 82.4133 263.134V254.874ZM90.6271 267.782H88.4991V249.106H90.6271V267.782ZM102.402 254.874H104.558V263.134C104.558 264.898 104.222 265.878 103.27 266.746C102.318 267.614 101.002 268.09 99.5455 268.09C98.0895 268.09 96.7455 267.586 95.8215 266.718C94.9535 265.878 94.5335 264.702 94.5335 263.134V254.874H96.6615V263.078C96.6615 264.898 97.8375 266.186 99.5455 266.186C100.442 266.186 101.31 265.822 101.842 265.206C102.262 264.702 102.402 264.17 102.402 263.134V254.874ZM110.818 265.598L107.99 272.234L106.45 271.758L108.802 264.954L110.818 265.598ZM125.637 259.522V267.782H123.285V249.106H125.637V257.506H134.737V249.106H137.089V267.782H134.737V259.522H125.637ZM151.317 257.002V254.874H153.445V267.782H151.317V265.29C150.029 267.222 148.573 268.09 146.613 268.09C143.057 268.09 140.537 265.29 140.537 261.37C140.537 257.422 143.113 254.566 146.669 254.566C148.629 254.566 150.057 255.322 151.317 257.002ZM146.977 256.47C145.577 256.47 144.597 256.946 143.841 258.01C143.169 258.934 142.777 260.166 142.777 261.426C142.777 264.17 144.569 266.242 146.921 266.242C149.357 266.242 151.345 263.974 151.345 261.202C151.345 258.402 149.553 256.47 146.977 256.47ZM172.547 254.874H174.731L170.139 267.782H168.207L165.239 257.982L162.131 267.782H160.115L155.691 254.874H157.875L161.179 264.366L164.147 254.874H166.247L169.159 264.366L172.547 254.874ZM186.563 257.002V254.874H188.691V267.782H186.563V265.29C185.275 267.222 183.819 268.09 181.859 268.09C178.303 268.09 175.783 265.29 175.783 261.37C175.783 257.422 178.359 254.566 181.915 254.566C183.875 254.566 185.303 255.322 186.563 257.002ZM182.223 256.47C180.823 256.47 179.843 256.946 179.087 258.01C178.415 258.934 178.023 260.166 178.023 261.426C178.023 264.17 179.815 266.242 182.167 266.242C184.603 266.242 186.591 263.974 186.591 261.202C186.591 258.402 184.799 256.47 182.223 256.47ZM195.108 254.874V267.782H192.98V254.874H195.108ZM194.072 249.862C194.828 249.862 195.416 250.478 195.416 251.262C195.416 252.018 194.8 252.606 194.044 252.606C193.288 252.606 192.7 252.018 192.7 251.234C192.7 250.45 193.288 249.862 194.072 249.862ZM201.506 254.874V267.782H199.378V254.874H201.506ZM200.47 249.862C201.226 249.862 201.814 250.478 201.814 251.262C201.814 252.018 201.198 252.606 200.442 252.606C199.686 252.606 199.098 252.018 199.098 251.234C199.098 250.45 199.686 249.862 200.47 249.862ZM215.739 267.782L220.443 260.306C219.659 260.586 219.295 260.67 218.651 260.67C215.515 260.67 213.079 258.206 213.079 255.014C213.079 251.682 215.739 249.05 219.127 249.05C222.487 249.05 225.007 251.598 225.007 254.93C225.007 256.358 224.643 257.45 223.719 258.99L218.343 267.782H215.739ZM219.127 251.122C216.999 251.122 215.291 252.802 215.291 254.93C215.291 257.03 216.915 258.71 219.015 258.71C221.171 258.71 222.795 257.086 222.795 254.958C222.795 252.802 221.171 251.122 219.127 251.122ZM236.459 249.386L231.671 256.862C232.455 256.582 232.819 256.498 233.491 256.498C236.599 256.498 239.007 258.934 239.007 262.098C239.007 265.402 236.291 268.118 232.987 268.118C229.655 268.118 227.079 265.486 227.079 262.098C227.079 260.726 227.443 259.69 228.507 257.982L233.855 249.386H236.459ZM233.099 258.402C230.971 258.402 229.291 260.026 229.291 262.098C229.291 264.282 230.943 266.018 233.043 266.018C235.143 266.018 236.823 264.31 236.823 262.182C236.823 260.082 235.171 258.402 233.099 258.402ZM249.283 257.646C250.347 257.982 250.851 258.234 251.439 258.85C252.363 259.774 252.839 261.006 252.839 262.462C252.839 265.766 250.403 268.118 246.987 268.118C243.599 268.118 241.219 265.85 241.219 262.658C241.219 261.174 241.723 259.83 242.619 258.906C243.207 258.29 243.683 258.01 244.803 257.646C243.823 257.31 243.403 257.03 242.899 256.414C242.283 255.658 241.947 254.706 241.947 253.67C241.947 251.01 244.131 249.05 247.099 249.05C250.039 249.05 252.167 250.982 252.167 253.642C252.167 254.706 251.803 255.714 251.131 256.498C250.627 257.058 250.235 257.31 249.283 257.646ZM247.099 251.01C245.307 251.01 244.075 252.13 244.075 253.698C244.075 255.294 245.391 256.554 247.043 256.554C248.639 256.554 250.067 255.238 250.067 253.726C250.067 252.27 248.695 251.01 247.099 251.01ZM247.071 258.822C245.055 258.822 243.431 260.418 243.431 262.434C243.431 264.422 245.027 266.046 247.015 266.046C249.003 266.046 250.599 264.422 250.599 262.434C250.599 260.474 249.003 258.822 247.071 258.822ZM261.267 252.494L257.151 255.238V253.11L263.479 248.966V267.782H261.267V252.494ZM278.459 249.386L273.671 256.862C274.455 256.582 274.819 256.498 275.491 256.498C278.599 256.498 281.007 258.934 281.007 262.098C281.007 265.402 278.291 268.118 274.987 268.118C271.655 268.118 269.079 265.486 269.079 262.098C269.079 260.726 269.443 259.69 270.507 257.982L275.855 249.386H278.459ZM275.099 258.402C272.971 258.402 271.291 260.026 271.291 262.098C271.291 264.282 272.943 266.018 275.043 266.018C277.143 266.018 278.823 264.31 278.823 262.182C278.823 260.082 277.171 258.402 275.099 258.402Z" fill="#F0E7D2"/>
<path d="M361.137 221.116V229.376H358.785V210.7H361.137V219.1H370.237V210.7H372.589V229.376H370.237V221.116H361.137ZM382.618 216.16C386.426 216.16 389.142 218.988 389.142 222.964C389.142 226.744 386.23 229.684 382.534 229.684C378.698 229.684 376.01 226.884 376.01 222.908C376.01 218.904 378.698 216.16 382.618 216.16ZM382.618 218.12C379.958 218.12 378.194 220.052 378.194 222.936C378.194 225.792 379.958 227.724 382.59 227.724C385.138 227.724 386.958 225.736 386.958 222.936C386.958 220.052 385.222 218.12 382.618 218.12ZM399.89 216.468H402.046V224.728C402.046 226.492 401.71 227.472 400.758 228.34C399.806 229.208 398.49 229.684 397.034 229.684C395.578 229.684 394.234 229.18 393.31 228.312C392.442 227.472 392.022 226.296 392.022 224.728V216.468H394.15V224.672C394.15 226.492 395.326 227.78 397.034 227.78C397.93 227.78 398.798 227.416 399.33 226.8C399.75 226.296 399.89 225.764 399.89 224.728V216.468ZM405.976 216.468H408.104V218.652C408.496 217.728 408.776 217.336 409.28 216.944C409.924 216.44 410.82 216.16 411.744 216.16H412.248V218.316C412.024 218.288 411.8 218.288 411.66 218.288C410.512 218.288 409.504 218.82 408.86 219.772C408.3 220.584 408.104 221.34 408.104 222.824V229.376H405.976V216.468ZM423.036 219.996H420.908V219.856C420.908 218.652 419.928 217.896 418.444 217.896C417.016 217.896 416.12 218.624 416.12 219.744C416.12 220.864 416.68 221.284 419.004 221.928C420.656 222.376 421.524 222.796 422.14 223.412C422.784 224.056 423.176 224.98 423.176 225.932C423.176 228.172 421.328 229.684 418.584 229.684C415.644 229.684 413.992 228.312 413.768 225.708H415.868C416.008 227.164 416.96 227.948 418.584 227.948C420.04 227.948 420.992 227.192 420.992 226.044C420.992 224.924 420.264 224.364 418.052 223.804C415.252 223.048 413.992 221.872 413.992 219.912C413.992 217.672 415.812 216.16 418.528 216.16C421.272 216.16 422.924 217.56 423.036 219.996ZM428.368 226.688C429.208 226.688 429.824 227.304 429.824 228.172C429.824 228.984 429.18 229.6 428.368 229.6C427.528 229.6 426.912 228.984 426.912 228.144C426.912 227.304 427.528 226.688 428.368 226.688ZM428.368 218.624C429.208 218.624 429.824 219.24 429.824 220.108C429.824 220.92 429.18 221.536 428.368 221.536C427.528 221.536 426.912 220.92 426.912 220.08C426.912 219.24 427.528 218.624 428.368 218.624ZM445.819 217.728V229.376H441.983V210.7H446.323L451.895 222.04L457.495 210.7H461.835V229.376H457.999V217.728L451.895 229.936L445.819 217.728ZM471.766 215.964C475.854 215.964 478.794 218.932 478.794 223.02C478.794 226.828 475.686 229.824 471.71 229.824C467.622 229.824 464.682 226.94 464.682 222.908C464.682 218.792 467.566 215.964 471.766 215.964ZM471.766 219.156C469.666 219.156 468.266 220.64 468.266 222.908C468.266 225.148 469.666 226.66 471.738 226.66C473.782 226.66 475.21 225.12 475.21 222.964C475.21 220.612 473.894 219.156 471.766 219.156ZM481.436 216.412H484.992V218.008C485.944 216.524 486.896 215.964 488.52 215.964C489.752 215.964 490.928 216.412 491.712 217.168C492.552 218.008 492.86 219.044 492.86 221.172V229.376H489.304V221.34C489.304 220.612 489.22 220.192 488.996 219.828C488.66 219.296 487.988 218.96 487.288 218.96C485.916 218.96 484.992 219.996 484.992 221.508V229.376H481.436V216.412ZM506.251 217.84V210.7H509.807V229.376H506.251V227.668C505.131 229.208 503.899 229.824 501.911 229.824C498.075 229.824 495.499 227.08 495.499 223.02C495.499 220.836 496.227 219.016 497.571 217.756C498.803 216.608 500.371 215.964 501.967 215.964C503.731 215.964 504.991 216.524 506.251 217.84ZM502.807 218.96C500.763 218.96 499.279 220.668 499.279 223.048C499.279 225.288 500.763 226.968 502.779 226.968C504.739 226.968 506.251 225.26 506.251 223.02C506.251 220.668 504.795 218.96 502.807 218.96ZM523.231 218.064V216.412H526.787V229.376H523.231V227.584C522.027 229.124 520.627 229.824 518.723 229.824C515.083 229.824 512.479 226.996 512.479 223.048C512.479 218.96 515.223 215.964 519.003 215.964C520.767 215.964 521.971 216.58 523.231 218.064ZM519.731 218.96C517.715 218.96 516.287 220.612 516.287 222.992C516.287 225.26 517.771 226.968 519.703 226.968C521.691 226.968 523.287 225.12 523.287 222.88C523.287 220.584 521.831 218.96 519.731 218.96ZM534.891 224.112L537.915 216.412H541.695L534.387 235.284H530.579L533.015 229.068L528.479 216.412H532.259L534.891 224.112ZM556.271 220.976V224.112H550.055V220.976H556.271ZM570.452 213.836V218.428H577.004V221.564H570.452V229.376H566.616V210.7H577.004V213.836H570.452ZM579.409 216.412H582.965V218.316C583.329 217.364 583.581 216.972 584.113 216.58C584.673 216.188 585.429 215.964 586.213 215.964C586.297 215.964 586.437 215.964 586.633 215.992V219.632C586.353 219.604 586.073 219.576 585.877 219.576C584.897 219.576 584.001 220.024 583.497 220.752C583.077 221.34 582.965 221.9 582.965 223.132V229.376H579.409V216.412ZM592.125 216.412V229.376H588.569V216.412H592.125ZM590.361 210.728C591.509 210.728 592.321 211.568 592.321 212.744C592.321 213.836 591.481 214.676 590.361 214.676C589.213 214.676 588.373 213.836 588.373 212.716C588.373 211.568 589.213 210.728 590.361 210.728ZM605.591 217.84V210.7H609.147V229.376H605.591V227.668C604.471 229.208 603.239 229.824 601.251 229.824C597.415 229.824 594.839 227.08 594.839 223.02C594.839 220.836 595.567 219.016 596.911 217.756C598.143 216.608 599.711 215.964 601.307 215.964C603.071 215.964 604.331 216.524 605.591 217.84ZM602.147 218.96C600.103 218.96 598.619 220.668 598.619 223.048C598.619 225.288 600.103 226.968 602.119 226.968C604.079 226.968 605.591 225.26 605.591 223.02C605.591 220.668 604.135 218.96 602.147 218.96ZM622.571 218.064V216.412H626.127V229.376H622.571V227.584C621.367 229.124 619.967 229.824 618.063 229.824C614.423 229.824 611.819 226.996 611.819 223.048C611.819 218.96 614.563 215.964 618.343 215.964C620.107 215.964 621.311 216.58 622.571 218.064ZM619.071 218.96C617.055 218.96 615.627 220.612 615.627 222.992C615.627 225.26 617.111 226.968 619.043 226.968C621.031 226.968 622.627 225.12 622.627 222.88C622.627 220.584 621.171 218.96 619.071 218.96ZM634.231 224.112L637.255 216.412H641.035L633.727 235.284H629.919L632.355 229.068L627.819 216.412H631.599L634.231 224.112ZM517.076 244.98L512.288 252.456C513.072 252.176 513.436 252.092 514.108 252.092C517.216 252.092 519.624 254.528 519.624 257.692C519.624 260.996 516.908 263.712 513.604 263.712C510.272 263.712 507.696 261.08 507.696 257.692C507.696 256.32 508.06 255.284 509.124 253.576L514.472 244.98H517.076ZM513.716 253.996C511.588 253.996 509.908 255.62 509.908 257.692C509.908 259.876 511.56 261.612 513.66 261.612C515.76 261.612 517.44 259.904 517.44 257.776C517.44 255.676 515.788 253.996 513.716 253.996ZM532.532 252.596V250.468H534.66V263.376H532.532V260.884C531.244 262.816 529.788 263.684 527.828 263.684C524.272 263.684 521.752 260.884 521.752 256.964C521.752 253.016 524.328 250.16 527.884 250.16C529.844 250.16 531.272 250.916 532.532 252.596ZM528.192 252.064C526.792 252.064 525.812 252.54 525.056 253.604C524.384 254.528 523.992 255.76 523.992 257.02C523.992 259.764 525.784 261.836 528.136 261.836C530.572 261.836 532.56 259.568 532.56 256.796C532.56 253.996 530.768 252.064 528.192 252.064ZM538.948 250.468H541.076V252.26C542.056 250.776 543.148 250.16 544.744 250.16C546.508 250.16 547.628 250.916 548.216 252.512C549.168 250.86 550.372 250.16 552.304 250.16C553.788 250.16 554.908 250.636 555.58 251.532C556.196 252.344 556.364 253.072 556.364 255.116V263.376H554.236V255.62C554.236 254.052 554.18 253.688 553.872 253.156C553.48 252.484 552.64 252.064 551.632 252.064C549.756 252.064 548.72 253.324 548.72 255.62V263.376H546.592V255.648C546.592 254.388 546.48 253.744 546.172 253.184C545.808 252.456 545.024 252.064 544.072 252.064C542.196 252.064 541.076 253.408 541.076 255.648V263.376H538.948V250.468ZM578.884 255.704V257.58H568.832V255.704H578.884ZM597.806 259.176H590.33V257.44L599.962 244.448V257.16H602.146V259.176H599.962V263.376H597.806V259.176ZM597.806 257.16V250.02L592.57 257.16H597.806ZM605.366 250.468H607.494V252.82C608.726 250.916 610.042 250.16 612.198 250.16C615.782 250.16 618.274 252.904 618.274 256.824C618.274 260.884 615.782 263.684 612.198 263.684C611.19 263.684 610.266 263.46 609.37 263.012C608.586 262.62 608.194 262.284 607.494 261.36V269.424H605.366V250.468ZM611.834 252.064C609.258 252.064 607.494 254.108 607.494 257.132C607.494 259.96 609.202 261.836 611.75 261.836C614.298 261.836 616.006 259.848 616.006 256.908C616.006 255.396 615.642 254.248 614.886 253.408C614.13 252.568 612.982 252.064 611.834 252.064ZM621.499 250.468H623.627V252.26C624.607 250.776 625.699 250.16 627.295 250.16C629.059 250.16 630.179 250.916 630.767 252.512C631.719 250.86 632.923 250.16 634.855 250.16C636.339 250.16 637.459 250.636 638.131 251.532C638.747 252.344 638.915 253.072 638.915 255.116V263.376H636.787V255.62C636.787 254.052 636.731 253.688 636.423 253.156C636.031 252.484 635.191 252.064 634.183 252.064C632.307 252.064 631.271 253.324 631.271 255.62V263.376H629.143V255.648C629.143 254.388 629.031 253.744 628.723 253.184C628.359 252.456 627.575 252.064 626.623 252.064C624.747 252.064 623.627 253.408 623.627 255.648V263.376H621.499V250.468Z" fill="#F0E7D2"/>
<path d="M417.239 303.525H420.963V303.777C420.963 305.037 422.055 305.961 423.511 305.961C424.911 305.961 425.975 305.093 425.975 303.973C425.975 303.385 425.695 302.853 425.219 302.489C424.743 302.125 424.407 301.985 422.951 301.453C418.863 299.997 417.407 298.457 417.407 295.601C417.407 292.213 419.899 289.945 423.567 289.945C427.207 289.945 429.559 292.073 429.867 295.657H426.003C425.863 294.089 425.079 293.333 423.567 293.333C422.195 293.333 421.271 294.117 421.271 295.293C421.271 296.049 421.663 296.637 422.419 297.057C422.923 297.337 423.231 297.477 424.603 297.981C426.647 298.737 427.683 299.269 428.495 300.053C429.475 300.977 429.979 302.237 429.979 303.665C429.979 307.081 427.403 309.349 423.539 309.349C419.619 309.349 417.211 307.109 417.239 303.525ZM442.786 297.673V296.021H446.342V308.985H442.786V307.193C441.582 308.733 440.182 309.433 438.278 309.433C434.638 309.433 432.034 306.605 432.034 302.657C432.034 298.569 434.778 295.573 438.558 295.573C440.322 295.573 441.526 296.189 442.786 297.673ZM439.286 298.569C437.27 298.569 435.842 300.221 435.842 302.601C435.842 304.869 437.326 306.577 439.258 306.577C441.246 306.577 442.842 304.729 442.842 302.489C442.842 300.193 441.386 298.569 439.286 298.569ZM453.715 298.961V305.177C453.715 305.793 453.939 305.961 454.723 306.017H455.339V308.985H452.511C450.775 308.929 450.131 308.229 450.159 306.521V298.961H448.675V295.965H450.159V292.493H453.715V295.965H455.339V298.961H453.715ZM465.562 296.021H469.118V304.225C469.118 306.129 468.726 307.193 467.662 308.089C466.626 308.957 465.17 309.433 463.462 309.433C461.67 309.433 460.13 308.929 459.122 308.005C458.198 307.165 457.75 305.933 457.75 304.225V296.021H461.306V304.001C461.306 305.457 462.174 306.437 463.462 306.437C464.778 306.437 465.562 305.597 465.562 304.225V296.021ZM472.385 296.021H475.941V297.925C476.305 296.973 476.557 296.581 477.089 296.189C477.649 295.797 478.405 295.573 479.189 295.573C479.273 295.573 479.413 295.573 479.609 295.601V299.241C479.329 299.213 479.049 299.185 478.853 299.185C477.873 299.185 476.977 299.633 476.473 300.361C476.053 300.949 475.941 301.509 475.941 302.741V308.985H472.385V296.021ZM491.622 297.449V290.309H495.178V308.985H491.622V307.277C490.502 308.817 489.27 309.433 487.282 309.433C483.446 309.433 480.87 306.689 480.87 302.629C480.87 300.445 481.598 298.625 482.942 297.365C484.174 296.217 485.742 295.573 487.338 295.573C489.102 295.573 490.362 296.133 491.622 297.449ZM488.178 298.569C486.134 298.569 484.65 300.277 484.65 302.657C484.65 304.897 486.134 306.577 488.15 306.577C490.11 306.577 491.622 304.869 491.622 302.629C491.622 300.277 490.166 298.569 488.178 298.569ZM508.602 297.673V296.021H512.158V308.985H508.602V307.193C507.398 308.733 505.998 309.433 504.094 309.433C500.454 309.433 497.85 306.605 497.85 302.657C497.85 298.569 500.594 295.573 504.374 295.573C506.138 295.573 507.342 296.189 508.602 297.673ZM505.102 298.569C503.086 298.569 501.658 300.221 501.658 302.601C501.658 304.869 503.142 306.577 505.074 306.577C507.062 306.577 508.658 304.729 508.658 302.489C508.658 300.193 507.202 298.569 505.102 298.569ZM520.262 303.721L523.286 296.021H527.066L519.758 314.893H515.95L518.386 308.677L513.85 296.021H517.63L520.262 303.721ZM541.642 300.585V303.721H535.426V300.585H541.642ZM550.895 303.525H554.619V303.777C554.619 305.037 555.711 305.961 557.167 305.961C558.567 305.961 559.631 305.093 559.631 303.973C559.631 303.385 559.351 302.853 558.875 302.489C558.399 302.125 558.063 301.985 556.607 301.453C552.519 299.997 551.063 298.457 551.063 295.601C551.063 292.213 553.555 289.945 557.223 289.945C560.863 289.945 563.215 292.073 563.523 295.657H559.659C559.519 294.089 558.735 293.333 557.223 293.333C555.851 293.333 554.927 294.117 554.927 295.293C554.927 296.049 555.319 296.637 556.075 297.057C556.579 297.337 556.887 297.477 558.259 297.981C560.303 298.737 561.339 299.269 562.151 300.053C563.131 300.977 563.635 302.237 563.635 303.665C563.635 307.081 561.059 309.349 557.195 309.349C553.275 309.349 550.867 307.109 550.895 303.525ZM573.953 296.021H577.509V304.225C577.509 306.129 577.117 307.193 576.053 308.089C575.017 308.957 573.561 309.433 571.853 309.433C570.061 309.433 568.521 308.929 567.513 308.005C566.589 307.165 566.141 305.933 566.141 304.225V296.021H569.697V304.001C569.697 305.457 570.565 306.437 571.853 306.437C573.169 306.437 573.953 305.597 573.953 304.225V296.021ZM580.776 296.021H584.332V297.617C585.284 296.133 586.236 295.573 587.86 295.573C589.092 295.573 590.268 296.021 591.052 296.777C591.892 297.617 592.2 298.653 592.2 300.781V308.985H588.644V300.949C588.644 300.221 588.56 299.801 588.336 299.437C588 298.905 587.328 298.569 586.628 298.569C585.256 298.569 584.332 299.605 584.332 301.117V308.985H580.776V296.021ZM605.591 297.449V290.309H609.147V308.985H605.591V307.277C604.471 308.817 603.239 309.433 601.251 309.433C597.415 309.433 594.839 306.689 594.839 302.629C594.839 300.445 595.567 298.625 596.911 297.365C598.143 296.217 599.711 295.573 601.307 295.573C603.071 295.573 604.331 296.133 605.591 297.449ZM602.147 298.569C600.103 298.569 598.619 300.277 598.619 302.657C598.619 304.897 600.103 306.577 602.119 306.577C604.079 306.577 605.591 304.869 605.591 302.629C605.591 300.277 604.135 298.569 602.147 298.569ZM622.571 297.673V296.021H626.127V308.985H622.571V307.193C621.367 308.733 619.967 309.433 618.063 309.433C614.423 309.433 611.819 306.605 611.819 302.657C611.819 298.569 614.563 295.573 618.343 295.573C620.107 295.573 621.311 296.189 622.571 297.673ZM619.071 298.569C617.055 298.569 615.627 300.221 615.627 302.601C615.627 304.869 617.111 306.577 619.043 306.577C621.031 306.577 622.627 304.729 622.627 302.489C622.627 300.193 621.171 298.569 619.071 298.569ZM634.231 303.721L637.255 296.021H641.035L633.727 314.893H629.919L632.355 308.677L627.819 296.021H631.599L634.231 303.721ZM516.18 326.661H509.012V324.589H519.372L511.98 342.985H509.572L516.18 326.661ZM532.532 332.205V330.077H534.66V342.985H532.532V340.493C531.244 342.425 529.788 343.293 527.828 343.293C524.272 343.293 521.752 340.493 521.752 336.573C521.752 332.625 524.328 329.769 527.884 329.769C529.844 329.769 531.272 330.525 532.532 332.205ZM528.192 331.673C526.792 331.673 525.812 332.149 525.056 333.213C524.384 334.137 523.992 335.369 523.992 336.629C523.992 339.373 525.784 341.445 528.136 341.445C530.572 341.445 532.56 339.177 532.56 336.405C532.56 333.605 530.768 331.673 528.192 331.673ZM538.948 330.077H541.076V331.869C542.056 330.385 543.148 329.769 544.744 329.769C546.508 329.769 547.628 330.525 548.216 332.121C549.168 330.469 550.372 329.769 552.304 329.769C553.788 329.769 554.908 330.245 555.58 331.141C556.196 331.953 556.364 332.681 556.364 334.725V342.985H554.236V335.229C554.236 333.661 554.18 333.297 553.872 332.765C553.48 332.093 552.64 331.673 551.632 331.673C549.756 331.673 548.72 332.933 548.72 335.229V342.985H546.592V335.257C546.592 333.997 546.48 333.353 546.172 332.793C545.808 332.065 545.024 331.673 544.072 331.673C542.196 331.673 541.076 333.017 541.076 335.257V342.985H538.948V330.077ZM578.884 335.313V337.189H568.832V335.313H578.884ZM597.806 338.785H590.33V337.049L599.962 324.057V336.769H602.146V338.785H599.962V342.985H597.806V338.785ZM597.806 336.769V329.629L592.57 336.769H597.806ZM605.366 330.077H607.494V332.429C608.726 330.525 610.042 329.769 612.198 329.769C615.782 329.769 618.274 332.513 618.274 336.433C618.274 340.493 615.782 343.293 612.198 343.293C611.19 343.293 610.266 343.069 609.37 342.621C608.586 342.229 608.194 341.893 607.494 340.969V349.033H605.366V330.077ZM611.834 331.673C609.258 331.673 607.494 333.717 607.494 336.741C607.494 339.569 609.202 341.445 611.75 341.445C614.298 341.445 616.006 339.457 616.006 336.517C616.006 335.005 615.642 333.857 614.886 333.017C614.13 332.177 612.982 331.673 611.834 331.673ZM621.499 330.077H623.627V331.869C624.607 330.385 625.699 329.769 627.295 329.769C629.059 329.769 630.179 330.525 630.767 332.121C631.719 330.469 632.923 329.769 634.855 329.769C636.339 329.769 637.459 330.245 638.131 331.141C638.747 331.953 638.915 332.681 638.915 334.725V342.985H636.787V335.229C636.787 333.661 636.731 333.297 636.423 332.765C636.031 332.093 635.191 331.673 634.183 331.673C632.307 331.673 631.271 332.933 631.271 335.229V342.985H629.143V335.257C629.143 333.997 629.031 333.353 628.723 332.793C628.359 332.065 627.575 331.673 626.623 331.673C624.747 331.673 623.627 333.017 623.627 335.257V342.985H621.499V330.077Z" fill="#F0E7D2"/>
<g clip-path="url(#clip0_725_395)">
<path d="M0 110.034C0 107.597 1.45445 106.595 2.90468 105.451C4.35491 104.304 5.80935 103.16 5.80935 100.723V29.9496C5.80935 27.3712 4.35491 26.3689 2.90468 25.2211C1.45023 24.0733 0 22.9296 0 20.6382C0 18.2012 1.88867 16.625 4.50246 16.625H32.8241C35.7288 16.625 37.4699 18.2012 37.4699 20.6382C37.4699 22.9296 36.0197 24.0774 34.5652 25.2211C33.115 26.3689 31.6605 27.3712 31.6605 29.9496V99.2923C31.6605 102.873 34.131 105.164 37.9041 105.164H50.8297C59.2529 105.164 63.1735 97.7161 66.0782 91.5529C68.2578 86.8244 69.9989 83.0982 73.3378 83.0982C75.8082 83.0982 77.406 84.9613 77.406 87.5397V108.6C77.406 112.039 75.374 114.043 71.74 114.043H4.50246C1.88867 114.043 0 112.467 0 110.03V110.034Z" fill="#F0E7D2"/>
<path d="M83.6543 77.5129C83.6543 54.7314 99.1937 39.5479 122.579 39.5479C140.007 39.5479 152.207 47.7156 152.207 59.6054C152.207 74.3606 133.906 80.2369 109.801 80.9522C112.849 90.8375 119.387 99.575 130.858 99.575C138.556 99.575 142.477 95.9943 145.525 93.4159C147.557 91.6983 149.012 90.6919 150.462 90.6919C152.06 90.6919 153.367 91.6942 153.367 94.7051C153.367 105.019 141.023 115.478 121.849 115.478C99.0461 115.478 83.6543 100.436 83.6543 77.5129ZM108.342 74.6475C124.897 73.9322 130.707 68.2015 130.707 59.7468C130.707 52.4399 126.786 46.5678 120.395 46.5678C111.972 46.5678 107.613 55.8792 107.613 66.0514C107.613 68.7754 107.756 71.6408 108.338 74.6475H108.342Z" fill="#F0E7D2"/>
<path d="M165.706 96.1404V48.8639H160.769C158.299 48.8639 156.701 47.1464 156.701 44.7094C156.701 41.844 159.024 40.9831 162.367 39.6939C170.356 36.97 176.6 32.5326 180.668 25.2257C182.122 22.5017 183.429 20.7842 185.895 20.7842C188.362 20.7842 189.816 22.3603 189.816 24.7974V40.9873H204.63C207.101 40.9873 208.551 42.5635 208.551 45.0005C208.551 47.4375 207.097 48.8681 204.63 48.8681H189.816V95.4292C189.816 99.7252 192.43 102.449 196.207 102.449C198.53 102.449 200.128 101.588 201.582 100.732C203.037 100.016 204.344 99.4424 205.36 99.4424C207.248 99.4424 208.555 101.019 208.555 102.882C208.555 107.752 199.407 115.491 186.625 115.491C173.843 115.491 165.71 107.756 165.71 96.1487L165.706 96.1404Z" fill="#F0E7D2"/>
<path d="M216.974 57.8879C216.974 56.4531 218.281 55.1639 220.17 53.4463C222.931 51.0093 226.561 47.5742 227.286 41.411C219.588 40.8371 214.795 35.5388 214.795 28.0864C214.795 20.634 220.022 15.1943 227.721 15.1943C236.435 15.1943 242.244 21.9273 242.244 32.5279C242.244 47.857 229.753 60.3207 220.461 60.3207C217.847 60.3207 216.974 59.3185 216.974 57.8837V57.8879Z" fill="#F0E7D2"/>
<path d="M244.713 97.9991C244.713 92.8422 247.909 89.5444 253.428 89.5444C259.962 89.5444 262.432 94.1273 264.755 98.8558C267.226 103.726 269.983 108.741 277.972 108.741C284.654 108.741 289.009 105.302 289.009 99.858C289.009 92.8381 281.311 89.6858 271.581 86.1051C259.38 81.3766 246.164 76.0784 246.164 61.3191C246.164 47.7075 257.348 39.5439 278.115 39.5439C297.284 39.5439 307.305 46.7053 307.305 55.5883C307.305 60.3168 304.11 62.8952 299.316 62.8952C293.364 62.8952 290.746 58.882 288.861 54.5861C286.973 50.2901 284.65 46.2769 277.824 46.2769C271.724 46.2769 267.947 49.2837 267.947 54.0122C267.947 61.0321 276.079 64.4714 285.518 68.1976C297.428 72.9261 310.788 78.5113 310.788 93.125C310.788 107.739 298.444 115.474 277.238 115.474C258.36 115.474 244.705 108.313 244.705 97.9949L244.713 97.9991Z" fill="#F0E7D2"/>
<path d="M372.519 110.034C372.519 107.597 374.117 106.595 375.715 105.451C377.313 104.304 378.91 103.16 378.91 100.723V25.5081H372.519C363.949 25.5081 360.61 32.6694 357.996 39.1196C355.964 43.8481 354.366 47.5743 351.171 47.5743C348.7 47.5743 346.959 45.7112 346.959 43.1328V22.0688C346.959 18.6295 349.139 16.625 352.768 16.625H431.047C434.677 16.625 436.713 18.6295 436.713 22.0688V43.1286C436.713 45.707 434.972 47.5701 432.645 47.5701C429.306 47.5701 427.708 43.7025 425.819 39.1154C423.058 32.8108 419.719 25.5039 411.296 25.5039H404.905V100.719C404.905 103.156 406.503 104.299 408.101 105.447C409.698 106.595 411.296 107.597 411.296 110.03C411.296 112.463 409.555 114.043 406.794 114.043H377.022C374.26 114.043 372.519 112.467 372.519 110.03V110.034Z" fill="#F0E7D2"/>
<path d="M437.434 96.2813C437.434 77.7999 460.089 72.0691 482.02 71.7822V60.8946C482.02 50.294 476.936 46.5678 470.544 46.5678C463.428 46.5678 462.121 51.2963 460.958 56.3117C459.794 61.7555 458.635 67.1993 450.212 67.1993C443.386 67.1993 440.047 63.3316 440.047 58.0293C440.047 48.1439 452.248 39.5479 472.142 39.5479C492.036 39.5479 506.126 47.57 506.126 66.3384V101.438C506.126 104.017 507.723 105.306 509.174 106.308C510.481 107.31 511.644 108.171 511.644 109.889C511.644 113.469 506.416 115.478 499.882 115.478C491.459 115.478 485.65 111.897 483.327 106.167C477.517 112.039 469.676 115.478 460.38 115.478C446.729 115.478 437.434 108.171 437.434 96.2813ZM473.887 103.16C477.083 103.16 479.988 102.158 482.167 100.294L482.024 100.007V81.0977C480.135 79.8085 477.956 79.0932 475.199 79.0932C466.919 79.0932 460.675 83.2478 460.675 90.6961C460.675 98.1444 466.628 103.16 473.892 103.16H473.887Z" fill="#F0E7D2"/>
<path d="M516.15 110.321C516.15 108.171 517.457 107.169 518.764 106.167C520.362 105.019 521.526 103.875 521.526 101.584V26.6518C521.526 24.0734 520.219 22.9256 518.764 21.9234C517.457 20.9211 516.15 19.9188 516.15 17.6274C516.15 15.4773 517.892 13.7598 520.219 13.7598H540.117C543.456 13.7598 545.636 15.9098 545.636 19.3491V101.584C545.636 103.875 546.942 105.023 548.397 106.167C549.704 107.169 551.011 108.171 551.011 110.321C551.011 112.471 549.413 114.048 546.943 114.048H520.366C517.896 114.048 516.155 112.471 516.155 110.321H516.15Z" fill="#F0E7D2"/>
<path d="M556.812 110.321C556.812 108.171 558.119 107.169 559.426 106.167C561.024 105.019 562.188 103.875 562.188 101.584V26.6518C562.188 24.0734 560.881 22.9256 559.426 21.9234C558.119 20.9211 556.812 19.9188 556.812 17.6274C556.812 15.4773 558.554 13.7598 560.881 13.7598H580.779C584.118 13.7598 586.298 15.9098 586.298 19.3491V75.7956L609.826 53.7335C611.715 52.0159 610.99 50.2942 609.244 48.7181C607.937 47.7158 606.63 46.568 606.63 44.7049C606.63 42.5548 608.228 40.9787 610.699 40.9787H627.692C630.163 40.9787 631.761 42.5548 631.761 44.7049C631.761 47.2833 629.729 48.8595 626.242 51.0095C623.628 52.4443 621.015 54.4488 617.672 57.4556L608.376 66.0517L628.274 99.2882C631.179 104.158 633.793 105.88 635.681 106.882C637.279 107.743 638.004 108.317 638.004 110.176C638.004 113.328 634.518 115.478 627.692 115.478C617.09 115.478 606.778 110.463 601.985 101.01L591.091 81.9546L586.298 86.2506V101.58C586.298 103.871 587.605 105.019 589.059 106.163C590.366 107.165 591.673 108.167 591.673 110.317C591.673 112.467 590.075 114.043 587.605 114.043H561.028C558.558 114.043 556.817 112.467 556.817 110.317L556.812 110.321Z" fill="#F0E7D2"/>
<path d="M2.36523 164.353C2.36523 157.545 10.2361 154.439 23.9205 154.38V151.573C23.9205 146.258 20.5901 142.973 14.8988 142.973C9.87355 142.973 8.96715 145.543 8.36008 147.693C7.87526 149.365 7.45369 150.442 5.6957 150.442C4.36352 150.442 3.51614 149.606 3.51614 148.234C3.51614 145.19 7.57173 141.006 15.3246 141.006C23.0774 141.006 27.6768 144.77 27.6768 151.756V167.705C27.6768 168.898 28.3429 169.377 29.009 169.855C29.7341 170.213 30.0376 170.57 30.0376 171.169C30.0376 172.126 28.95 172.662 27.4955 172.662C25.2569 172.662 23.9248 171.29 23.9248 169.256V168.362C21.5639 171.049 17.6896 172.662 13.1492 172.662C6.66955 172.662 2.37367 169.377 2.37367 164.361L2.36523 164.353ZM14.532 170.267C18.3473 170.267 21.918 168.595 23.9163 165.908V157.187C22.4619 156.767 21.0117 156.589 19.0724 156.589C11.3238 156.589 6.11728 159.275 6.11728 163.816C6.11728 167.759 9.86933 170.267 14.532 170.267Z" fill="#F0E7D2"/>
<path d="M34.4511 170.924C34.4511 170.209 34.9359 169.847 35.4798 169.552C36.0868 169.194 36.6897 168.774 36.6897 167.88V146.379C36.6897 145.244 35.9646 144.766 35.3575 144.35C34.8137 143.93 34.2656 143.572 34.2656 142.857C34.2656 142.141 34.8095 141.601 35.5978 141.601H38.5657C39.7166 141.601 40.4418 142.378 40.4418 143.63V146.974C43.2284 143.273 47.5243 141.002 52.1279 141.002C58.0005 141.002 61.9971 144.645 61.9971 150.318V167.876C61.9971 168.77 62.6631 169.19 63.207 169.547C63.7508 169.847 64.2356 170.205 64.2356 170.92C64.2356 171.635 63.7508 172.055 62.9625 172.055H57.3302C56.5418 172.055 55.998 171.635 55.998 170.92C55.998 170.205 56.5418 169.843 57.0857 169.547C57.6295 169.19 58.2366 168.77 58.2366 167.876V150.617C58.2366 146.317 55.3319 143.568 50.9095 143.568C46.4872 143.568 42.6129 146.076 40.4333 150.018V167.876C40.4333 168.77 41.0404 169.19 41.6432 169.547C42.1871 169.847 42.6719 170.205 42.6719 170.92C42.6719 171.635 42.1871 172.055 41.3987 172.055H35.7664C34.9781 172.055 34.4343 171.635 34.4343 170.92L34.4511 170.924Z" fill="#F0E7D2"/>
<path d="M68.4141 157.004C68.4141 147.327 73.9831 140.997 82.4611 140.997C87.0015 140.997 90.5132 142.79 92.6928 145.597V135.025C92.6928 133.89 91.9677 133.412 91.3606 132.996C90.8167 132.576 90.2729 132.218 90.2729 131.503C90.2729 130.788 90.8167 130.247 91.5461 130.247H94.514C95.6649 130.247 96.4532 131.025 96.4532 132.277V167.692C96.4532 168.886 97.1193 169.364 97.7854 169.842C98.3293 170.142 98.8141 170.499 98.8141 171.215C98.8141 172.109 97.7264 172.649 96.2087 172.649C94.0292 172.649 92.697 171.277 92.697 169.243V167.093C90.3361 170.616 86.5799 172.649 81.9214 172.649C73.747 172.649 68.4183 166.436 68.4183 157L68.4141 157.004ZM83.4307 170.325C87.4863 170.325 90.998 167.817 92.6928 163.754V151.153C90.939 146.375 87.2418 142.969 82.5833 142.969C76.5885 142.969 72.1703 148.462 72.1703 155.927C72.1703 163.392 76.892 170.321 83.4307 170.321V170.325Z" fill="#F0E7D2"/>
<path d="M118.789 170.803C118.789 169.908 119.333 169.547 119.94 169.131C120.547 168.773 121.15 168.295 121.15 167.459V136.044C121.15 135.15 120.543 134.73 119.94 134.372C119.333 133.952 118.789 133.536 118.789 132.7C118.789 131.864 119.396 131.444 120.244 131.444H126.057C126.963 131.444 127.512 131.864 127.512 132.7C127.512 133.536 126.968 133.956 126.361 134.372C125.754 134.73 125.151 135.15 125.151 136.044V150.258H149.004V136.044C149.004 135.15 148.46 134.73 147.853 134.372C147.246 133.952 146.643 133.536 146.643 132.7C146.643 131.864 147.25 131.444 148.097 131.444H153.97C154.817 131.444 155.361 131.864 155.361 132.7C155.361 133.536 154.817 133.956 154.21 134.372C153.603 134.73 153 135.15 153 136.044V167.459C153 168.295 153.607 168.773 154.21 169.131C154.817 169.551 155.361 169.908 155.361 170.803C155.361 171.638 154.817 172.059 153.97 172.059H148.097C147.25 172.059 146.643 171.638 146.643 170.803C146.643 169.908 147.25 169.547 147.853 169.131C148.397 168.773 149.004 168.295 149.004 167.459V152.587H125.151V167.459C125.151 168.295 125.758 168.773 126.361 169.131C126.968 169.551 127.512 169.908 127.512 170.803C127.512 171.638 126.968 172.059 126.057 172.059H120.244C119.396 172.059 118.789 171.638 118.789 170.803Z" fill="#F0E7D2"/>
<path d="M160.984 164.353C160.984 157.545 168.855 154.439 182.54 154.38V151.573C182.54 146.258 179.209 142.973 173.518 142.973C168.493 142.973 167.586 145.543 166.979 147.693C166.494 149.365 166.073 150.442 164.315 150.442C162.983 150.442 162.135 149.606 162.135 148.234C162.135 145.19 166.191 141.006 173.944 141.006C181.697 141.006 186.296 144.77 186.296 151.756V167.705C186.296 168.898 186.962 169.377 187.628 169.855C188.353 170.213 188.657 170.57 188.657 171.169C188.657 172.126 187.569 172.662 186.115 172.662C183.876 172.662 182.544 171.29 182.544 169.256V168.362C180.183 171.049 176.309 172.662 171.768 172.662C165.289 172.662 160.993 169.377 160.993 164.361L160.984 164.353ZM173.155 170.267C176.971 170.267 180.541 168.595 182.54 165.908V157.187C181.085 156.767 179.635 156.589 177.696 156.589C169.947 156.589 164.741 159.275 164.741 163.816C164.741 167.759 168.493 170.267 173.155 170.267Z" fill="#F0E7D2"/>
<path d="M203.668 171.219L192.526 145.717C192.163 144.94 191.619 144.644 191.012 144.282C190.346 143.983 189.861 143.625 189.861 142.731C189.861 142.016 190.405 141.596 191.194 141.596H197.066C197.854 141.596 198.339 142.016 198.339 142.731C198.339 143.509 197.854 143.804 197.37 144.104C196.763 144.461 196.341 144.819 196.704 145.655L206.21 168.17L215.957 145.713C216.32 144.819 215.717 144.52 215.051 144.162C214.444 143.804 213.9 143.447 213.9 142.727C213.9 142.008 214.444 141.592 215.232 141.592H219.772C220.561 141.592 221.045 142.012 221.045 142.727C221.045 143.621 220.561 143.983 219.895 144.278C219.351 144.578 218.744 144.935 218.44 145.713L207.239 171.214C206.998 171.813 206.573 172.05 205.966 172.05H204.996C204.33 172.05 203.967 171.813 203.664 171.214L203.668 171.219Z" fill="#F0E7D2"/>
<path d="M222.256 156.825C222.256 147.568 228.187 140.997 237.454 140.997C244.296 140.997 248.714 144.461 248.714 149.597C248.714 155.869 242.053 158.318 226.252 158.497C227.222 165.126 231.762 169.904 238.242 169.904C243.874 169.904 246.054 167.155 247.323 165.484C247.867 164.768 248.229 164.29 248.655 164.29C248.959 164.29 249.199 164.527 249.199 165.126C249.199 167.455 245.809 172.653 237.332 172.653C228.854 172.653 222.256 166.623 222.256 156.825ZM226.067 156.588C239.933 156.468 244.958 154.201 244.958 149.423C244.958 145.601 241.75 142.972 237.268 142.972C230.73 142.972 226.008 148.35 226.008 155.636C226.008 155.935 226.008 156.293 226.067 156.592V156.588Z" fill="#F0E7D2"/>
<path d="M267.723 164.353C267.723 157.545 275.594 154.439 289.278 154.38V151.573C289.278 146.258 285.948 142.973 280.256 142.973C275.231 142.973 274.325 145.543 273.718 147.693C273.233 149.365 272.811 150.442 271.053 150.442C269.721 150.442 268.874 149.606 268.874 148.234C268.874 145.19 272.929 141.006 280.682 141.006C288.435 141.006 293.034 144.77 293.034 151.756V167.705C293.034 168.898 293.7 169.377 294.366 169.855C295.092 170.213 295.395 170.57 295.395 171.169C295.395 172.126 294.307 172.662 292.853 172.662C290.614 172.662 289.282 171.29 289.282 169.256V168.362C286.921 171.049 283.047 172.662 278.507 172.662C272.027 172.662 267.731 169.377 267.731 164.361L267.723 164.353ZM279.889 170.267C283.705 170.267 287.275 168.595 289.274 165.908V157.187C287.819 156.767 286.369 156.589 284.43 156.589C276.681 156.589 271.475 159.275 271.475 163.816C271.475 167.759 275.227 170.267 279.889 170.267Z" fill="#F0E7D2"/>
<path d="M314.039 151.748C314.039 139.147 321.788 130.842 333.596 130.842C343.828 130.842 348.613 136.756 348.613 140.278C348.613 141.829 347.706 142.665 346.13 142.665C344.131 142.665 343.465 141.172 342.677 139.321C341.467 136.573 339.89 133.05 333.052 133.05C324.212 133.05 317.854 139.92 317.854 149.772C317.854 159.624 323.727 169.722 334.384 169.722C341.408 169.722 344.557 165.422 346.433 162.914C347.222 161.841 347.643 161.18 348.187 161.18C348.613 161.18 348.794 161.537 348.794 162.074C348.794 164.702 344.19 172.645 333.415 172.645C321.792 172.645 314.039 164.345 314.039 151.739V151.748Z" fill="#F0E7D2"/>
<path d="M355.75 163.576V146.375C355.75 145.24 355.025 144.761 354.418 144.346C353.874 143.926 353.33 143.568 353.33 142.853C353.33 142.137 353.874 141.597 354.662 141.597H357.63C358.722 141.597 359.506 142.491 359.506 143.689V163.28C359.506 167.402 362.352 170.088 366.589 170.088C370.826 170.088 374.582 167.701 376.698 163.996V146.375C376.698 145.24 376.032 144.761 375.366 144.346C374.822 143.926 374.337 143.568 374.337 142.853C374.337 142.137 374.822 141.597 375.611 141.597H378.578C379.729 141.597 380.454 142.374 380.454 143.626V167.697C380.454 168.89 381.121 169.369 381.846 169.847C382.389 170.146 382.874 170.504 382.874 171.219C382.874 172.113 381.723 172.654 380.269 172.654C378.03 172.654 376.698 171.282 376.698 169.248V166.977C374.034 170.442 369.856 172.65 365.316 172.65C359.624 172.65 355.75 169.127 355.75 163.571V163.576Z" fill="#F0E7D2"/>
<path d="M387.839 181.674C387.839 180.959 388.324 180.601 388.868 180.302C389.475 179.944 390.078 179.524 390.078 178.63V146.379C390.078 145.244 389.353 144.766 388.746 144.35C388.202 143.93 387.658 143.572 387.658 142.857C387.658 142.141 388.202 141.601 388.99 141.601H391.958C393.109 141.601 393.834 142.378 393.834 143.63V146.616C396.195 143.031 399.951 141.002 404.673 141.002C412.784 141.002 418.113 147.215 418.113 156.651C418.113 166.087 412.544 172.658 404.007 172.658C399.526 172.658 395.955 170.866 393.834 168.059V178.63C393.834 179.524 394.441 179.944 395.044 180.302C395.588 180.601 396.073 180.959 396.073 181.674C396.073 182.39 395.588 182.81 394.8 182.81H389.167C388.379 182.81 387.835 182.394 387.835 181.674H387.839ZM393.834 149.96V162.444C395.592 167.223 399.285 170.687 403.944 170.687C409.875 170.687 414.298 165.193 414.298 157.728C414.298 150.263 409.694 143.335 403.096 143.335C398.978 143.335 395.529 145.905 393.834 149.964V149.96Z" fill="#F0E7D2"/>
<path d="M436.877 156.825C436.877 147.268 442.75 140.997 451.712 140.997C460.675 140.997 466.548 147.268 466.548 156.825C466.548 166.382 460.675 172.653 451.712 172.653C442.75 172.653 436.877 166.382 436.877 156.825ZM462.791 157.902C462.791 149.423 457.825 143.031 451.105 143.031C445.11 143.031 440.629 148.408 440.629 155.81C440.629 164.232 445.654 170.624 452.374 170.624C458.306 170.624 462.787 165.309 462.787 157.902H462.791Z" fill="#F0E7D2"/>
<path d="M471.388 170.924C471.388 170.209 471.873 169.847 472.417 169.552C473.024 169.194 473.627 168.774 473.627 167.88V146.379C473.627 145.244 472.902 144.766 472.295 144.35C471.751 143.93 471.207 143.572 471.207 142.857C471.207 142.141 471.751 141.601 472.539 141.601H475.507C476.658 141.601 477.383 142.378 477.383 143.63V147.153C479.504 143.152 482.893 141.002 486.405 141.002C488.947 141.002 490.402 142.137 490.402 143.751C490.402 145.123 489.373 146.138 487.737 146.138C486.949 146.138 486.283 145.901 485.798 145.602C485.132 145.181 484.588 144.944 483.618 144.944C481.135 144.944 478.897 146.795 477.383 151.158V167.88C477.383 168.774 478.049 169.194 478.715 169.493C479.322 169.851 479.866 170.209 479.866 170.928C479.866 171.648 479.322 172.064 478.593 172.064H472.721C471.932 172.064 471.388 171.643 471.388 170.928V170.924Z" fill="#F0E7D2"/>
<path d="M519.761 170.803C519.761 169.908 520.427 169.547 521.093 169.131C521.759 168.773 522.425 168.295 522.425 167.459V133.715H514.129C512.189 133.715 511.405 135.507 510.798 137.059C510.254 138.315 509.828 139.329 508.922 139.329C508.134 139.329 507.59 138.73 507.59 137.895V133.295C507.59 132.16 508.437 131.444 509.71 131.444H539.196C540.405 131.444 541.194 132.16 541.194 133.295V137.895C541.194 138.73 540.709 139.329 539.921 139.329C539.014 139.329 538.529 138.252 538.045 137C537.379 135.449 536.653 133.715 534.714 133.715H526.418V167.459C526.418 168.295 527.084 168.773 527.809 169.131C528.475 169.551 529.082 169.908 529.082 170.803C529.082 171.638 528.538 172.059 527.691 172.059H521.211C520.364 172.059 519.757 171.638 519.757 170.803H519.761Z" fill="#F0E7D2"/>
<path d="M554.27 171.219L545.493 145.655C545.189 144.877 544.587 144.52 543.979 144.283C543.313 143.925 542.77 143.567 542.77 142.732C542.77 142.016 543.313 141.596 544.102 141.596H549.734C550.522 141.596 551.066 142.016 551.066 142.732C551.066 143.509 550.581 143.805 550.097 144.104C549.612 144.462 549.127 144.819 549.371 145.655L556.699 167.871L565.417 142.428C565.598 141.829 566.083 141.592 566.627 141.592H567.596C568.203 141.592 568.684 141.829 568.869 142.486L577.406 167.809L584.856 145.651C585.096 144.815 584.552 144.457 583.949 144.158C583.342 143.8 582.862 143.501 582.862 142.723C582.862 142.008 583.346 141.588 584.135 141.588H588.553C589.341 141.588 589.885 142.008 589.885 142.723C589.885 143.559 589.278 143.917 588.612 144.274C588.068 144.574 587.461 144.873 587.221 145.647L578.38 171.211C578.199 171.809 577.773 172.046 577.107 172.046H576.137C575.471 172.046 575.046 171.809 574.805 171.211L566.327 146.246L557.849 171.211C557.609 171.809 557.183 172.046 556.517 172.046H555.548C554.941 172.046 554.46 171.809 554.274 171.211L554.27 171.219Z" fill="#F0E7D2"/>
<path d="M591.201 156.825C591.201 147.268 597.074 140.997 606.037 140.997C614.999 140.997 620.872 147.268 620.872 156.825C620.872 166.382 614.999 172.653 606.037 172.653C597.074 172.653 591.201 166.382 591.201 156.825ZM617.116 157.902C617.116 149.423 612.149 143.031 605.429 143.031C599.435 143.031 594.953 148.408 594.953 155.81C594.953 164.232 599.978 170.624 606.698 170.624C612.63 170.624 617.111 165.309 617.111 157.902H617.116Z" fill="#F0E7D2"/>
<path d="M627.283 169.426C627.283 167.634 628.493 166.44 630.369 166.44C632.245 166.44 633.396 167.634 633.396 169.426C633.396 171.219 632.186 172.412 630.369 172.412C628.552 172.412 627.283 171.219 627.283 169.426ZM629.345 160.531L628.135 132.16C628.076 131.324 628.497 130.846 629.286 130.846H631.406C632.195 130.846 632.616 131.324 632.616 132.16L631.343 160.531C631.284 160.951 630.98 161.308 630.496 161.308H630.192C629.707 161.308 629.404 160.951 629.345 160.531Z" fill="#F0E7D2"/>
</g>
<defs>
<clipPath id="clip0_725_395">
<rect width="638" height="182.805" fill="white"/>
</clipPath>
</defs>
</svg>
