<svg width="181" height="70" viewBox="0 0 181 70" fill="none" xmlns="http://www.w3.org/2000/svg">
<ellipse cx="21.5" cy="22.4607" rx="21.5" ry="22.3791" fill="#79B1C7" fill-opacity="0.5"/>
<path d="M170.222 57.7039C169.854 57.7039 169.504 57.7788 169.183 57.9145C168.918 56.7193 167.895 55.8286 166.674 55.8286C166.349 55.8286 166.038 55.8917 165.752 56.0068C164.877 55.2024 163.731 54.7146 162.476 54.7146C160.331 54.7146 158.503 56.1387 157.808 58.1331C157.484 57.9933 157.13 57.9162 156.758 57.9162C155.235 57.9162 154 59.2098 154 60.8052C154 62.4006 155.235 63.6942 156.758 63.6942C156.911 63.6942 157.061 63.681 157.207 63.6558C157.663 64.179 158.32 64.5075 159.049 64.5075C159.341 64.5075 159.621 64.4547 159.881 64.3583C160.636 64.8436 161.525 65.1235 162.476 65.1235C163.249 65.1235 163.982 64.9381 164.634 64.6077C165.107 64.9208 165.668 65.1023 166.268 65.1023C167.497 65.1023 168.556 64.3443 169.044 63.2504C169.402 63.4262 169.801 63.5245 170.222 63.5245C171.756 63.5245 173 62.2216 173 60.6143C173 59.0071 171.756 57.7039 170.222 57.7039Z" fill="#79B1C7" fill-opacity="0.4"/>
<path d="M170.222 57.7039C169.854 57.7039 169.504 57.7788 169.183 57.9145C168.918 56.7193 167.895 55.8286 166.674 55.8286C166.349 55.8286 166.038 55.8917 165.752 56.0068C164.877 55.2024 163.731 54.7146 162.476 54.7146C160.331 54.7146 158.503 56.1387 157.808 58.1331C157.484 57.9933 157.13 57.9162 156.758 57.9162C155.235 57.9162 154 59.2098 154 60.8052C154 62.4006 155.235 63.6942 156.758 63.6942C156.911 63.6942 157.061 63.681 157.207 63.6558C157.663 64.179 158.32 64.5075 159.049 64.5075C159.341 64.5075 159.621 64.4547 159.881 64.3583C160.636 64.8436 161.525 65.1235 162.476 65.1235C163.249 65.1235 163.982 64.9381 164.634 64.6077C165.107 64.9208 165.668 65.1023 166.268 65.1023C167.497 65.1023 168.556 64.3443 169.044 63.2504C169.402 63.4262 169.801 63.5245 170.222 63.5245C171.756 63.5245 173 62.2216 173 60.6143C173 59.0071 171.756 57.7039 170.222 57.7039Z" fill="white" fill-opacity="0.16"/>
<g clip-path="url(#clip0_731_1014)">
<path d="M112.807 3.4005C112.517 3.4005 112.24 3.45813 111.986 3.56241C111.777 2.64375 110.97 1.9592 110.006 1.9592C109.749 1.9592 109.504 2.00775 109.278 2.09619C108.587 1.47792 107.682 1.10303 106.691 1.10303C104.998 1.10303 103.555 2.19752 103.006 3.73043C102.751 3.62299 102.471 3.56367 102.177 3.56367C100.975 3.56367 100 4.55789 100 5.7841C100 7.01031 100.975 8.00453 102.177 8.00453C102.298 8.00453 102.417 7.9944 102.532 7.97498C102.892 8.3771 103.41 8.62956 103.986 8.62956C104.217 8.62956 104.438 8.58903 104.643 8.51494C105.239 8.88793 105.941 9.10303 106.691 9.10303C107.302 9.10303 107.88 8.96054 108.396 8.70661C108.769 8.94724 109.211 9.08677 109.686 9.08677C110.655 9.08677 111.492 8.50417 111.877 7.66341C112.159 7.79851 112.474 7.87408 112.807 7.87408C114.018 7.87408 115 6.87268 115 5.6374C115 4.40211 114.018 3.40071 112.807 3.40071V3.4005Z" fill="#79B1C7" fill-opacity="0.5"/>
<path d="M112.807 3.4005C112.517 3.4005 112.24 3.45813 111.986 3.56241C111.777 2.64375 110.97 1.9592 110.006 1.9592C109.749 1.9592 109.504 2.00775 109.278 2.09619C108.587 1.47792 107.682 1.10303 106.691 1.10303C104.998 1.10303 103.555 2.19752 103.006 3.73043C102.751 3.62299 102.471 3.56367 102.177 3.56367C100.975 3.56367 100 4.55789 100 5.7841C100 7.01031 100.975 8.00453 102.177 8.00453C102.298 8.00453 102.417 7.9944 102.532 7.97498C102.892 8.3771 103.41 8.62956 103.986 8.62956C104.217 8.62956 104.438 8.58903 104.643 8.51494C105.239 8.88793 105.941 9.10303 106.691 9.10303C107.302 9.10303 107.88 8.96054 108.396 8.70661C108.769 8.94724 109.211 9.08677 109.686 9.08677C110.655 9.08677 111.492 8.50417 111.877 7.66341C112.159 7.79851 112.474 7.87408 112.807 7.87408C114.018 7.87408 115 6.87268 115 5.6374C115 4.40211 114.018 3.40071 112.807 3.40071V3.4005Z" fill="white" fill-opacity="0.1"/>
</g>
<path d="M105.794 42.145V29.939H108.803C110.146 29.939 111.387 30.007 112.594 30.5C114.787 31.384 116.096 33.492 116.096 36.178C116.096 39.663 113.988 42.145 110.061 42.145H105.794ZM107.018 40.955H108.82C111.132 40.955 112.662 40.751 113.75 39.425C114.447 38.575 114.821 37.47 114.821 36.195C114.821 34.954 114.481 33.849 113.801 32.965C112.645 31.452 110.911 31.129 108.259 31.129H107.018V40.955ZM126.112 34.767V33.118H127.251V42.145H126.112V40.598C125.126 41.788 123.885 42.366 122.474 42.366C119.839 42.366 117.85 40.173 117.85 37.606C117.85 35.039 119.89 32.88 122.508 32.88C123.97 32.88 125.211 33.509 126.112 34.767ZM122.61 34.002C120.536 34.002 119.04 35.702 119.04 37.64C119.04 39.595 120.57 41.312 122.593 41.312C124.446 41.312 126.197 39.918 126.197 37.674C126.197 35.583 124.633 34.002 122.61 34.002ZM132.599 41.465L128.893 33.118H130.117L133.228 40.071L136.237 33.118H137.478L132.089 45.443H130.865L132.599 41.465Z" fill="#F2E8E1"/>
<g clip-path="url(#clip1_731_1014)">
<path d="M137.679 15.9852C138.298 15.9852 138.888 16.1076 139.429 16.3292C139.875 14.3771 141.597 12.9224 143.654 12.9224C144.202 12.9224 144.725 13.0256 145.207 13.2135C146.68 11.8997 148.611 11.103 150.725 11.103C154.338 11.103 157.415 13.4288 158.587 16.6863C159.132 16.4579 159.729 16.3319 160.355 16.3319C162.92 16.3319 165 18.4446 165 21.0503C165 23.656 162.92 25.7687 160.355 25.7687C160.098 25.7687 159.845 25.7472 159.599 25.7059C158.83 26.5604 157.725 27.0969 156.496 27.0969C156.004 27.0969 155.533 27.0108 155.094 26.8533C153.823 27.6459 152.327 28.103 150.725 28.103C149.422 28.103 148.189 27.8002 147.089 27.2606C146.293 27.772 145.349 28.0685 144.338 28.0685C142.268 28.0685 140.484 26.8305 139.663 25.0438C139.06 25.3309 138.388 25.4915 137.679 25.4915C135.095 25.4915 133 23.3635 133 20.7386C133 18.1136 135.095 15.9856 137.679 15.9856V15.9852Z" fill="#79B1C7" fill-opacity="0.5"/>
<path d="M137.679 15.9852C138.298 15.9852 138.888 16.1076 139.429 16.3292C139.875 14.3771 141.597 12.9224 143.654 12.9224C144.202 12.9224 144.725 13.0256 145.207 13.2135C146.68 11.8997 148.611 11.103 150.725 11.103C154.338 11.103 157.415 13.4288 158.587 16.6863C159.132 16.4579 159.729 16.3319 160.355 16.3319C162.92 16.3319 165 18.4446 165 21.0503C165 23.656 162.92 25.7687 160.355 25.7687C160.098 25.7687 159.845 25.7472 159.599 25.7059C158.83 26.5604 157.725 27.0969 156.496 27.0969C156.004 27.0969 155.533 27.0108 155.094 26.8533C153.823 27.6459 152.327 28.103 150.725 28.103C149.422 28.103 148.189 27.8002 147.089 27.2606C146.293 27.772 145.349 28.0685 144.338 28.0685C142.268 28.0685 140.484 26.8305 139.663 25.0438C139.06 25.3309 138.388 25.4915 137.679 25.4915C135.095 25.4915 133 23.3635 133 20.7386C133 18.1136 135.095 15.9856 137.679 15.9856V15.9852Z" fill="white" fill-opacity="0.04"/>
</g>
<g clip-path="url(#clip2_731_1014)">
<path d="M70.5561 8.74369C71.2912 8.74369 71.9923 8.88775 72.6346 9.14845C73.1637 6.85182 75.2092 5.14043 77.6522 5.14043C78.3024 5.14043 78.9237 5.2618 79.4963 5.48292C81.2456 3.93723 83.5386 3 86.0487 3C90.3384 3 93.9932 5.73622 95.3843 9.56851C96.0313 9.2999 96.7403 9.15161 97.4838 9.15161C100.53 9.15161 103 11.6372 103 14.7027C103 17.7682 100.53 20.2538 97.4843 20.2538C97.1786 20.2538 96.8782 20.2284 96.5861 20.1799C95.6737 21.1852 94.3607 21.8163 92.9014 21.8163C92.3178 21.8163 91.7578 21.715 91.2371 21.5298C89.727 22.4623 87.9505 23 86.0487 23C84.5013 23 83.0368 22.6438 81.7311 22.0089C80.7852 22.6105 79.6646 22.9594 78.4633 22.9594C76.0062 22.9594 73.8873 21.5029 72.912 19.401C72.1968 19.7387 71.3987 19.9276 70.5561 19.9276C67.4875 19.9276 65 17.4241 65 14.3359C65 11.2477 67.4875 8.74422 70.5561 8.74422V8.74369Z" fill="#79B1C7" fill-opacity="0.5"/>
<path d="M70.5561 8.74369C71.2912 8.74369 71.9923 8.88775 72.6346 9.14845C73.1637 6.85182 75.2092 5.14043 77.6522 5.14043C78.3024 5.14043 78.9237 5.2618 79.4963 5.48292C81.2456 3.93723 83.5386 3 86.0487 3C90.3384 3 93.9932 5.73622 95.3843 9.56851C96.0313 9.2999 96.7403 9.15161 97.4838 9.15161C100.53 9.15161 103 11.6372 103 14.7027C103 17.7682 100.53 20.2538 97.4843 20.2538C97.1786 20.2538 96.8782 20.2284 96.5861 20.1799C95.6737 21.1852 94.3607 21.8163 92.9014 21.8163C92.3178 21.8163 91.7578 21.715 91.2371 21.5298C89.727 22.4623 87.9505 23 86.0487 23C84.5013 23 83.0368 22.6438 81.7311 22.0089C80.7852 22.6105 79.6646 22.9594 78.4633 22.9594C76.0062 22.9594 73.8873 21.5029 72.912 19.401C72.1968 19.7387 71.3987 19.9276 70.5561 19.9276C67.4875 19.9276 65 17.4241 65 14.3359C65 11.2477 67.4875 8.74422 70.5561 8.74422V8.74369Z" fill="white" fill-opacity="0.18"/>
</g>
<defs>
<clipPath id="clip0_731_1014">
<rect width="15" height="8" fill="white" transform="translate(100 1.10303)"/>
</clipPath>
<clipPath id="clip1_731_1014">
<rect width="32" height="17" fill="white" transform="matrix(-1 0 0 1 165 11.103)"/>
</clipPath>
<clipPath id="clip2_731_1014">
<rect width="38" height="20" fill="white" transform="matrix(-1 0 0 1 103 3)"/>
</clipPath>
</defs>
</svg>
