<svg width="1152" height="469" viewBox="0 0 1152 469" fill="none" xmlns="http://www.w3.org/2000/svg">
<g clip-path="url(#clip0_600_190)">
<path d="M0 106.112C0 72.3226 26.7729 46.0522 60.4604 45.484C77.3174 45.1932 105.293 53.4391 105.545 74.4634C105.637 82.6564 100.706 88.3783 90.684 88.55C78.7585 88.7615 75.1888 80.7271 71.6852 72.4416C68.3534 64.5921 64.202 56.2802 52.6863 56.6106C35.4063 57.1127 29.0337 75.4545 29.0205 90.4794C29.0072 114.371 42.083 145.98 70.482 145.491C83.571 145.267 90.6972 138.276 95.3643 133.004C98.2994 129.845 100.547 127.903 102.966 127.85C105.558 127.797 106.668 130.11 106.589 133.823C106.126 155.059 77.5289 166.185 59.601 166.344C25.8738 166.661 0 139.281 0 106.112Z" fill="#F0E7D2"/>
<path d="M111.93 105.082C111.93 71.2393 137.711 43.4492 172.39 43.0924C205.866 42.7488 232.718 67.5789 232.679 101.434C232.639 135.369 206.117 162.195 172.39 163.952C137.764 165.763 111.916 138.66 111.93 105.082ZM203.658 120.107C203.222 97.9326 191.852 53.9151 163.585 54.5626C147.614 54.9326 140.686 72.7854 140.95 86.7795C141.386 108.901 153.074 153.13 181.195 152.442C197.14 152.046 203.923 134.048 203.658 120.093V120.107Z" fill="#F0E7D2"/>
<path d="M239.421 155.045C239.421 152.112 241.153 150.83 242.872 149.39C244.604 147.936 246.323 146.496 246.323 143.549V58.2492C246.323 55.1437 244.591 54.0073 242.872 52.6858C241.153 51.3644 239.421 50.0562 239.421 47.2943C239.421 44.3607 241.669 42.3653 244.776 42.2464C271.906 41.1364 299.022 39.9338 326.139 38.6256C330.29 38.4274 332.697 40.7267 332.697 44.8629V68.6886C332.697 71.794 330.793 74.133 327.858 74.2783C324.235 74.4501 322.437 70.5386 320.428 65.4907C317.625 58.4606 313.857 49.924 302.632 50.4394C292.399 50.9151 287.295 51.1397 277.062 51.589C277.062 65.3453 277.062 79.1016 277.062 92.8579C283.078 92.5937 286.079 92.4615 292.095 92.184C298.837 91.8801 301.852 87.5721 304.02 83.7003C305.765 80.5685 307.471 78.0181 310.578 77.8727C313.685 77.7273 315.417 79.8945 315.417 83.1717V109.416C315.417 112.693 313.685 115.019 310.578 115.164C307.471 115.309 305.752 112.904 304.02 109.944C301.852 106.271 298.837 102.24 292.095 102.544C286.079 102.822 283.078 102.954 277.062 103.218C277.062 116.221 277.062 129.237 277.062 142.241C277.062 145.174 279.151 146.509 281.385 147.751C283.421 148.874 285.18 150.169 285.18 153.103C285.18 156.036 283.104 158.032 279.653 158.177C265.692 158.785 258.711 159.089 244.763 159.644C241.656 159.763 239.408 157.953 239.408 155.019L239.421 155.045Z" fill="#F0E7D2"/>
<path d="M338.396 150.619C338.396 147.685 340.128 146.39 341.847 144.923C343.579 143.457 345.297 141.99 345.297 139.056V53.7565C345.297 50.6511 343.566 49.5279 341.847 48.2328C340.128 46.9378 338.396 45.6428 338.396 42.881C338.396 39.9474 340.644 37.9387 343.751 37.7802C370.88 36.4059 397.997 34.9655 425.114 33.4722C429.265 33.2476 431.671 35.5205 431.671 39.6698V63.4956C431.671 66.601 429.768 68.9532 426.832 69.1118C423.21 69.31 421.412 65.4117 419.402 60.377C416.599 53.3601 412.831 44.8631 401.606 45.471C391.373 46.026 386.27 46.3035 376.037 46.8321V88.101C382.052 87.7839 385.054 87.6253 391.069 87.3081C397.812 86.9513 400.826 82.617 402.995 78.7187C404.74 75.5737 406.445 73.01 409.552 72.8383C412.659 72.6665 414.391 74.8204 414.391 78.0976V104.342C414.391 107.619 412.659 109.958 409.552 110.13C406.445 110.301 404.727 107.91 402.995 104.963C400.826 101.302 397.812 97.2983 391.069 97.6683C385.054 97.9855 382.052 98.144 376.037 98.4612C376.037 111.464 376.037 124.481 376.037 137.484C376.037 140.417 378.126 141.739 380.36 142.954C382.396 144.064 384.154 145.346 384.154 148.28C384.154 151.213 382.079 153.222 378.628 153.407C364.666 154.147 357.686 154.504 343.737 155.204C340.63 155.363 338.383 153.566 338.383 150.632L338.396 150.619Z" fill="#F0E7D2"/>
<path d="M437.369 145.346C437.369 142.413 439.101 141.105 440.819 139.625C442.551 138.144 444.27 136.664 444.27 133.731C444.27 105.293 444.27 76.8688 444.27 48.4312C444.27 45.3258 442.538 44.2158 440.819 42.934C439.087 41.6522 437.369 40.3704 437.369 37.6085C437.369 34.6749 439.616 32.6531 442.723 32.4681C470.422 30.8956 498.12 29.2834 525.818 27.6448C529.97 27.3937 532.376 29.6666 532.376 33.816V57.6417C532.376 60.7471 530.472 63.1125 527.537 63.2843C523.914 63.4957 522.116 59.6107 520.107 54.576C517.304 47.5723 513.536 39.0753 502.311 39.7361C491.39 40.3836 485.93 40.7007 475.023 41.3218V81.7185C481.726 81.3353 485.071 81.1371 491.774 80.7407C498.517 80.3442 501.597 75.9835 503.699 72.0984C505.458 68.8344 507.15 66.3765 510.257 66.1915C513.364 66.0065 515.096 68.1472 515.096 71.4377C515.096 81.93 515.096 87.1893 515.096 97.6817C515.096 100.959 513.364 103.311 510.257 103.496C507.15 103.681 505.458 101.408 503.699 98.3556C501.61 94.7348 498.517 90.7176 491.774 91.1141C485.071 91.5105 481.726 91.6955 475.023 92.0919C475.023 104.818 475.023 117.53 475.023 130.255C475.023 134.577 477.958 137.167 482.453 136.902C490.809 136.413 495 136.176 503.356 135.687C514.58 135.026 518.89 125.419 522.011 117.834C524.417 112.006 526.506 107.725 530.128 107.513C533.064 107.341 534.967 109.469 534.967 112.574C534.967 122.723 534.967 127.798 534.967 137.959C534.967 142.109 532.548 144.659 528.396 144.91C499.839 146.602 471.281 148.267 442.71 149.892C439.603 150.064 437.355 148.293 437.355 145.36L437.369 145.346Z" fill="#F0E7D2"/>
<path d="M542.054 139.254C542.054 136.321 543.786 135.013 545.505 133.519C547.237 132.039 548.956 130.546 548.956 127.612C548.956 99.1748 548.956 70.7504 548.956 42.3128C548.956 39.2074 547.224 38.0974 545.505 36.8156C543.773 35.5338 542.054 34.252 542.054 31.4901C542.054 28.5565 544.302 26.5215 547.409 26.3365C575.107 24.6846 602.806 23.0328 630.504 21.381C634.655 21.1299 637.062 23.4161 637.062 27.5522V51.378C637.062 54.4834 635.158 56.8488 632.223 57.0205C628.6 57.232 626.802 53.3469 624.792 48.3122C621.989 41.3085 618.221 32.8116 606.997 33.4855C596.076 34.133 590.616 34.4634 579.708 35.1109C579.708 48.5765 579.708 62.0421 579.708 75.5076C586.411 75.1112 589.756 74.913 596.459 74.5033C603.202 74.1069 606.283 69.7461 608.385 65.8478C610.143 62.5839 611.836 60.1127 614.943 59.9277C618.049 59.7427 619.781 61.8835 619.781 65.1607C619.781 75.653 619.781 80.9124 619.781 91.4047C619.781 94.6819 618.049 97.0341 614.943 97.2191C611.836 97.4041 610.143 95.1312 608.385 92.0786C606.296 88.4579 603.202 84.4406 596.459 84.8503C589.756 85.2467 586.411 85.4449 579.708 85.8546V124.018C579.708 128.339 582.643 130.916 587.138 130.652C595.494 130.15 599.685 129.899 608.041 129.41C619.266 128.736 623.576 119.142 626.696 111.557C629.089 105.729 631.191 101.448 634.814 101.236C637.749 101.064 639.653 103.192 639.653 106.297C639.653 116.446 639.653 121.521 639.653 131.683C639.653 135.832 637.233 138.382 633.082 138.633C604.524 140.325 575.953 142.029 547.396 143.734C544.289 143.919 542.041 142.148 542.041 139.215L542.054 139.254Z" fill="#F0E7D2"/>
<path d="M675.232 56.0823C674.452 33.0626 695.804 17.2977 717.209 16.3859C733.682 15.4609 750.143 14.5623 766.616 13.677C769.895 13.5052 772.315 14.5888 774.219 17.2449C791.909 42.4185 809.585 67.5921 827.249 92.779C827.249 72.6929 827.249 52.6069 827.249 32.5208C827.249 25.6097 823.362 23.231 819.99 21.3017C817.584 19.9274 815.839 18.5663 815.839 15.9763C815.839 13.0427 818.086 11.0341 821.365 10.8755C828.558 10.5187 832.141 10.3469 839.333 10.0165C842.612 9.85796 844.859 11.6551 844.859 14.5888C844.859 17.1788 843.286 18.6324 841.752 20.086C839.848 21.8832 837.958 23.72 837.958 27.5125C837.958 58.7648 837.958 90.0172 837.958 121.269C837.958 125.234 835.882 127.586 831.744 127.784C827.672 127.982 825.622 128.075 821.55 128.273C818.271 128.432 816.024 127.335 814.12 124.666C793.416 95.3955 772.685 66.1385 751.928 36.9081V109.945C751.928 116.856 755.749 119.023 759.186 121.124C761.579 122.578 763.509 123.833 763.509 126.423C763.509 129.357 761.262 131.379 757.983 131.55C750.658 131.947 746.996 132.145 739.672 132.541C736.565 132.713 734.317 130.942 734.317 127.996C734.317 125.406 736.049 123.78 737.596 122.459C739.487 120.847 741.219 118.812 741.219 115.006V42.9999C741.219 31.2655 732.175 24.3939 715.821 25.0679C701.925 25.6493 686.232 33.9744 686.113 49.5543C686.047 58.1173 690.952 63.086 698.382 62.6631C701.317 62.4913 703.578 61.6324 705.64 60.6942C707.848 59.6899 710.307 58.8706 713.414 58.6988C721.876 58.223 727.231 62.9274 727.231 70.5258C727.231 80.027 718.835 86.4624 706.5 87.5725C688.268 89.2111 675.8 72.7194 675.232 56.0427V56.0823Z" fill="#F0E7D2"/>
<path d="M851.086 68.1865C851.112 34.3574 876.735 5.84047 911.546 5.16653C945.115 4.51902 971.875 29.653 971.835 63.4557C971.795 97.4566 945.181 123.978 911.546 126.04C877.066 128.141 851.06 101.817 851.086 68.1997V68.1865ZM942.814 82.0353C942.378 59.9935 930.995 15.7249 902.741 16.7424C886.77 17.3107 879.842 35.2163 880.106 49.2898C880.516 71.358 892.23 115.362 920.352 114.464C936.296 113.962 943.079 96.0163 942.814 82.0353Z" fill="#F0E7D2"/>
<path d="M1005.69 116.155C996.307 85.0616 986.92 53.9547 977.533 22.8609C976.145 18.4208 973.488 16.6237 970.962 15.289C968.913 14.2054 966.996 12.8311 966.996 9.71249C966.996 6.95066 969.072 4.80991 972.351 4.70419C987.066 4.24168 994.43 4.03025 1009.15 3.64703C1012.42 3.56774 1014.5 5.57635 1014.5 8.3514C1014.5 11.1264 1013.11 12.1836 1011.74 13.4258C1009.66 15.2097 1008.11 16.9673 1009.32 22.1209C1014.96 44.9424 1020.61 67.777 1026.24 90.5985C1034.07 63.0991 1041.89 35.5865 1049.73 8.0871C1050.77 4.4399 1053.36 2.66916 1056.99 2.60308C1060.59 2.53701 1062.39 2.51058 1065.97 2.44451C1069.59 2.37844 1072.01 4.0699 1072.88 7.86246C1079.92 35.1108 1086.94 62.3459 1093.96 89.5942C1100.34 66.5084 1106.74 43.4227 1113.13 20.3502C1114.69 15.1569 1112.42 13.5315 1109.85 12.0911C1108.01 11.0604 1106.04 9.71249 1106.04 6.76565C1106.04 4.00382 1108.29 1.91593 1111.57 1.8895C1118.89 1.83664 1122.56 1.81021 1129.88 1.77057C1133.16 1.75736 1135.24 3.81882 1135.24 6.58065C1135.24 9.85785 1133.68 11.0736 1131.08 12.4611C1128.49 13.8486 1126.07 15.5929 1124.7 20.0859C1115.02 51.5364 1105.34 82.9737 1095.68 114.424C1094.65 117.715 1091.7 119.472 1088.59 119.512C1084.93 119.551 1083.09 119.578 1079.43 119.631C1076.15 119.684 1073.39 117.82 1072.51 114.728C1065.67 88.0217 1058.82 61.3284 1051.96 34.6218C1044.29 61.6059 1036.63 88.5767 1028.98 115.561C1027.95 118.864 1025 120.661 1021.72 120.741C1018.06 120.833 1016.22 120.873 1012.56 120.965C1009.28 121.045 1006.51 119.221 1005.64 116.142L1005.69 116.155Z" fill="#F0E7D2"/>
<path d="M1121.94 140.642C1121.94 138.739 1123.5 137.18 1125.74 135.435C1129.37 132.303 1133.34 128.154 1134.2 120.714C1125.23 120.054 1119.34 113.711 1119.34 104.738C1119.34 95.4085 1125.73 89.3298 1134.72 89.2902C1145.09 89.2505 1152.12 97.3246 1152 109.984C1151.85 124.705 1141.09 142.412 1126.09 143.377C1123.16 143.562 1121.94 142.188 1121.94 140.642Z" fill="#F0E7D2"/>
<path d="M3.98045 265.546C4.64151 233.725 32.1812 213.943 62.6163 213.771C102.306 213.124 141.97 212.014 181.633 210.521C186.895 210.309 190.148 213.19 190.148 217.947V237.227C190.148 240.729 187.887 243.332 184.634 243.464C180.88 243.61 178.976 239.117 176.86 234.003C174.282 227.766 171.096 220.458 163.084 220.735C149.347 221.224 142.485 221.449 128.762 221.845V363.346C128.762 366.848 131.75 368.698 134.526 370.192C137.223 371.632 139.788 373.284 139.788 377.037C139.788 380.538 137.527 382.362 134.024 382.468C123.301 382.785 117.934 382.93 107.211 383.195C103.708 383.274 101.196 381.582 101.196 378.081C101.196 374.328 103.985 372.61 106.709 370.932C109.327 369.333 112.222 367.284 112.222 363.783V222.282C94.6909 222.731 77.1464 223.074 59.6019 223.326C37.2978 223.299 14.2269 239.143 14.5045 263.022C14.6499 275.311 21.3663 289.821 35.8038 289.702C40.3122 289.662 43.3663 288.539 46.579 287.35C49.5009 286.279 52.0923 285.539 55.3447 285.5C62.1139 285.407 66.3711 289.847 66.3711 295.86C66.3711 304.119 58.2798 309.444 45.5742 309.656C21.4721 310.039 3.49127 288.764 3.98045 265.546Z" fill="#F0E7D2"/>
<path d="M190.134 348.176C189.882 308.347 251.361 304.317 279.337 302.084V290.31C279.813 269.232 261.779 255.278 242 256.177C229.149 256.758 218.043 264.568 214.937 277.227C213.244 284.138 211.182 288.922 203.91 289.226C198.397 289.464 194.629 285.817 194.893 280.346C195.898 259.004 225.249 248.79 243.745 247.825C270.426 246.424 295.427 260.775 294.858 290.191V357.056C294.858 362.064 297.714 364.298 300.372 365.764C303.003 367.218 304.629 368.526 304.629 371.024C304.629 375.028 300.12 377.552 294.105 377.882C284.837 378.411 279.324 372.94 279.324 364.43C279.324 362.923 279.324 362.17 279.324 360.677C268.284 373.667 251.321 380.102 234.729 381.001C213.707 382.137 190.279 371.46 190.134 348.163V348.176ZM240.493 370.707C255.235 369.57 270.333 362.791 279.324 350.422V313.858C273.308 312.431 267.266 312.047 259.28 312.417C240.4 313.303 205.153 320.571 205.655 345.269C205.999 362.302 224.667 371.922 240.48 370.707H240.493Z" fill="#F0E7D2"/>
<path d="M317.414 369.293C317.414 366.293 319.476 364.681 321.671 363.28C324.157 361.695 326.682 359.726 326.682 355.973C326.682 310.065 326.682 264.145 326.682 218.238C326.682 213.481 323.562 211.683 321.169 210.058C318.934 208.538 316.66 207.072 316.66 204.072C316.66 201.072 318.921 198.68 322.173 198.482C327.078 198.191 329.538 198.046 334.456 197.742C339.215 197.451 342.23 200.517 342.23 205.777C342.23 255.529 342.23 305.282 342.23 355.034C342.23 358.787 344.755 360.452 347.241 361.734C349.435 362.871 351.498 364.218 351.498 367.231C351.498 370.244 349.488 372.121 346.236 372.319C336.915 372.9 332.261 373.191 322.94 373.746C319.688 373.944 317.427 372.319 317.427 369.319L317.414 369.293Z" fill="#F0E7D2"/>
<path d="M366.769 366.227C366.769 363.227 368.832 361.602 371.026 360.188C373.512 358.589 376.037 356.607 376.037 352.854C376.037 306.946 376.037 261.026 376.037 215.119C376.037 210.362 372.917 208.578 370.524 206.966C368.29 205.459 366.016 204.006 366.016 200.993C366.016 197.98 368.276 195.588 371.529 195.376C376.434 195.059 378.893 194.901 383.811 194.57C388.571 194.253 391.585 197.306 391.585 202.565C391.585 238.376 391.585 274.188 391.585 309.999C410.227 291.208 428.856 272.391 447.458 253.56C450.208 250.613 448.754 249.49 446.704 248.102C445.224 247.098 443.703 245.565 443.703 242.803C443.703 239.804 445.713 237.901 448.965 237.676C456.382 237.147 460.084 236.883 467.501 236.355C470.754 236.117 473.015 237.716 473.015 240.715C473.015 244.217 470 246.688 465.492 249.767C462.239 252.001 458.974 254.736 454.968 258.529C444.034 269.576 433.087 280.61 422.139 291.631C436.326 309.999 450.525 328.367 464.738 346.735C470 353.62 474.852 355.193 478.012 356.052C480.392 356.699 482.018 357.016 482.018 359.514C482.018 363.016 478.012 365.817 472.499 366.214C464.976 366.755 456.462 363.108 449.441 354.083C436.405 337.128 423.369 320.174 410.359 303.207C402.837 310.726 399.082 314.492 391.572 322.011V351.81C391.572 355.563 394.097 357.214 396.583 358.483C398.778 359.606 400.84 360.954 400.84 363.954C400.84 366.954 398.831 368.843 395.578 369.068C386.257 369.689 381.603 370.006 372.282 370.614C369.03 370.825 366.769 369.213 366.769 366.214V366.227Z" fill="#F0E7D2"/>
<path d="M533.131 240.319C533.924 208.446 560.988 186.682 591.767 184.62C609.311 183.312 626.843 182.017 644.387 180.722C648.142 180.444 650.403 182.03 650.403 185.545C650.403 189.06 648.129 191.108 645.643 192.906C643.276 194.61 640.632 196.526 640.632 200.293C640.632 245.209 640.632 290.112 640.632 335.028C640.632 339.032 643.382 341.582 647.401 341.291C666.44 339.904 685.478 338.516 704.53 337.168C712.542 336.6 715.728 329.055 718.558 322.157C720.62 317.135 722.564 312.365 726.319 312.101C729.571 311.876 731.832 314.228 731.832 317.73V337.01C731.832 341.767 728.579 344.991 723.317 345.361C688.982 347.766 654.66 350.264 620.338 352.801C616.834 353.065 614.322 351.493 614.322 347.991C614.322 344.238 616.596 342.415 619.082 340.631C621.448 338.913 624.093 336.759 624.093 333.244C624.093 294.01 624.093 254.776 624.093 215.542C623.709 197.24 604.525 193.025 589.519 194.069C566.012 195.707 544.052 211.512 543.668 236.553C543.483 248.935 550.464 263.392 564.967 262.269C569.211 261.938 572.53 260.604 575.743 259.216C578.665 257.947 581.507 257.036 584.508 256.811C591.278 256.309 595.535 260.498 595.535 266.51C595.535 274.77 587.404 280.544 574.738 281.588C550.9 283.557 532.576 263.445 533.144 240.359L533.131 240.319Z" fill="#F0E7D2"/>
<path d="M744.102 311.611C743.93 271.598 804.853 266.524 833.305 264.066V252.292C833.781 231.254 815.774 217.299 795.969 218.528C783.051 219.335 772.012 227.356 768.905 240.068C767.213 247.032 765.15 251.829 757.878 252.318C752.365 252.688 748.597 249.133 748.862 243.662C749.88 222.281 779.006 211.406 797.727 210.15C824.434 208.366 849.422 222.731 848.84 252.133C848.84 274.426 848.84 296.705 848.84 318.998C848.84 324.007 851.696 326.24 854.353 327.693C856.984 329.147 858.61 330.455 858.61 332.966C858.61 336.97 854.102 339.481 848.086 339.824C838.818 340.366 833.305 334.935 833.305 326.412V322.659C822.266 335.701 805.316 342.282 788.71 343.458C767.887 344.925 744.208 334.909 744.115 311.611H744.102ZM794.461 333.072C809.216 331.711 824.302 324.813 833.305 312.391C833.305 297.763 833.305 290.455 833.305 275.827C827.29 274.426 821.247 274.082 813.262 274.545C794.157 275.642 759.174 283.583 759.637 308.308C759.954 325.341 778.781 334.525 794.461 333.072Z" fill="#F0E7D2"/>
<path d="M885.661 310.7C885.661 279.223 885.661 247.759 885.661 216.282C878.641 216.652 875.137 216.837 868.117 217.233C865.605 217.366 863.859 215.714 863.859 213.216C863.859 209.714 866.861 208.789 870.88 208.076C883.903 205.354 889.667 198.548 892.43 185.637C893.184 181.092 894.189 177.788 897.441 177.616C899.702 177.497 901.196 179.176 901.196 181.435V206.728C914.219 206.067 920.737 205.75 933.773 205.155C936.774 205.023 938.281 206.701 938.281 209.212C938.281 211.961 936.774 213.784 933.773 213.93C920.75 214.524 914.232 214.842 901.196 215.502C901.196 246.385 901.196 277.28 901.196 308.162C901.196 319.183 907.463 325.87 917.233 325.407C922.746 325.143 927.466 322.712 931.01 320.254C933.495 318.536 935.769 316.778 937.528 316.699C939.286 316.62 940.278 317.822 940.278 319.58C940.278 325.341 928.789 335.411 912.963 336.375C897.798 337.3 885.278 326.213 885.648 310.713L885.661 310.7Z" fill="#F0E7D2"/>
<path d="M944.785 268.519C944.825 233.17 971.307 201.204 1007.68 199.751C1028.28 198.932 1053.99 210.745 1054.28 234.531C1054.77 273.435 986.115 273.223 961.325 274.822C964.828 300.274 983.893 321.945 1010.93 320.849C1026.08 320.241 1039.92 314.003 1048.52 301.278C1050.78 298.225 1052.27 296.177 1054.03 296.137C1055.29 296.111 1056.42 297.247 1056.29 299.6C1055.02 320.65 1025.96 331.684 1007.18 332.504C970.249 334.089 944.759 303.723 944.785 268.519ZM960.571 266.854C981.051 265.506 1038.76 266.643 1038.75 234.161C1038.75 217.035 1022.59 207.362 1006.92 208.05C978.38 209.292 960.254 235.972 960.32 262.863C960.32 264.105 960.32 265.612 960.571 266.854Z" fill="#F0E7D2"/>
<path d="M1070.32 323.61C1070.32 320.611 1072.38 319.078 1074.58 317.77C1077.06 316.29 1079.59 314.426 1079.59 310.673V220.511C1079.59 215.754 1076.47 213.824 1074.07 212.093C1071.84 210.481 1069.57 208.922 1069.57 205.922C1069.57 202.922 1071.83 200.623 1075.08 200.557C1079.98 200.464 1082.44 200.425 1087.36 200.359C1092.12 200.293 1095.14 203.504 1095.14 208.763V223.537C1102.3 209.226 1116.03 197.597 1132.47 197.412C1142.92 197.293 1149.01 202.129 1149.01 208.895C1149.01 214.657 1144.76 218.912 1137.99 218.925C1134.73 218.925 1131.96 217.947 1129.97 216.705C1127.22 214.987 1124.91 213.93 1120.96 214.009C1107.21 214.26 1098.68 228.492 1095.15 240.319C1095.15 263.696 1095.15 287.072 1095.15 310.435C1095.15 314.188 1098.14 315.827 1100.66 317.122C1103.1 318.377 1105.42 320.069 1105.42 323.082C1105.42 326.081 1103.16 327.865 1100.16 327.905C1090.44 328.024 1085.58 328.103 1075.86 328.275C1072.61 328.328 1070.35 326.623 1070.35 323.624L1070.32 323.61Z" fill="#F0E7D2"/>
</g>
<g clip-path="url(#clip1_600_190)">
<path d="M332.174 410.128C332.322 412.882 333.813 414.327 336.465 414.314C339.188 414.308 341.108 412.618 341.102 410.188C341.098 408.083 339.988 407.127 336.194 405.861C333.334 404.909 332.376 404.428 331.289 403.449C330.052 402.336 329.399 400.73 329.396 398.886C329.387 394.786 332.317 391.986 336.6 391.969C340.882 391.944 343.681 394.645 343.793 398.848C342.574 398.85 341.965 398.859 340.746 398.87C340.704 397.635 340.56 397.058 340.163 396.37C339.472 395.319 338.125 394.68 336.566 394.684C334.175 394.689 332.469 396.331 332.474 398.658C332.477 399.822 332.993 400.834 333.857 401.449C334.618 401.986 335.276 402.277 337.739 403.135C340.314 404.032 341.55 404.67 342.534 405.713C343.589 406.827 344.17 408.345 344.173 409.984C344.182 414.155 341.101 417.011 336.574 417.029C333.487 417.043 331.387 415.963 330.108 413.789C329.528 412.809 329.273 411.796 329.27 410.633L329.269 410.126C330.433 410.124 331.01 410.122 332.174 410.12L332.174 410.128Z" fill="#F0E7D2"/>
<path d="M350.203 413.089C350.244 413.92 350.459 414.102 351.472 414.092C351.978 414.091 352.231 414.09 352.738 414.081L352.743 416.472C351.714 416.482 351.2 416.491 350.171 416.501C348.216 416.481 347.446 415.763 347.442 413.911L347.418 402.236C346.491 402.238 346.025 402.247 345.098 402.256L345.093 399.826C346.019 399.824 346.486 399.816 347.412 399.806L347.401 394.55C348.501 394.548 349.055 394.539 350.156 394.528L350.167 399.784C351.18 399.782 351.687 399.773 352.708 399.763L352.713 402.193C351.7 402.203 351.193 402.212 350.172 402.214L350.195 413.097L350.203 413.089Z" fill="#F0E7D2"/>
<path d="M367.874 399.564L367.896 410.266C367.901 412.553 367.469 413.828 366.236 414.971C365.004 416.113 363.303 416.75 361.42 416.778C359.536 416.806 357.777 416.168 356.596 415.063C355.469 414.004 354.92 412.47 354.916 410.436L354.893 399.734C355.993 399.724 356.547 399.715 357.647 399.705L357.67 410.335C357.675 412.694 359.198 414.345 361.414 414.316C362.578 414.298 363.709 413.813 364.388 413.004C364.933 412.354 365.113 411.649 365.11 410.311L365.087 399.61C366.203 399.591 366.765 399.582 367.881 399.572L367.874 399.564Z" fill="#F0E7D2"/>
<path d="M384.289 391.812C385.389 391.794 385.943 391.777 387.044 391.759C387.061 399.824 387.078 407.89 387.095 415.948C385.995 415.974 385.441 415.983 384.341 416.001L384.335 413.136C382.669 415.45 380.899 416.467 378.358 416.512C373.751 416.593 370.483 413.054 370.472 407.973C370.461 402.891 373.793 399.069 378.321 398.988C380.79 398.943 382.676 399.818 384.311 401.817L384.289 391.804L384.289 391.812ZM373.369 407.967C373.377 411.631 375.598 414.167 378.748 414.113C381.978 414.059 384.331 411.323 384.323 407.698C384.315 403.922 382.101 401.394 378.904 401.448C375.603 401.511 373.361 404.159 373.369 407.967Z" fill="#F0E7D2"/>
<path d="M401.244 398.916C402.447 398.889 403.048 398.872 404.251 398.846C400.945 407.18 397.638 415.514 394.331 423.848C393.128 423.874 392.527 423.891 391.323 423.91C392.709 420.456 393.402 418.729 394.788 415.275C392.392 408.845 391.198 405.626 388.809 399.188C389.981 399.161 390.574 399.152 391.746 399.126C393.553 404.045 394.46 406.513 396.268 411.433C398.26 406.426 399.252 403.922 401.244 398.908L401.244 398.916Z" fill="#F0E7D2"/>
<path d="M409.212 394.039C409.214 395.02 408.416 395.797 407.434 395.823C406.453 395.849 405.692 395.107 405.689 394.093C405.687 393.08 406.445 392.295 407.466 392.269C408.448 392.243 409.209 393.025 409.212 394.039ZM408.861 415.45C407.761 415.476 407.207 415.493 406.107 415.519C406.093 408.831 406.086 405.491 406.071 398.802C407.172 398.776 407.726 398.759 408.826 398.733C408.84 405.421 408.847 408.762 408.861 415.45Z" fill="#F0E7D2"/>
<path d="M415.965 398.536C415.967 399.478 415.968 399.953 415.97 400.895C417.414 398.897 418.869 398.055 420.934 397.995C422.454 397.952 423.872 398.416 424.815 399.261C425.87 400.201 426.237 401.395 426.242 403.683C426.251 408.195 426.256 410.45 426.266 414.962C425.165 414.996 424.611 415.013 423.511 415.047C423.502 410.781 423.498 408.652 423.489 404.385C423.485 402.897 423.302 402.106 422.865 401.537C422.357 400.865 421.375 400.456 420.251 400.49C419.016 400.524 417.893 401.041 417.064 401.993C416.283 402.881 415.976 403.689 415.979 405.066C415.987 409.142 415.992 411.185 416 415.261C414.9 415.295 414.346 415.304 413.246 415.338C413.232 408.65 413.225 405.309 413.21 398.621C414.31 398.595 414.864 398.578 415.965 398.544L415.965 398.536Z" fill="#F0E7D2"/>
<path d="M442.804 397.719C443.904 397.685 444.458 397.66 445.558 397.626C445.572 404.354 445.58 407.726 445.594 414.454C445.6 417.248 444.899 419.157 443.399 420.656C441.914 422.139 439.779 422.991 437.238 423.068C434.119 423.169 431.648 422.225 429.831 420.25C430.581 419.472 430.961 419.084 431.711 418.306C432.472 419.08 432.837 419.396 433.313 419.704C434.256 420.256 435.816 420.601 437.233 420.558C438.974 420.499 440.642 419.831 441.582 418.784C442.411 417.856 442.844 416.494 442.84 414.753L442.833 411.238C441.207 413.759 439.287 414.95 436.675 415.027C432.25 415.171 428.942 411.529 428.931 406.566C428.926 403.883 429.91 401.277 431.56 399.627C432.903 398.294 434.714 397.57 436.851 397.502C439.392 397.418 441.095 398.308 442.81 400.568C442.807 399.421 442.806 398.851 442.804 397.703L442.804 397.719ZM431.836 406.378C431.843 409.971 434.168 412.578 437.326 412.477C438.925 412.426 440.483 411.615 441.564 410.307C442.291 409.45 442.754 407.803 442.75 406.133C442.746 403.956 442.419 402.801 441.435 401.751C440.42 400.661 438.859 399.983 437.371 400.034C434.11 400.136 431.828 402.745 431.836 406.378Z" fill="#F0E7D2"/>
<path d="M475.35 404.956C475.361 409.855 471.593 413.805 466.813 413.99C461.843 414.174 458.352 410.675 458.341 405.522C458.33 400.338 461.805 396.658 466.879 396.465C471.809 396.28 475.339 399.803 475.35 404.956ZM461.175 405.453C461.183 409.149 463.476 411.575 466.879 411.441C470.179 411.315 472.532 408.65 472.525 405.025C472.517 401.289 470.264 398.872 466.892 398.998C463.449 399.124 461.167 401.717 461.175 405.453Z" fill="#F0E7D2"/>
<path d="M481.135 396.308L481.141 399.133C481.645 397.913 482.008 397.39 482.656 396.859C483.485 396.176 484.648 395.762 485.843 395.712C486.104 395.703 486.231 395.695 486.492 395.687L486.498 398.481C486.205 398.458 485.92 398.466 485.738 398.483C484.25 398.541 482.946 399.296 482.117 400.548C481.399 401.626 481.14 402.616 481.144 404.54C481.152 407.935 481.155 409.629 481.162 413.025C480.062 413.067 479.508 413.092 478.408 413.133C478.394 406.445 478.387 403.105 478.373 396.416C479.473 396.375 480.027 396.35 481.127 396.308L481.135 396.308Z" fill="#F0E7D2"/>
<path d="M501.268 413.94C501.273 416.227 500.857 417.621 499.862 418.755C498.851 419.905 497.364 420.605 495.655 420.672C495.362 420.68 495.22 420.688 494.927 420.705L494.921 418.093C495.079 418.093 495.159 418.084 495.317 418.076C497.272 417.922 498.472 416.423 498.498 414.064C498.482 406.679 498.475 402.991 498.459 395.606C499.559 395.556 500.113 395.539 501.213 395.489C501.229 402.874 501.237 406.563 501.252 413.948L501.268 413.94ZM501.615 390.779C501.617 391.76 500.819 392.554 499.838 392.595C498.856 392.637 498.095 391.91 498.093 390.889C498.091 389.876 498.849 389.083 499.87 389.033C500.851 388.992 501.613 389.758 501.615 390.771L501.615 390.779Z" fill="#F0E7D2"/>
<path d="M518.127 394.741C518.137 399.023 518.141 401.16 518.15 405.442C518.155 407.73 517.722 409.013 516.49 410.195C515.258 411.377 513.558 412.069 511.674 412.152C509.79 412.236 508.032 411.662 506.85 410.588C505.724 409.569 505.175 408.05 505.17 406.016C505.161 401.734 505.157 399.597 505.148 395.315C506.248 395.265 506.802 395.24 507.902 395.198C507.911 399.449 507.915 401.578 507.925 405.828C507.93 408.187 509.453 409.79 511.669 409.691C512.832 409.641 513.963 409.116 514.642 408.291C515.187 407.625 515.367 406.921 515.364 405.575C515.355 401.293 515.351 399.156 515.342 394.874C516.458 394.824 517.019 394.799 518.135 394.749L518.127 394.741Z" fill="#F0E7D2"/>
<path d="M529.779 398.785L529.778 398.603C529.775 397.043 528.507 396.12 526.583 396.211C524.731 396.294 523.578 397.294 523.581 398.743C523.584 400.191 524.313 400.712 527.323 401.402C529.453 401.888 530.586 402.377 531.387 403.135C532.22 403.932 532.737 405.103 532.739 406.338C532.745 409.242 530.359 411.305 526.806 411.471C522.999 411.646 520.85 409.964 520.558 406.601C521.642 406.551 522.189 406.526 523.281 406.476C523.467 408.352 524.704 409.315 526.801 409.216C528.685 409.132 529.917 408.093 529.914 406.605C529.911 405.117 528.936 404.493 526.101 403.874C522.498 403.098 520.84 401.606 520.835 399.073C520.829 396.168 523.183 394.105 526.697 393.947C530.251 393.789 532.392 395.502 532.549 398.652C531.449 398.702 530.895 398.727 529.794 398.777L529.779 398.785Z" fill="#F0E7D2"/>
<path d="M538.756 407.109C538.797 407.94 539.011 408.113 540.024 408.064C540.531 408.039 540.784 408.03 541.291 408.006L541.296 410.396C540.267 410.446 539.752 410.471 538.723 410.512C536.769 410.564 535.999 409.877 535.995 408.025C535.985 403.355 535.98 401.02 535.971 396.35C535.045 396.391 534.578 396.416 533.652 396.458C533.65 395.484 533.648 395.001 533.646 394.028C534.572 393.986 535.039 393.961 535.965 393.92C535.961 391.814 535.959 390.762 535.954 388.664C537.054 388.614 537.608 388.589 538.708 388.54C538.713 390.645 538.715 391.698 538.72 393.795C539.733 393.746 540.239 393.721 541.26 393.679C541.262 394.653 541.263 395.135 541.265 396.109C540.252 396.159 539.746 396.183 538.725 396.225C538.734 400.579 538.739 402.755 538.748 407.109L538.756 407.109Z" fill="#F0E7D2"/>
<path d="M561.476 397.293L561.476 397.111C561.472 395.551 560.204 394.636 558.281 394.727C556.429 394.818 555.275 395.81 555.278 397.266C555.281 398.723 556.011 399.236 559.02 399.918C561.15 400.404 562.283 400.884 563.084 401.643C563.917 402.44 564.434 403.611 564.436 404.845C564.443 407.75 562.057 409.821 558.503 409.987C554.696 410.169 552.548 408.496 552.255 405.132C553.34 405.083 553.886 405.058 554.978 405C555.164 406.876 556.401 407.831 558.498 407.731C560.382 407.64 561.614 406.601 561.611 405.113C561.608 403.625 560.633 403.001 557.798 402.39C554.195 401.622 552.538 400.137 552.532 397.597C552.526 394.692 554.881 392.629 558.395 392.455C561.948 392.289 564.089 393.994 564.246 397.144C563.146 397.194 562.592 397.227 561.492 397.277L561.476 397.293Z" fill="#F0E7D2"/>
<path d="M570.629 387.609C570.632 388.59 569.834 389.392 568.852 389.433C567.871 389.483 567.11 388.756 567.107 387.743C567.105 386.73 567.863 385.929 568.884 385.879C569.866 385.83 570.627 386.596 570.629 387.609ZM570.279 409.02C569.179 409.07 568.625 409.103 567.525 409.153C567.511 402.465 567.504 399.124 567.489 392.436C568.59 392.386 569.144 392.353 570.244 392.303C570.258 398.992 570.265 402.332 570.279 409.02Z" fill="#F0E7D2"/>
<path d="M577.383 391.956C577.385 393.175 577.387 393.784 577.389 395.003C578.983 392.459 580.682 391.395 583.476 391.262C588.122 391.039 591.351 394.435 591.362 399.509C591.373 404.765 588.151 408.555 583.513 408.779C582.208 408.845 581.012 408.61 579.847 408.09C578.833 407.633 578.326 407.222 577.413 406.069L577.435 416.517C576.335 416.567 575.781 416.599 574.681 416.649C574.663 408.465 574.646 400.281 574.629 392.096C575.729 392.046 576.283 392.014 577.383 391.964L577.383 391.956ZM577.401 400.591C577.409 404.256 579.63 406.579 582.931 406.413C586.231 406.256 588.434 403.568 588.425 399.761C588.421 397.806 587.943 396.334 586.967 395.299C585.984 394.257 584.494 393.682 583.014 393.749C579.675 393.914 577.401 396.673 577.409 400.583L577.401 400.591Z" fill="#F0E7D2"/>
<path d="M597.113 390.995C597.116 392.214 597.117 392.824 597.12 394.043C598.713 391.499 600.413 390.434 603.207 390.302C607.852 390.078 611.081 393.475 611.092 398.549C611.103 403.804 607.882 407.595 603.244 407.818C601.938 407.884 600.742 407.649 599.578 407.129C598.564 406.672 598.056 406.262 597.143 405.108L597.166 415.556C596.066 415.614 595.511 415.639 594.411 415.689C594.394 407.505 594.377 399.32 594.359 391.136C595.459 391.086 596.013 391.053 597.113 391.003L597.113 390.995ZM597.132 399.631C597.14 403.296 599.361 405.618 602.653 405.453C605.953 405.295 608.164 402.607 608.156 398.8C608.152 396.845 607.674 395.374 606.698 394.339C605.714 393.296 604.225 392.722 602.745 392.788C599.405 392.954 597.131 395.713 597.14 399.631L597.132 399.631Z" fill="#F0E7D2"/>
<path d="M617.229 385.341C617.231 386.322 616.433 387.123 615.452 387.165C614.471 387.215 613.709 386.488 613.707 385.475C613.705 384.462 614.463 383.661 615.484 383.611C616.465 383.562 617.227 384.328 617.229 385.341ZM616.879 406.752C615.779 406.802 615.225 406.835 614.125 406.885C614.11 400.197 614.103 396.856 614.089 390.168C615.189 390.118 615.743 390.085 616.843 390.035C616.858 396.724 616.865 400.064 616.879 406.752Z" fill="#F0E7D2"/>
<path d="M623.99 389.688C623.992 390.63 623.993 391.105 623.995 392.047C625.439 390.017 626.894 389.151 628.96 389.052C630.479 388.978 631.897 389.418 632.841 390.247C633.895 391.171 634.262 392.357 634.267 394.637C634.276 399.149 634.281 401.404 634.291 405.916C633.191 405.966 632.637 405.999 631.537 406.049C631.528 401.782 631.523 399.653 631.514 395.387C631.511 393.899 631.327 393.108 630.891 392.554C630.383 391.899 629.4 391.505 628.276 391.555C627.042 391.613 625.919 392.153 625.09 393.121C624.308 394.025 624.001 394.841 624.004 396.218C624.013 400.294 624.017 402.336 624.026 406.413C622.926 406.463 622.372 406.495 621.272 406.545C621.257 399.857 621.25 396.517 621.236 389.828C622.336 389.779 622.89 389.746 623.99 389.696L623.99 389.688Z" fill="#F0E7D2"/>
<path d="M650.821 388.404C651.921 388.354 652.475 388.329 653.575 388.272C653.59 394.999 653.597 398.371 653.611 405.099C653.617 407.893 652.917 409.81 651.416 411.333C649.931 412.84 647.796 413.716 645.255 413.84C642.137 413.989 639.666 413.092 637.849 411.148C638.599 410.355 638.978 409.967 639.729 409.174C640.49 409.932 640.855 410.248 641.33 410.547C642.273 411.084 643.833 411.405 645.25 411.338C646.991 411.256 648.66 410.563 649.6 409.501C650.429 408.557 650.861 407.195 650.857 405.453L650.85 401.939C649.225 404.483 647.304 405.698 644.692 405.823C640.268 406.03 636.96 402.451 636.949 397.489C636.944 394.805 637.927 392.183 639.578 390.51C640.921 389.153 642.732 388.397 644.869 388.298C647.409 388.174 649.113 389.041 650.827 391.277C650.825 390.13 650.824 389.56 650.821 388.412L650.821 388.404ZM639.854 397.229C639.861 400.823 642.186 403.39 645.344 403.241C646.942 403.166 648.5 402.332 649.582 401.008C650.308 400.143 650.771 398.488 650.768 396.818C650.763 394.641 650.436 393.494 649.453 392.452C648.437 391.377 646.876 390.724 645.388 390.79C642.128 390.947 639.846 393.596 639.854 397.221L639.854 397.229Z" fill="#F0E7D2"/>
<path d="M659.336 398.747C659.285 393.673 659.506 393.079 662.406 390.659C664.436 389.008 665.012 388.033 665.008 386.371C665.004 384.163 663.481 382.63 661.407 382.73C659.413 382.821 657.928 384.304 657.932 386.188L657.933 386.663C656.872 386.713 656.342 386.738 655.289 386.788C655.321 382.909 657.635 380.363 661.37 380.189C665.106 380.015 667.834 382.542 667.842 386.167C667.847 388.558 666.822 390.309 664.23 392.388C662.278 393.952 662.026 394.483 662.031 396.913C662.031 397.023 662.033 397.926 662.074 398.614C660.99 398.664 660.444 398.689 659.352 398.739L659.336 398.747ZM662.677 403.014C662.679 404.067 661.85 404.9 660.797 404.949C659.713 404.999 658.912 404.241 658.91 403.149C658.907 402.056 659.705 401.224 660.789 401.174C661.874 401.124 662.675 401.882 662.677 403.006L662.677 403.014Z" fill="#F0E7D2"/>
<path d="M700.06 399.254C697.637 402.22 694.956 403.571 691.221 403.729C687.849 403.879 684.981 402.769 682.911 400.541C680.872 398.345 679.67 395.102 679.662 391.723C679.647 384.472 684.535 378.953 691.207 378.662C693.383 378.57 695.522 379.056 697.265 380.034C698.248 380.61 698.898 381.162 700.096 382.418C699.258 383.235 698.84 383.648 697.995 384.465C695.631 382.135 693.856 381.339 691.276 381.455C686.345 381.672 682.761 385.93 682.773 391.589C682.785 397.209 686.458 401.143 691.46 400.927C694.111 400.81 696.135 399.674 698.014 397.311C698.831 398.085 699.236 398.48 700.052 399.254L700.06 399.254Z" fill="#F0E7D2"/>
<path d="M718.112 393.865C718.122 398.765 714.355 402.722 709.575 402.915C704.604 403.115 701.114 399.64 701.103 394.487C701.092 389.334 704.567 385.599 709.64 385.39C714.571 385.19 718.101 388.712 718.112 393.865ZM703.937 394.41C703.945 398.106 706.237 400.515 709.641 400.374C712.941 400.24 715.294 397.568 715.286 393.942C715.278 390.206 713.025 387.797 709.654 387.931C706.211 388.073 703.929 390.674 703.937 394.41Z" fill="#F0E7D2"/>
<path d="M723.903 385.225L723.908 387.544C725.17 385.571 726.585 384.721 728.651 384.645C730.938 384.561 732.389 385.484 733.153 387.525C734.383 385.337 735.94 384.376 738.442 384.284C740.365 384.216 741.814 384.783 742.688 385.905C743.481 386.925 743.705 387.866 743.71 390.51C743.72 394.792 743.724 396.929 743.733 401.211C742.633 401.253 742.079 401.27 740.979 401.312C740.97 397.291 740.966 395.281 740.958 391.268C740.953 389.234 740.881 388.767 740.476 388.095C739.968 387.241 738.874 386.737 737.568 386.787C735.138 386.879 733.796 388.56 733.803 391.536C733.811 395.557 733.816 397.568 733.824 401.581C732.724 401.623 732.17 401.64 731.07 401.681C731.061 397.676 731.057 395.674 731.048 391.669C731.045 390.038 730.877 389.2 730.496 388.496C730.011 387.602 729.005 387.098 727.77 387.148C725.34 387.24 723.895 389.04 723.902 391.937C723.91 395.942 723.914 397.945 723.923 401.95C722.823 401.992 722.269 402.017 721.169 402.059C721.154 395.37 721.147 392.03 721.133 385.342C722.233 385.3 722.787 385.275 723.887 385.233L723.903 385.225Z" fill="#F0E7D2"/>
<path d="M749.598 393.529C749.744 394.938 749.998 395.657 750.697 396.535C751.784 397.981 753.385 398.729 755.197 398.67C757.263 398.602 759.223 397.411 760.193 395.644C761.167 395.974 761.651 396.139 762.625 396.47C761.254 399.306 758.392 401.101 755.203 401.211C750.232 401.38 746.671 397.873 746.66 392.799C746.649 387.646 750.155 383.863 755.055 383.703C759.914 383.542 763.547 387.088 763.557 391.988C763.558 392.201 763.559 392.676 763.52 393.08C757.948 393.258 755.162 393.351 749.59 393.537L749.598 393.529ZM760.619 391.131C760.505 389.825 760.251 389.113 759.671 388.299C758.615 386.916 756.912 386.105 755.06 386.164C753.208 386.224 751.547 387.153 750.569 388.635C750.064 389.452 749.844 390.149 749.633 391.495C754.026 391.343 756.226 391.267 760.619 391.131Z" fill="#F0E7D2"/>
<path d="M778.887 401.825C778.892 404.113 778.476 405.499 777.481 406.617C776.47 407.751 774.983 408.427 773.274 408.478C772.981 408.486 772.838 408.495 772.546 408.503L772.54 405.891C772.698 405.891 772.778 405.891 772.936 405.882C774.891 405.752 776.091 404.269 776.117 401.91C776.102 394.525 776.094 390.837 776.078 383.452C777.178 383.418 777.732 383.401 778.832 383.375L778.872 401.833L778.887 401.825ZM779.234 378.672C779.236 379.654 778.438 380.439 777.457 380.465C776.475 380.491 775.714 379.756 775.712 378.735C775.71 377.714 776.468 376.937 777.489 376.911C778.47 376.885 779.232 377.659 779.234 378.672Z" fill="#F0E7D2"/>
<path d="M798.913 391.263C798.923 396.163 795.156 400.057 790.376 400.178C785.405 400.307 781.915 396.777 781.904 391.624C781.893 386.471 785.368 382.783 790.441 382.654C795.372 382.524 798.902 386.11 798.913 391.263ZM784.737 391.578C784.745 395.275 787.038 397.716 790.441 397.629C793.742 397.543 796.095 394.91 796.087 391.285C796.079 387.549 793.826 385.1 790.454 385.186C787.011 385.273 784.729 387.842 784.737 391.578Z" fill="#F0E7D2"/>
<path d="M805.091 378.031C805.093 379.013 804.295 379.79 803.313 379.808C802.332 379.826 801.57 379.084 801.568 378.071C801.566 377.057 802.324 376.28 803.345 376.254C804.327 376.236 805.088 377.01 805.091 378.031ZM804.74 399.435C803.64 399.461 803.086 399.47 801.986 399.496C801.972 392.808 801.965 389.468 801.95 382.779C803.051 382.753 803.605 382.744 804.705 382.718C804.719 389.407 804.726 392.747 804.74 399.435Z" fill="#F0E7D2"/>
<path d="M811.845 382.569L811.85 384.927C813.295 382.938 814.749 382.111 816.815 382.075C818.335 382.048 819.753 382.528 820.696 383.381C821.751 384.336 822.118 385.531 822.123 387.818L822.147 399.098C821.046 399.116 820.492 399.125 819.392 399.143C819.383 394.877 819.379 392.747 819.37 388.481C819.366 386.993 819.183 386.202 818.746 385.625C818.238 384.953 817.256 384.528 816.132 384.546C814.897 384.573 813.774 385.082 812.945 386.025C812.163 386.913 811.856 387.714 811.859 389.091C811.868 393.167 811.872 395.209 811.881 399.286C810.781 399.304 810.227 399.321 809.127 399.339C809.112 392.651 809.105 389.31 809.091 382.622C810.191 382.596 810.745 382.587 811.845 382.569Z" fill="#F0E7D2"/>
<path d="M848.626 382.023L848.648 392.725C848.653 395.012 848.22 396.28 846.988 397.422C845.756 398.556 844.055 399.193 842.172 399.213C840.288 399.233 838.529 398.603 837.347 397.49C836.221 396.432 835.672 394.897 835.668 392.871L835.645 382.17C836.745 382.151 837.299 382.15 838.399 382.132L838.422 392.762C838.427 395.121 839.95 396.772 842.166 396.744C843.33 396.733 844.461 396.248 845.14 395.439C845.684 394.789 845.865 394.092 845.862 392.746L845.839 382.045C846.955 382.035 847.517 382.026 848.633 382.015L848.626 382.023Z" fill="#F0E7D2"/>
<path d="M860.271 386.51L860.271 386.328C860.267 384.769 858.999 383.798 857.075 383.81C855.223 383.822 854.07 384.774 854.073 386.223C854.076 387.671 854.805 388.224 857.815 389.025C859.945 389.598 861.078 390.134 861.879 390.924C862.712 391.753 863.229 392.947 863.232 394.182C863.238 397.087 860.852 399.055 857.298 399.07C853.491 399.094 851.342 397.334 851.05 393.962C852.134 393.96 852.68 393.951 853.773 393.941C853.959 395.824 855.196 396.835 857.293 396.814C859.177 396.802 860.41 395.818 860.406 394.33C860.403 392.842 859.428 392.172 856.593 391.449C852.982 390.531 851.332 388.983 851.327 386.45C851.321 383.545 853.675 381.569 857.189 381.546C860.743 381.523 862.884 383.331 863.041 386.481C861.941 386.483 861.387 386.484 860.287 386.487L860.271 386.51Z" fill="#F0E7D2"/>
<path d="M869.839 397.065C869.841 398.117 869.012 398.918 867.959 398.921C866.875 398.923 866.074 398.125 866.071 397.041C866.069 395.956 866.867 395.155 867.951 395.145C869.036 395.135 869.837 395.941 869.839 397.065ZM869.355 392.791C868.239 392.794 867.677 392.795 866.561 392.797L866.522 374.442C867.638 374.439 868.2 374.438 869.316 374.436L869.355 392.791Z" fill="#F0E7D2"/>
<path d="M355.84 435.778C357.099 435.768 357.732 435.759 358.998 435.74C356.554 443.835 354.101 451.921 351.649 460.016C350.573 460.026 350.042 460.035 348.966 460.038C346.821 452.451 345.744 448.662 343.591 441.076C341.462 448.695 340.393 452.505 338.265 460.116C337.188 460.118 336.658 460.119 335.581 460.129C333.095 452.077 330.616 444.016 328.129 435.964C329.419 435.961 330.068 435.96 331.359 435.957C333.583 443.361 334.691 447.063 336.915 454.467C339.044 447.046 340.113 443.331 342.242 435.902C343.39 435.9 343.96 435.891 345.107 435.88C347.197 443.308 348.242 447.018 350.331 454.439C352.532 446.978 353.64 443.239 355.84 435.778Z" fill="#F0E7D2"/>
<path d="M361.385 452.428C361.53 453.845 361.785 454.565 362.484 455.457C363.571 456.927 365.172 457.708 366.984 457.68C369.05 457.652 371.011 456.492 371.98 454.741C372.955 455.087 373.438 455.26 374.412 455.606C373.041 458.419 370.179 460.174 366.99 460.221C362.019 460.295 358.457 456.709 358.447 451.627C358.436 446.546 361.942 442.77 366.842 442.705C371.701 442.631 375.334 446.233 375.345 451.132C375.345 451.354 375.346 451.821 375.307 452.225C369.735 452.316 366.949 452.361 361.377 452.436L361.385 452.428ZM372.406 450.236C372.293 448.93 372.038 448.211 371.458 447.389C370.403 445.99 368.699 445.146 366.847 445.174C364.995 445.202 363.334 446.092 362.356 447.558C361.851 448.359 361.631 449.056 361.42 450.402C365.813 450.345 368.013 450.317 372.406 450.244L372.406 450.236Z" fill="#F0E7D2"/>
<path d="M390.639 445.005C392.154 443.086 393.68 442.22 395.675 442.176C397.123 442.142 398.652 442.708 399.556 443.609C400.445 444.493 400.867 445.791 400.871 447.928L400.895 459.175C399.795 459.201 399.241 459.218 398.141 459.237L398.117 448.139C398.112 445.852 396.986 444.612 394.991 444.655C393.725 444.682 392.594 445.215 391.733 446.214C390.904 447.173 390.645 448.013 390.648 449.612L390.669 459.403C389.569 459.429 389.015 459.438 387.915 459.464L387.863 435.275C388.964 435.249 389.518 435.24 390.618 435.214L390.639 445.005Z" fill="#F0E7D2"/>
<path d="M417.766 442.011C418.866 441.977 419.42 441.968 420.52 441.934C420.534 448.622 420.541 451.962 420.556 458.651C419.455 458.685 418.901 458.694 417.801 458.728L417.794 455.498C416.13 458.051 414.248 459.226 411.708 459.287C407.101 459.407 403.833 455.86 403.822 450.787C403.811 445.713 407.143 441.891 411.75 441.77C414.29 441.702 416.137 442.632 417.78 444.765C417.777 443.665 417.776 443.111 417.774 442.011L417.766 442.011ZM408.087 446.337C407.226 447.558 406.715 449.166 406.719 450.796C406.726 454.35 409.051 456.973 412.098 456.896C415.256 456.81 417.822 453.804 417.815 450.211C417.807 446.617 415.483 444.145 412.143 444.239C410.33 444.29 409.065 444.95 408.087 446.337Z" fill="#F0E7D2"/>
<path d="M437.601 441.415C435.091 448.188 433.84 451.57 431.329 458.335C430.165 458.369 429.588 458.386 428.424 458.42C425.956 451.809 424.723 448.503 422.263 441.883C423.426 441.849 424.004 441.832 425.167 441.797C427.062 446.851 428.009 449.374 429.912 454.42C431.848 449.255 432.808 446.673 434.744 441.5C435.892 441.466 436.462 441.449 437.609 441.407L437.601 441.415Z" fill="#F0E7D2"/>
<path d="M440.596 450.566C440.742 451.975 440.996 452.694 441.695 453.579C442.782 455.034 444.383 455.774 446.195 455.715C448.261 455.647 450.221 454.456 451.191 452.681C452.165 453.011 452.649 453.176 453.623 453.499C452.252 456.343 449.39 458.146 446.201 458.256C441.23 458.425 437.669 454.91 437.658 449.836C437.647 444.683 441.153 440.908 446.053 440.747C450.912 440.579 454.545 444.117 454.555 449.009C454.556 449.23 454.557 449.697 454.518 450.101C448.946 450.295 446.16 450.396 440.588 450.574L440.596 450.566ZM451.617 448.16C451.503 446.862 451.249 446.143 450.669 445.329C449.613 443.953 447.91 443.142 446.058 443.201C444.206 443.261 442.546 444.19 441.567 445.672C441.062 446.489 440.842 447.186 440.631 448.532C445.024 448.388 447.224 448.312 451.617 448.16Z" fill="#F0E7D2"/>
<path d="M467.126 457.103C467.109 449.038 467.092 440.972 467.074 432.914C468.175 432.872 468.729 432.855 469.829 432.813C469.846 440.879 469.863 448.945 469.88 457.002C468.78 457.044 468.226 457.069 467.126 457.103Z" fill="#F0E7D2"/>
<path d="M489.919 447.897C489.929 452.796 486.162 456.754 481.381 456.946C476.411 457.147 472.921 453.656 472.91 448.503C472.899 443.318 476.374 439.63 481.447 439.422C486.378 439.221 489.908 442.744 489.919 447.889L489.919 447.897ZM475.735 448.426C475.743 452.122 478.036 454.539 481.439 454.405C484.74 454.272 487.093 451.599 487.085 447.974C487.077 444.238 484.824 441.829 481.452 441.963C478.01 442.096 475.728 444.69 475.735 448.426Z" fill="#F0E7D2"/>
<path d="M495.73 452.547C495.772 453.378 495.986 453.551 496.999 453.509C497.505 453.485 497.759 453.476 498.265 453.459C498.267 454.417 498.268 454.892 498.27 455.85C497.241 455.891 496.727 455.916 495.698 455.958C493.743 456.002 492.974 455.307 492.97 453.463C492.96 448.793 492.955 446.458 492.945 441.788C492.019 441.829 491.552 441.846 490.626 441.888L490.621 439.458C491.547 439.416 492.014 439.399 492.94 439.358C492.935 437.252 492.933 436.2 492.929 434.102C494.029 434.052 494.583 434.035 495.683 433.985C495.688 436.091 495.69 437.143 495.694 439.241C496.707 439.199 497.214 439.174 498.235 439.133L498.24 441.563C497.227 441.604 496.72 441.629 495.699 441.671C495.709 446.024 495.713 448.201 495.723 452.554L495.73 452.547Z" fill="#F0E7D2"/>
<path d="M508.732 443.25L508.731 443.068C508.728 441.509 507.46 440.586 505.536 440.669C503.684 440.752 502.531 441.744 502.534 443.192C502.537 444.641 503.266 445.169 506.276 445.86C508.406 446.354 509.539 446.842 510.34 447.608C511.173 448.406 511.69 449.576 511.692 450.811C511.699 453.716 509.312 455.779 505.759 455.929C501.952 456.095 499.803 454.406 499.511 451.043C500.596 450.993 501.142 450.976 502.234 450.926C502.42 452.802 503.657 453.765 505.754 453.673C507.638 453.59 508.87 452.558 508.867 451.07C508.864 449.622 507.889 448.951 505.054 448.332C501.451 447.548 499.794 446.055 499.788 443.515C499.782 440.61 502.136 438.555 505.65 438.405C509.204 438.255 511.345 439.968 511.502 443.118C510.402 443.168 509.848 443.193 508.748 443.234L508.732 443.25Z" fill="#F0E7D2"/>
<path d="M540.145 445.676C540.155 450.576 536.388 454.557 531.608 454.773C526.638 454.998 523.148 451.53 523.137 446.378C523.126 441.193 526.6 437.481 531.674 437.249C536.604 437.025 540.134 440.524 540.145 445.669L540.145 445.676ZM525.962 446.292C525.97 449.989 528.263 452.39 531.666 452.233C534.966 452.083 537.319 449.395 537.312 445.77C537.304 442.034 535.051 439.632 531.679 439.79C528.236 439.947 525.954 442.556 525.962 446.292Z" fill="#F0E7D2"/>
<path d="M546.256 453.698C545.156 453.747 544.602 453.772 543.502 453.83C543.489 448.115 543.483 445.258 543.471 439.543C542.561 439.585 542.102 439.609 541.184 439.651L541.179 437.221C542.089 437.179 542.548 437.155 543.466 437.113C543.464 436.211 543.463 435.768 543.461 434.865C543.454 431.565 545.152 429.527 548.056 429.386C548.199 429.386 548.531 429.361 548.816 429.384L548.821 431.854C546.827 432.167 546.283 432.77 546.215 434.733L546.22 436.981C547.265 436.931 547.787 436.906 548.832 436.856L548.837 439.286C547.792 439.336 547.27 439.361 546.225 439.411C546.238 445.125 546.244 447.983 546.256 453.698Z" fill="#F0E7D2"/>
<path d="M564.272 431.441C564.274 432.423 563.476 433.224 562.495 433.266C561.514 433.315 560.752 432.589 560.75 431.576C560.748 430.562 561.506 429.761 562.527 429.712C563.508 429.662 564.27 430.428 564.272 431.441ZM563.914 452.861C562.814 452.911 562.26 452.944 561.16 452.993C561.145 446.305 561.138 442.965 561.124 436.276C562.224 436.227 562.778 436.194 563.878 436.144C563.893 442.832 563.9 446.173 563.914 452.861Z" fill="#F0E7D2"/>
<path d="M571.025 435.796L571.03 438.155C572.475 436.125 573.929 435.259 575.995 435.16C577.514 435.086 578.932 435.526 579.876 436.347C580.93 437.271 581.297 438.457 581.302 440.737C581.312 445.249 581.316 447.504 581.326 452.016C580.226 452.066 579.672 452.099 578.572 452.149C578.563 447.882 578.558 445.753 578.549 441.487C578.546 439.999 578.362 439.208 577.926 438.654C577.418 437.999 576.435 437.605 575.311 437.655C574.077 437.713 572.954 438.253 572.125 439.221C571.343 440.125 571.036 440.941 571.039 442.318C571.048 446.394 571.052 448.436 571.061 452.513C569.961 452.563 569.407 452.595 568.307 452.645C568.292 445.957 568.285 442.617 568.271 435.928C569.371 435.879 569.925 435.846 571.025 435.796Z" fill="#F0E7D2"/>
<path d="M598.061 427.008C599.161 426.958 599.715 426.925 600.815 426.875C600.832 434.941 600.849 443.007 600.867 451.064C599.766 451.122 599.212 451.147 598.112 451.197C598.11 450.049 598.109 449.479 598.106 448.331C596.441 450.702 594.67 451.766 592.13 451.89C587.524 452.114 584.255 448.685 584.244 443.604C584.234 438.522 587.566 434.589 592.093 434.374C594.562 434.25 596.447 435.069 598.082 437.021L598.061 427.008ZM587.141 443.503C587.149 447.167 589.371 449.632 592.52 449.475C595.75 449.318 598.102 446.519 598.095 442.894C598.087 439.118 595.873 436.653 592.676 436.81C589.375 436.968 587.133 439.696 587.141 443.503Z" fill="#F0E7D2"/>
<path d="M620.913 441.785C620.923 446.685 617.156 450.674 612.376 450.906C607.405 451.146 603.915 447.694 603.904 442.541C603.893 437.357 607.368 433.629 612.441 433.381C617.372 433.141 620.902 436.632 620.913 441.785ZM606.73 442.433C606.738 446.129 609.03 448.522 612.433 448.357C615.734 448.199 618.087 445.503 618.079 441.878C618.071 438.253 615.818 435.749 612.447 435.914C609.004 436.08 606.722 438.697 606.73 442.433Z" fill="#F0E7D2"/>
<path d="M639.622 440.882C639.632 445.782 635.865 449.763 631.084 449.995C626.114 450.235 622.624 446.776 622.613 441.623C622.602 436.47 626.077 432.711 631.15 432.47C636.081 432.23 639.611 435.729 639.622 440.882ZM625.439 441.53C625.447 445.226 627.739 447.62 631.142 447.454C634.443 447.297 636.796 444.608 636.788 440.983C636.78 437.358 634.527 434.854 631.156 435.011C627.713 435.177 625.431 437.794 625.439 441.53Z" fill="#F0E7D2"/>
<path d="M645.404 432.187L645.41 435.013C645.914 433.793 646.277 433.27 646.925 432.73C647.755 432.04 648.918 431.618 650.113 431.56C650.374 431.551 650.5 431.543 650.762 431.527L650.768 434.321C650.475 434.298 650.19 434.314 650.008 434.322C648.52 434.389 647.215 435.152 646.387 436.42C645.669 437.506 645.41 438.496 645.414 440.419C645.421 443.815 645.425 445.508 645.432 448.904C644.332 448.954 643.778 448.979 642.678 449.037C642.664 442.348 642.656 439.008 642.642 432.32C643.742 432.27 644.296 432.245 645.397 432.187L645.404 432.187Z" fill="#F0E7D2"/>
<path d="M670.472 435.593L670.472 435.411C670.468 433.851 669.2 432.928 667.277 433.019C665.425 433.102 664.271 434.102 664.274 435.55C664.277 436.999 665.007 437.52 668.016 438.21C670.146 438.696 671.279 439.185 672.08 439.951C672.913 440.748 673.43 441.919 673.433 443.153C673.439 446.058 671.053 448.121 667.499 448.287C663.692 448.462 661.544 446.788 661.252 443.425C662.336 443.375 662.882 443.35 663.974 443.3C664.16 445.176 665.397 446.139 667.494 446.039C669.378 445.956 670.611 444.917 670.607 443.429C670.604 441.94 669.629 441.317 666.794 440.698C663.191 439.922 661.534 438.437 661.528 435.897C661.522 432.992 663.877 430.929 667.391 430.763C670.944 430.597 673.085 432.318 673.242 435.468C672.142 435.518 671.588 435.543 670.488 435.593L670.472 435.593Z" fill="#F0E7D2"/>
<path d="M678.104 439.93C678.25 441.338 678.504 442.05 679.203 442.927C680.29 444.366 681.891 445.09 683.703 445.015C685.769 444.924 687.729 443.717 688.699 441.934C689.673 442.256 690.156 442.413 691.131 442.736C689.759 445.588 686.898 447.415 683.708 447.556C678.738 447.773 675.177 444.313 675.166 439.232C675.155 434.15 678.661 430.256 683.56 430.04C688.42 429.824 692.053 433.331 692.063 438.23C692.063 438.452 692.064 438.919 692.026 439.322C686.454 439.564 683.668 439.689 678.096 439.938L678.104 439.93ZM689.125 437.413C689.011 436.115 688.756 435.396 688.177 434.589C687.121 433.222 685.418 432.426 683.566 432.51C681.714 432.593 680.053 433.538 679.075 435.028C678.57 435.853 678.35 436.55 678.139 437.896C682.532 437.696 684.732 437.605 689.125 437.413Z" fill="#F0E7D2"/>
<path d="M707.564 429.411C708.665 429.369 709.219 429.344 710.319 429.294C710.333 435.983 710.34 439.323 710.354 446.011C709.254 446.053 708.7 446.078 707.6 446.128L707.593 442.898C705.928 445.466 704.047 446.674 701.507 446.782C696.9 446.974 693.632 443.49 693.621 438.416C693.61 433.343 696.942 429.457 701.548 429.265C704.089 429.157 705.935 430.063 707.578 432.173L707.572 429.419L707.564 429.411ZM697.886 433.872C697.025 435.101 696.514 436.724 696.518 438.355C696.525 441.909 698.85 444.492 701.897 444.367C705.055 444.234 707.621 441.189 707.613 437.603C707.606 434.017 705.281 431.569 701.942 431.71C700.129 431.785 698.864 432.469 697.886 433.88L697.886 433.872Z" fill="#F0E7D2"/>
<path d="M717.566 442.316C717.608 443.147 717.822 443.32 718.835 443.279C719.341 443.262 719.595 443.245 720.101 443.228L720.106 445.619C719.077 445.661 718.563 445.678 717.534 445.719C715.579 445.763 714.81 445.068 714.806 443.216C714.796 438.546 714.791 436.211 714.781 431.541C713.855 431.575 713.388 431.599 712.462 431.633L712.457 429.203C713.383 429.161 713.85 429.145 714.776 429.111L714.765 423.855C715.865 423.813 716.419 423.788 717.519 423.747L717.53 429.002C718.543 428.961 719.05 428.944 720.071 428.902L720.076 431.332C719.063 431.374 718.556 431.39 717.535 431.432C717.545 435.786 717.549 437.962 717.558 442.316L717.566 442.316Z" fill="#F0E7D2"/>
<path d="M725.727 424.006C725.729 424.987 724.932 425.781 723.95 425.814C722.969 425.848 722.207 425.122 722.205 424.108C722.203 423.095 722.961 422.302 723.982 422.26C724.964 422.219 725.725 422.993 725.727 424.006ZM725.369 445.417C724.269 445.459 723.715 445.484 722.615 445.526C722.6 438.838 722.593 435.498 722.579 428.809C723.679 428.767 724.233 428.742 725.333 428.701C725.348 435.389 725.355 438.729 725.369 445.417Z" fill="#F0E7D2"/>
<path d="M732.48 428.424L732.485 430.783C733.93 428.769 735.384 427.919 737.45 427.844C738.97 427.785 740.387 428.241 741.331 429.078C742.386 430.01 742.752 431.204 742.757 433.492C742.767 438.003 742.772 440.259 742.781 444.771C741.681 444.813 741.127 444.83 740.027 444.872C740.018 440.605 740.013 438.476 740.004 434.21C740.001 432.722 739.817 431.931 739.381 431.37C738.873 430.706 737.89 430.296 736.767 430.338C735.532 430.381 734.409 430.913 733.58 431.873C732.798 432.769 732.491 433.585 732.494 434.962C732.503 439.038 732.507 441.08 732.516 445.157C731.416 445.199 730.862 445.216 729.762 445.258C729.747 438.569 729.74 435.229 729.726 428.541C730.826 428.499 731.38 428.482 732.48 428.44L732.48 428.424Z" fill="#F0E7D2"/>
<path d="M759.319 427.489C760.42 427.455 760.974 427.438 762.074 427.404C762.088 434.132 762.095 437.503 762.11 444.231C762.115 447.025 761.415 448.935 759.914 450.434C758.429 451.917 756.294 452.761 753.753 452.853C750.635 452.955 748.164 452.026 746.347 450.059C747.097 449.282 747.476 448.885 748.226 448.108C748.988 448.882 749.353 449.19 749.828 449.505C750.771 450.057 752.331 450.402 753.748 450.352C755.489 450.293 757.158 449.624 758.098 448.577C758.927 447.65 759.359 446.287 759.356 444.546L759.348 441.032C757.723 443.552 755.802 444.736 753.19 444.828C748.766 444.98 745.458 441.362 745.447 436.391C745.441 433.708 746.425 431.094 748.076 429.444C749.419 428.103 751.23 427.379 753.367 427.303C755.907 427.219 757.611 428.102 759.326 430.37L759.319 427.504L759.319 427.489ZM748.344 436.155C748.351 439.749 750.676 442.348 753.834 442.246C755.433 442.196 756.99 441.377 758.072 440.077C758.798 439.22 759.262 437.573 759.258 435.903C759.254 433.726 758.927 432.571 757.943 431.52C756.927 430.43 755.367 429.753 753.879 429.804C750.618 429.913 748.336 432.53 748.344 436.155Z" fill="#F0E7D2"/>
<path d="M769.688 442.323C769.69 443.376 768.861 444.201 767.808 444.227C766.724 444.261 765.922 443.487 765.92 442.403C765.918 441.318 766.716 440.493 767.8 440.459C768.884 440.425 769.685 441.199 769.688 442.323Z" fill="#F0E7D2"/>
</g>
<defs>
<clipPath id="clip0_600_190">
<rect width="1152" height="387" fill="white"/>
</clipPath>
<clipPath id="clip1_600_190">
<rect width="541.791" height="93.4554" fill="white" transform="translate(328 375.151) rotate(-0.121788)"/>
</clipPath>
</defs>
</svg>
