<svg width="61" height="68" viewBox="0 0 61 68" fill="none" xmlns="http://www.w3.org/2000/svg">
<path d="M47.6467 29.0388C46.9804 24.8791 2.35352 25.3052 2.35352 29.0389C2.35352 60.2381 17.0072 65.7845 26.998 65.7845M47.6467 29.0388C48.313 33.1984 48.9788 63.7047 26.998 65.7845M47.6467 29.0388C61.6341 27.6525 60.3142 41.844 56.3057 49.1452C52.2972 56.4463 38.3216 65.7846 26.998 65.7845" stroke="#F2E8E1" stroke-width="3" stroke-linecap="round"/>
<path d="M24.9995 22.106C24.9995 22.106 33.6586 20.0261 33.6585 13.7863C33.6584 7.54649 14.3422 6.85318 24.3334 2" stroke="#F2E8E1" stroke-width="3" stroke-linecap="round"/>
<path d="M47.2932 29.1928C46.6269 25.0332 2 25.4592 2 29.193C2 60.3921 16.6537 65.9385 26.6445 65.9385C48.6253 63.8588 47.9595 33.3524 47.2932 29.1928Z" fill="#F2E8E1" stroke="#F2E8E1" stroke-width="3" stroke-linecap="round"/>
</svg>
