<svg width="787" height="304" viewBox="0 0 787 304" fill="none" xmlns="http://www.w3.org/2000/svg">
<path d="M261.624 223.64C250.936 223.64 243.512 219.16 243.512 213.08C243.512 210.264 245.24 208.344 248.248 208.344C251.64 208.344 252.92 210.648 254.392 213.72C255.928 217.112 257.464 220.056 262.52 220.056C266.936 220.056 269.688 217.688 269.688 214.296C269.688 209.88 264.824 208.024 259.064 205.976C251.832 203.224 244.408 200.216 244.408 191.576C244.408 183.64 250.744 178.84 261.88 178.84C272.632 178.84 278.008 183.32 278.008 188.312C278.008 191.576 275.64 192.472 273.528 192.472C270.136 192.472 269.176 190.424 268.088 187.864C266.808 184.792 265.656 182.488 261.176 182.488C256.952 182.488 254.648 184.728 254.648 187.8C254.648 192.088 259.384 193.88 265.4 196.184C272.376 198.872 279.864 202.008 279.864 210.52C279.864 218.776 272.952 223.64 261.624 223.64ZM285.112 234.52C284.024 234.52 283.256 233.816 283.256 232.856C283.256 231.896 283.832 231.448 284.408 231C285.112 230.488 285.624 229.976 285.624 228.952V196.12C285.624 194.968 285.048 194.456 284.408 194.008C283.832 193.56 283.256 193.112 283.256 192.088C283.256 191.128 284.024 190.36 285.048 190.36H293.816C295.288 190.36 296.248 191.32 296.248 192.856V194.2C298.68 191.256 302.008 189.72 305.912 189.72C313.912 189.72 319.096 196.312 319.096 206.36C319.096 216.792 313.4 223.64 304.696 223.64C300.984 223.64 298.232 222.424 296.248 220.312V228.952C296.248 229.976 296.824 230.488 297.464 231C298.04 231.448 298.616 231.896 298.616 232.856C298.616 233.816 297.912 234.52 296.824 234.52H285.112ZM300.6 194.968C298.744 194.968 297.208 195.992 296.248 197.912V211.608C297.464 216.344 299.768 220.504 303.224 220.504C306.744 220.504 308.6 216.344 308.6 211.288C308.6 205.144 306.104 194.968 300.6 194.968ZM339.402 223.64C329.354 223.64 322.57 216.92 322.57 206.68C322.57 196.504 329.418 189.72 339.722 189.72C347.402 189.72 352.778 193.368 352.778 198.68C352.778 205.272 344.714 207.896 334.09 208.216C335.434 212.632 338.314 216.536 343.37 216.536C346.762 216.536 348.49 214.936 349.834 213.784C350.73 213.016 351.37 212.568 352.01 212.568C352.714 212.568 353.29 213.016 353.29 214.36C353.29 218.968 347.85 223.64 339.402 223.64ZM333.13 201.56C333.13 202.776 333.194 204.056 333.45 205.4C340.746 205.08 343.306 202.52 343.306 198.744C343.306 195.48 341.578 192.856 338.762 192.856C335.05 192.856 333.13 197.016 333.13 201.56ZM373.152 223.64C363.04 223.64 356.32 216.984 356.32 206.68C356.32 196.504 363.168 189.72 373.152 189.72C380.704 189.72 386.528 193.624 386.528 198.488C386.528 201.176 384.736 202.648 381.92 202.648C378.016 202.648 377.12 199.896 376.288 197.144C375.584 194.904 374.88 192.856 372.256 192.856C368.736 192.856 366.88 197.016 366.88 201.752C366.88 207.704 369.504 216.536 377.12 216.536C380.576 216.536 382.304 214.808 383.584 213.4C384.352 212.504 384.928 211.928 385.696 211.928C386.464 211.928 386.976 212.376 386.976 213.976C386.976 219.096 381.408 223.64 373.152 223.64ZM397.555 186.84C394.035 186.84 391.667 184.664 391.667 181.528C391.667 178.392 394.035 176.28 397.555 176.28C401.075 176.28 403.443 178.392 403.443 181.528C403.443 184.664 401.075 186.84 397.555 186.84ZM391.987 223C390.899 223 390.131 222.296 390.131 221.336C390.131 220.376 390.707 219.928 391.283 219.48C391.987 218.968 392.499 218.456 392.499 217.432V196.12C392.499 194.968 391.923 194.456 391.283 194.008C390.707 193.56 390.131 193.112 390.131 192.088C390.131 191.128 390.899 190.36 391.923 190.36H400.691C402.163 190.36 403.123 191.32 403.123 192.856V217.432C403.123 218.456 403.699 218.968 404.339 219.48C404.915 219.928 405.491 220.376 405.491 221.336C405.491 222.296 404.787 223 403.699 223H391.987ZM418.489 223.64C412.473 223.64 408.377 220.376 408.377 215.064C408.377 206.808 418.361 204.248 428.025 204.12V199.256C428.025 194.52 425.785 192.856 422.969 192.856C419.833 192.856 419.257 194.968 418.745 197.208C418.233 199.64 417.721 202.072 414.009 202.072C411.001 202.072 409.529 200.344 409.529 197.976C409.529 193.56 414.905 189.72 423.673 189.72C432.185 189.72 438.649 193.304 438.649 201.688V217.368C438.649 218.52 439.353 219.096 439.993 219.544C440.569 219.992 441.081 220.376 441.081 221.144C441.081 222.744 438.777 223.64 435.897 223.64C432.185 223.64 429.625 222.04 428.601 219.48C426.041 222.104 422.585 223.64 418.489 223.64ZM418.617 212.568C418.617 215.896 421.241 218.136 424.441 218.136C425.849 218.136 427.129 217.688 428.089 216.856L428.025 216.728V208.28C427.193 207.704 426.233 207.384 425.017 207.384C421.369 207.384 418.617 209.24 418.617 212.568ZM445.55 223C444.462 223 443.694 222.296 443.694 221.336C443.694 220.376 444.27 219.928 444.846 219.48C445.55 218.968 446.062 218.456 446.062 217.432V183.96C446.062 182.808 445.486 182.296 444.846 181.848C444.27 181.4 443.694 180.952 443.694 179.928C443.694 178.968 444.462 178.2 445.486 178.2H454.254C455.726 178.2 456.686 179.16 456.686 180.696V217.432C456.686 218.456 457.262 218.968 457.902 219.48C458.478 219.928 459.054 220.376 459.054 221.336C459.054 222.296 458.35 223 457.262 223H445.55ZM474.48 223.64C468.912 223.64 465.264 220.184 465.264 215V193.88H463.088C462 193.88 461.296 193.112 461.296 192.024C461.296 190.744 462.32 190.36 463.792 189.784C467.312 188.568 470.064 186.584 471.856 183.32C472.496 182.104 473.072 181.336 474.16 181.336C475.248 181.336 475.888 182.04 475.888 183.128V190.36H482.416C483.504 190.36 484.144 191.064 484.144 192.152C484.144 193.24 483.504 193.88 482.416 193.88H475.888V214.68C475.888 216.6 477.04 217.816 478.704 217.816C479.728 217.816 480.432 217.432 481.072 217.048C481.712 216.728 482.288 216.472 482.736 216.472C483.568 216.472 484.144 217.176 484.144 218.008C484.144 220.184 480.112 223.64 474.48 223.64ZM494.686 235.16C489.822 235.16 485.854 232.92 485.854 229.208C485.854 226.776 487.518 225.048 490.462 225.048C492.894 225.048 494.302 226.456 495.454 228.056C496.094 229.08 496.734 230.104 498.078 230.104C499.806 230.104 501.15 228.056 502.43 225.112L502.558 224.728L489.502 195.928C489.118 195.16 488.478 194.648 487.582 194.136C486.75 193.624 485.982 193.112 485.982 191.96C485.982 191.064 486.686 190.36 487.838 190.36H501.278C502.366 190.36 503.07 191.064 503.07 191.96C503.07 192.984 502.43 193.496 501.79 193.88C500.958 194.392 500.446 194.904 500.83 195.928L507.742 212.376L514.398 195.928C514.782 194.904 514.078 194.456 513.182 193.88C512.414 193.496 511.646 192.92 511.646 191.96C511.646 191.064 512.414 190.36 513.438 190.36H520.158C521.246 190.36 521.95 191.064 521.95 191.96C521.95 193.112 521.182 193.624 520.286 194.072C519.454 194.584 518.814 195.032 518.43 195.928L505.694 226.072C503.774 230.616 501.598 235.16 494.686 235.16ZM284.479 293C283.327 293 282.495 292.296 282.495 291.208C282.495 290.12 283.135 289.672 283.775 289.16C284.415 288.648 285.055 288.136 285.055 287.048V255.432C285.055 254.28 284.415 253.832 283.775 253.32C283.135 252.808 282.495 252.296 282.495 251.272C282.495 250.184 283.327 249.48 284.479 249.48H304.063C316.991 249.48 325.567 258.12 325.567 271.24C325.567 284.36 316.991 293 303.807 293H284.479ZM300.863 253.448H296.447V285.768C298.431 287.944 301.055 289.224 303.615 289.224C310.719 289.224 313.983 282.376 313.983 274.504C313.983 265.928 310.143 253.448 300.863 253.448ZM331.081 293C329.993 293 329.225 292.296 329.225 291.336C329.225 290.376 329.801 289.928 330.377 289.48C331.081 288.968 331.593 288.456 331.593 287.432V266.12C331.593 264.968 331.017 264.456 330.377 264.008C329.801 263.56 329.225 263.112 329.225 262.088C329.225 261.128 329.993 260.36 331.017 260.36H339.785C341.257 260.36 342.217 261.32 342.217 262.856V265.416C344.137 261.896 347.081 259.72 350.473 259.72C353.673 259.72 356.489 261.576 356.489 265.288C356.489 268.424 354.505 270.728 351.305 270.728C349.129 270.728 347.913 269.576 347.081 268.232C346.505 267.4 345.929 266.76 345.161 266.76C344.137 266.76 342.985 267.72 342.217 269.832V287.432C342.217 288.456 342.921 288.904 343.753 289.416C344.393 289.8 345.225 290.248 345.225 291.336C345.225 292.296 344.457 293 343.305 293H331.081ZM366.087 256.84C362.567 256.84 360.199 254.664 360.199 251.528C360.199 248.392 362.567 246.28 366.087 246.28C369.607 246.28 371.975 248.392 371.975 251.528C371.975 254.664 369.607 256.84 366.087 256.84ZM360.519 293C359.431 293 358.663 292.296 358.663 291.336C358.663 290.376 359.239 289.928 359.815 289.48C360.519 288.968 361.031 288.456 361.031 287.432V266.12C361.031 264.968 360.455 264.456 359.815 264.008C359.239 263.56 358.663 263.112 358.663 262.088C358.663 261.128 359.431 260.36 360.455 260.36H369.223C370.695 260.36 371.655 261.32 371.655 262.856V287.432C371.655 288.456 372.231 288.968 372.871 289.48C373.447 289.928 374.023 290.376 374.023 291.336C374.023 292.296 373.319 293 372.231 293H360.519ZM378.956 293C377.868 293 377.1 292.296 377.1 291.336C377.1 290.376 377.676 289.928 378.252 289.48C378.956 288.968 379.468 288.456 379.468 287.432V266.12C379.468 264.968 378.892 264.456 378.252 264.008C377.676 263.56 377.1 263.112 377.1 262.088C377.1 261.128 377.868 260.36 378.892 260.36H387.66C389.132 260.36 390.092 261.32 390.092 262.856V265.032C392.844 261.704 396.748 259.72 401.1 259.72C406.924 259.72 411.148 263.24 411.148 269.448V287.432C411.148 288.456 411.66 288.968 412.364 289.48C412.94 289.928 413.516 290.376 413.516 291.336C413.516 292.296 412.748 293 411.66 293H399.948C398.86 293 398.156 292.296 398.156 291.336C398.156 290.376 398.732 289.928 399.308 289.48C399.948 288.968 400.524 288.456 400.524 287.432V269.768C400.524 267.08 398.604 265.224 395.916 265.224C393.548 265.224 391.5 266.632 390.092 268.872V287.432C390.092 288.456 390.668 288.968 391.308 289.48C391.884 289.928 392.46 290.376 392.46 291.336C392.46 292.296 391.756 293 390.668 293H378.956ZM418.144 293C417.056 293 416.288 292.296 416.288 291.336C416.288 290.376 416.864 289.928 417.44 289.48C418.144 288.968 418.656 288.456 418.656 287.432V253.96C418.656 252.808 418.08 252.296 417.44 251.848C416.864 251.4 416.288 250.952 416.288 249.928C416.288 248.968 417.056 248.2 418.08 248.2H426.848C428.32 248.2 429.28 249.16 429.28 250.696V275.912L439.648 266.056C440.48 265.288 440.16 264.52 439.392 263.816C438.816 263.368 438.24 262.856 438.24 262.024C438.24 261.064 438.944 260.36 440.032 260.36H447.52C448.608 260.36 449.312 261.064 449.312 262.024C449.312 263.176 448.416 263.88 446.88 264.84C445.728 265.48 444.576 266.376 443.104 267.72L439.008 271.56L447.776 286.408C449.056 288.584 450.208 289.352 451.04 289.8C451.744 290.184 452.064 290.44 452.064 291.272C452.064 292.68 450.528 293.64 447.52 293.64C442.848 293.64 438.304 291.4 436.192 287.176L431.392 278.664L429.28 280.584V287.432C429.28 288.456 429.856 288.968 430.496 289.48C431.072 289.928 431.648 290.376 431.648 291.336C431.648 292.296 430.944 293 429.856 293H418.144ZM467.749 293.64C459.429 293.64 453.413 290.44 453.413 285.832C453.413 283.528 454.821 282.056 457.253 282.056C460.133 282.056 461.22 284.104 462.245 286.216C463.333 288.392 464.549 290.632 468.069 290.632C471.013 290.632 472.933 289.096 472.933 286.664C472.933 283.528 469.541 282.12 465.253 280.52C459.877 278.408 454.053 276.04 454.053 269.448C454.053 263.368 458.981 259.72 468.133 259.72C476.581 259.72 480.997 262.92 480.997 266.888C480.997 269 479.589 270.152 477.477 270.152C474.853 270.152 473.701 268.36 472.869 266.44C472.037 264.52 471.013 262.728 468.005 262.728C465.317 262.728 463.653 264.072 463.653 266.184C463.653 269.32 467.237 270.856 471.397 272.52C476.645 274.632 482.533 277.128 482.533 283.656C482.533 289.928 477.093 293.64 467.749 293.64Z" fill="#F0E7D2"/>
<path d="M12.1164 206.085C-7.55032 177.033 -3.01302 142.941 23.8162 120.218C44.5452 102.671 64.743 102.722 72.5885 114.329C76.3822 119.912 76.0939 126.599 69.7507 131.961C62.0722 138.46 55.0159 135.423 47.7168 131.723C41.5557 128.567 34.2262 125.122 25.1972 132.759C12.3895 143.602 14.9541 162.676 25.6524 178.492C38.6725 197.719 67.429 218.643 88.2793 200.994C90.6011 199.026 92.3917 196.871 93.8789 194.529L76.4277 168.752C74.7585 166.291 72.5581 166.444 70.3274 166.834C68.127 166.987 66.2909 166.834 64.8037 164.645C63.1345 162.184 63.7111 159.35 66.0329 157.382L90.419 136.73C92.7408 134.761 95.2143 135.033 96.8835 137.476C98.3555 139.665 97.9154 141.549 97.3995 143.908C96.8228 145.893 96.3524 148.014 98.0065 150.475L111.482 170.381C116.656 178.017 107.445 199.552 88.6587 215.453C61.3438 238.582 31.3734 234.561 12.0709 206.051L12.1164 206.085Z" fill="#F0E7D2"/>
<path d="M123.879 180.241C122.816 177.967 123.53 176.185 124.258 174.42C125.184 172.333 125.7 170.483 124.561 168.057L100.889 117.622C99.6138 114.89 97.8232 114.398 95.9719 114.126C94.2571 113.787 92.5423 113.431 91.4042 111.021C90.3419 108.747 91.1159 105.981 93.2707 104.708L111.83 93.8135C114.941 91.9808 118.036 93.0669 119.751 96.6984L122.589 102.757C122.74 92.0487 126.549 83.2413 133.742 79.0159C140.51 75.0449 148.538 75.9443 152.665 84.7177C156.156 92.1335 154.502 100.058 147.734 104.029C143.136 106.728 139.281 105.523 136.018 103.368C133.879 102.112 131.952 101.314 130.313 102.265C128.143 103.537 126.777 107.237 127.49 113.193L147.035 154.854C148.174 157.281 150.161 157.467 152.483 157.637C154.259 157.756 156.52 157.773 157.734 160.352C158.796 162.626 157.961 165.24 155.518 166.682L129.645 181.87C127.338 183.228 124.941 182.515 123.863 180.241H123.879Z" fill="#F0E7D2"/>
<path d="M171.635 132.572C164.974 111.801 185.369 96.3588 207.008 87.2969L203.078 75.0617C199.254 63.1488 192.865 60.9767 186.537 63.5222C179.481 66.3561 179.891 72.1938 180.543 78.2859C181.347 84.8702 182.167 91.4545 173.821 94.7976C167.053 97.5127 162.348 94.4921 160.436 88.5357C156.87 77.4205 165.869 62.9113 185.596 55.0033C204.747 47.316 222.183 50.5063 228.951 71.5998L241.607 111.055C242.533 113.957 244.581 114.771 246.387 115.314C248.041 115.925 249.513 116.417 250.12 118.352C251.41 122.374 246.949 126.718 240.469 129.314C232.123 132.657 225.066 130.943 220.696 125.428C217.054 134.337 210.514 141.329 201.302 145.028C187.766 150.459 175.915 145.945 171.635 132.572ZM210.256 125.801C213.427 124.529 215.946 122.255 217.433 119.285L217.191 119.014L210.377 97.7673C208.04 97.0715 205.627 97.1224 202.881 98.2255C194.671 101.518 189.982 108.679 192.668 117.045C195.354 125.411 203.063 128.686 210.271 125.801H210.256Z" fill="#F0E7D2"/>
<path d="M281.335 113.074C278.361 111.92 275.888 111.021 273.171 111.564C270.015 112.191 268.194 114.448 266.403 116.892C264.947 119.438 263.095 121.542 259.939 122.17C256.631 122.815 253.99 120.914 253.383 117.028L238.026 19.655C237.556 16.6174 235.978 15.5483 234.293 14.6659C232.745 13.7495 231.213 12.8331 230.788 10.1519C230.393 7.62338 231.88 5.2476 234.293 4.77245L254.931 0.699687C258.391 0.0208942 261.062 2.09121 261.699 6.147L267.283 41.5291C271.806 32.8236 279.165 27.2066 288.195 25.4247C307.027 21.7083 321.959 36.6588 326.132 63.1147C330.457 90.5719 319.895 111.241 299.409 115.28C290.972 116.943 285.827 114.839 281.351 113.108L281.335 113.074ZM294.614 107.677C302.899 106.048 305.539 94.2374 303.445 80.9161C300.896 64.7438 290.805 39.1194 277.845 41.6649C273.475 42.5303 270.288 45.9413 268.816 51.4395L274.583 87.9925C279.484 99.3623 286.48 109.273 294.614 107.661V107.677Z" fill="#F0E7D2"/>
<path d="M360.533 84.4801C361.611 62.4533 385.784 57.0739 408.865 58.1599L409.503 45.178C410.125 32.5355 404.996 27.767 398.273 27.3597C390.792 26.9015 389.138 32.4506 387.62 38.3561C386.073 44.7707 384.54 51.1853 375.678 50.6423C368.5 50.2011 365.207 45.3647 365.526 39.0519C366.102 27.2748 379.441 17.8057 400.367 19.0954C420.687 20.3511 435.634 30.8555 434.541 53.2387L432.477 95.0863C432.326 98.1578 433.934 99.8039 435.406 101.094C436.726 102.366 437.895 103.469 437.789 105.523C437.576 109.799 431.962 111.852 425.087 111.428C416.225 110.885 410.322 106.235 408.228 99.2608C401.779 105.896 393.326 109.477 383.554 108.883C369.198 108 359.85 98.6839 360.548 84.5141L360.533 84.4801ZM398.47 95.0354C401.824 95.239 404.95 94.2378 407.348 92.1505L407.211 91.7941L408.319 69.2412C406.407 67.5782 404.161 66.5939 401.263 66.4073C392.552 65.8642 385.739 70.4291 385.314 79.3043C384.874 88.1796 390.837 94.5432 398.486 95.0184L398.47 95.0354Z" fill="#F0E7D2"/>
<path d="M478.472 58.7365C487.835 24.3726 514.376 8.55667 545.242 19.0949C568.657 27.0708 579.78 45.5339 575.759 60.2468C573.619 68.1038 568.095 71.939 559.612 69.0541C549.521 65.6092 548.489 57.0395 547.761 48.0285C546.881 39.5096 545.758 30.7193 535.818 27.3253C522.646 22.8283 512.024 34.232 507.077 52.4067C501.28 73.6699 502.706 108.322 527.882 116.892C539.005 120.676 546.79 116.179 552.07 112.616C555.363 110.511 557.761 109.374 559.81 110.07C562.01 110.817 562.298 113.244 561.327 116.841C557.397 131.232 537.32 141.566 513.329 133.387C483.328 123.171 469.048 93.4398 478.502 58.7534L478.472 58.7365Z" fill="#F0E7D2"/>
<path d="M566.806 126.413L586.472 84.2425C587.747 81.5104 587.094 79.5928 586.229 77.7261C585.501 75.9613 584.773 74.1794 585.911 71.7527C586.973 69.4788 589.31 68.5285 591.617 69.8691L610.191 80.7128C613.317 82.5286 614.212 86.1432 612.512 89.7917L589.659 138.784C586.624 145.3 588.566 151.85 593.862 154.939C598.476 157.637 604.166 156.89 609.143 153.632L629.736 109.494C631.011 106.762 630.221 104.759 629.357 102.909C628.628 101.144 627.9 99.3627 629.038 96.936C630.1 94.662 632.437 93.7117 634.88 95.1372L653.318 105.896C656.565 107.797 657.552 111.259 655.852 114.89L628.75 172.978C627.475 175.71 628.188 177.865 629.053 179.715C629.918 181.565 630.434 183.024 629.584 184.857C627.809 188.641 621.936 187.928 615.972 184.432C606.882 179.138 603.256 170.653 605.502 162.117C596.123 166.682 585.729 166.784 576.639 161.489C564.711 154.532 559.916 141.125 566.775 126.413H566.806Z" fill="#F0E7D2"/>
<path d="M611.891 209.242C613.272 207.189 615.017 207.172 616.762 207.155C618.841 207.206 620.556 206.934 622.028 204.762L669.419 134.83C671.088 132.369 670.724 130.35 670.147 128.364C669.692 126.48 669.252 124.597 670.724 122.408C672.105 120.354 674.685 119.964 676.627 121.627L693.335 135.78C696.142 138.156 696.582 141.753 694.367 145.028L692.424 147.896C701.301 145.555 709.86 147.659 717.296 153.955C732.531 166.869 732.896 189.286 718.389 210.685C703.335 232.915 682.591 238.295 666.02 224.244C658.948 218.253 655.458 211.211 654.73 203.523L642.256 221.936C640.784 224.125 641.133 226.144 641.619 228.266C642.074 230.149 642.514 232.033 641.133 234.086C639.752 236.14 637.385 236.496 635.321 234.731L613.014 215.827C610.935 214.062 610.495 211.33 611.876 209.293L611.891 209.242ZM687.098 155.787L667.325 184.959C662.803 197.007 661.194 209.599 667.765 215.165C674.472 220.85 684.017 214.978 691.316 204.219C700.179 191.136 710.118 165.426 699.632 156.534C696.096 153.53 691.696 153.242 687.098 155.787Z" fill="#F0E7D2"/>
<path d="M704.776 240.042C710.603 233.254 718.494 233.186 724.792 239.94C731.089 246.694 731.469 255.637 725.642 262.425C719.814 269.213 711.711 269.281 705.413 262.527C699.116 255.773 698.949 246.83 704.776 240.042ZM729.754 227.722L761.955 173.622C765.415 167.377 770.59 166.529 775.339 171.62L783.731 180.614C788.481 185.704 788.041 191.644 782.502 195.649L735.505 233.882C733.791 235.138 732.394 235.036 730.953 233.509L730.285 232.796C728.844 231.252 728.707 229.69 729.754 227.722Z" fill="#F0E7D2"/>
</svg>
