<svg width="940" height="346" viewBox="0 0 940 346" fill="none" xmlns="http://www.w3.org/2000/svg">
<path d="M26.9639 257.408C12.6148 244.676 13.3183 227.15 28.8847 212.739L63.1912 180.977C65.1927 179.129 67.6598 179.032 69.5192 180.675C71.2638 182.231 71.0953 183.983 71.022 185.633C70.8385 187.386 70.5538 189.037 72.5293 190.782L95.6316 211.289L122.251 186.636L99.1486 166.129C97.1731 164.384 95.3596 164.67 93.4314 164.868C91.5033 165.066 89.5751 165.264 87.8304 163.709C85.9697 162.051 86.0282 159.813 88.0296 157.965L108.661 138.868C110.662 137.021 113.24 136.82 115.101 138.477C116.845 140.033 116.677 141.785 116.493 143.538C116.31 145.292 116.025 146.942 118 148.688L172.078 196.7C173.939 198.357 175.867 198.159 177.795 197.961C179.724 197.763 181.537 197.477 183.396 199.121C185.256 200.764 185.087 203.106 183.101 204.953L162.469 224.049C160.468 225.897 158.001 225.994 156.141 224.351C154.282 222.707 154.565 221.043 154.749 219.29C154.932 217.536 155.101 215.784 153.242 214.14L128.942 192.562L102.323 217.215L126.622 238.793C128.483 240.45 130.411 240.252 132.339 240.054C134.268 239.857 135.984 239.659 137.845 241.316C139.706 242.974 139.647 245.212 137.646 247.06L117.015 266.156C115.125 267.915 112.546 268.101 110.687 266.458C108.827 264.814 109.111 263.15 109.294 261.397C109.478 259.643 109.646 257.891 107.787 256.247L61.2503 214.94C53.8086 208.325 43.6243 209.022 33.5231 218.377C22.4688 228.606 21.3303 240.39 29.8662 247.96C35.346 252.815 41.574 253.014 46.0997 248.817C47.8942 247.161 48.8131 245.509 49.5342 243.843C50.352 242.089 51.3961 240.332 53.2873 238.588C58.4489 233.813 64.878 233.615 69.6938 237.884C75.7064 243.225 74.9306 251.31 67.1331 258.523C55.7615 269.047 39.537 268.573 26.9475 257.395L26.9639 257.408Z" fill="#F0E7D2"/>
<path d="M179.261 190.463C168.552 175.444 185.039 159.38 204.051 148.105L197.745 139.255C191.599 130.641 185 130.166 179.413 133.39C173.183 136.973 174.789 141.467 176.684 146.134C178.825 151.14 180.967 156.16 173.596 160.394C167.624 163.836 162.464 162.374 159.398 158.06C153.672 150.02 159.351 136.901 176.757 126.884C193.649 117.163 211.129 116.305 222.013 131.559L242.357 160.095C243.854 162.186 245.992 162.44 247.842 162.521C249.564 162.679 251.085 162.796 252.073 164.196C254.151 167.111 250.737 171.367 245.02 174.654C237.65 178.888 230.497 178.902 225.146 175.413C223.472 183.113 218.605 189.85 210.48 194.532C198.534 201.401 186.181 200.148 179.278 190.476L179.261 190.463ZM215.131 177.701C217.925 176.089 219.882 173.821 220.717 171.203L220.429 171.045L209.472 155.672C207.077 155.573 204.76 156.084 202.337 157.48C195.095 161.65 192.048 168.169 196.363 174.221C200.679 180.273 208.789 181.359 215.146 177.7L215.131 177.701Z" fill="#F0E7D2"/>
<path d="M275.513 156.076L227.278 115.151C225.564 113.72 223.606 113.441 221.315 113.143C218.952 113.028 216.92 112.617 215.785 110.354C214.897 108.594 215.719 106.61 218.065 105.672L247.153 94.1161C249.499 93.1788 251.704 93.9611 252.594 95.7347C253.598 97.7468 252.861 99.2465 251.734 100.608C250.651 102.405 249.841 103.772 251.686 105.454L282.816 133.997L280.903 93.8348C280.724 91.4936 278.621 91.2654 276.272 90.8484C274.169 90.6202 272.023 90.2717 271.076 88.3788C270.188 86.6188 271.009 84.621 273.357 83.6973L287.828 77.9514C290.174 77.0141 292.379 77.7964 293.269 79.57C294.404 81.8333 293.248 83.4979 291.759 85.1574C290.472 86.8719 289.533 88.303 289.595 90.392L291.52 149.721C291.627 152.245 290.196 154.024 287.863 154.946L282.344 157.136C279.867 158.124 277.561 157.827 275.528 156.075L275.513 156.076Z" fill="#F0E7D2"/>
<path d="M304.883 109.683C298.207 88.5807 309.348 70.7161 332.809 64.9959C350.283 60.7309 364.92 65.3037 368.396 76.3175C372.715 89.9838 356.089 99.8974 332.113 106.473C338.066 114.885 347.186 121.374 358.687 118.564C366.409 116.677 369.29 112.407 371.593 109.269C373.128 107.182 374.294 105.9 375.75 105.542C377.353 105.147 378.954 105.765 379.841 108.552C382.866 118.104 373.535 130.812 354.312 135.509C331.44 141.094 311.604 130.932 304.885 109.696L304.883 109.683ZM328.793 100.977C345.196 96.2638 349.332 89.528 346.861 81.7033C344.723 74.9371 339.065 70.4595 332.667 72.0245C324.224 74.0825 322.576 83.7846 325.558 93.2033C326.357 95.722 327.333 98.3383 328.809 100.989L328.793 100.977Z" fill="#F0E7D2"/>
<path d="M410.697 105.001C409.448 87.2962 432.67 80.8391 455.478 79.6369L454.745 69.2045C454.024 59.045 448.481 55.6951 441.831 55.9772C434.415 56.2834 433.375 60.8687 432.498 65.7168C431.649 70.9871 430.813 76.2429 422.045 76.5987C414.928 76.8848 411.204 73.3307 410.836 68.2515C410.172 58.7861 422.304 50.0355 443.022 49.1787C463.139 48.3486 478.967 55.4144 480.229 73.3919L482.589 107.004C482.765 109.469 484.512 110.638 486.097 111.544C487.531 112.447 488.802 113.224 488.91 114.872C489.154 118.304 483.841 120.453 477.04 120.732C468.271 121.088 461.977 117.911 459.165 112.517C453.509 118.397 445.572 122.023 435.887 122.412C421.67 122.997 411.499 116.4 410.697 105.001ZM449.142 110.029C452.474 109.887 455.425 108.814 457.57 106.932L457.407 106.669L456.132 88.5556C454.085 87.4068 451.762 86.81 448.879 86.9214C440.262 87.2808 434.031 91.5167 434.533 98.6531C435.035 105.79 441.574 110.331 449.142 110.029Z" fill="#F0E7D2"/>
<path d="M517.631 114.814C518.106 112.523 519.803 111.862 521.518 111.076C523.231 110.277 524.946 109.491 525.421 107.2L539.346 40.7405C539.853 38.3247 538.567 37.0969 537.297 35.7448C536.028 34.3928 534.773 33.0261 535.217 30.8746C535.692 28.5842 537.946 27.4747 540.622 27.9795L586.216 36.5548C616.31 42.2144 632.483 64.1389 626.701 91.7117C620.918 119.285 597.156 133.691 566.463 127.921L521.468 119.456C518.793 118.952 517.156 117.104 517.633 114.827L517.631 114.814ZM566.728 41.5584L552.501 109.49C556.164 114.938 561.713 118.768 567.664 119.888C584.209 122.994 594.816 110.031 598.287 93.4953C602.058 75.475 598.621 47.5627 577.016 43.4962L566.728 41.5584Z" fill="#F0E7D2"/>
<path d="M617.908 134.649C618.708 132.733 620.368 132.293 622.015 131.868C624.005 131.406 625.572 130.794 626.419 128.752L644.244 86.2289C645.202 83.9326 644.357 82.4556 643.308 81.0471C642.401 79.6976 641.508 78.347 642.356 76.3046C643.156 74.3886 645.506 73.4641 647.778 74.2839L667.23 81.263C670.488 82.4411 671.818 85.1179 670.53 88.1758L668.38 93.277C675.59 87.7814 683.926 85.7843 691.459 88.483C698.554 91.0331 703.25 96.9759 700.142 104.373C697.522 110.629 691.19 113.642 684.096 111.106C679.273 109.375 677.536 106.11 676.817 102.762C676.238 100.637 675.488 98.9074 673.796 98.2952C671.525 97.4754 668.172 98.4808 664.692 102.083L649.959 137.195C649.096 139.239 650.286 140.693 651.71 142.377C652.807 143.659 654.277 145.204 653.367 147.374C652.566 149.29 650.279 150.087 647.71 149.164L620.6 139.44C618.188 138.574 617.077 136.554 617.877 134.638L617.908 134.649Z" fill="#F0E7D2"/>
<path d="M676.768 155.704C677.785 153.873 679.471 153.596 681.158 153.319C683.191 153.046 684.813 152.581 685.894 150.637L708.343 110.136C709.565 107.95 708.88 106.398 707.991 104.914C707.244 103.488 706.498 102.076 707.577 100.118C708.594 98.2877 711.02 97.592 713.185 98.6079L731.731 107.295C734.843 108.753 735.863 111.526 734.25 114.449L708.357 161.152C707.276 163.096 707.96 164.635 708.771 166.247C709.518 167.673 710.265 169.098 709.247 170.915C708.23 172.746 706.008 173.373 703.702 172.299L678.932 160.696C676.626 159.621 675.75 157.521 676.752 155.691L676.768 155.704ZM721.963 81.5822C725.266 75.6221 732.498 73.9615 739.954 77.4502C747.395 80.94 750.179 87.2974 746.876 93.2575C743.573 99.2176 736.264 101.006 728.823 97.5167C721.382 94.0269 718.66 87.5424 721.964 81.5958L721.963 81.5822Z" fill="#F0E7D2"/>
<path d="M709.835 169.159C711.079 167.461 712.802 167.36 714.526 167.271C716.585 167.215 718.26 166.938 719.597 165.125L747.338 127.407C748.833 125.364 748.368 123.768 747.681 122.2C747.121 120.705 746.562 119.21 747.9 117.41C749.144 115.713 751.662 115.284 753.689 116.529L771.022 127.172C773.932 128.96 774.586 131.817 772.587 134.536L769.756 138.393C779.532 135.835 789.831 137.059 798.448 142.336C809.96 149.402 813.741 160.749 805.654 171.744L782.24 203.576C780.903 205.389 781.255 206.911 781.978 208.682C782.537 210.177 783.097 211.672 781.838 213.37C780.58 215.069 778.155 215.382 776.001 214.063L752.833 199.858C750.679 198.539 750.208 196.437 751.451 194.739C752.695 193.041 754.418 192.939 756.142 192.851C758.073 192.721 759.876 192.518 761.213 190.705L784.216 159.434C787.709 154.671 786.338 149.059 781.017 145.804C776.338 142.931 770.446 142.943 764.753 145.199L740.585 178.053C739.248 179.867 739.728 181.476 740.322 183.16C740.882 184.655 741.44 186.136 740.183 187.848C738.939 189.546 736.628 189.933 734.473 188.614L711.305 174.41C709.151 173.09 708.552 170.914 709.796 169.217L709.835 169.159Z" fill="#F0E7D2"/>
<path d="M780.748 211.798C782.282 210.301 783.999 210.459 785.715 210.603C787.757 210.849 789.469 210.802 791.097 209.203L844.433 157.069C846.268 155.278 846.084 153.623 845.675 151.982C845.381 150.43 845.089 148.891 846.717 147.292C848.251 145.795 850.819 145.732 852.598 147.239L867.918 160.167C870.488 162.332 870.635 165.247 868.199 167.639L828.02 206.916L861.841 206.846C864.523 206.871 865.182 205.213 864.969 202.972C864.675 201.42 864.477 199.779 865.806 198.487C867.339 196.99 869.682 196.928 871.592 198.536L884.687 209.577C886.598 211.184 886.694 213.31 885.16 214.808C883.326 216.599 880.639 216.382 876.42 215.613C873.383 214.915 869.95 214.612 865.23 214.533L851.946 214.481L843.61 250.527C842.386 255.803 843.164 258.704 843.917 260.621C844.536 262.261 844.684 263.126 843.356 264.418C841.11 266.606 836.893 265.85 831.637 261.405C823.467 254.517 819.101 244.34 822.131 234.636L827.298 214.304L820.541 214.184L809.631 224.854C808.003 226.453 808.185 228.095 808.498 229.837C808.792 231.39 809.085 232.928 807.551 234.426C806.018 235.923 803.676 235.984 801.765 234.377L781.291 217.12C779.396 215.511 779.169 213.285 780.702 211.787L780.748 211.798Z" fill="#F0E7D2"/>
<path d="M849.026 260.39C855.278 255.487 863.094 256.142 868.84 262.118C874.57 268.095 874.307 275.283 868.055 280.186C861.803 285.089 853.775 284.422 848.029 278.445C842.298 272.468 842.774 265.293 849.041 260.389L849.026 260.39ZM874.64 252.789L910.44 212.381C914.311 207.692 919.501 207.481 923.827 211.976L931.467 219.936C935.794 224.444 934.93 229.15 929.149 231.855L879.862 258.225C878.075 259.071 876.696 258.876 875.393 257.51L874.785 256.879C873.483 255.513 873.46 254.253 874.638 252.776L874.64 252.789Z" fill="#F0E7D2"/>
<path d="M330.128 246.64C317.008 246.64 308.048 237.744 308.048 224.176C308.048 210.736 316.944 201.84 330.448 201.84C340.688 201.84 347.152 207.088 347.152 212.848C347.152 215.92 345.36 217.968 341.648 217.968C337.232 217.968 335.888 215.024 334.608 211.888C333.328 208.944 331.92 205.936 327.568 205.936C321.808 205.936 318.8 211.312 318.8 218.416C318.8 226.736 323.152 238.96 334.16 238.96C339.024 238.96 341.648 236.4 343.376 234.48C344.464 233.328 345.296 232.624 346.192 232.624C347.152 232.624 347.536 233.456 347.536 234.864C347.536 240.496 340.624 246.64 330.128 246.64ZM368.194 246.64C357.762 246.64 350.914 239.92 350.914 229.68C350.914 219.44 357.762 212.72 368.194 212.72C378.562 212.72 385.41 219.44 385.41 229.68C385.41 239.92 378.562 246.64 368.194 246.64ZM369.602 243.504C372.674 243.504 374.914 240.176 374.914 234.16C374.914 226.8 372.098 215.856 366.786 215.856C363.266 215.856 361.474 220.016 361.474 225.264C361.474 232.688 364.162 243.504 369.602 243.504ZM405.559 246.64C395.447 246.64 388.727 239.984 388.727 229.68C388.727 219.504 395.575 212.72 405.559 212.72C413.111 212.72 418.935 216.624 418.935 221.488C418.935 224.176 417.143 225.648 414.327 225.648C410.423 225.648 409.527 222.896 408.695 220.144C407.991 217.904 407.287 215.856 404.663 215.856C401.143 215.856 399.287 220.016 399.287 224.752C399.287 230.704 401.911 239.536 409.527 239.536C412.983 239.536 414.711 237.808 415.991 236.4C416.759 235.504 417.335 234.928 418.103 234.928C418.871 234.928 419.382 235.376 419.382 236.976C419.382 242.096 413.815 246.64 405.559 246.64ZM423.956 246C422.868 246 422.1 245.296 422.1 244.336C422.1 243.376 422.676 242.928 423.252 242.48C423.956 241.968 424.468 241.456 424.468 240.432V206.96C424.468 205.808 423.892 205.296 423.252 204.848C422.676 204.4 422.1 203.952 422.1 202.928C422.1 201.968 422.868 201.2 423.892 201.2H432.66C434.132 201.2 435.092 202.16 435.092 203.696V228.912L445.46 219.056C446.292 218.288 445.972 217.52 445.204 216.816C444.628 216.368 444.052 215.856 444.052 215.024C444.052 214.064 444.756 213.36 445.844 213.36H453.332C454.42 213.36 455.124 214.064 455.124 215.024C455.124 216.176 454.228 216.88 452.692 217.84C451.54 218.48 450.388 219.376 448.916 220.72L444.82 224.56L453.588 239.408C454.868 241.584 456.02 242.352 456.852 242.8C457.556 243.184 457.876 243.44 457.876 244.272C457.876 245.68 456.34 246.64 453.332 246.64C448.66 246.64 444.116 244.4 442.004 240.176L437.204 231.664L435.092 233.584V240.432C435.092 241.456 435.668 241.968 436.308 242.48C436.884 242.928 437.46 243.376 437.46 244.336C437.46 245.296 436.756 246 435.668 246H423.956ZM471.199 246.64C465.631 246.64 461.983 243.184 461.983 238V216.88H459.807C458.719 216.88 458.015 216.112 458.015 215.024C458.015 213.744 459.039 213.36 460.511 212.784C464.031 211.568 466.783 209.584 468.575 206.32C469.215 205.104 469.791 204.336 470.879 204.336C471.967 204.336 472.607 205.04 472.607 206.128V213.36H479.135C480.223 213.36 480.863 214.064 480.863 215.152C480.863 216.24 480.223 216.88 479.135 216.88H472.607V237.68C472.607 239.6 473.759 240.816 475.423 240.816C476.447 240.816 477.151 240.432 477.791 240.048C478.431 239.728 479.007 239.472 479.455 239.472C480.287 239.472 480.863 240.176 480.863 241.008C480.863 243.184 476.831 246.64 471.199 246.64ZM493.27 246.64C487.254 246.64 483.158 243.376 483.158 238.064C483.158 229.808 493.142 227.248 502.806 227.12V222.256C502.806 217.52 500.566 215.856 497.75 215.856C494.614 215.856 494.038 217.968 493.526 220.208C493.014 222.64 492.502 225.072 488.79 225.072C485.782 225.072 484.31 223.344 484.31 220.976C484.31 216.56 489.686 212.72 498.454 212.72C506.966 212.72 513.43 216.304 513.43 224.688V240.368C513.43 241.52 514.134 242.096 514.774 242.544C515.35 242.992 515.862 243.376 515.862 244.144C515.862 245.744 513.558 246.64 510.678 246.64C506.966 246.64 504.406 245.04 503.382 242.48C500.822 245.104 497.366 246.64 493.27 246.64ZM493.398 235.568C493.398 238.896 496.022 241.136 499.222 241.136C500.63 241.136 501.91 240.688 502.87 239.856L502.806 239.728V231.28C501.974 230.704 501.014 230.384 499.798 230.384C496.15 230.384 493.398 232.24 493.398 235.568ZM525.899 209.84C522.379 209.84 520.011 207.664 520.011 204.528C520.011 201.392 522.379 199.28 525.899 199.28C529.419 199.28 531.787 201.392 531.787 204.528C531.787 207.664 529.419 209.84 525.899 209.84ZM520.331 246C519.243 246 518.475 245.296 518.475 244.336C518.475 243.376 519.051 242.928 519.627 242.48C520.331 241.968 520.843 241.456 520.843 240.432V219.12C520.843 217.968 520.267 217.456 519.627 217.008C519.051 216.56 518.475 216.112 518.475 215.088C518.475 214.128 519.243 213.36 520.267 213.36H529.035C530.507 213.36 531.467 214.32 531.467 215.856V240.432C531.467 241.456 532.043 241.968 532.683 242.48C533.259 242.928 533.835 243.376 533.835 244.336C533.835 245.296 533.131 246 532.043 246H520.331ZM538.769 246C537.681 246 536.913 245.296 536.913 244.336C536.913 243.376 537.489 242.928 538.065 242.48C538.769 241.968 539.281 241.456 539.281 240.432V206.96C539.281 205.808 538.705 205.296 538.065 204.848C537.489 204.4 536.913 203.952 536.913 202.928C536.913 201.968 537.681 201.2 538.705 201.2H547.473C548.945 201.2 549.905 202.16 549.905 203.696V240.432C549.905 241.456 550.481 241.968 551.121 242.48C551.697 242.928 552.273 243.376 552.273 244.336C552.273 245.296 551.569 246 550.481 246H538.769ZM569.811 246.64C561.491 246.64 555.475 243.44 555.475 238.832C555.475 236.528 556.883 235.056 559.315 235.056C562.195 235.056 563.283 237.104 564.307 239.216C565.395 241.392 566.611 243.632 570.131 243.632C573.075 243.632 574.995 242.096 574.995 239.664C574.995 236.528 571.603 235.12 567.315 233.52C561.939 231.408 556.115 229.04 556.115 222.448C556.115 216.368 561.043 212.72 570.195 212.72C578.643 212.72 583.059 215.92 583.059 219.888C583.059 222 581.651 223.152 579.539 223.152C576.915 223.152 575.763 221.36 574.931 219.44C574.099 217.52 573.075 215.728 570.067 215.728C567.379 215.728 565.715 217.072 565.715 219.184C565.715 222.32 569.299 223.856 573.459 225.52C578.707 227.632 584.595 230.128 584.595 236.656C584.595 242.928 579.155 246.64 569.811 246.64Z" fill="#F0E7D2"/>
</svg>
