<svg width="707" height="391" viewBox="0 0 707 391" fill="none" xmlns="http://www.w3.org/2000/svg">
<path d="M273.822 374.484L275.502 376.164C273.492 378.534 271.272 379.554 268.182 379.554C265.392 379.554 263.022 378.534 261.312 376.614C259.632 374.724 258.642 371.994 258.642 369.204C258.642 363.204 262.692 358.824 268.212 358.824C270.012 358.824 271.782 359.304 273.222 360.174C274.032 360.684 274.572 361.164 275.562 362.244L273.822 363.864C271.872 361.854 270.402 361.134 268.272 361.134C264.192 361.134 261.222 364.524 261.222 369.204C261.222 373.854 264.252 377.244 268.392 377.244C270.582 377.244 272.262 376.374 273.822 374.484ZM284.41 365.034C288.49 365.034 291.4 368.064 291.4 372.324C291.4 376.374 288.28 379.524 284.32 379.524C280.21 379.524 277.33 376.524 277.33 372.264C277.33 367.974 280.21 365.034 284.41 365.034ZM284.41 367.134C281.56 367.134 279.67 369.204 279.67 372.294C279.67 375.354 281.56 377.424 284.38 377.424C287.11 377.424 289.06 375.294 289.06 372.294C289.06 369.204 287.2 367.134 284.41 367.134ZM300.846 365.034C304.926 365.034 307.836 368.064 307.836 372.324C307.836 376.374 304.716 379.524 300.756 379.524C296.646 379.524 293.766 376.524 293.766 372.264C293.766 367.974 296.646 365.034 300.846 365.034ZM300.846 367.134C297.996 367.134 296.106 369.204 296.106 372.294C296.106 375.354 297.996 377.424 300.816 377.424C303.546 377.424 305.496 375.294 305.496 372.294C305.496 369.204 303.636 367.134 300.846 367.134ZM313.591 379.194H311.311V359.184H313.591V379.194ZM329.591 367.374V376.374C329.621 377.064 329.801 377.214 330.641 377.214H331.691V379.194H329.561C327.941 379.164 327.311 378.564 327.311 377.034V367.374H325.391V365.364H327.311V361.014H329.591V365.364H331.691V367.374H329.591ZM337.117 359.184V367.284C338.377 365.724 339.637 365.034 341.287 365.034C342.487 365.034 343.747 365.514 344.497 366.294C345.247 367.044 345.577 368.124 345.577 369.894V379.194H343.297V370.014C343.297 368.124 342.367 367.074 340.717 367.074C339.667 367.074 338.737 367.494 338.017 368.304C337.327 369.084 337.117 369.774 337.117 371.094V379.194H334.837V359.184H337.117ZM352.351 365.364V379.194H350.071V365.364H352.351ZM351.241 359.994C352.051 359.994 352.681 360.654 352.681 361.494C352.681 362.304 352.021 362.934 351.211 362.934C350.401 362.934 349.771 362.304 349.771 361.464C349.771 360.624 350.401 359.994 351.241 359.994ZM356.926 365.364H359.206V367.314C360.406 365.694 361.606 365.034 363.316 365.034C364.576 365.034 365.716 365.454 366.526 366.174C367.396 367.014 367.696 367.974 367.696 369.864V379.194H365.416V370.374C365.416 369.144 365.266 368.484 364.906 368.004C364.486 367.434 363.676 367.074 362.746 367.074C361.726 367.074 360.796 367.464 360.106 368.244C359.446 368.964 359.206 369.624 359.206 370.764V379.194H356.926V365.364ZM382.362 367.734V365.364H384.642V379.284C384.642 381.594 384.072 383.154 382.812 384.354C381.582 385.554 379.812 386.184 377.712 386.184C375.132 386.184 373.092 385.344 371.592 383.664L373.152 382.104C373.782 382.764 374.082 383.034 374.472 383.304C375.252 383.784 376.542 384.114 377.712 384.114C379.152 384.114 380.532 383.604 381.312 382.764C382.002 382.014 382.362 380.904 382.362 379.464V376.554C381.012 378.594 379.422 379.524 377.262 379.524C373.602 379.524 370.872 376.434 370.872 372.324C370.872 370.104 371.682 367.974 373.062 366.654C374.172 365.574 375.672 365.034 377.442 365.034C379.542 365.034 380.952 365.814 382.362 367.734ZM377.862 367.134C375.162 367.134 373.272 369.234 373.272 372.234C373.272 375.204 375.192 377.424 377.802 377.424C379.122 377.424 380.412 376.794 381.312 375.744C381.912 375.054 382.302 373.704 382.302 372.324C382.302 370.524 382.032 369.564 381.222 368.664C380.382 367.734 379.092 367.134 377.862 367.134ZM397.882 369.144H395.602V368.994C395.602 367.704 394.552 366.894 392.962 366.894C391.432 366.894 390.472 367.674 390.472 368.874C390.472 370.074 391.072 370.524 393.562 371.214C395.332 371.694 396.262 372.144 396.922 372.804C397.612 373.494 398.032 374.484 398.032 375.504C398.032 377.904 396.052 379.524 393.112 379.524C389.962 379.524 388.192 378.054 387.952 375.264H390.202C390.352 376.824 391.372 377.664 393.112 377.664C394.672 377.664 395.692 376.854 395.692 375.624C395.692 374.424 394.912 373.824 392.542 373.224C389.542 372.414 388.192 371.154 388.192 369.054C388.192 366.654 390.142 365.034 393.052 365.034C395.992 365.034 397.762 366.534 397.882 369.144ZM412.82 359.184V367.284C414.08 365.724 415.34 365.034 416.99 365.034C418.19 365.034 419.45 365.514 420.2 366.294C420.95 367.044 421.28 368.124 421.28 369.894V379.194H419V370.014C419 368.124 418.07 367.074 416.42 367.074C415.37 367.074 414.44 367.494 413.72 368.304C413.03 369.084 412.82 369.774 412.82 371.094V379.194H410.54V359.184H412.82ZM436.214 367.644V365.364H438.494V379.194H436.214V376.524C434.834 378.594 433.274 379.524 431.174 379.524C427.364 379.524 424.664 376.524 424.664 372.324C424.664 368.094 427.424 365.034 431.234 365.034C433.334 365.034 434.864 365.844 436.214 367.644ZM431.564 367.074C430.064 367.074 429.014 367.584 428.204 368.724C427.484 369.714 427.064 371.034 427.064 372.384C427.064 375.324 428.984 377.544 431.504 377.544C434.114 377.544 436.244 375.114 436.244 372.144C436.244 369.144 434.324 367.074 431.564 367.074ZM443.089 365.364H445.369V367.884C446.689 365.844 448.099 365.034 450.409 365.034C454.249 365.034 456.919 367.974 456.919 372.174C456.919 376.524 454.249 379.524 450.409 379.524C449.329 379.524 448.339 379.284 447.379 378.804C446.539 378.384 446.119 378.024 445.369 377.034V385.674H443.089V365.364ZM450.019 367.074C447.259 367.074 445.369 369.264 445.369 372.504C445.369 375.534 447.199 377.544 449.929 377.544C452.659 377.544 454.489 375.414 454.489 372.264C454.489 370.644 454.099 369.414 453.289 368.514C452.479 367.614 451.249 367.074 450.019 367.074ZM460.374 365.364H462.654V367.884C463.974 365.844 465.384 365.034 467.694 365.034C471.534 365.034 474.204 367.974 474.204 372.174C474.204 376.524 471.534 379.524 467.694 379.524C466.614 379.524 465.624 379.284 464.664 378.804C463.824 378.384 463.404 378.024 462.654 377.034V385.674H460.374V365.364ZM467.304 367.074C464.544 367.074 462.654 369.264 462.654 372.504C462.654 375.534 464.484 377.544 467.214 377.544C469.944 377.544 471.774 375.414 471.774 372.264C471.774 370.644 471.384 369.414 470.574 368.514C469.764 367.614 468.534 367.074 467.304 367.074ZM490.499 373.014H478.979C479.099 374.184 479.309 374.784 479.879 375.534C480.779 376.764 482.099 377.424 483.599 377.424C485.309 377.424 486.929 376.494 487.739 375.054L489.749 375.804C488.609 378.114 486.239 379.524 483.599 379.524C479.489 379.524 476.549 376.524 476.549 372.324C476.549 368.064 479.459 365.034 483.509 365.034C487.529 365.034 490.529 368.064 490.529 372.114C490.529 372.294 490.529 372.684 490.499 373.014ZM479.009 371.334H488.099C488.009 370.254 487.799 369.654 487.319 368.964C486.449 367.794 485.039 367.074 483.509 367.074C481.979 367.074 480.599 367.794 479.789 368.994C479.369 369.654 479.189 370.224 479.009 371.334ZM493.831 365.364H496.111V367.314C497.311 365.694 498.511 365.034 500.221 365.034C501.481 365.034 502.621 365.454 503.431 366.174C504.301 367.014 504.601 367.974 504.601 369.864V379.194H502.321V370.374C502.321 369.144 502.171 368.484 501.811 368.004C501.391 367.434 500.581 367.074 499.651 367.074C498.631 367.074 497.701 367.464 497.011 368.244C496.351 368.964 496.111 369.624 496.111 370.764V379.194H493.831V365.364ZM511.884 376.854L508.854 383.964L507.204 383.454L509.724 376.164L511.884 376.854ZM534.392 375.924L535.802 377.484C534.242 378.894 532.712 379.524 530.702 379.524C526.742 379.524 523.922 376.524 523.922 372.324C523.922 368.034 526.772 365.034 530.822 365.034C532.802 365.034 534.422 365.694 535.862 367.104L534.392 368.574C533.342 367.614 532.172 367.134 530.882 367.134C528.152 367.134 526.262 369.234 526.262 372.234C526.262 375.294 528.152 377.424 530.852 377.424C532.202 377.424 533.282 376.974 534.392 375.924ZM544.215 365.034C548.295 365.034 551.205 368.064 551.205 372.324C551.205 376.374 548.085 379.524 544.125 379.524C540.015 379.524 537.135 376.524 537.135 372.264C537.135 367.974 540.015 365.034 544.215 365.034ZM544.215 367.134C541.365 367.134 539.475 369.204 539.475 372.294C539.475 375.354 541.365 377.424 544.185 377.424C546.915 377.424 548.865 375.294 548.865 372.294C548.865 369.204 547.005 367.134 544.215 367.134ZM554.68 365.364H556.96V367.284C558.01 365.694 559.18 365.034 560.89 365.034C562.78 365.034 563.98 365.844 564.61 367.554C565.63 365.784 566.92 365.034 568.99 365.034C570.58 365.034 571.78 365.544 572.5 366.504C573.16 367.374 573.34 368.154 573.34 370.344V379.194H571.06V370.884C571.06 369.204 571 368.814 570.67 368.244C570.25 367.524 569.35 367.074 568.27 367.074C566.26 367.074 565.15 368.424 565.15 370.884V379.194H562.87V370.914C562.87 369.564 562.75 368.874 562.42 368.274C562.03 367.494 561.19 367.074 560.17 367.074C558.16 367.074 556.96 368.514 556.96 370.914V379.194H554.68V365.364ZM590.694 373.014H579.174C579.294 374.184 579.504 374.784 580.074 375.534C580.974 376.764 582.294 377.424 583.794 377.424C585.504 377.424 587.124 376.494 587.934 375.054L589.944 375.804C588.804 378.114 586.434 379.524 583.794 379.524C579.684 379.524 576.744 376.524 576.744 372.324C576.744 368.064 579.654 365.034 583.704 365.034C587.724 365.034 590.724 368.064 590.724 372.114C590.724 372.294 590.724 372.684 590.694 373.014ZM579.204 371.334H588.294C588.204 370.254 587.994 369.654 587.514 368.964C586.644 367.794 585.234 367.074 583.704 367.074C582.174 367.074 580.794 367.794 579.984 368.994C579.564 369.654 579.384 370.224 579.204 371.334ZM605.3 365.364V380.634C605.3 382.524 604.97 383.664 604.13 384.564C603.29 385.494 602.06 386.004 600.65 386.004H600.05V383.844H600.38C602 383.784 602.99 382.584 603.02 380.634V365.364H605.3ZM604.19 359.994C605 359.994 605.63 360.654 605.63 361.494C605.63 362.304 604.97 362.934 604.16 362.934C603.35 362.934 602.72 362.304 602.72 361.464C602.72 360.624 603.35 359.994 604.19 359.994ZM615.846 365.034C619.926 365.034 622.836 368.064 622.836 372.324C622.836 376.374 619.716 379.524 615.756 379.524C611.646 379.524 608.766 376.524 608.766 372.264C608.766 367.974 611.646 365.034 615.846 365.034ZM615.846 367.134C612.996 367.134 611.106 369.204 611.106 372.294C611.106 375.354 612.996 377.424 615.816 377.424C618.546 377.424 620.496 375.294 620.496 372.294C620.496 369.204 618.636 367.134 615.846 367.134ZM628.591 365.364V379.194H626.311V365.364H628.591ZM627.481 359.994C628.291 359.994 628.921 360.654 628.921 361.494C628.921 362.304 628.261 362.934 627.451 362.934C626.641 362.934 626.011 362.304 626.011 361.464C626.011 360.624 626.641 359.994 627.481 359.994ZM633.167 365.364H635.447V367.314C636.647 365.694 637.847 365.034 639.557 365.034C640.817 365.034 641.957 365.454 642.767 366.174C643.637 367.014 643.937 367.974 643.937 369.864V379.194H641.657V370.374C641.657 369.144 641.507 368.484 641.147 368.004C640.727 367.434 639.917 367.074 638.987 367.074C637.967 367.074 637.037 367.464 636.347 368.244C635.687 368.964 635.447 369.624 635.447 370.764V379.194H633.167V365.364ZM665.465 365.364H667.775V374.214C667.775 376.104 667.415 377.154 666.395 378.084C665.375 379.014 663.965 379.524 662.405 379.524C660.845 379.524 659.405 378.984 658.415 378.054C657.485 377.154 657.035 375.894 657.035 374.214V365.364H659.315V374.154C659.315 376.104 660.575 377.484 662.405 377.484C663.365 377.484 664.295 377.094 664.865 376.434C665.315 375.894 665.465 375.324 665.465 374.214V365.364ZM680.655 369.144H678.375V368.994C678.375 367.704 677.325 366.894 675.735 366.894C674.205 366.894 673.245 367.674 673.245 368.874C673.245 370.074 673.845 370.524 676.335 371.214C678.105 371.694 679.035 372.144 679.695 372.804C680.385 373.494 680.805 374.484 680.805 375.504C680.805 377.904 678.825 379.524 675.885 379.524C672.735 379.524 670.965 378.054 670.725 375.264H672.975C673.125 376.824 674.145 377.664 675.885 377.664C677.445 377.664 678.465 376.854 678.465 375.624C678.465 374.424 677.685 373.824 675.315 373.224C672.315 372.414 670.965 371.154 670.965 369.054C670.965 366.654 672.915 365.034 675.825 365.034C678.765 365.034 680.535 366.534 680.655 369.144ZM694.483 376.314C695.383 376.314 696.043 376.974 696.043 377.904C696.043 378.774 695.353 379.434 694.483 379.434C693.583 379.434 692.923 378.774 692.923 377.874C692.923 376.974 693.583 376.314 694.483 376.314ZM694.483 367.674C695.383 367.674 696.043 368.334 696.043 369.264C696.043 370.134 695.353 370.794 694.483 370.794C693.583 370.794 692.923 370.134 692.923 369.234C692.923 368.334 693.583 367.674 694.483 367.674ZM699.027 360.024L700.527 358.584C704.097 362.964 705.687 367.164 705.687 372.204C705.687 377.394 703.797 382.434 700.467 386.214L699.027 384.714C702.057 380.964 703.557 376.794 703.557 372.294C703.557 367.884 701.967 363.564 699.027 360.024Z" fill="#F0E7D2"/>
<path d="M0 48.5471C0 19.2399 19.0215 0.209961 48.665 0.209961H113.961C117.762 0.209961 120.168 2.67649 120.168 6.47906C120.168 10.0589 118.16 11.8575 116.367 13.6388C114.359 15.4202 112.366 16.9961 112.366 21.0213V129.343C112.366 134.944 115.57 138.524 120.781 138.524H138.607C150.226 138.524 155.636 126.894 159.637 117.267C162.641 109.885 165.247 104.061 169.646 104.061C173.048 104.061 175.255 106.973 175.255 110.998V143.902C175.255 149.281 172.451 152.415 167.438 152.415H74.7066C71.1046 152.415 68.4989 149.949 68.4989 146.146C68.4989 142.344 70.5068 140.768 72.4994 138.986C74.5073 137.205 76.4999 135.407 76.4999 131.604V36.4714C76.4999 21.2611 66.2918 11.4121 47.0556 11.4121C26.0262 11.4121 12.6146 23.4878 12.6146 40.9591C12.6146 52.1441 18.2245 58.8586 26.8386 58.8586C30.2413 58.8586 32.847 57.9679 35.2534 56.8374C37.8591 55.724 40.6641 54.8162 44.266 54.8162C54.0757 54.8162 60.2833 61.3079 60.2833 71.1569C60.2833 83.4725 51.0715 91.7456 36.2497 91.7456C14.6225 91.7456 0 74.2915 0 48.5471Z" fill="#F0E7D2"/>
<path d="M179.623 124.65C179.623 95.7878 210.861 86.8295 241.102 86.3842V69.3754C241.102 52.812 234.097 46.9882 225.284 46.9882C215.474 46.9882 213.666 54.3707 212.072 62.2156C210.462 70.7115 208.868 79.2244 197.25 79.2244C187.839 79.2244 183.225 73.178 183.225 64.9048C183.225 49.4548 200.055 36.0259 227.491 36.0259C254.927 36.0259 274.347 48.5641 274.347 77.8712V132.7C274.347 136.725 276.555 138.747 278.547 140.305C280.356 141.881 281.95 143.217 281.95 145.906C281.95 151.507 274.746 154.642 265.733 154.642C254.115 154.642 246.114 149.041 242.895 140.1C234.879 149.281 224.073 154.642 211.259 154.642C192.437 154.642 179.623 143.234 179.623 124.65ZM229.897 135.389C234.297 135.389 238.312 133.813 241.317 130.919L241.117 130.473V100.926C238.512 98.9053 235.507 97.7919 231.706 97.7919C220.287 97.7919 211.673 104.284 211.673 115.914C211.673 127.544 219.889 135.389 229.897 135.389Z" fill="#F0E7D2"/>
<path d="M291.775 124.427V50.5682H284.969C281.567 50.5682 279.359 47.879 279.359 44.0764C279.359 39.6058 282.563 38.2527 287.176 36.2486C298.197 32.0007 306.796 25.0636 312.406 13.6388C314.414 9.39086 316.207 6.70166 319.61 6.70166C323.012 6.70166 325.02 9.16819 325.02 12.9708V38.2527H345.452C348.855 38.2527 350.863 40.7192 350.863 44.5218C350.863 48.3243 348.855 50.5682 345.452 50.5682H325.02V123.297C325.02 130.011 328.622 134.259 333.834 134.259C337.037 134.259 339.244 132.923 341.237 131.57C343.245 130.456 345.038 129.549 346.448 129.549C349.054 129.549 350.847 132.015 350.847 134.927C350.847 142.532 338.233 154.625 320.606 154.625C302.979 154.625 291.775 142.532 291.775 124.41V124.427Z" fill="#F0E7D2"/>
<path d="M350.051 95.3254C350.051 59.732 371.479 36.0088 403.728 36.0088C427.762 36.0088 444.576 48.7697 444.576 67.3371C444.576 90.3923 419.347 99.5733 386.101 100.687C390.301 116.137 399.314 129.788 415.147 129.788C425.769 129.788 431.164 124.187 435.379 120.162C438.184 117.473 440.192 115.914 442.185 115.914C444.392 115.914 446.185 117.49 446.185 122.183C446.185 138.301 429.156 154.642 402.732 154.642C371.295 154.642 350.066 131.141 350.066 95.3425L350.051 95.3254ZM384.109 90.8548C406.947 89.7414 414.948 80.7832 414.948 67.5769C414.948 56.1692 409.537 46.9883 400.724 46.9883C389.105 46.9883 383.097 61.5305 383.097 77.4259C383.097 81.6738 383.296 86.1615 384.093 90.8548H384.109Z" fill="#F0E7D2"/>
<path d="M449.388 127.322C449.388 119.271 453.787 114.116 461.405 114.116C470.418 114.116 473.821 121.275 477.024 128.658C480.427 136.263 484.228 144.108 495.248 144.108C504.46 144.108 510.469 138.729 510.469 130.234C510.469 119.271 499.847 114.338 486.435 108.754C469.605 101.372 451.381 93.0815 451.381 70.0434C451.381 48.7867 466.8 36.0259 495.448 36.0259C521.888 36.0259 535.698 47.2109 535.698 61.0851C535.698 68.4676 531.299 72.4928 524.677 72.4928C516.462 72.4928 512.86 66.2237 510.254 59.5093C507.648 52.7949 504.445 46.5258 495.034 46.5258C486.619 46.5258 481.423 51.219 481.423 58.6015C481.423 69.5638 492.643 74.9422 505.656 80.766C522.072 88.1484 540.495 96.8841 540.495 119.717C540.495 142.549 523.467 154.625 494.237 154.625C468.195 154.625 449.373 143.44 449.373 127.322H449.388Z" fill="#F0E7D2"/>
<path d="M551.318 124.427V50.5682H544.512C541.11 50.5682 538.902 47.879 538.902 44.0764C538.902 39.6058 542.106 38.2527 546.719 36.2486C557.74 32.0007 566.339 25.0636 571.949 13.6388C573.956 9.39086 575.75 6.70166 579.153 6.70166C582.555 6.70166 584.563 9.16819 584.563 12.9708V38.2527H604.995C608.398 38.2527 610.405 40.7192 610.405 44.5218C610.405 48.3243 608.398 50.5682 604.995 50.5682H584.563V123.297C584.563 130.011 588.165 134.259 593.377 134.259C596.58 134.259 598.787 132.923 600.78 131.57C602.788 130.456 604.581 129.549 605.991 129.549C608.597 129.549 610.39 132.015 610.39 134.927C610.39 142.532 597.776 154.625 580.149 154.625C562.522 154.625 551.318 142.532 551.318 124.41V124.427Z" fill="#F0E7D2"/>
<path d="M133.242 228.047C133.288 198.722 152.355 179.744 181.999 179.812L304.359 180.086C309.172 180.086 312.161 183.238 312.161 188.616L312.099 219.499C312.099 223.525 309.877 226.436 306.275 226.419C302.075 226.419 300.083 221.264 297.692 214.532C294.503 205.128 290.12 193.926 277.107 193.892L245.67 193.823L245.578 246.186L264.799 246.237C272.616 246.254 276.018 240.893 278.639 235.977C280.647 231.729 282.655 228.817 286.257 228.834C289.859 228.852 291.867 231.763 291.852 236.011L291.79 270.029C291.79 274.277 289.767 277.189 286.165 277.172C282.563 277.154 280.571 274.243 278.563 269.995C275.972 265.062 272.57 259.683 264.768 259.666L245.547 259.615L245.455 309.082C245.455 314.683 248.643 318.263 253.855 318.28L278.088 318.332C291.101 318.366 296.128 306.29 299.96 296.681C302.581 289.299 304.987 283.937 309.203 283.937C312.805 283.937 315.012 286.866 314.996 290.892L314.935 323.796C314.935 329.174 311.916 332.292 307.103 332.292L207.765 332.069C204.163 332.069 201.557 329.585 201.572 325.783C201.572 321.98 203.58 320.422 205.588 318.623C207.596 316.842 209.604 315.06 209.604 311.241L209.773 216.125C209.803 200.915 199.61 191.031 180.374 190.997C159.345 190.946 145.903 203.004 145.872 220.459C145.857 231.644 151.451 238.375 160.05 238.392C163.453 238.392 166.058 237.519 168.465 236.388C171.07 235.275 173.875 234.384 177.477 234.401C187.287 234.418 193.479 240.927 193.464 250.776C193.449 263.092 184.222 271.348 169.4 271.314C147.773 271.262 133.181 253.774 133.227 228.029L133.242 228.047Z" fill="#F0E7D2"/>
<path d="M364.166 326.828L330.691 237.673C329.495 234.539 327.288 232.963 324.698 231.164C321.893 229.588 319.701 227.79 319.701 223.765C319.701 220.63 321.908 218.181 325.326 218.181L367.585 218.283C370.987 218.283 373.194 220.767 373.179 223.885C373.179 227.464 371.37 229.246 369.163 230.582C366.757 232.586 364.948 234.145 366.144 237.742L386.453 298.446L408.586 237.844C409.797 234.264 407.39 232.689 404.8 230.667C402.393 229.092 400.002 227.293 400.002 223.936C400.002 220.801 402.21 218.352 405.628 218.352L426.657 218.403C430.06 218.403 432.267 220.887 432.252 224.004C432.252 228.03 429.845 229.811 427.025 231.37C424.419 233.151 422.411 234.71 421.2 237.844L387.388 326.845C385.978 330.648 383.173 332.429 379.77 332.429H371.754C368.152 332.395 365.546 330.613 364.151 326.794L364.166 326.828Z" fill="#F0E7D2"/>
<path d="M423.73 275.493C423.792 239.9 445.266 216.228 477.515 216.314C501.549 216.365 518.348 229.16 518.317 247.745C518.271 270.8 493.026 279.912 459.781 280.957C463.965 296.407 472.947 310.076 488.765 310.11C499.387 310.127 504.798 304.544 509.013 300.535C511.818 297.863 513.826 296.288 515.834 296.305C518.041 296.305 519.834 297.88 519.819 302.574C519.788 318.692 502.744 334.981 476.304 334.93C444.867 334.861 423.669 311.309 423.746 275.51L423.73 275.493ZM457.788 271.091C480.626 270.029 488.643 261.088 488.673 247.882C488.689 236.474 483.309 227.276 474.495 227.259C462.877 227.242 456.838 241.767 456.823 257.662C456.823 261.91 457.007 266.398 457.804 271.091H457.788Z" fill="#F0E7D2"/>
<path d="M522.96 326.965C522.96 323.608 524.769 322.049 526.577 320.49C528.785 318.709 530.394 316.927 530.394 313.33L530.532 238.803C530.532 234.778 528.739 232.98 526.746 231.404C524.953 229.828 523.144 228.269 523.159 224.689C523.159 221.332 525.581 218.66 528.785 218.66L556.221 218.729C560.819 218.729 563.823 222.103 563.808 227.481V235.087C572.422 223.473 584.654 216.553 598.28 216.588C616.504 216.622 629.701 228.972 629.655 250.674L629.533 313.553C629.533 317.133 631.127 318.931 633.319 320.73C635.112 322.306 636.921 323.864 636.905 327.222C636.89 330.579 634.499 333.028 631.081 333.028L594.433 332.943C591.03 332.943 588.823 330.459 588.838 327.102C588.853 323.745 590.647 322.186 592.455 320.627C594.463 318.846 596.272 317.064 596.272 313.467L596.379 251.701C596.395 242.298 590.401 235.789 581.987 235.772C574.583 235.772 568.161 240.67 563.731 248.481L563.609 313.382C563.609 316.962 565.402 318.76 567.395 320.559C569.188 322.134 570.997 323.693 570.981 327.05C570.966 330.408 568.774 332.857 565.356 332.857L528.708 332.771C525.305 332.771 522.899 330.288 522.914 326.93L522.96 326.965Z" fill="#F0E7D2"/>
<path d="M647.774 305.092L647.912 231.233H641.106C637.704 231.216 635.496 228.526 635.512 224.707C635.512 220.236 638.731 218.9 643.329 216.896C654.349 212.665 662.979 205.745 668.604 194.355C670.612 190.107 672.421 187.418 675.823 187.435C679.226 187.452 681.219 189.901 681.219 193.721L681.173 219.003L701.604 219.054C705.007 219.054 707 221.521 707 225.34C707 229.143 704.992 231.37 701.589 231.37L681.157 231.318L681.019 304.047C681.019 310.761 684.606 315.026 689.817 315.026C693.021 315.026 695.228 313.69 697.236 312.354C699.244 311.241 701.053 310.35 702.447 310.35C705.053 310.35 706.846 312.817 706.846 315.728C706.846 323.334 694.186 335.392 676.574 335.358C659.147 335.324 647.759 323.214 647.789 305.074L647.774 305.092Z" fill="#F0E7D2"/>
</svg>
