<svg width="454" height="249" viewBox="0 0 454 249" fill="none" xmlns="http://www.w3.org/2000/svg">
<path d="M23.92 48.5345V45.0945C27.69 44.7545 28.64 44.2145 28.64 40.9845V9.57449C28.64 7.48449 26.21 6.74449 23.92 6.74449H20.48C10.98 6.74449 6.06001 12.0045 6.06001 18.2745C6.06001 23.7345 8.69001 26.2245 11.65 26.2245C12.86 26.2245 13.47 25.3445 13.47 24.5345C13.47 22.5845 12.19 21.7045 12.19 19.0745C12.19 15.3045 15.09 13.0745 18.26 13.0745C23.11 13.0745 25.2 17.1845 25.2 20.8945C25.2 27.1645 20.41 31.9445 12.6 31.9445C6.60001 31.9445 7.82998e-06 27.3645 7.82998e-06 18.2645C-0.00999217 6.94449 9.56001 1.35449 20.48 1.35449H47.91V4.79449C44.14 5.13449 43.19 5.67449 43.19 8.90449V41.1245C43.19 42.3345 44 43.1445 45.21 43.1445H46.02C50.67 43.1445 58.62 38.2945 62.94 32.5645L65.84 34.2545L59.3 48.5445H23.92V48.5345Z" fill="#F0E7D2"/>
<path d="M66.8398 48.5347V45.0947C69.5998 44.7547 70.2098 44.2147 70.2098 42.4647V27.1647C70.2098 25.8147 69.8098 25.2747 68.7298 25.2747H66.8398V21.9747L78.0998 16.1147H82.7498V42.4647C82.7498 44.2147 83.3598 44.7547 86.1198 45.0947V48.5347H66.8398ZM83.7598 6.88473C83.7598 10.0547 81.2698 13.2847 76.7498 13.2847C72.2298 13.2847 69.8098 10.0447 69.8098 6.88473C69.8098 3.72473 72.1698 0.344727 76.7498 0.344727C81.3298 0.344727 83.7598 3.71473 83.7598 6.88473Z" fill="#F0E7D2"/>
<path d="M103.51 21.845H101.49C97.6498 21.845 94.2798 24.205 92.1198 28.655L89.0898 27.575L91.3798 17.125H119.42V20.565L103.99 43.815H107.23C113.09 43.815 116.6 39.775 118.89 35.995L121.92 37.415L117.54 48.535H88.0898V45.095L103.52 21.845H103.51Z" fill="#F0E7D2"/>
<path d="M138.01 47.455C138.01 39.635 144.28 35.185 150.68 35.185C157.08 35.185 162 38.485 162 44.015C162 47.855 159.71 50.615 155.53 50.615C150.14 50.615 150.27 43.675 146.9 43.675C145.42 43.675 144.07 45.025 144.07 47.445C144.07 54.585 150.94 57.895 157.82 57.895C164.7 57.895 169.14 53.515 169.14 46.975C169.14 38.815 162.87 35.185 155.73 31.205C148.92 27.495 142.05 23.725 142.12 15.025C142.19 5.05496 150.75 0.334961 160.18 0.334961C165.77 0.334961 169.55 1.48496 172.45 3.16496L173.33 1.34496H177.24L180.07 16.845L177.1 17.655C174 9.97496 168.34 5.38496 162.54 5.38496C158.9 5.38496 155.73 7.40496 155.73 10.305C155.73 14.075 159.44 16.235 164.22 18.595C173.66 23.245 183.43 28.095 183.43 42.255C183.43 52.835 173.99 63.285 158.22 63.285C146.63 63.285 138 57.015 138 47.445L138.01 47.455Z" fill="#F0E7D2"/>
<path d="M206.21 25.215C205.74 22.455 205.13 20.905 203.04 20.905C199.33 20.905 198.52 24.815 198.52 32.835C198.52 40.855 201.08 44.155 206.14 44.155C209.78 44.155 212.48 41.865 214.56 36.875L218.87 39.435C215.97 45.765 211.66 49.545 203.77 49.545C193.05 49.545 185.77 42.675 185.77 32.835C185.77 22.995 192.71 16.125 203.09 16.125C211.25 16.125 217.04 19.565 217.04 24.755C217.04 28.195 214.55 30.085 211.78 30.085C209.01 30.085 206.73 28.395 206.19 25.235L206.21 25.215Z" fill="#F0E7D2"/>
<path d="M241.051 48.5347V45.0947C243.811 44.7547 244.421 44.2147 244.421 42.4647V26.9647C244.421 24.0647 242.671 22.9847 240.511 22.9847C238.691 22.9847 237.271 23.5947 235.791 24.6047V42.4647C235.791 44.2147 236.401 44.7547 239.161 45.0947V48.5347H219.881V45.0947C222.641 44.7547 223.251 44.2147 223.251 42.4647V11.3947C223.251 10.0447 222.851 9.50473 221.771 9.50473H219.881V6.20473L231.141 0.344727H235.791V19.4147C238.491 17.5947 242.391 16.1147 245.761 16.1147C251.221 16.1147 256.951 17.9347 256.951 27.3047V42.4747C256.951 44.2247 257.561 44.7647 260.321 45.1047V48.5447H241.041L241.051 48.5347Z" fill="#F0E7D2"/>
<path d="M286.47 32.695L281.08 48.535H272.05L263.29 24.675C262.55 22.385 261.94 20.905 259.65 20.565V17.125H278.93V20.565C276.44 20.905 275.56 21.445 276.64 24.675L280.35 34.985L283.72 25.015C282.84 22.525 282.24 20.905 280.82 20.565V17.125H299.42V20.565C296.93 20.905 295.71 21.445 296.79 24.675L300.43 34.715L304.07 24.675C305.22 21.505 303.73 20.905 301.31 20.565V17.125H313.78V20.565C311.49 20.905 310.75 22.045 309.87 24.675L301.24 48.535H292.28L286.48 32.695H286.47Z" fill="#F0E7D2"/>
<path d="M323.2 49.415C317.67 49.415 314.1 45.975 314.1 41.465C314.1 33.105 324.95 30.345 333.65 28.595V25.895C333.65 22.055 333.25 20.845 330.75 20.845C328.8 20.845 327.85 22.055 326.71 25.155C325.63 28.185 323.41 29.605 320.51 29.605C318.02 29.605 316.06 28.055 316.06 24.815C316.06 19.225 323 16.125 332.17 16.125C339.58 16.125 346.19 18.885 346.19 26.575V42.005C346.19 43.485 346.86 44.025 347.87 44.025C348.27 44.025 348.88 43.955 349.56 43.625V47.605C347.47 48.815 345.18 49.425 341.74 49.425C337.83 49.425 334.73 48.545 333.85 45.245C331.15 47.335 327.38 49.425 323.2 49.425V49.415ZM333.65 33.235C329.54 34.245 326.84 35.665 326.84 38.625C326.84 40.845 328.32 41.855 330.01 41.855C331.49 41.855 332.71 41.315 333.65 40.645V33.235Z" fill="#F0E7D2"/>
<path d="M370.04 24.675C369.1 24.675 368.22 25.015 367.48 25.825V42.475C367.48 44.225 368.09 44.765 370.85 45.105V48.545H351.57V45.105C354.33 44.765 354.94 44.225 354.94 42.475V27.175C354.94 25.825 354.54 25.285 353.46 25.285H351.57V21.985L362.83 16.125H367.48V19.895C369.3 17.875 372.27 16.125 375.43 16.125C379.07 16.125 381.76 18.215 381.76 22.195C381.76 26.175 379.13 28.465 376.37 28.465C371.65 28.465 372.33 24.695 370.04 24.695V24.675Z" fill="#F0E7D2"/>
<path d="M405.759 48.4654C403.739 49.0754 400.439 49.5454 397.739 49.5454C390.389 49.5454 386.149 47.1854 386.149 39.7754V22.2554H382.779V19.0154C388.639 16.7954 392.419 12.8854 394.039 6.81543H398.689V17.1254H405.769V22.2454H398.689V39.7654C398.689 43.1354 400.239 44.2854 402.189 44.2854C403.199 44.2854 404.949 44.0154 405.759 43.6154V48.4654Z" fill="#F0E7D2"/>
<path d="M423.281 54.805C419.641 51.575 416.001 48.535 410.001 48.535H407.711V45.095L423.141 21.845H421.121C417.281 21.845 413.911 24.205 411.751 28.655L408.721 27.575L411.011 17.125H439.051V20.565L421.591 46.645C423.681 47.455 425.031 48.665 428.731 52.175C431.561 54.805 434.731 57.365 439.381 57.365C444.031 57.365 447.741 53.795 447.741 49.075C447.741 45.975 445.851 44.155 443.701 44.155C441.001 44.155 441.071 47.925 436.761 47.925C434.001 47.925 431.441 45.565 431.441 42.395C431.441 38.755 434.341 35.585 440.001 35.585C446.741 35.585 453.551 40.845 453.551 49.065C453.551 56.745 448.021 62.405 439.331 62.405C431.921 62.405 427.401 58.425 423.291 54.785L423.281 54.805Z" fill="#F0E7D2"/>
<path d="M30.8798 132.815V134.735H22.8398V117.925H24.9598V132.825H30.8798V132.815Z" fill="#F0E7D2"/>
<path d="M35.3895 119.865C35.3895 120.545 34.8395 121.075 34.1495 121.075C33.4595 121.075 32.9395 120.545 32.9395 119.835C32.9395 119.125 33.4695 118.595 34.1795 118.595C34.8895 118.595 35.3895 119.145 35.3895 119.855V119.865ZM35.1095 134.735H33.1895V123.115H35.1095V134.735Z" fill="#F0E7D2"/>
<path d="M45.9294 133.044V134.734H37.3594L43.4094 124.804H38.0194V123.114H46.5694L40.5994 133.044H45.9394H45.9294Z" fill="#F0E7D2"/>
<path d="M57.4397 130.224C57.5397 132.144 58.5697 133.144 60.4097 133.144C62.2497 133.144 63.6397 131.984 63.6397 130.294C63.6397 128.834 62.8797 128.154 60.2397 127.264C58.2497 126.584 57.5897 126.254 56.8397 125.574C55.9797 124.794 55.5297 123.684 55.5297 122.394C55.5297 119.544 57.5697 117.604 60.5497 117.604C63.5297 117.604 65.4697 119.494 65.5397 122.414H63.4197C63.3897 121.554 63.2897 121.154 63.0197 120.674C62.5397 119.944 61.6097 119.494 60.5197 119.494C58.8597 119.494 57.6697 120.624 57.6697 122.244C57.6697 123.054 58.0197 123.754 58.6297 124.184C59.1597 124.564 59.6097 124.764 61.3297 125.374C63.1197 126.004 63.9797 126.454 64.6597 127.184C65.3897 127.964 65.7897 129.024 65.7897 130.154C65.7897 133.054 63.6497 135.024 60.4997 135.024C58.3597 135.024 56.8997 134.264 56.0097 132.754C55.6097 132.074 55.4297 131.364 55.4297 130.564V130.214H57.4497L57.4397 130.224Z" fill="#F0E7D2"/>
<path d="M77.9099 133.295C76.5999 134.475 75.3099 135.005 73.6199 135.005C70.2899 135.005 67.9199 132.485 67.9199 128.955C67.9199 125.425 70.3199 122.835 73.7199 122.835C75.3799 122.835 76.7499 123.385 77.9599 124.575L76.7199 125.805C75.8399 124.995 74.8499 124.595 73.7699 124.595C71.4799 124.595 69.8899 126.355 69.8899 128.885C69.8899 131.415 71.4799 133.245 73.7499 133.245C74.8799 133.245 75.7899 132.865 76.7199 131.985L77.8999 133.295H77.9099Z" fill="#F0E7D2"/>
<path d="M82.0101 124.724C83.0701 123.414 84.1301 122.834 85.5101 122.834C86.5201 122.834 87.5801 123.234 88.2101 123.894C88.8401 124.524 89.1201 125.434 89.1201 126.914V134.724H87.2001V127.014C87.2001 125.424 86.4201 124.544 85.0301 124.544C84.1501 124.544 83.3701 124.894 82.7601 125.574C82.1801 126.234 82.0001 126.814 82.0001 127.914V134.724H80.0801V117.914H82.0001V124.724H82.0101Z" fill="#F0E7D2"/>
<path d="M108.271 123.114L104.141 134.734H102.401L99.7309 125.914L96.9309 134.734H95.1109L91.1309 123.114H93.1009L96.0709 131.664L98.7409 123.114H100.631L103.251 131.664L106.301 123.114H108.271Z" fill="#F0E7D2"/>
<path d="M118.911 123.115H120.831V134.735H118.911V132.495C117.751 134.235 116.441 135.015 114.671 135.015C111.471 135.015 109.201 132.495 109.201 128.965C109.201 125.435 111.521 122.845 114.721 122.845C116.481 122.845 117.771 123.525 118.901 125.035V123.115H118.911ZM112.171 125.935C111.561 126.765 111.211 127.875 111.211 129.015C111.211 131.485 112.821 133.345 114.941 133.345C117.061 133.345 118.921 131.305 118.921 128.805C118.921 126.305 117.311 124.545 114.991 124.545C113.731 124.545 112.851 124.975 112.171 125.935Z" fill="#F0E7D2"/>
<path d="M126.59 123.115V125.085C126.94 124.255 127.19 123.905 127.65 123.545C128.23 123.095 129.04 122.835 129.87 122.835H130.32V124.775C130.12 124.745 129.92 124.745 129.79 124.745C128.76 124.745 127.85 125.225 127.27 126.085C126.77 126.815 126.59 127.495 126.59 128.835V134.735H124.67V123.115H126.59Z" fill="#F0E7D2"/>
<path d="M135.26 132.364C135.29 132.944 135.44 133.074 136.14 133.074H137.02V134.734H135.23C133.87 134.704 133.34 134.204 133.34 132.914V124.794H131.73V123.104H133.34V119.454H135.26V123.104H137.02V124.794H135.26V132.354V132.364Z" fill="#F0E7D2"/>
<path d="M147.23 133.044V134.734H138.66L144.71 124.804H139.32V123.114H147.87L141.9 133.044H147.24H147.23Z" fill="#F0E7D2"/>
<path d="M168.57 128.965C168.57 132.365 165.95 135.015 162.62 135.015C159.29 135.015 156.75 132.495 156.75 128.915C156.75 125.335 159.17 122.845 162.7 122.845C166.23 122.845 168.57 125.395 168.57 128.965ZM158.72 128.935C158.72 131.505 160.31 133.245 162.68 133.245C165.05 133.245 166.61 131.455 166.61 128.935C166.61 126.415 165.05 124.595 162.7 124.595C160.35 124.595 158.72 126.335 158.72 128.935Z" fill="#F0E7D2"/>
<path d="M173.41 123.115V125.235C174.52 123.525 175.7 122.845 177.64 122.845C180.87 122.845 183.11 125.315 183.11 128.845C183.11 132.375 180.87 135.025 177.64 135.025C176.73 135.025 175.9 134.825 175.09 134.415C174.38 134.065 174.03 133.755 173.4 132.925V140.185H171.48V123.115H173.4H173.41ZM173.41 129.115C173.41 131.665 174.95 133.345 177.24 133.345C179.53 133.345 181.07 131.555 181.07 128.905C181.07 127.545 180.74 126.515 180.06 125.755C179.38 124.995 178.35 124.545 177.31 124.545C174.99 124.545 173.4 126.385 173.4 129.105L173.41 129.115Z" fill="#F0E7D2"/>
<path d="M187.11 129.544C187.21 130.524 187.39 131.034 187.87 131.664C188.63 132.694 189.74 133.254 191 133.254C192.44 133.254 193.8 132.474 194.48 131.264L196.17 131.894C195.21 133.834 193.22 135.024 191 135.024C187.55 135.024 185.08 132.504 185.08 128.974C185.08 125.444 187.53 122.854 190.93 122.854C194.33 122.854 196.83 125.404 196.83 128.804C196.83 128.954 196.83 129.284 196.8 129.564H187.12L187.11 129.544ZM194.78 128.124C194.7 127.214 194.53 126.714 194.12 126.134C193.39 125.154 192.2 124.544 190.92 124.544C189.64 124.544 188.47 125.144 187.79 126.154C187.44 126.704 187.29 127.184 187.13 128.124H194.77H194.78Z" fill="#F0E7D2"/>
<path d="M201.501 123.115V124.755C202.511 123.395 203.521 122.835 204.951 122.835C206.011 122.835 206.971 123.185 207.651 123.795C208.381 124.505 208.631 125.305 208.631 126.895V134.735H206.711V127.325C206.711 126.295 206.581 125.735 206.281 125.335C205.931 124.855 205.251 124.555 204.461 124.555C203.601 124.555 202.821 124.885 202.241 125.535C201.691 126.145 201.481 126.695 201.481 127.655V134.735H199.561V123.115H201.481H201.501Z" fill="#F0E7D2"/>
<path d="M213.52 129.544C213.62 130.524 213.8 131.034 214.28 131.664C215.04 132.694 216.15 133.254 217.41 133.254C218.85 133.254 220.21 132.474 220.89 131.264L222.58 131.894C221.62 133.834 219.63 135.024 217.41 135.024C213.96 135.024 211.49 132.504 211.49 128.974C211.49 125.444 213.94 122.854 217.34 122.854C220.74 122.854 223.24 125.404 223.24 128.804C223.24 128.954 223.24 129.284 223.21 129.564H213.53L213.52 129.544ZM221.19 128.124C221.11 127.214 220.94 126.714 220.53 126.134C219.8 125.154 218.61 124.544 217.33 124.544C216.05 124.544 214.88 125.144 214.2 126.154C213.85 126.704 213.7 127.184 213.54 128.124H221.18H221.19Z" fill="#F0E7D2"/>
<path d="M234.691 117.925H236.611V134.735H234.691V132.745C233.531 134.335 232.301 135.015 230.531 135.015C227.331 135.015 225.061 132.515 225.061 128.995C225.061 125.475 227.381 122.845 230.531 122.845C232.241 122.845 233.551 123.475 234.691 124.885V117.925ZM227.081 129.015C227.081 131.565 228.621 133.345 230.811 133.345C233.001 133.345 234.691 131.475 234.691 128.955C234.691 126.435 233.151 124.545 230.931 124.545C228.711 124.545 227.071 126.355 227.071 129.005L227.081 129.015Z" fill="#F0E7D2"/>
<path d="M261.381 132.184C259.691 134.174 257.831 135.034 255.231 135.034C252.891 135.034 250.891 134.174 249.461 132.564C248.051 130.974 247.221 128.684 247.221 126.334C247.221 121.294 250.621 117.614 255.261 117.614C256.771 117.614 258.261 118.014 259.471 118.744C260.151 119.174 260.601 119.574 261.441 120.484L259.981 121.844C258.341 120.154 257.111 119.554 255.321 119.554C251.891 119.554 249.401 122.404 249.401 126.334C249.401 130.264 251.951 133.094 255.421 133.094C257.261 133.094 258.671 132.364 259.981 130.774L261.391 132.184H261.381Z" fill="#F0E7D2"/>
<path d="M274.74 128.965C274.74 132.365 272.12 135.015 268.79 135.015C265.46 135.015 262.92 132.495 262.92 128.915C262.92 125.335 265.34 122.845 268.87 122.845C272.4 122.845 274.74 125.395 274.74 128.965ZM264.88 128.935C264.88 131.505 266.47 133.245 268.84 133.245C271.21 133.245 272.77 131.455 272.77 128.935C272.77 126.415 271.21 124.595 268.86 124.595C266.51 124.595 264.88 126.335 264.88 128.935Z" fill="#F0E7D2"/>
<path d="M279.77 134.735H277.85V124.805H276.26V123.115H277.85V121.555C277.85 119.265 279.03 117.895 281.05 117.895C281.15 117.895 281.38 117.895 281.58 117.925V119.635C280.19 119.785 279.82 120.185 279.76 121.555V123.115H281.58V124.805H279.76V134.735H279.77Z" fill="#F0E7D2"/>
<path d="M286.651 134.735H284.731V124.805H283.141V123.115H284.731V121.555C284.731 119.265 285.911 117.895 287.931 117.895C288.031 117.895 288.261 117.895 288.461 117.925V119.635C287.071 119.785 286.701 120.185 286.641 121.555V123.115H288.461V124.805H286.641V134.735H286.651Z" fill="#F0E7D2"/>
<path d="M291.87 129.544C291.97 130.524 292.15 131.034 292.63 131.664C293.39 132.694 294.5 133.254 295.76 133.254C297.2 133.254 298.56 132.474 299.24 131.264L300.93 131.894C299.97 133.834 297.98 135.024 295.76 135.024C292.31 135.024 289.84 132.504 289.84 128.974C289.84 125.444 292.28 122.854 295.69 122.854C299.1 122.854 301.59 125.404 301.59 128.804C301.59 128.954 301.59 129.284 301.57 129.564H291.89L291.87 129.544ZM299.53 128.124C299.45 127.214 299.28 126.714 298.87 126.134C298.14 125.154 296.95 124.544 295.67 124.544C294.39 124.544 293.22 125.144 292.54 126.154C292.19 126.704 292.04 127.184 291.88 128.124H299.52H299.53Z" fill="#F0E7D2"/>
<path d="M305.45 129.544C305.55 130.524 305.73 131.034 306.21 131.664C306.97 132.694 308.08 133.254 309.34 133.254C310.78 133.254 312.14 132.474 312.82 131.264L314.51 131.894C313.55 133.834 311.56 135.024 309.34 135.024C305.89 135.024 303.42 132.504 303.42 128.974C303.42 125.444 305.86 122.854 309.27 122.854C312.68 122.854 315.17 125.404 315.17 128.804C315.17 128.954 315.17 129.284 315.15 129.564H305.47L305.45 129.544ZM313.11 128.124C313.03 127.214 312.86 126.714 312.45 126.134C311.72 125.154 310.53 124.544 309.25 124.544C307.97 124.544 306.8 125.144 306.12 126.154C305.77 126.704 305.62 127.184 305.46 128.124H313.1H313.11Z" fill="#F0E7D2"/>
<path d="M330.221 134.734H328.101V119.734H323.811V117.914H334.471V119.734H330.211V134.734H330.221Z" fill="#F0E7D2"/>
<path d="M344.21 123.115H346.13V134.735H344.21V132.495C343.05 134.235 341.74 135.015 339.98 135.015C336.78 135.015 334.51 132.495 334.51 128.965C334.51 125.435 336.83 122.845 340.03 122.845C341.79 122.845 343.08 123.525 344.21 125.035V123.115ZM337.48 125.935C336.87 126.765 336.52 127.875 336.52 129.015C336.52 131.485 338.13 133.345 340.25 133.345C342.37 133.345 344.23 131.305 344.23 128.805C344.23 126.305 342.62 124.545 340.3 124.545C339.04 124.545 338.16 124.975 337.48 125.935Z" fill="#F0E7D2"/>
<path d="M349.98 134.735V117.925H351.9V134.735H349.98Z" fill="#F0E7D2"/>
<path d="M357.66 134.735H355.74V117.925H357.66V128.215L362.3 123.125H364.72L359.53 128.795L364.7 134.745H362.31L357.67 129.555V134.745L357.66 134.735Z" fill="#F0E7D2"/>
<path d="M376.69 119.865C376.69 120.545 376.14 121.075 375.46 121.075C374.78 121.075 374.25 120.545 374.25 119.835C374.25 119.125 374.78 118.595 375.48 118.595C376.18 118.595 376.69 119.145 376.69 119.855V119.865ZM376.41 134.735H374.49V123.115H376.41V134.735Z" fill="#F0E7D2"/>
<path d="M382.18 123.115V124.755C383.19 123.395 384.2 122.835 385.63 122.835C386.69 122.835 387.65 123.185 388.33 123.795C389.06 124.505 389.31 125.305 389.31 126.895V134.735H387.39V127.325C387.39 126.295 387.26 125.735 386.96 125.335C386.61 124.855 385.93 124.555 385.14 124.555C384.28 124.555 383.5 124.885 382.92 125.535C382.37 126.145 382.16 126.695 382.16 127.655V134.735H380.24V123.115H382.16H382.18Z" fill="#F0E7D2"/>
<path d="M23.5508 159.445V157.525L29.2508 153.795V170.735H27.2608V156.975L23.5508 159.445Z" fill="#F0E7D2"/>
<path d="M40.9093 164.004C40.1993 164.254 39.8793 164.334 39.2993 164.334C36.4793 164.334 34.2793 162.114 34.2793 159.244C34.2793 156.374 36.6693 153.874 39.7293 153.874C42.7893 153.874 45.0193 156.164 45.0193 159.164C45.0193 160.454 44.6893 161.434 43.8593 162.824L39.0193 170.744H36.6793L40.9193 164.014L40.9093 164.004ZM36.2693 159.164C36.2693 161.054 37.7293 162.564 39.6193 162.564C41.5093 162.564 43.0193 161.104 43.0193 159.184C43.0193 157.264 41.5593 155.734 39.7193 155.734C37.8793 155.734 36.2693 157.244 36.2693 159.164Z" fill="#F0E7D2"/>
<path d="M53.5109 164.004C52.8009 164.254 52.4809 164.334 51.9009 164.334C49.0809 164.334 46.8809 162.114 46.8809 159.244C46.8809 156.374 49.2709 153.874 52.3209 153.874C55.3709 153.874 57.6109 156.164 57.6109 159.164C57.6109 160.454 57.2809 161.434 56.4509 162.824L51.6109 170.744H49.2709L53.5009 164.014L53.5109 164.004ZM48.8709 159.164C48.8709 161.054 50.3309 162.564 52.2209 162.564C54.1109 162.564 55.6209 161.104 55.6209 159.184C55.6209 157.264 54.1609 155.734 52.3209 155.734C50.4809 155.734 48.8709 157.244 48.8709 159.164Z" fill="#F0E7D2"/>
<path d="M67.8802 155.835H62.4602V160.345C63.3202 160.015 64.0702 159.865 64.9302 159.865C67.8802 159.865 70.1002 162.185 70.1002 165.335C70.1002 168.485 67.7302 170.905 64.4302 170.905C62.0602 170.905 60.2702 169.665 59.4102 167.455L61.2202 166.775C61.6202 167.505 61.8002 167.805 62.0802 168.065C62.6102 168.595 63.5402 168.925 64.4702 168.925C66.4902 168.925 68.0202 167.365 68.0202 165.295C68.0202 163.225 66.5102 161.715 64.2902 161.715C62.9802 161.715 61.6402 162.325 60.5602 163.425V153.925H67.8702V155.845L67.8802 155.835Z" fill="#F0E7D2"/>
<path d="M75.3602 169.644C75.3602 170.374 74.7802 170.934 74.0502 170.934C73.3202 170.934 72.7402 170.384 72.7402 169.624C72.7402 168.864 73.2902 168.314 74.0502 168.314C74.8102 168.314 75.3602 168.864 75.3602 169.654V169.644Z" fill="#F0E7D2"/>
<path d="M88.7411 170.735H86.6211V153.925H88.5611L97.5311 166.575V153.925H99.6511V170.735H97.7811L88.7311 157.875V170.735H88.7411Z" fill="#F0E7D2"/>
<path d="M114.57 164.965C114.57 168.365 111.95 171.015 108.62 171.015C105.29 171.015 102.75 168.495 102.75 164.915C102.75 161.335 105.17 158.845 108.7 158.845C112.23 158.845 114.57 161.395 114.57 164.965ZM104.72 164.935C104.72 167.505 106.31 169.245 108.68 169.245C111.05 169.245 112.61 167.455 112.61 164.935C112.61 162.415 111.05 160.595 108.7 160.595C106.35 160.595 104.72 162.335 104.72 164.935Z" fill="#F0E7D2"/>
<path d="M132.64 159.114L128.51 170.734H126.77L124.1 161.914L121.3 170.734H119.49L115.51 159.114H117.48L120.45 167.664L123.12 159.114H125.01L127.63 167.664L130.68 159.114H132.65H132.64Z" fill="#F0E7D2"/>
<path d="M144.18 170.735H142.26V153.925H144.18V164.215L148.82 159.125H151.24L146.05 164.795L151.22 170.745H148.83L144.19 165.555V170.745L144.18 170.735Z" fill="#F0E7D2"/>
<path d="M155.241 159.115V160.755C156.251 159.395 157.261 158.835 158.691 158.835C159.751 158.835 160.711 159.185 161.391 159.795C162.121 160.505 162.371 161.305 162.371 162.895V170.735H160.451V163.325C160.451 162.295 160.321 161.735 160.021 161.335C159.671 160.855 158.991 160.555 158.201 160.555C157.341 160.555 156.561 160.885 155.981 161.535C155.431 162.145 155.221 162.695 155.221 163.655V170.735H153.301V159.115H155.221H155.241Z" fill="#F0E7D2"/>
<path d="M177.041 164.965C177.041 168.365 174.421 171.015 171.091 171.015C167.761 171.015 165.221 168.495 165.221 164.915C165.221 161.335 167.641 158.845 171.171 158.845C174.701 158.845 177.041 161.395 177.041 164.965ZM167.191 164.935C167.191 167.505 168.781 169.245 171.151 169.245C173.521 169.245 175.081 167.455 175.081 164.935C175.081 162.415 173.521 160.595 171.171 160.595C168.821 160.595 167.191 162.335 167.191 164.935Z" fill="#F0E7D2"/>
<path d="M195.111 159.114L190.981 170.734H189.241L186.571 161.914L183.771 170.734H181.951L177.971 159.114H179.941L182.911 167.664L185.581 159.114H187.471L190.091 167.664L193.141 159.114H195.111Z" fill="#F0E7D2"/>
<path d="M199.09 159.115V160.755C200.1 159.395 201.11 158.835 202.54 158.835C203.6 158.835 204.56 159.185 205.24 159.795C205.97 160.505 206.22 161.305 206.22 162.895V170.735H204.3V163.325C204.3 162.295 204.17 161.735 203.87 161.335C203.52 160.855 202.84 160.555 202.05 160.555C201.19 160.555 200.41 160.885 199.83 161.535C199.28 162.145 199.07 162.695 199.07 163.655V170.735H197.15V159.115H199.07H199.09Z" fill="#F0E7D2"/>
<path d="M226.331 159.115H228.251V170.735H226.331V168.495C225.171 170.235 223.861 171.015 222.091 171.015C218.891 171.015 216.621 168.495 216.621 164.965C216.621 161.435 218.941 158.845 222.141 158.845C223.901 158.845 225.191 159.525 226.321 161.035V159.115H226.331ZM219.601 161.935C218.991 162.765 218.641 163.875 218.641 165.015C218.641 167.485 220.251 169.345 222.371 169.345C224.491 169.345 226.351 167.305 226.351 164.805C226.351 162.305 224.741 160.545 222.421 160.545C221.161 160.545 220.281 160.975 219.601 161.935Z" fill="#F0E7D2"/>
<path d="M237.44 162.285V162.155C237.44 161.075 236.56 160.395 235.22 160.395C233.88 160.395 233.13 161.055 233.13 162.055C233.13 163.055 233.63 163.445 235.73 164.025C237.22 164.425 238 164.805 238.55 165.365C239.13 165.945 239.48 166.775 239.48 167.635C239.48 169.655 237.82 171.015 235.35 171.015C232.7 171.015 231.22 169.775 231.02 167.435H232.91C233.04 168.745 233.89 169.455 235.35 169.455C236.66 169.455 237.52 168.775 237.52 167.745C237.52 166.715 236.86 166.235 234.87 165.725C232.35 165.045 231.21 163.985 231.21 162.225C231.21 160.205 232.85 158.845 235.29 158.845C237.73 158.845 239.25 160.105 239.35 162.295H237.43L237.44 162.285Z" fill="#F0E7D2"/>
<path d="M254.73 170.734H252.61V155.734H248.32V153.914H258.98V155.734H254.72V170.734H254.73Z" fill="#F0E7D2"/>
<path d="M268.72 159.115H270.64V170.735H268.72V168.495C267.56 170.235 266.25 171.015 264.49 171.015C261.29 171.015 259.02 168.495 259.02 164.965C259.02 161.435 261.34 158.845 264.54 158.845C266.3 158.845 267.59 159.525 268.72 161.035V159.115ZM261.99 161.935C261.38 162.765 261.03 163.875 261.03 165.015C261.03 167.485 262.64 169.345 264.76 169.345C266.88 169.345 268.74 167.305 268.74 164.805C268.74 162.305 267.13 160.545 264.81 160.545C263.55 160.545 262.67 160.975 261.99 161.935Z" fill="#F0E7D2"/>
<path d="M274.49 170.735V153.925H276.41V170.735H274.49Z" fill="#F0E7D2"/>
<path d="M282.17 170.735H280.25V153.925H282.17V164.215L286.81 159.125H289.23L284.04 164.795L289.21 170.745H286.82L282.18 165.555V170.745L282.17 170.735Z" fill="#F0E7D2"/>
<path d="M301.3 170.735H299.18V153.925H301.3V161.665L307.83 153.925H310.38L303.37 162.245L310.38 170.745H307.68L301.3 162.985V170.745V170.735Z" fill="#F0E7D2"/>
<path d="M320.501 159.115H322.421V170.735H320.501V168.495C319.341 170.235 318.031 171.015 316.261 171.015C313.061 171.015 310.791 168.495 310.791 164.965C310.791 161.435 313.111 158.845 316.311 158.845C318.071 158.845 319.361 159.525 320.491 161.035V159.115H320.501ZM313.771 161.935C313.161 162.765 312.811 163.875 312.811 165.015C312.811 167.485 314.421 169.345 316.541 169.345C318.661 169.345 320.521 167.305 320.521 164.805C320.521 162.305 318.911 160.545 316.591 160.545C315.331 160.545 314.451 160.975 313.771 161.935Z" fill="#F0E7D2"/>
<path d="M328.46 155.865C328.46 156.545 327.91 157.075 327.23 157.075C326.55 157.075 326.02 156.545 326.02 155.835C326.02 155.125 326.55 154.595 327.25 154.595C327.95 154.595 328.46 155.145 328.46 155.855V155.865ZM328.19 170.735H326.27V159.115H328.19V170.735Z" fill="#F0E7D2"/>
<path d="M333.95 159.115V160.725C334.83 159.385 335.82 158.835 337.25 158.835C338.84 158.835 339.85 159.515 340.38 160.955C341.24 159.465 342.32 158.835 344.06 158.835C345.4 158.835 346.4 159.265 347.01 160.065C347.56 160.795 347.72 161.455 347.72 163.295V170.735H345.8V163.755C345.8 162.345 345.75 162.015 345.47 161.535C345.12 160.935 344.36 160.555 343.45 160.555C341.76 160.555 340.83 161.685 340.83 163.755V170.735H338.91V163.775C338.91 162.645 338.81 162.065 338.53 161.555C338.2 160.895 337.5 160.545 336.64 160.545C334.95 160.545 333.94 161.755 333.94 163.775V170.735H332.02V159.115H333.94H333.95Z" fill="#F0E7D2"/>
<path d="M360.19 159.115V166.555C360.19 168.145 359.89 169.025 359.03 169.805C358.17 170.585 356.99 171.014 355.68 171.014C354.37 171.014 353.16 170.564 352.33 169.774C351.55 169.014 351.17 167.964 351.17 166.544V159.104H353.09V166.494C353.09 168.134 354.15 169.294 355.69 169.294C356.5 169.294 357.28 168.965 357.76 168.415C358.14 167.965 358.26 167.484 358.26 166.544V159.104H360.2L360.19 159.115Z" fill="#F0E7D2"/>
<path d="M365.631 170.735H363.711V153.925H365.631V164.215L370.271 159.125H372.691L367.501 164.795L372.671 170.745H370.281L365.641 165.555V170.745L365.631 170.735Z" fill="#F0E7D2"/>
<path d="M379.321 156.565H372.461V155.005H379.321V156.565ZM376.841 170.735H374.921V159.115H376.841V170.735Z" fill="#F0E7D2"/>
<path d="M380.47 174.744L379.08 174.314L381.2 168.194L383.01 168.774L380.46 174.744H380.47Z" fill="#F0E7D2"/>
<path d="M396.251 155.865C396.251 156.545 395.701 157.075 395.021 157.075C394.341 157.075 393.811 156.545 393.811 155.835C393.811 155.125 394.341 154.595 395.041 154.595C395.741 154.595 396.251 155.145 396.251 155.855V155.865ZM395.971 170.735H394.051V159.115H395.971V170.735Z" fill="#F0E7D2"/>
<path d="M401.87 168.364C401.89 168.944 402.05 169.074 402.75 169.074H403.63V170.734H401.84C400.48 170.704 399.95 170.204 399.95 168.914V160.794H398.34V159.104H399.95V155.454H401.87V159.104H403.63V160.794H401.87V168.354V168.364Z" fill="#F0E7D2"/>
<path d="M407.031 159.345L405.641 158.865L407.681 153.595L409.341 154.205L407.021 159.345H407.031Z" fill="#F0E7D2"/>
<path d="M417.49 162.285V162.155C417.49 161.075 416.61 160.395 415.27 160.395C413.93 160.395 413.18 161.055 413.18 162.055C413.18 163.055 413.68 163.445 415.78 164.025C417.27 164.425 418.05 164.805 418.6 165.365C419.18 165.945 419.53 166.775 419.53 167.635C419.53 169.655 417.87 171.015 415.4 171.015C412.75 171.015 411.27 169.775 411.07 167.435H412.96C413.09 168.745 413.94 169.455 415.4 169.455C416.71 169.455 417.57 168.775 417.57 167.745C417.57 166.715 416.91 166.235 414.92 165.725C412.4 165.045 411.26 163.985 411.26 162.225C411.26 160.205 412.9 158.845 415.34 158.845C417.78 158.845 419.3 160.105 419.4 162.295H417.48L417.49 162.285Z" fill="#F0E7D2"/>
<path d="M31.4402 195.115H33.3602V206.735H31.4402V204.495C30.2802 206.235 28.9702 207.015 27.2102 207.015C24.0102 207.015 21.7402 204.495 21.7402 200.965C21.7402 197.435 24.0602 194.845 27.2602 194.845C29.0202 194.845 30.3102 195.525 31.4402 197.035V195.115ZM24.7102 197.935C24.1102 198.765 23.7502 199.875 23.7502 201.015C23.7502 203.485 25.3602 205.345 27.4802 205.345C29.6002 205.345 31.4602 203.305 31.4602 200.805C31.4602 198.305 29.8502 196.545 27.5302 196.545C26.2702 196.545 25.3902 196.975 24.7102 197.935Z" fill="#F0E7D2"/>
<path d="M53.8201 205.295C52.5101 206.475 51.2201 207.005 49.5301 207.005C46.2001 207.005 43.8301 204.485 43.8301 200.955C43.8301 197.425 46.2201 194.835 49.6301 194.835C51.2901 194.835 52.6501 195.385 53.8601 196.575L52.6201 197.805C51.7401 196.995 50.7501 196.595 49.6701 196.595C47.3801 196.595 45.7901 198.355 45.7901 200.885C45.7901 203.415 47.3801 205.245 49.6501 205.245C50.7801 205.245 51.6901 204.865 52.6201 203.985L53.8101 205.295H53.8201Z" fill="#F0E7D2"/>
<path d="M66.7399 200.965C66.7399 204.365 64.1199 207.015 60.7899 207.015C57.4599 207.015 54.9199 204.495 54.9199 200.915C54.9199 197.335 57.3399 194.845 60.8699 194.845C64.3999 194.845 66.7399 197.395 66.7399 200.965ZM56.8899 200.935C56.8899 203.505 58.4799 205.245 60.8499 205.245C63.2199 205.245 64.7799 203.455 64.7799 200.935C64.7799 198.415 63.2199 196.595 60.8699 196.595C58.5199 196.595 56.8899 198.335 56.8899 200.935Z" fill="#F0E7D2"/>
<path d="M71.7795 206.735H69.8595V196.805H68.2695V195.115H69.8595V193.555C69.8595 191.265 71.0395 189.895 73.0595 189.895C73.1595 189.895 73.3895 189.895 73.5895 189.925V191.635C72.1995 191.785 71.8295 192.185 71.7795 193.555V195.115H73.5895V196.805H71.7795V206.735Z" fill="#F0E7D2"/>
<path d="M78.6604 206.735H76.7404V196.805H75.1504V195.115H76.7404V193.555C76.7404 191.265 77.9204 189.895 79.9404 189.895C80.0404 189.895 80.2704 189.895 80.4704 189.925V191.635C79.0804 191.785 78.7104 192.185 78.6604 193.555V195.115H80.4704V196.805H78.6604V206.735Z" fill="#F0E7D2"/>
<path d="M83.8698 201.544C83.9698 202.524 84.1498 203.035 84.6298 203.665C85.3898 204.695 86.4998 205.255 87.7598 205.255C89.1998 205.255 90.5598 204.474 91.2398 203.264L92.9298 203.895C91.9698 205.835 89.9798 207.024 87.7598 207.024C84.3098 207.024 81.8398 204.505 81.8398 200.975C81.8398 197.445 84.2898 194.854 87.6898 194.854C91.0898 194.854 93.5898 197.405 93.5898 200.805C93.5898 200.955 93.5898 201.284 93.5598 201.564H83.8798L83.8698 201.544ZM91.5398 200.124C91.4598 199.214 91.2898 198.714 90.8798 198.134C90.1498 197.154 88.9598 196.544 87.6798 196.544C86.3998 196.544 85.2398 197.144 84.5598 198.154C84.2098 198.704 84.0598 199.184 83.8998 200.124H91.5398Z" fill="#F0E7D2"/>
<path d="M97.4599 201.544C97.5599 202.524 97.7399 203.035 98.2199 203.665C98.9799 204.695 100.09 205.255 101.34 205.255C102.78 205.255 104.14 204.474 104.82 203.264L106.51 203.895C105.55 205.835 103.56 207.024 101.34 207.024C97.8899 207.024 95.4199 204.505 95.4199 200.975C95.4199 197.445 97.8699 194.854 101.27 194.854C104.67 194.854 107.17 197.405 107.17 200.805C107.17 200.955 107.17 201.284 107.14 201.564H97.4599V201.544ZM105.12 200.124C105.04 199.214 104.87 198.714 104.46 198.134C103.73 197.154 102.54 196.544 101.26 196.544C99.9799 196.544 98.8099 197.144 98.1299 198.154C97.7799 198.704 97.6299 199.184 97.4699 200.124H105.11H105.12Z" fill="#F0E7D2"/>
<path d="M122.86 198.285V198.155C122.86 197.075 121.98 196.395 120.64 196.395C119.3 196.395 118.55 197.055 118.55 198.055C118.55 199.055 119.05 199.445 121.15 200.025C122.64 200.425 123.42 200.805 123.97 201.365C124.55 201.945 124.9 202.775 124.9 203.635C124.9 205.655 123.24 207.015 120.77 207.015C118.12 207.015 116.64 205.775 116.43 203.435H118.32C118.45 204.745 119.3 205.455 120.77 205.455C122.08 205.455 122.94 204.775 122.94 203.745C122.94 202.715 122.28 202.235 120.29 201.725C117.77 201.045 116.63 199.985 116.63 198.225C116.63 196.205 118.27 194.845 120.71 194.845C123.15 194.845 124.67 196.105 124.77 198.295H122.85L122.86 198.285Z" fill="#F0E7D2"/>
<path d="M129.76 196.724C130.82 195.414 131.88 194.834 133.26 194.834C134.27 194.834 135.33 195.234 135.96 195.894C136.59 196.524 136.87 197.434 136.87 198.914V206.724H134.95V199.014C134.95 197.424 134.17 196.544 132.78 196.544C131.9 196.544 131.12 196.894 130.51 197.574C129.93 198.234 129.75 198.814 129.75 199.914V206.724H127.83V189.914H129.75V196.724H129.76Z" fill="#F0E7D2"/>
<path d="M151.541 200.965C151.541 204.365 148.921 207.015 145.591 207.015C142.261 207.015 139.721 204.495 139.721 200.915C139.721 197.335 142.141 194.845 145.671 194.845C149.201 194.845 151.541 197.395 151.541 200.965ZM141.681 200.935C141.681 203.505 143.271 205.245 145.641 205.245C148.011 205.245 149.571 203.455 149.571 200.935C149.571 198.415 148.011 196.595 145.661 196.595C143.311 196.595 141.681 198.335 141.681 200.935Z" fill="#F0E7D2"/>
<path d="M156.371 195.115V197.235C157.481 195.525 158.661 194.845 160.611 194.845C163.841 194.845 166.081 197.315 166.081 200.845C166.081 204.375 163.841 207.025 160.611 207.025C159.701 207.025 158.871 206.825 158.061 206.415C157.351 206.065 157.001 205.755 156.371 204.925V212.185H154.451V195.115H156.371ZM156.371 201.115C156.371 203.665 157.911 205.345 160.201 205.345C162.491 205.345 164.031 203.555 164.031 200.905C164.031 199.545 163.701 198.515 163.021 197.755C162.341 196.995 161.311 196.545 160.271 196.545C157.951 196.545 156.361 198.385 156.361 201.105L156.371 201.115Z" fill="#F0E7D2"/>
<path d="M178.449 206.735H176.529V189.925H178.449V197.105C179.609 195.515 180.849 194.835 182.529 194.835C185.779 194.835 188.049 197.355 188.049 200.955C188.049 204.555 185.809 207.005 182.629 207.005C180.839 207.005 179.579 206.325 178.449 204.735V206.725V206.735ZM178.419 200.935C178.419 203.585 179.929 205.345 182.199 205.345C184.469 205.345 186.029 203.605 186.029 201.015C186.029 198.425 184.469 196.555 182.269 196.555C180.069 196.555 178.409 198.395 178.409 200.945L178.419 200.935Z" fill="#F0E7D2"/>
<path d="M197.55 195.114H199.64L192.71 212.334H190.62L193.04 206.384L188.91 195.114H190.95L194.07 203.734L197.55 195.114Z" fill="#F0E7D2"/>
<path d="M217.96 189.925H219.88V206.735H217.96V204.745C216.8 206.335 215.57 207.015 213.8 207.015C210.6 207.015 208.33 204.515 208.33 200.995C208.33 197.475 210.65 194.845 213.8 194.845C215.51 194.845 216.83 195.475 217.96 196.885V189.925ZM210.35 201.015C210.35 203.565 211.89 205.345 214.08 205.345C216.27 205.345 217.96 203.475 217.96 200.955C217.96 198.435 216.42 196.545 214.2 196.545C211.98 196.545 210.34 198.355 210.34 201.005L210.35 201.015Z" fill="#F0E7D2"/>
<path d="M232.399 195.115H234.319V206.735H232.399V204.495C231.239 206.235 229.929 207.015 228.159 207.015C224.959 207.015 222.689 204.495 222.689 200.965C222.689 197.435 225.009 194.845 228.209 194.845C229.969 194.845 231.259 195.525 232.389 197.035V195.115H232.399ZM225.669 197.935C225.059 198.765 224.709 199.875 224.709 201.015C224.709 203.485 226.319 205.345 228.439 205.345C230.559 205.345 232.419 203.305 232.419 200.805C232.419 198.305 230.809 196.545 228.489 196.545C227.229 196.545 226.349 196.975 225.669 197.935Z" fill="#F0E7D2"/>
<path d="M244.931 195.114H247.021L240.091 212.334H238.001L240.421 206.384L236.291 195.114H238.331L241.451 203.734L244.931 195.114Z" fill="#F0E7D2"/>
<path d="M265.411 195.115H267.331V206.735H265.411V204.495C264.251 206.235 262.941 207.015 261.171 207.015C257.971 207.015 255.701 204.495 255.701 200.965C255.701 197.435 258.021 194.845 261.221 194.845C262.981 194.845 264.271 195.525 265.401 197.035V195.115H265.411ZM258.681 197.935C258.071 198.765 257.721 199.875 257.721 201.015C257.721 203.485 259.331 205.345 261.451 205.345C263.571 205.345 265.431 203.305 265.431 200.805C265.431 198.305 263.821 196.545 261.501 196.545C260.241 196.545 259.361 196.975 258.681 197.935Z" fill="#F0E7D2"/>
<path d="M273.1 195.115V196.755C274.11 195.395 275.12 194.835 276.55 194.835C277.61 194.835 278.57 195.185 279.25 195.795C279.98 196.505 280.23 197.305 280.23 198.895V206.735H278.31V199.325C278.31 198.295 278.18 197.735 277.88 197.335C277.53 196.855 276.85 196.555 276.06 196.555C275.2 196.555 274.42 196.885 273.84 197.535C273.29 198.145 273.08 198.695 273.08 199.655V206.735H271.16V195.115H273.08H273.1Z" fill="#F0E7D2"/>
<path d="M292.7 189.925H294.62V206.735H292.7V204.745C291.54 206.335 290.31 207.015 288.54 207.015C285.34 207.015 283.07 204.515 283.07 200.995C283.07 197.475 285.39 194.845 288.54 194.845C290.25 194.845 291.57 195.475 292.7 196.885V189.925ZM285.09 201.015C285.09 203.565 286.63 205.345 288.82 205.345C291.01 205.345 292.7 203.475 292.7 200.955C292.7 198.435 291.16 196.545 288.94 196.545C286.72 196.545 285.08 198.355 285.08 201.005L285.09 201.015Z" fill="#F0E7D2"/>
<path d="M314.8 195.115H316.72V206.735H314.8V204.495C313.64 206.235 312.33 207.015 310.56 207.015C307.36 207.015 305.09 204.495 305.09 200.965C305.09 197.435 307.41 194.845 310.61 194.845C312.37 194.845 313.66 195.525 314.79 197.035V195.115H314.8ZM308.07 197.935C307.46 198.765 307.11 199.875 307.11 201.015C307.11 203.485 308.72 205.345 310.84 205.345C312.96 205.345 314.82 203.305 314.82 200.805C314.82 198.305 313.21 196.545 310.89 196.545C309.63 196.545 308.75 196.975 308.07 197.935Z" fill="#F0E7D2"/>
<path d="M337.179 205.295C335.869 206.475 334.579 207.005 332.889 207.005C329.559 207.005 327.189 204.485 327.189 200.955C327.189 197.425 329.579 194.835 332.989 194.835C334.649 194.835 336.009 195.385 337.219 196.575L335.979 197.805C335.099 196.995 334.109 196.595 333.029 196.595C330.739 196.595 329.149 198.355 329.149 200.885C329.149 203.415 330.739 205.245 333.009 205.245C334.139 205.245 335.049 204.865 335.979 203.985L337.159 205.295H337.179Z" fill="#F0E7D2"/>
<path d="M350.111 200.965C350.111 204.365 347.491 207.015 344.161 207.015C340.831 207.015 338.291 204.495 338.291 200.915C338.291 197.335 340.711 194.845 344.241 194.845C347.771 194.845 350.111 197.395 350.111 200.965ZM340.251 200.935C340.251 203.505 341.841 205.245 344.211 205.245C346.581 205.245 348.141 203.455 348.141 200.935C348.141 198.415 346.581 196.595 344.231 196.595C341.881 196.595 340.251 198.335 340.251 200.935Z" fill="#F0E7D2"/>
<path d="M362.08 205.295C360.77 206.475 359.48 207.005 357.79 207.005C354.46 207.005 352.09 204.485 352.09 200.955C352.09 197.425 354.48 194.835 357.89 194.835C359.55 194.835 360.91 195.385 362.12 196.575L360.88 197.805C360 196.995 359.01 196.595 357.93 196.595C355.64 196.595 354.05 198.355 354.05 200.885C354.05 203.415 355.64 205.245 357.91 205.245C359.04 205.245 359.95 204.865 360.88 203.985L362.06 205.295H362.08Z" fill="#F0E7D2"/>
<path d="M366.18 206.735H364.26V189.925H366.18V200.215L370.82 195.125H373.24L368.05 200.795L373.22 206.745H370.83L366.19 201.555V206.745L366.18 206.735Z" fill="#F0E7D2"/>
<path d="M378.1 204.364C378.12 204.944 378.28 205.074 378.98 205.074H379.86V206.734H378.07C376.71 206.704 376.18 206.204 376.18 204.914V196.794H374.57V195.104H376.18V191.454H378.1V195.104H379.86V196.794H378.1V204.354V204.364Z" fill="#F0E7D2"/>
<path d="M391.13 195.115H393.05V206.735H391.13V204.495C389.97 206.235 388.66 207.015 386.89 207.015C383.69 207.015 381.42 204.495 381.42 200.965C381.42 197.435 383.74 194.845 386.94 194.845C388.7 194.845 389.99 195.525 391.12 197.035V195.115H391.13ZM384.4 197.935C383.79 198.765 383.44 199.875 383.44 201.015C383.44 203.485 385.05 205.345 387.17 205.345C389.29 205.345 391.15 203.305 391.15 200.805C391.15 198.305 389.54 196.545 387.22 196.545C385.96 196.545 385.08 196.975 384.4 197.935Z" fill="#F0E7D2"/>
<path d="M399.09 191.865C399.09 192.545 398.54 193.075 397.86 193.075C397.18 193.075 396.65 192.545 396.65 191.835C396.65 191.125 397.18 190.595 397.88 190.595C398.58 190.595 399.09 191.145 399.09 191.855V191.865ZM398.82 206.735H396.9V195.115H398.82V206.735Z" fill="#F0E7D2"/>
<path d="M402.67 206.735V189.925H404.59V206.735H402.67Z" fill="#F0E7D2"/>
<path d="M24.5802 242.735H22.6602V225.925H24.5802V233.105C25.7402 231.515 26.9702 230.835 28.6602 230.835C31.9102 230.835 34.1802 233.355 34.1802 236.955C34.1802 240.555 31.9402 243.005 28.7602 243.005C26.9702 243.005 25.7102 242.325 24.5802 240.735V242.725V242.735ZM24.5602 236.935C24.5602 239.585 26.0702 241.345 28.3402 241.345C30.6102 241.345 32.1702 239.605 32.1702 237.015C32.1702 234.425 30.6102 232.555 28.4102 232.555C26.2102 232.555 24.5502 234.395 24.5502 236.945L24.5602 236.935Z" fill="#F0E7D2"/>
<path d="M45.8797 231.115H47.7997V242.735H45.8797V240.495C44.7197 242.235 43.4097 243.015 41.6497 243.015C38.4497 243.015 36.1797 240.495 36.1797 236.965C36.1797 233.435 38.4997 230.845 41.6997 230.845C43.4597 230.845 44.7497 231.525 45.8797 233.035V231.115ZM39.1497 233.935C38.5497 234.765 38.1897 235.875 38.1897 237.015C38.1897 239.485 39.7997 241.345 41.9197 241.345C44.0397 241.345 45.8997 239.305 45.8997 236.805C45.8997 234.305 44.2897 232.545 41.9697 232.545C40.7097 232.545 39.8297 232.975 39.1497 233.935Z" fill="#F0E7D2"/>
<path d="M53.5606 231.115V233.085C53.9106 232.255 54.1606 231.905 54.6206 231.545C55.2006 231.095 56.0106 230.835 56.8406 230.835H57.2906V232.775C57.0906 232.745 56.8906 232.745 56.7606 232.745C55.7306 232.745 54.8206 233.225 54.2406 234.085C53.7406 234.815 53.5606 235.495 53.5606 236.835V242.735H51.6406V231.115H53.5606Z" fill="#F0E7D2"/>
<path d="M69.1309 242.735H67.2109V225.925H69.1309V233.105C70.2909 231.515 71.5209 230.835 73.2109 230.835C76.4609 230.835 78.7309 233.355 78.7309 236.955C78.7309 240.555 76.4909 243.005 73.3109 243.005C71.5209 243.005 70.2609 242.325 69.1309 240.735V242.725V242.735ZM69.1109 236.935C69.1109 239.585 70.6209 241.345 72.8909 241.345C75.1609 241.345 76.7209 239.605 76.7209 237.015C76.7209 234.425 75.1609 232.555 72.9609 232.555C70.7609 232.555 69.1009 234.395 69.1009 236.945L69.1109 236.935Z" fill="#F0E7D2"/>
<path d="M88.2396 231.114H90.3296L83.3996 248.334H81.3096L83.7296 242.384L79.5996 231.114H81.6396L84.7696 239.734L88.2496 231.114H88.2396Z" fill="#F0E7D2"/>
<path d="M101.869 231.115V232.755C102.879 231.395 103.889 230.835 105.319 230.835C106.379 230.835 107.339 231.185 108.019 231.795C108.749 232.505 108.999 233.305 108.999 234.895V242.735H107.079V235.325C107.079 234.295 106.949 233.735 106.649 233.335C106.299 232.855 105.619 232.555 104.839 232.555C103.979 232.555 103.199 232.885 102.619 233.535C102.069 234.145 101.859 234.695 101.859 235.655V242.735H99.9395V231.115H101.859H101.869Z" fill="#F0E7D2"/>
<path d="M114.97 227.865C114.97 228.545 114.42 229.075 113.73 229.075C113.04 229.075 112.52 228.545 112.52 227.835C112.52 227.125 113.05 226.595 113.76 226.595C114.47 226.595 114.97 227.145 114.97 227.855V227.865ZM114.69 242.735H112.77V231.115H114.69V242.735Z" fill="#F0E7D2"/>
<path d="M127.121 231.114H129.041V242.814C129.041 244.754 128.561 246.064 127.501 247.074C126.471 248.084 124.981 248.614 123.211 248.614C121.041 248.614 119.331 247.904 118.071 246.494L119.381 245.184C119.911 245.734 120.161 245.964 120.491 246.194C121.151 246.594 122.231 246.874 123.211 246.874C124.421 246.874 125.581 246.444 126.241 245.744C126.821 245.114 127.121 244.184 127.121 242.974V240.534C125.991 242.244 124.651 243.034 122.831 243.034C119.751 243.034 117.461 240.434 117.461 236.984C117.461 235.114 118.141 233.324 119.301 232.224C120.231 231.314 121.491 230.864 122.981 230.864C124.741 230.864 125.931 231.524 127.111 233.134V231.144L127.121 231.114ZM119.481 236.884C119.481 239.384 121.091 241.244 123.291 241.244C124.401 241.244 125.481 240.714 126.241 239.834C126.741 239.254 127.071 238.124 127.071 236.964C127.071 235.454 126.841 234.644 126.161 233.884C125.451 233.104 124.371 232.594 123.341 232.594C121.071 232.594 119.481 234.354 119.481 236.884Z" fill="#F0E7D2"/>
<path d="M134.6 232.724C135.66 231.414 136.72 230.834 138.1 230.834C139.11 230.834 140.17 231.234 140.8 231.894C141.43 232.524 141.71 233.434 141.71 234.914V242.724H139.79V235.014C139.79 233.424 139.01 232.544 137.62 232.544C136.74 232.544 135.96 232.894 135.35 233.574C134.77 234.234 134.59 234.814 134.59 235.914V242.724H132.67V225.914H134.59V232.724H134.6Z" fill="#F0E7D2"/>
<path d="M147.53 240.364C147.56 240.944 147.71 241.074 148.41 241.074H149.29V242.734H147.5C146.14 242.704 145.61 242.204 145.61 240.914V232.794H144V231.104H145.61V227.454H147.53V231.104H149.29V232.794H147.53V240.354V240.364Z" fill="#F0E7D2"/>
<path d="M154.46 241.644C154.46 242.374 153.88 242.934 153.15 242.934C152.42 242.934 151.84 242.384 151.84 241.624C151.84 240.864 152.39 240.314 153.15 240.314C153.91 240.314 154.46 240.864 154.46 241.654V241.644Z" fill="#F0E7D2"/>
<path d="M30.2895 79.9846C27.8095 81.7446 26.2795 85.1747 26.2795 90.9146C26.2795 97.0146 28.1995 101.385 33.5195 101.385C38.8395 101.385 40.7995 97.0146 40.7995 90.9146C40.7995 84.8147 38.8095 80.5047 34.8595 80.5047C32.4795 80.5047 30.5495 82.2947 30.5495 85.1347C30.5495 87.1247 31.4295 88.4647 32.7395 88.4647C34.2095 88.4647 34.3695 87.1646 35.6395 87.1646C36.7495 87.1646 37.4995 88.0746 37.4995 89.1246C37.4995 90.4946 36.2595 91.5047 34.1395 91.5047C31.4995 91.5047 28.9495 89.2547 28.9495 85.5347C28.9495 81.8147 31.8495 79.0146 35.2495 79.0146C40.1395 79.0146 44.3795 84.0347 44.3795 90.9247C44.3795 97.8147 40.2395 102.835 33.5195 102.835C26.7995 102.835 22.6895 97.8147 22.6895 90.9247C22.6895 84.0347 26.3395 80.7747 29.8995 79.3147L30.2895 80.0047V79.9846Z" fill="#F0E7D2"/>
<path d="M73.1198 79.4951H79.9998V80.3151C78.3998 80.4751 77.8098 81.1651 77.1298 83.1551L70.9598 102.335H69.1298L63.6198 85.0751L58.0698 102.335H56.2398L50.1098 83.1551C49.4598 81.1651 49.0698 80.4851 47.3398 80.3151V79.4951H55.9498V80.3151C53.3398 80.4751 52.8498 81.1651 53.4998 83.1551L58.0298 97.2851L62.7898 82.6051C62.2398 81.0351 61.8098 80.4851 60.2498 80.3251V79.5051H68.8298V80.3251C66.1898 80.4851 65.7298 81.1751 66.3798 83.1651L70.9098 97.2951L75.4798 83.1651C76.1298 81.1451 75.7098 80.4951 73.0998 80.3251V79.5051L73.1198 79.4951Z" fill="#F0E7D2"/>
<path d="M83 102.325V101.505C85.61 101.345 86.2 101.145 86.2 98.6648V83.1348C86.2 80.6248 85.61 80.4648 83 80.2948V79.4748H90.11L101.27 96.5348V83.1248C101.27 80.6148 100.81 80.4548 98.17 80.2848V79.4648H106.06V80.2848C103.45 80.4448 102.93 80.6148 102.93 83.1248V102.305H101.17L87.86 81.9448V98.6448C87.86 101.125 88.45 101.315 91.06 101.485V102.305H83V102.325Z" fill="#F0E7D2"/>
<path d="M120.93 100.865C125.86 100.865 128.34 98.8446 130.72 95.9046L131.41 96.3246L128.21 102.325H110.17V101.505C112.78 101.345 113.34 101.145 113.34 98.6646V83.1346C113.34 80.6246 112.79 80.4646 110.17 80.2946V79.4746H128.24L130.43 84.7946L129.74 85.1546C127.69 82.3846 125.37 80.9446 121.19 80.9446H117.54C116.92 80.9446 116.56 81.3046 116.56 81.9246V89.6546H121.85C124.26 89.6546 124.72 88.5746 124.92 86.4946H125.77V94.2946H124.92C124.72 92.2046 124.27 91.1346 121.85 91.1346H116.56V99.8746C116.56 100.495 116.92 100.855 117.54 100.855H120.93V100.865Z" fill="#F0E7D2"/>
<path d="M154.239 99.5551C155.019 100.635 155.869 101.345 158.029 101.515V102.335H152.449L144.519 91.1151H141.449V98.6851C141.449 101.165 141.999 101.355 144.609 101.525V102.345H135.049V101.525C137.659 101.365 138.209 101.165 138.209 98.6851V83.1551C138.209 80.6451 137.819 80.4851 135.049 80.3151V79.4951H146.369C151.789 79.4951 155.599 81.0651 155.599 85.3051C155.599 89.0551 152.439 90.7551 148.129 91.0151L154.229 99.5651L154.239 99.5551ZM142.429 80.9651C141.809 80.9651 141.449 81.3251 141.449 81.9451V89.6751H146.339C149.989 89.6751 152.019 88.3051 152.019 85.3051C152.019 82.3051 149.999 80.9651 146.379 80.9651H142.429Z" fill="#F0E7D2"/>
</svg>
