<svg width="48" height="62" viewBox="0 0 48 62" fill="none" xmlns="http://www.w3.org/2000/svg">
<path d="M41.8291 6.88127L21.0755 31.6303L45.6025 2.38145" stroke="#F2E8E1" stroke-width="2" stroke-linecap="round"/>
<circle cx="40.5552" cy="6.77687" r="3.2173" fill="#F2E8E1" stroke="#F2E8E1"/>
<path d="M23.684 35.6191C23.684 35.6191 42.081 12.2609 45.1786 10.4023C48.2762 8.54364 -0.0487585 9.16322 3.04917 10.4023C7.68684 12.2572 23.684 35.6191 23.684 35.6191ZM23.684 35.6191V59.9663M23.684 59.9663H32.7876M23.684 59.9663H13.5815" stroke="#F2E8E1" stroke-width="4" stroke-linecap="round"/>
<path d="M24.5 34.4879L6.5 15.5002C6.5 15.5002 13.3333 13.1546 16.5 14.988C19.6667 16.8213 26.4 19.5879 28 15.9879C29.6 12.3879 36.5 18 43 14.9878L24.5 34.4879Z" fill="#F2E8E1" fill-opacity="0.88"/>
</svg>
