<svg width="1073" height="414" viewBox="0 0 1073 414" fill="none" xmlns="http://www.w3.org/2000/svg">
<path d="M0.336856 102.381C0.142579 97.3338 3.94632 93.5711 10.2245 93.562C17.3105 93.5528 20.0815 97.8531 23.0468 103.52C26.2984 109.715 29.4579 115.282 40.0103 115.209C49.2333 115.145 55.1843 110.481 54.9696 104.367C54.6526 95.1472 41.0634 91.3754 32.7913 89.0612C18.466 85.0525 2.34098 77.199 2.19783 62.3758C2.03422 45.5027 22.2493 38.8428 38.6708 38.5512C50.4296 38.3417 72.1478 42.0771 72.342 55.8434C72.4238 61.8383 67.4033 63.6422 62.9861 63.6878C55.9001 63.7698 53.8755 59.9615 51.626 55.233C48.9368 49.5752 46.5543 45.2841 37.1984 45.3478C28.3843 45.4025 23.374 49.7757 23.5683 55.3059C23.9057 64.4622 37.9141 68.2887 46.0124 70.7577C58.7733 74.648 76.6366 82.6837 76.2071 97.0969C75.6856 114.562 54.9594 121.778 38.1288 121.878C24.3965 121.96 0.909462 117.414 0.316406 102.363L0.336856 102.381Z" fill="#F0E7D2"/>
<path d="M79.9707 89.9172C79.9912 71.723 95.3084 57.9931 115.779 57.7836C127.466 57.6652 142.732 62.0292 143.029 73.8732C143.417 88.915 116.74 92.1767 104.02 92.4045C106.822 100.568 112.834 107.729 123.397 107.51C130.483 107.364 134.082 104.312 136.894 102.107C138.765 100.641 140.105 99.7751 141.434 99.7477C142.906 99.7113 144.246 100.65 144.103 103.019C143.428 114.817 127.241 120.502 115.114 120.894C94.838 121.55 79.9605 107.774 79.9809 89.9263L79.9707 89.9172ZM102.681 87.184C117.916 86.3276 123.254 81.4442 123.254 74.4198C123.254 68.3521 119.644 63.5416 113.765 63.6509C106.014 63.7967 102.006 71.6046 102.006 80.0503C102.006 82.3097 102.139 84.6877 102.67 87.184H102.681Z" fill="#F0E7D2"/>
<path d="M146.23 115.938C146.23 114.152 147.437 113.26 148.633 112.431C150.065 111.437 151.169 110.463 151.169 108.558V68.9175C151.169 66.7765 149.912 65.8563 148.633 65.0546C147.437 64.2984 146.23 63.442 146.23 61.5378C146.23 59.7521 147.836 58.2853 149.973 58.2306C157.294 58.0575 160.955 57.9664 168.276 57.766C171.343 57.684 173.347 59.415 173.347 62.2758V67.0407C177.356 60.3807 183.501 56.1716 190.587 55.962C197.264 55.7707 203.143 59.0415 203.143 65.9474C203.143 71.7783 199.002 76.197 192.325 76.3883C187.785 76.525 185.239 74.4478 183.511 71.997C182.305 70.4846 181.108 69.3275 179.503 69.3731C177.366 69.4368 174.963 71.2863 173.358 75.2586V107.994C173.358 109.898 174.83 110.709 176.568 111.601C177.898 112.285 179.636 113.068 179.636 115.091C179.636 116.877 178.031 118.234 175.628 118.298C165.423 118.58 160.321 118.708 150.106 118.954C147.836 119.008 146.23 117.733 146.23 115.947V115.938Z" fill="#F0E7D2"/>
<path d="M231.2 113.615C223.715 98.0625 216.231 82.5195 208.756 66.9675C207.959 65.3275 206.445 64.4256 204.748 63.642C202.999 62.8312 201.404 61.9565 201.404 59.8155C201.404 58.1482 202.877 56.7907 205.147 56.727C216.425 56.3808 222.059 56.1985 233.337 55.8159C235.607 55.743 237.08 57.0003 237.08 58.6676C237.08 60.5717 235.72 61.5374 234.411 62.3301C232.836 63.2867 231.609 64.3344 232.407 66.2113C236.947 76.8071 241.487 87.4029 246.037 97.9987C250.935 87.0658 255.833 76.142 260.73 65.2091C261.528 63.2776 259.902 62.403 258.195 61.4919C256.691 60.6901 254.984 59.8246 254.984 58.0389C254.984 56.3716 256.456 55.0141 258.726 54.923C264.34 54.7226 267.141 54.6133 272.755 54.4037C275.025 54.3217 276.497 55.5699 276.497 57.2372C276.497 59.3782 274.769 60.3622 273.021 61.3006C271.313 62.2116 269.943 63.2047 269.146 64.8993C261.671 80.9616 254.186 97.033 246.702 113.095C245.771 115.154 243.9 116.166 241.62 116.248C239.483 116.32 238.409 116.357 236.272 116.43C233.869 116.512 232.131 115.619 231.19 113.624L231.2 113.615Z" fill="#F0E7D2"/>
<path d="M276.352 111.875C276.352 110.089 277.559 109.178 278.755 108.331C280.186 107.319 281.291 106.326 281.291 104.422V64.7814C281.291 62.6403 280.033 61.7384 278.755 60.9549C277.559 60.2169 276.352 59.3787 276.352 57.4745C276.352 55.6888 277.957 54.1947 280.094 54.1127C287.416 53.8302 291.076 53.6845 298.397 53.3929C301.465 53.2745 303.469 54.9782 303.469 57.8299V103.539C303.469 105.443 304.676 106.363 306.005 107.247C307.191 108.03 308.408 108.814 308.408 110.599C308.408 112.385 306.935 113.752 304.665 113.843C294.89 114.235 289.992 114.435 280.217 114.809C277.947 114.9 276.342 113.651 276.342 111.866L276.352 111.875ZM279.552 37.7042C279.552 31.8733 284.491 27.7553 291.843 27.4637C299.195 27.1722 304.134 30.8985 304.134 36.7385C304.134 42.5785 299.195 46.8241 291.843 47.1065C284.491 47.398 279.552 43.5351 279.552 37.7042Z" fill="#F0E7D2"/>
<path d="M310.544 110.517C310.544 108.731 311.751 107.82 312.947 106.964C314.379 105.943 315.483 104.95 315.483 103.046C315.483 89.8356 315.483 76.6159 315.483 63.4053C315.483 61.2643 314.225 60.3715 312.947 59.5788C311.751 58.8408 310.544 58.0118 310.544 56.1076C310.544 54.3219 312.15 52.8277 314.287 52.7366C321.608 52.436 325.268 52.2811 332.59 51.9713C335.657 51.8438 337.661 53.5384 337.661 56.3992V60.4443C343.408 54.003 351.7 50.0763 360.637 49.557C372.11 48.8919 381.987 56.0347 381.609 66.7125C381.609 77.8641 381.609 89.0157 381.609 100.158C381.609 102.062 382.723 102.964 384.145 103.848C385.341 104.595 386.548 105.406 386.548 107.192C386.548 108.977 384.942 110.362 382.672 110.462C372.897 110.909 367.999 111.127 358.224 111.556C355.954 111.656 354.482 110.408 354.482 108.622C354.482 106.836 355.698 105.953 356.885 105.06C358.224 104.067 359.42 103.046 359.42 101.142V68.2887C359.42 63.2869 355.412 60.0161 349.798 60.2621C344.86 60.4808 340.575 63.2778 337.641 67.569C337.641 79.0758 337.641 90.5827 337.641 102.09C337.641 103.994 338.847 104.914 340.177 105.789C341.363 106.572 342.58 107.356 342.58 109.141C342.58 110.927 341.107 112.303 338.837 112.394C329.062 112.813 324.164 113.023 314.389 113.423C312.119 113.515 310.514 112.275 310.514 110.49L310.544 110.517Z" fill="#F0E7D2"/>
<path d="M392.172 118.379C391.876 113.669 396.18 110.098 401.528 109.852C407.673 109.569 409.995 113.523 412.213 117.687C414.371 121.714 416.753 125.686 423.308 125.376C431.058 125.012 436.13 119.29 436.13 110.48V95.4839C431.048 101.087 424.044 104.103 415.823 104.54C399.013 105.442 388.276 91.4023 388.297 77.8455C388.328 62.3663 401.129 47.6342 419.422 46.8689C428.584 46.4863 435.721 48.8369 441.999 53.7658C443.339 52.7454 444.668 51.6156 445.742 50.3675C448.277 47.862 450.547 45.967 453.625 45.8212C456.427 45.6845 458.298 47.2607 458.298 50.003C458.298 67.6232 458.298 85.2435 458.298 102.855C458.462 120.748 440.015 130.333 422.091 131.253C411.856 131.781 392.878 129.731 392.162 118.37L392.172 118.379ZM426.907 94.254C430.608 94.336 434.126 92.0036 436.13 88.1042V68.1061C433.461 59.7789 428.645 52.2716 421.569 52.6087C414.218 52.9549 410.22 60.0431 410.342 68.3703C410.485 77.6815 414.79 93.9989 426.907 94.254Z" fill="#F0E7D2"/>
<path d="M513.485 100.878C513.485 98.8549 514.957 97.9438 516.42 96.9234C517.892 95.903 519.354 94.8735 519.354 92.8509C519.354 72.0146 519.354 51.1874 519.354 30.3511C517.002 30.4696 515.827 30.5242 513.475 30.6427C505.591 31.0344 502.554 37.2115 500.111 42.6142C498.301 46.6138 496.767 49.8026 493.832 49.9484C491.562 50.0577 489.957 48.5909 489.957 46.4498V28.9481C489.957 26.0873 491.961 24.3289 495.305 24.1649C519.313 22.9805 543.312 21.7961 567.32 20.6117C570.664 20.4477 572.535 22.0239 572.535 24.8756V42.3773C572.535 44.5184 570.93 46.1492 568.793 46.2494C565.715 46.4043 564.273 43.1973 562.514 39.5348C560.071 34.451 556.901 28.5017 549.15 28.8843C546.798 29.0027 545.622 29.0574 543.271 29.1758C543.271 50.0122 543.271 70.8393 543.271 91.6756C543.271 93.6982 544.743 94.582 546.205 95.4566C547.678 96.3404 549.14 97.0965 549.14 99.1191C549.14 101.142 547.535 102.536 544.999 102.654C534.048 103.192 528.567 103.465 517.606 104.012C515.07 104.139 513.465 102.909 513.465 100.887L513.485 100.878Z" fill="#F0E7D2"/>
<path d="M570.253 86.6469C569.926 69.9104 597.605 64.9906 611.266 64.2891V55.2421C611.266 46.432 606.593 43.5621 600.713 43.8537C594.169 44.1725 592.912 48.1904 591.899 52.3813C590.795 56.9094 589.762 61.5285 582.012 61.9112C575.734 62.2209 572.441 58.9411 572.656 54.7501C573.259 43.5348 591.562 38.4601 602.186 37.9499C616.542 37.2575 633.945 43.3161 633.444 58.7042V87.8677C633.444 90.0088 634.968 91.0018 636.246 91.7854C637.442 92.5142 638.516 93.2249 638.516 94.6552C638.516 97.6345 633.71 99.5295 627.697 99.8119C619.947 100.185 614.609 97.4614 612.472 92.8058C607.125 97.9442 599.752 101.024 591.368 101.57C581.02 102.245 570.447 96.6414 570.263 86.656L570.253 86.6469ZM603.791 90.7194C606.726 90.5736 609.405 89.617 611.409 87.9679C611.358 87.8768 611.327 87.8313 611.276 87.7402V72.0241C609.538 71.0402 607.534 70.5391 604.998 70.6575C597.38 71.0311 591.634 74.7574 591.634 80.9527C591.634 87.148 597.114 91.0383 603.791 90.7194Z" fill="#F0E7D2"/>
<path d="M639.723 94.9469C639.723 93.1612 640.93 92.241 642.126 91.3846C643.558 90.3551 644.662 89.362 644.662 87.4579C644.662 66.7036 644.662 45.9493 644.662 25.2041C644.662 23.063 643.404 22.1793 642.126 21.3958C640.93 20.6669 639.723 19.8469 639.723 17.9428C639.723 16.1571 641.328 14.6538 643.465 14.5536C650.787 14.2074 654.447 14.0343 661.768 13.6972C664.836 13.5514 666.84 15.246 666.84 18.1068C666.84 40.8837 666.84 63.6606 666.84 86.4375C666.84 88.3416 668.047 89.2527 669.376 90.1273C670.562 90.9108 671.779 91.6853 671.779 93.471C671.779 95.2567 670.306 96.6324 668.036 96.7417C658.261 97.1973 653.363 97.425 643.588 97.8806C641.318 97.9899 639.713 96.7508 639.713 94.9651L639.723 94.9469Z" fill="#F0E7D2"/>
<path d="M674.191 93.3342C674.191 91.5485 675.398 90.6283 676.594 89.7719C678.026 88.7515 679.13 87.7493 679.13 85.8452C679.13 65.0909 679.13 44.3366 679.13 23.5914C679.13 21.4504 677.872 20.5575 676.594 19.774C675.398 19.0451 674.191 18.216 674.191 16.3119C674.191 14.5262 675.797 13.0229 677.934 12.9227C685.255 12.5856 688.916 12.4216 696.237 12.0936C699.304 11.957 701.308 13.6516 701.308 16.5123C701.308 32.1464 701.308 47.7805 701.308 63.4145C708.517 56.9823 715.736 50.5592 722.955 44.1362C724.693 42.6329 724.018 41.2298 722.423 39.9908C721.217 39.2072 720.02 38.3053 720.02 36.7656C720.02 34.9798 721.493 33.6041 723.763 33.513C730.02 33.2397 733.139 33.1121 739.397 32.8479C741.667 32.7568 743.139 34.005 743.139 35.7907C743.139 37.9317 741.237 39.435 738.068 41.2389C735.757 42.5509 733.262 44.3002 730.184 46.9332C726.769 49.9397 725.051 51.4339 721.636 54.4404C727.74 63.3872 733.834 72.334 739.939 81.2807C742.608 85.2166 745.021 86.5467 746.749 87.3029C748.221 87.9498 748.886 88.4053 748.886 89.9542C748.886 92.578 745.675 94.4913 739.397 94.7555C729.642 95.1655 720.153 91.4119 715.746 83.7406C711.738 77.5817 709.734 74.5023 705.726 68.3434C703.967 69.8467 703.077 70.6029 701.319 72.1062V84.843C701.319 86.7472 702.525 87.6582 703.854 88.542C705.041 89.3255 706.257 90.0999 706.257 91.8856C706.257 93.6713 704.785 95.0471 702.515 95.1473C692.74 95.5846 687.842 95.8033 678.067 96.2497C675.797 96.3499 674.191 95.1199 674.191 93.3342Z" fill="#F0E7D2"/>
<path d="M746.195 64.4621V58.9865C746.195 56.2533 747.934 54.75 751.001 54.6225C761.421 54.1942 771.84 53.7752 782.259 53.3743C785.327 53.2558 786.932 54.6225 786.932 57.3648V62.8404C786.932 65.5736 785.327 67.0677 782.259 67.1862C771.84 67.5871 761.421 67.997 751.001 68.4344C747.923 68.5619 746.195 67.2044 746.195 64.4621Z" fill="#F0E7D2"/>
<path d="M807.383 87.5575C807.383 85.5349 808.856 84.6512 810.318 83.6399C811.79 82.6377 813.253 81.6264 813.253 79.6038C813.253 58.7675 813.253 37.9403 813.253 17.104C810.901 17.186 809.725 17.2315 807.373 17.3135C799.49 17.596 796.453 23.7457 794.009 29.112C792.199 33.0843 790.665 36.2639 787.731 36.3732C785.461 36.4552 783.855 34.9702 783.855 32.8292C783.855 25.8321 783.855 22.3336 783.855 15.3274C783.855 12.4666 785.86 10.7265 789.203 10.5989C813.201 9.70606 837.21 8.87698 861.219 8.1299C864.562 8.02968 866.433 9.64228 866.433 12.494C866.433 19.491 866.433 22.9895 866.433 29.9957C866.433 32.1367 864.828 33.7311 862.691 33.7949C859.623 33.886 858.171 30.6608 856.413 26.9618C853.969 21.8325 850.799 15.8285 843.049 16.0745C840.697 16.1474 839.521 16.1929 837.169 16.2658C837.169 37.1021 837.169 57.9293 837.169 78.7656C837.169 80.7882 838.642 81.6902 840.104 82.6012C841.576 83.5032 843.038 84.2867 843.038 86.3184C843.038 88.341 841.433 89.7076 838.897 89.7896C827.946 90.1541 822.465 90.3363 811.504 90.728C808.968 90.8191 807.363 89.571 807.363 87.5393L807.383 87.5575Z" fill="#F0E7D2"/>
<path d="M864.162 74.2472C863.784 57.4834 891.678 53.1376 905.175 52.7549V43.7079C905.175 34.8978 900.502 31.9186 894.623 32.0735C888.079 32.2466 886.821 36.2371 885.809 40.4098C884.704 44.9196 883.672 49.5115 875.921 49.7301C869.643 49.9123 866.35 46.5778 866.565 42.3869C867.158 31.1715 885.553 26.4613 896.095 26.2062C910.574 25.8508 927.813 32.3559 927.353 47.7075V76.8711C927.353 79.0121 928.877 80.0416 930.155 80.8616C931.351 81.6178 932.425 82.3558 932.425 83.7861C932.425 86.7654 927.619 88.5328 921.607 88.6695C913.856 88.8426 908.519 86.0001 906.371 81.2989C901.024 86.3098 893.661 89.2253 885.267 89.5897C874.847 90.0361 864.377 84.2326 864.162 74.2472ZM897.7 79.0212C900.635 78.9483 903.314 78.0464 905.318 76.4429C905.267 76.3518 905.236 76.3062 905.185 76.206V60.4899C903.447 59.4604 901.443 58.9138 898.907 58.9867C891.289 59.1871 885.543 62.795 885.543 68.9903C885.543 75.1765 891.023 79.1943 897.7 79.0212Z" fill="#F0E7D2"/>
<path d="M933.633 84.1231C933.633 82.3374 934.839 81.4446 936.036 80.6246C937.467 79.6407 938.572 78.6658 938.572 76.7617V37.1208C938.572 34.9797 937.314 34.0595 936.036 33.2487C934.839 32.4925 933.633 31.6361 933.633 29.7319C933.633 27.9462 935.238 26.4794 937.375 26.4429C944.696 26.2881 948.357 26.2243 955.678 26.0876C958.756 26.033 960.76 27.7822 960.76 30.643V76.3517C960.76 78.2558 961.967 79.2033 963.296 80.1144C964.482 80.9253 965.699 81.7452 965.699 83.5309C965.699 85.3167 964.226 86.6468 961.956 86.6924C952.181 86.8564 947.283 86.9475 937.508 87.157C935.238 87.2026 933.633 85.9271 933.633 84.1414V84.1231ZM936.844 10.0071C936.844 4.17625 941.782 0.14019 949.134 0.00352832C956.486 -0.133133 961.425 3.71161 961.425 9.54249C961.425 15.3734 956.486 19.5097 949.134 19.6463C941.782 19.783 936.844 15.838 936.844 10.0071Z" fill="#F0E7D2"/>
<path d="M967.836 83.4858C967.836 81.7001 969.042 80.8163 970.239 79.9964C971.67 79.0124 972.775 78.0558 972.775 76.1425C972.775 55.3882 972.775 34.6339 972.775 13.8887C972.775 11.7477 971.517 10.8184 970.239 9.9984C969.042 9.2331 967.836 8.36758 967.836 6.46343C967.836 4.67772 969.441 3.22 971.578 3.19267C978.899 3.07423 982.56 3.02867 989.881 2.93757C992.959 2.90112 994.963 4.6595 994.963 7.52028C994.963 30.2972 994.963 53.0741 994.963 75.851C994.963 77.7551 996.17 78.7117 997.499 79.6319C998.685 80.4519 999.902 81.2719 999.902 83.0576C999.902 84.8433 998.429 86.1735 996.159 86.1917C986.384 86.3101 981.486 86.3739 971.711 86.5288C969.441 86.5652 967.836 85.2806 967.836 83.4949V83.4858Z" fill="#F0E7D2"/>
<path d="M1002.29 72.7809C1002.07 68.7175 1005.23 65.72 1010.31 65.6745C1016.32 65.6198 1018.58 69.4463 1020.73 73.3275C1022.96 77.3453 1025.54 81.4999 1032.89 81.4634C1039.03 81.427 1043.04 78.5571 1043.04 74.0381C1043.04 68.2073 1035.87 65.4467 1027.01 62.6953C1016.47 59.4245 1003.48 53.8123 1003.62 42.2963C1003.8 29.1859 1020.23 23.6556 1033.02 23.9654C1042.79 24.2023 1059.32 26.5529 1059.87 37.2216C1060.07 40.9661 1056.94 43.2893 1052.52 43.2984C1047.04 43.3076 1044.64 39.9821 1042.9 36.4198C1041.16 32.8575 1039.02 29.5321 1032.74 29.5594C1027.13 29.5868 1023.65 32.1195 1023.65 36.0463C1023.65 41.8772 1031.25 44.911 1039.82 47.7445C1050.24 51.1884 1063.18 57.0192 1063.07 68.4077C1062.93 82.4383 1045.44 86.7203 1032.21 87.0665C1021.97 87.3307 1002.91 83.8504 1002.28 72.79L1002.29 72.7809Z" fill="#F0E7D2"/>
<path d="M51.9173 319.515C51.9173 316.164 54.0889 314.861 56.7574 313.47C59.6245 311.978 62.4065 310.283 64.564 305.945C82.434 267.043 100.276 228.116 118.089 189.189C123.468 177.073 117.01 169.345 101.681 169.662C87.6999 169.953 73.7048 170.193 59.7239 170.357C35.935 170.345 11.0107 185.344 11.3087 208.108C11.4649 219.921 18.5192 234.212 34.175 234.123C39.0151 234.098 42.2938 232.998 45.743 231.872C48.8798 230.835 51.6618 230.139 55.1535 230.089C62.4207 230 66.9911 234.25 66.9911 240.004C66.9911 247.908 58.3045 253.005 44.6642 253.207C18.7889 253.587 -0.514708 233.213 0.010463 211.005C0.720154 180.551 30.2859 161.618 62.9601 161.441C89.2328 161.049 115.506 160.505 141.778 159.822C144.731 159.746 146.618 161.125 147.697 163.73C169.272 209.841 190.875 255.939 212.52 302.025C214.408 306.034 217.786 307.779 220.327 308.917C222.967 310.106 225.167 311.358 225.167 314.963C225.167 318.074 222.47 320.097 218.709 320.249C208.489 320.641 203.379 320.831 193.16 321.197C189.399 321.324 186.702 319.503 186.702 316.392C186.702 313.28 188.632 312.016 190.733 310.738C193.146 309.271 195.303 307.703 193.16 302.986C187.951 291.502 182.756 280.019 177.561 268.523C149.06 269.459 120.544 270.23 92.0148 270.749C86.7347 282.422 81.4404 294.095 76.1461 305.781C73.7189 310.372 76.6855 311.763 79.9075 313.394C82.3346 314.318 85.0172 315.709 85.0172 319.06C85.0172 322.171 82.5901 324.132 78.8287 324.195C70.6531 324.334 66.5653 324.384 58.3896 324.486C54.6283 324.536 51.9314 322.639 51.9314 319.528L51.9173 319.515ZM173.502 259.531C160.755 231.467 148.024 203.404 135.306 175.327C122.233 204.074 109.133 232.821 96.0316 261.554C121.864 261.011 147.683 260.328 173.502 259.531Z" fill="#F0E7D2"/>
<path d="M232.946 315.114C232.946 312.244 235.16 310.726 237.516 309.411C240.185 307.931 242.896 306.072 242.896 302.48C242.896 258.545 242.896 214.596 242.896 170.661C242.896 166.108 239.546 164.35 236.977 162.757C234.578 161.277 232.137 159.835 232.137 156.964C232.137 154.093 234.564 151.83 238.056 151.69C243.321 151.475 245.961 151.362 251.242 151.134C256.351 150.919 259.588 153.891 259.588 158.924V301.772C259.588 305.364 262.299 306.995 264.967 308.247C267.323 309.36 269.537 310.675 269.537 313.559C269.537 316.442 267.38 318.213 263.888 318.365C253.882 318.807 248.885 319.022 238.879 319.44C235.387 319.579 232.96 317.998 232.96 315.127L232.946 315.114Z" fill="#F0E7D2"/>
<path d="M285.93 312.8C285.93 309.929 288.144 308.399 290.501 307.071C293.169 305.566 295.88 303.694 295.88 300.103V168.283C295.88 163.731 292.53 161.985 289.961 160.417C287.562 158.95 285.121 157.533 285.121 154.65C285.121 151.766 287.548 149.503 291.04 149.338C296.306 149.085 298.946 148.959 304.226 148.706C309.336 148.453 312.558 151.412 312.558 156.446V299.293C312.558 302.885 315.269 304.504 317.937 305.743C320.293 306.843 322.508 308.146 322.508 311.03C322.508 313.913 320.35 315.696 316.858 315.861C306.852 316.354 301.856 316.607 291.849 317.075C288.357 317.239 285.93 315.671 285.93 312.8Z" fill="#F0E7D2"/>
<path d="M387.602 198.307C388.425 167.815 417.565 147.302 450.551 145.607C467.229 144.634 483.907 143.66 500.584 142.661C503.281 142.496 505.425 143.091 507.043 145.152C542.556 189.695 578.068 234.25 613.567 278.805V156.572C613.567 151.539 610.047 149.718 606.57 147.871C603.703 146.341 600.921 144.849 600.921 141.737C600.921 138.386 603.617 136.539 607.379 136.324C615.668 135.844 619.812 135.591 628.087 135.123C631.849 134.908 634.546 136.426 634.546 139.777C634.546 143.129 632.104 145.038 629.436 146.784C626.583 148.643 623.787 150.464 623.787 154.056V293.551C623.787 296.663 621.899 298.458 618.677 298.648C616.207 298.787 614.958 298.863 612.488 299.015C610.061 299.154 607.918 298.56 606.3 296.498C569.368 250.425 532.421 204.378 495.475 158.318C495.475 200.66 495.475 243.002 495.475 285.344C495.475 290.377 499.293 292.261 502.472 294.032C505.24 295.575 508.121 297.055 508.121 300.166C508.121 303.517 505.425 305.364 501.663 305.579C493.488 306.059 489.4 306.312 481.224 306.793C477.463 307.02 474.766 305.49 474.766 302.139C474.766 298.787 477.207 296.878 479.876 295.132C482.729 293.261 485.255 291.465 485.255 287.86C485.255 250.387 485.255 212.927 485.255 175.454C484.829 157.938 464.305 153.752 448.138 154.625C422.944 155.978 399.312 170.851 398.914 194.817C398.715 206.705 406.181 220.579 421.78 219.655C426.337 219.39 429.899 218.138 433.348 216.835C436.485 215.659 439.537 214.799 442.759 214.609C450.026 214.192 454.596 218.239 454.596 223.993C454.596 231.898 445.881 237.361 432.27 238.234C406.621 239.878 387.02 220.427 387.616 198.32L387.602 198.307Z" fill="#F0E7D2"/>
<path d="M654.969 291.983C654.969 289.112 657.183 287.557 659.54 286.216C662.208 284.686 664.919 282.801 664.919 279.197V192.907C664.919 188.354 661.569 186.634 659 185.091C656.601 183.649 654.16 182.245 654.16 179.374C654.16 176.504 656.587 174.202 660.079 174.012C665.345 173.709 667.985 173.57 673.265 173.266C678.375 172.975 681.611 175.922 681.611 180.955V278.261C681.611 281.853 684.322 283.446 686.99 284.673C689.347 285.761 691.561 287.063 691.561 289.934C691.561 292.805 689.403 294.601 685.912 294.803C675.905 295.36 670.909 295.638 660.902 296.194C657.411 296.397 654.983 294.854 654.983 291.97L654.969 291.983ZM658.731 140.776C658.731 133.82 663.84 128.976 671.647 128.546C679.453 128.116 684.563 132.378 684.563 139.334C684.563 146.29 679.453 151.121 671.647 151.551C663.84 151.981 658.731 147.479 658.731 140.776Z" fill="#F0E7D2"/>
<path d="M714.953 311.7C714.641 305.768 719.254 302.126 724.903 301.823C731.631 301.468 734.441 305.832 736.471 311.055C741.141 323.095 754.596 329.229 768.748 328.141C793.814 326.219 814.594 310.663 814.21 286.735V262.528C804.431 277.755 784.815 285.685 766.065 287.051C728.906 289.745 706.323 260.594 706.352 230.431C706.38 198.155 730.893 167.335 769.301 165.855C785 165.248 801.322 169.32 813.146 179.172C814.494 177.199 815.573 175.227 816.638 172.786C818.795 168.144 820.669 164.704 824.984 164.515C828.745 164.35 830.902 166.665 830.902 170.256V284.344C831.3 316.05 802.032 334.426 769.032 336.033C750.92 336.918 716.046 331.96 714.967 311.7H714.953ZM773.063 277.351C791.841 276.364 807.298 264.388 814.225 249.097V201.646C807.114 185.281 788.662 173.127 769.301 173.759C740.261 174.695 723.001 201.393 723.029 225.473C723.072 250.324 741.723 279.007 773.063 277.363V277.351Z" fill="#F0E7D2"/>
<path d="M854.01 282.22C854.01 279.349 856.224 277.831 858.581 276.529C861.249 275.049 863.96 273.215 863.96 269.611C863.96 225.675 863.96 181.727 863.96 137.791C863.96 133.238 860.61 131.455 858.041 129.862C855.642 128.369 853.201 126.928 853.201 124.057C853.201 121.186 855.628 118.935 859.12 118.796C864.386 118.593 867.026 118.492 872.306 118.302C877.416 118.113 880.652 121.123 880.652 126.156C880.652 145.81 880.652 165.463 880.652 185.116C892.674 170.876 912.773 160.29 932.573 159.531C955.751 158.634 976.787 174.417 976.418 195.891V266.36C976.418 269.952 979.413 271.723 981.797 272.975C984.068 274.164 986.368 275.529 986.368 278.4C986.368 281.271 984.21 282.991 980.718 283.054C970.712 283.244 965.701 283.345 955.709 283.573C952.217 283.649 949.79 282.03 949.79 279.159C949.79 276.288 952.359 274.821 954.63 273.531C957.015 272.178 959.74 270.294 959.74 266.702V197.434C959.541 180.639 945.532 169.485 927.194 169.978C907.62 170.509 889.921 181.929 880.652 197.333V268.991C880.652 272.583 883.363 274.239 886.031 275.517C888.388 276.655 890.602 277.996 890.602 280.879C890.602 283.763 888.444 285.508 884.953 285.622C874.946 285.963 869.95 286.153 859.943 286.532C856.452 286.659 854.024 285.078 854.024 282.207L854.01 282.22Z" fill="#F0E7D2"/>
<path d="M1014.06 259.051V168.688C1006.52 168.777 1002.76 168.84 995.225 168.954C992.528 168.992 990.654 167.348 990.654 164.957C990.654 161.606 993.876 160.822 998.191 160.278C1012.17 158.141 1018.36 151.855 1021.33 139.6C1022.14 135.275 1023.21 132.151 1026.71 132.113C1029.13 132.088 1030.74 133.757 1030.74 135.907C1030.74 145.595 1030.74 150.426 1030.74 160.113C1044.72 159.987 1051.72 159.949 1065.71 159.924C1068.93 159.924 1070.55 161.593 1070.55 163.996C1070.55 166.627 1068.93 168.309 1065.71 168.321C1051.73 168.347 1044.73 168.385 1030.74 168.511V257.191C1030.74 267.739 1037.47 274.379 1047.95 274.328C1053.87 274.29 1058.94 272.165 1062.74 269.952C1065.4 268.409 1067.85 266.828 1069.74 266.828C1071.63 266.828 1072.69 268.03 1072.69 269.699C1072.69 275.213 1060.4 284.382 1043.37 284.648C1026.95 284.901 1013.72 273.923 1014.05 259.038L1014.06 259.051Z" fill="#F0E7D2"/>
<path d="M262.298 382.645L263.181 397.92L260.663 398.035L259.509 378.059L261.816 377.952L273.354 392.497L272.485 377.462L275.002 377.346L276.157 397.323L273.939 397.425L262.298 382.645ZM286.086 382.692C290.162 382.505 293.244 385.396 293.49 389.649C293.723 393.692 290.788 396.98 286.833 397.162C282.727 397.351 279.677 394.488 279.431 390.235C279.184 385.953 281.891 382.885 286.086 382.692ZM286.208 384.789C283.361 384.92 281.592 387.073 281.77 390.158C281.947 393.213 283.954 395.192 286.771 395.063C289.498 394.938 291.323 392.721 291.15 389.726C290.972 386.642 288.995 384.661 286.208 384.789ZM298.957 384.443L299.476 393.428C299.546 394.115 299.735 394.257 300.574 394.218L301.623 394.17L301.737 396.146L299.609 396.244C297.989 396.289 297.325 395.719 297.237 394.191L296.679 384.547L294.762 384.636L294.646 382.629L296.564 382.541L296.313 378.198L298.59 378.093L298.841 382.436L300.939 382.34L301.055 384.346L298.957 384.443ZM332.685 393.732L331.038 395.4L328.772 393.101C326.911 394.689 325.121 395.431 322.843 395.536C320.116 395.662 317.286 394.531 315.277 392.521C313.587 390.827 312.642 388.528 312.481 385.743C312.135 379.753 316.073 375.097 321.737 374.837C327.311 374.58 331.761 378.79 332.1 384.66C332.254 387.326 331.711 389.363 330.329 391.438L332.685 393.732ZM327.016 388.197L328.545 389.689C329.322 388.061 329.606 386.727 329.5 384.9C329.232 380.258 325.978 376.984 321.842 377.174C319.654 377.275 317.587 378.421 316.341 380.25C315.398 381.615 314.934 383.468 315.052 385.504C315.322 390.176 318.542 393.392 322.678 393.201C324.416 393.122 325.619 392.616 326.958 391.353L325.395 389.773L327.016 388.197ZM343.925 380.363L346.233 380.257L346.743 389.092C346.852 390.979 346.553 392.044 345.588 393.019C344.623 393.994 343.243 394.568 341.685 394.64C340.127 394.711 338.657 394.238 337.615 393.355C336.634 392.5 336.111 391.262 336.014 389.585L335.504 380.75L337.781 380.645L338.289 389.421C338.401 391.367 339.739 392.687 341.567 392.603C342.526 392.559 343.433 392.127 343.964 391.442C344.383 390.882 344.5 390.306 344.436 389.198L343.925 380.363ZM363.706 387.111L352.199 387.64C352.386 388.802 352.63 389.392 353.243 390.114C354.213 391.301 355.57 391.899 357.068 391.83C358.776 391.752 360.341 390.749 361.067 389.274L363.118 389.93C362.113 392.289 359.826 393.805 357.189 393.927C353.084 394.116 349.974 391.256 349.731 387.063C349.486 382.81 352.218 379.651 356.263 379.465C360.279 379.28 363.451 382.167 363.684 386.211C363.695 386.39 363.717 386.78 363.706 387.111ZM352.132 385.961L361.212 385.544C361.06 384.47 360.815 383.88 360.296 383.213C359.36 382.085 357.909 381.431 356.381 381.502C354.853 381.572 353.516 382.354 352.776 383.589C352.394 384.267 352.247 384.845 352.132 385.961ZM366.593 379.32L368.871 379.216L368.984 381.162C370.089 379.49 371.249 378.776 372.958 378.697C374.216 378.639 375.379 379.006 376.23 379.688C377.148 380.487 377.503 381.431 377.612 383.318L378.15 392.633L375.872 392.737L375.363 383.932C375.293 382.704 375.105 382.052 374.717 381.589C374.265 381.04 373.435 380.717 372.506 380.76C371.487 380.807 370.58 381.239 369.936 382.049C369.318 382.799 369.117 383.468 369.183 384.607L369.669 393.023L367.391 393.127L366.593 379.32ZM391.8 388.732L393.299 390.224C391.822 391.703 390.33 392.403 388.322 392.495C384.366 392.677 381.376 389.812 381.134 385.619C380.886 381.336 383.56 378.21 387.606 378.024C389.584 377.933 391.24 378.517 392.76 379.859L391.376 381.394C390.272 380.484 389.076 380.058 387.787 380.117C385.06 380.243 383.293 382.426 383.466 385.421C383.643 388.476 385.653 390.516 388.351 390.392C389.699 390.33 390.752 389.831 391.8 388.732ZM397.137 371.73L397.604 379.816C398.773 378.201 399.991 377.454 401.64 377.378C402.838 377.323 404.125 377.745 404.919 378.489C405.711 379.203 406.103 380.266 406.206 382.033L406.742 391.318L404.464 391.422L403.935 382.258C403.826 380.371 402.836 379.365 401.188 379.441C400.139 379.489 399.234 379.951 398.562 380.793C397.917 381.603 397.748 382.302 397.824 383.62L398.291 391.706L396.013 391.811L394.859 371.834L397.137 371.73ZM423.702 384.352L412.194 384.881C412.381 386.043 412.626 386.633 413.238 387.355C414.208 388.542 415.565 389.14 417.063 389.071C418.772 388.993 420.336 387.99 421.062 386.515L423.113 387.171C422.108 389.53 419.822 391.047 417.184 391.168C413.079 391.357 409.969 388.497 409.727 384.304C409.481 380.051 412.213 376.892 416.259 376.706C420.274 376.521 423.446 379.409 423.68 383.452C423.69 383.631 423.713 384.021 423.702 384.352ZM412.127 383.202L421.207 382.785C421.055 381.711 420.811 381.121 420.291 380.454C419.355 379.326 417.905 378.672 416.376 378.743C414.848 378.813 413.511 379.595 412.771 380.83C412.389 381.509 412.243 382.086 412.127 383.202ZM437.049 378.182L436.571 369.916L438.849 369.811L440.003 389.788L437.726 389.893L437.589 387.527C436.319 389.477 434.898 390.353 432.8 390.45C428.994 390.625 426.125 387.784 425.883 383.591C425.641 379.398 428.218 376.156 431.964 375.984C434.002 375.89 435.603 376.567 437.049 378.182ZM432.561 377.998C429.834 378.124 428.101 380.366 428.282 383.51C428.457 386.535 430.408 388.578 433.015 388.458C435.682 388.335 437.502 386.029 437.329 383.034C437.149 379.919 435.198 377.877 432.561 377.998ZM448.625 384.437L446.377 384.54C446.105 380.348 446.257 379.861 448.545 377.864C450.149 376.499 450.584 375.698 450.504 374.32C450.398 372.493 449.064 371.234 447.355 371.312C445.707 371.388 444.546 372.612 444.636 374.17L444.658 374.559L442.471 374.66C442.316 371.454 444.118 369.359 447.204 369.217C450.291 369.075 452.665 371.158 452.838 374.153C452.952 376.13 452.195 377.576 450.13 379.293C448.583 380.595 448.397 381.024 448.513 383.03C448.519 383.12 448.562 383.869 448.625 384.437ZM447.695 386.552C448.594 386.51 449.292 387.139 449.345 388.067C449.396 388.936 448.744 389.626 447.875 389.666C446.976 389.708 446.279 389.079 446.227 388.181C446.175 387.282 446.796 386.593 447.695 386.552ZM468.935 386.175L475.978 385.852L476.109 388.128L466.549 388.567L465.395 368.591L467.912 368.475L468.935 386.175ZM491.16 381.25L479.652 381.779C479.839 382.941 480.084 383.531 480.696 384.253C481.666 385.44 483.023 386.038 484.521 385.969C486.23 385.891 487.794 384.888 488.52 383.413L490.571 384.069C489.566 386.428 487.28 387.944 484.642 388.066C480.537 388.254 477.427 385.394 477.185 381.201C476.939 376.949 479.671 373.79 483.717 373.604C487.732 373.419 490.904 376.306 491.138 380.35C491.148 380.529 491.171 380.919 491.16 381.25ZM479.585 380.1L488.665 379.683C488.513 378.608 488.269 378.019 487.749 377.352C486.813 376.224 485.363 375.57 483.834 375.641C482.306 375.711 480.969 376.493 480.229 377.728C479.848 378.406 479.701 378.984 479.585 380.1ZM496.356 375.365L496.875 384.35C496.945 385.037 497.133 385.179 497.972 385.14L499.021 385.092L499.136 387.069L497.008 387.167C495.388 387.211 494.724 386.641 494.636 385.114L494.078 375.47L492.16 375.558L492.044 373.551L493.962 373.463L493.711 369.12L495.989 369.016L496.24 373.358L498.338 373.262L498.454 375.269L496.356 375.365ZM518.584 372.331L520.892 372.225L521.402 381.06C521.511 382.947 521.212 384.012 520.247 384.987C519.282 385.962 517.903 386.536 516.344 386.608C514.786 386.679 513.316 386.207 512.274 385.324C511.293 384.468 510.771 383.231 510.674 381.553L510.163 372.718L512.441 372.613L512.948 381.389C513.06 383.335 514.399 384.655 516.227 384.571C517.186 384.527 518.092 384.095 518.623 383.41C519.042 382.85 519.159 382.274 519.095 381.166L518.584 372.331ZM533.977 375.407L531.699 375.511L531.69 375.362C531.616 374.074 530.52 373.313 528.932 373.386C527.404 373.457 526.49 374.28 526.559 375.478C526.628 376.676 527.254 377.097 529.781 377.672C531.577 378.07 532.531 378.476 533.229 379.105C533.958 379.762 534.435 380.731 534.493 381.749C534.632 384.145 532.747 385.853 529.811 385.989C526.664 386.133 524.811 384.747 524.41 381.973L526.658 381.869C526.898 383.42 527.965 384.212 529.703 384.132C531.262 384.06 532.234 383.204 532.163 381.976C532.094 380.778 531.28 380.215 528.878 379.725C525.834 379.054 524.413 377.858 524.292 375.762C524.153 373.366 526.008 371.659 528.915 371.525C531.852 371.39 533.706 372.807 533.977 375.407ZM549.342 382.388L549.479 384.754L547.201 384.858L546.047 364.882L548.324 364.777L548.818 373.313C550.087 371.363 551.509 370.486 553.517 370.394C557.383 370.216 560.253 373.087 560.5 377.37C560.745 381.593 558.249 384.681 554.473 384.854C552.345 384.952 550.8 384.213 549.342 382.388ZM553.335 372.444C550.698 372.566 548.876 374.842 549.051 377.867C549.233 381.011 551.152 383.025 553.849 382.901C556.576 382.776 558.285 380.625 558.106 377.54C557.928 374.455 555.942 372.325 553.335 372.444ZM563.582 370.261L565.86 370.157L565.995 372.493C566.358 371.485 566.633 371.052 567.148 370.608C567.806 370.037 568.748 369.694 569.737 369.648L570.276 369.623L570.41 371.929C570.168 371.911 569.928 371.922 569.779 371.928C568.55 371.985 567.504 372.604 566.873 373.654C566.324 374.55 566.161 375.368 566.253 376.955L566.658 383.964L564.38 384.068L563.582 370.261ZM585.893 376.893L574.386 377.422C574.573 378.585 574.817 379.174 575.43 379.897C576.4 381.083 577.757 381.682 579.255 381.613C580.963 381.534 582.528 380.531 583.254 379.056L585.305 379.713C584.3 382.071 582.014 383.588 579.376 383.709C575.271 383.898 572.161 381.038 571.918 376.845C571.673 372.592 574.405 369.433 578.45 369.247C582.466 369.063 585.638 371.95 585.872 375.993C585.882 376.173 585.904 376.562 585.893 376.893ZM574.319 375.744L583.399 375.326C583.247 374.252 583.002 373.663 582.483 372.996C581.547 371.868 580.097 371.214 578.568 371.284C577.04 371.354 575.703 372.137 574.963 373.372C574.581 374.05 574.434 374.627 574.319 375.744ZM604.46 368.382L606.798 368.274L602.681 382.307L600.613 382.402L596.831 372.066L594.11 382.701L591.952 382.801L586.419 369.211L588.757 369.104L592.88 379.094L595.47 368.795L597.717 368.692L601.421 378.701L604.46 368.382ZM622.889 377.804L626.433 367.371L628.92 367.257L621.861 388.092L619.373 388.206L621.842 381.006L616.153 367.844L618.581 367.732L622.889 377.804ZM636.897 366.56C640.973 366.372 644.055 369.264 644.301 373.516C644.534 377.56 641.599 380.848 637.643 381.03C633.538 381.218 630.488 378.356 630.242 374.103C629.994 369.82 632.702 366.753 636.897 366.56ZM637.019 368.656C634.172 368.787 632.403 370.94 632.581 374.025C632.758 377.08 634.765 379.06 637.582 378.93C640.309 378.805 642.134 376.589 641.961 373.594C641.783 370.509 639.806 368.528 637.019 368.656ZM655.402 366.039L657.71 365.933L658.221 374.768C658.33 376.655 658.031 377.72 657.065 378.695C656.1 379.67 654.721 380.244 653.163 380.316C651.604 380.388 650.135 379.915 649.092 379.032C648.111 378.176 647.589 376.939 647.492 375.262L646.981 366.426L649.259 366.322L649.766 375.097C649.879 377.044 651.217 378.363 653.045 378.279C654.004 378.235 654.91 377.803 655.442 377.118C655.86 376.558 655.977 375.982 655.913 374.874L655.402 366.039ZM679.78 368.702L677.502 368.806L677.493 368.657C677.419 367.369 676.323 366.608 674.735 366.682C673.207 366.752 672.293 367.575 672.362 368.773C672.431 369.971 673.056 370.392 675.584 370.967C677.379 371.365 678.334 371.771 679.032 372.4C679.761 373.057 680.238 374.026 680.296 375.044C680.435 377.44 678.55 379.149 675.614 379.284C672.467 379.428 670.614 378.042 670.213 375.268L672.461 375.164C672.701 376.715 673.768 377.507 675.506 377.427C677.065 377.355 678.037 376.5 677.966 375.272C677.897 374.074 677.083 373.51 674.681 373.02C671.637 372.349 670.216 371.154 670.095 369.057C669.956 366.661 671.811 364.954 674.718 364.82C677.655 364.685 679.509 366.102 679.78 368.702ZM689.166 364.156C693.242 363.969 696.324 366.86 696.57 371.113C696.803 375.156 693.868 378.444 689.912 378.626C685.807 378.815 682.757 375.952 682.511 371.699C682.263 367.416 684.971 364.349 689.166 364.156ZM689.287 366.253C686.441 366.383 684.672 368.537 684.85 371.622C685.027 374.677 687.034 376.656 689.851 376.527C692.578 376.401 694.403 374.185 694.23 371.19C694.052 368.105 692.075 366.124 689.287 366.253ZM699.64 364.005L701.917 363.9L702.028 365.817C702.985 364.181 704.116 363.469 705.824 363.39C707.712 363.303 708.958 364.057 709.686 365.735C710.603 363.921 711.848 363.113 713.916 363.018C715.504 362.945 716.732 363.399 717.507 364.324C718.216 365.162 718.441 365.933 718.567 368.119L719.078 376.954L716.8 377.059L716.321 368.763C716.224 367.086 716.142 366.699 715.779 366.145C715.318 365.446 714.393 365.038 713.314 365.088C711.306 365.18 710.275 366.579 710.417 369.035L710.897 377.331L708.619 377.435L708.141 369.169C708.064 367.821 707.904 367.138 707.54 366.554C707.105 365.794 706.242 365.413 705.223 365.46C703.215 365.552 702.099 367.045 702.238 369.441L702.715 377.707L700.438 377.812L699.64 364.005ZM736.057 369.988L724.549 370.517C724.737 371.679 724.981 372.269 725.594 372.991C726.564 374.178 727.92 374.776 729.419 374.707C731.127 374.629 732.692 373.626 733.418 372.151L735.469 372.807C734.463 375.166 732.177 376.682 729.54 376.804C725.434 376.993 722.324 374.133 722.082 369.94C721.836 365.687 724.568 362.528 728.614 362.342C732.63 362.157 735.801 365.044 736.035 369.088C736.045 369.267 736.068 369.657 736.057 369.988ZM724.482 368.838L733.563 368.421C733.41 367.347 733.166 366.757 732.647 366.09C731.71 364.962 730.26 364.308 728.732 364.379C727.203 364.449 725.866 365.231 725.126 366.466C724.745 367.144 724.598 367.722 724.482 368.838ZM741.253 364.103L741.773 373.088C741.842 373.776 742.031 373.917 742.87 373.878L743.919 373.83L744.033 375.807L741.905 375.905C740.285 375.949 739.621 375.379 739.533 373.852L738.976 364.208L737.058 364.296L736.942 362.289L738.86 362.201L738.609 357.858L740.886 357.754L741.137 362.096L743.235 362L743.351 364.007L741.253 364.103ZM748.299 355.581L748.766 363.667C749.935 362.052 751.153 361.305 752.802 361.23C754 361.175 755.287 361.596 756.081 362.34C756.874 363.054 757.265 364.117 757.368 365.885L757.904 375.169L755.627 375.274L755.097 366.109C754.988 364.222 753.998 363.217 752.35 363.292C751.301 363.341 750.396 363.803 749.724 364.644C749.08 365.455 748.91 366.153 748.986 367.471L749.453 375.558L747.175 375.662L746.021 355.686L748.299 355.581ZM763.873 361.051L764.671 374.858L762.394 374.963L761.596 361.156L763.873 361.051ZM762.455 355.741C763.264 355.704 763.931 356.334 763.98 357.172C764.027 357.981 763.404 358.64 762.594 358.677C761.785 358.714 761.12 358.114 761.071 357.276C761.023 356.437 761.616 355.779 762.455 355.741ZM768.444 360.841L770.722 360.736L770.834 362.683C771.939 361.01 773.1 360.296 774.808 360.218C776.067 360.16 777.23 360.527 778.081 361.208C778.998 362.007 779.353 362.952 779.462 364.838L780.001 374.153L777.723 374.258L777.214 365.452C777.143 364.224 776.955 363.572 776.568 363.11C776.116 362.56 775.286 362.238 774.357 362.28C773.338 362.327 772.431 362.759 771.787 363.57C771.169 364.319 770.967 364.989 771.033 366.127L771.52 374.543L769.242 374.648L768.444 360.841ZM793.989 362.038L793.852 359.672L796.13 359.567L796.933 373.464C797.066 375.77 796.587 377.354 795.397 378.61C794.238 379.864 792.506 380.575 790.408 380.671C787.831 380.79 785.745 380.045 784.15 378.437L785.618 376.807C786.285 377.437 786.601 377.693 787.006 377.945C787.813 378.388 789.12 378.658 790.289 378.605C791.727 378.538 793.077 377.966 793.807 377.091C794.453 376.311 794.749 375.186 794.666 373.749L794.498 370.844C793.267 372.942 791.732 373.944 789.575 374.043C785.919 374.211 783.013 371.252 782.776 367.148C782.648 364.932 783.334 362.769 784.637 361.387C785.683 360.258 787.15 359.65 788.918 359.569C791.016 359.472 792.47 360.186 793.989 362.038ZM789.459 361.646C786.762 361.77 784.995 363.953 785.168 366.948C785.34 369.913 787.386 372.042 789.993 371.922C791.312 371.861 792.564 371.173 793.402 370.083C793.962 369.367 794.274 368.001 794.194 366.623C794.09 364.826 793.765 363.88 792.904 363.019C792.011 362.129 790.688 361.59 789.459 361.646ZM812.342 360.834L813.024 372.634L810.747 372.739L810.065 360.939L808.177 361.025L808.061 359.019L809.949 358.932L809.842 357.075C809.684 354.35 810.999 352.668 813.397 352.557C813.516 352.552 813.786 352.539 814.028 352.558L814.145 354.595C812.507 354.85 812.086 355.35 812.119 356.97L812.226 358.827L814.384 358.728L814.5 360.735L812.342 360.834ZM825.32 358.225L827.628 358.119L828.139 366.954C828.248 368.841 827.949 369.906 826.983 370.881C826.018 371.857 824.639 372.43 823.081 372.502C821.522 372.574 820.053 372.101 819.01 371.218C818.029 370.362 817.507 369.125 817.41 367.448L816.899 358.612L819.177 358.508L819.684 367.283C819.797 369.23 821.135 370.55 822.963 370.466C823.922 370.421 824.828 369.989 825.36 369.304C825.778 368.744 825.895 368.169 825.831 367.06L825.32 358.225ZM831.834 357.926L834.112 357.821L834.224 359.768C835.33 358.095 836.49 357.381 838.198 357.303C839.457 357.245 840.62 357.612 841.471 358.293C842.388 359.092 842.743 360.036 842.852 361.923L843.391 371.238L841.113 371.343L840.604 362.537C840.533 361.309 840.345 360.657 839.958 360.195C839.506 359.645 838.676 359.323 837.747 359.365C836.728 359.412 835.821 359.844 835.177 360.655C834.559 361.404 834.358 362.074 834.423 363.212L834.91 371.628L832.632 371.733L831.834 357.926ZM849.482 350.928L850.358 366.083L848.05 366.189L847.175 351.034L849.482 350.928ZM849.302 368.083C850.201 368.042 850.898 368.67 850.952 369.599C851.002 370.467 850.351 371.158 849.482 371.198C848.583 371.239 847.885 370.611 847.833 369.712C847.782 368.814 848.403 368.124 849.302 368.083Z" fill="#F0E7D2"/>
</svg>
