<svg width="168" height="84" viewBox="0 0 168 84" fill="none" xmlns="http://www.w3.org/2000/svg">
<path d="M161.537 25.4317L159.724 25.189C158.772 25.0612 157.805 25.3121 157.047 25.885L155.604 26.975C155.53 27.0307 155.421 26.9904 155.405 26.9005L155.083 25.1571C154.914 24.241 154.369 23.4291 153.572 22.9083L152.055 21.9176C151.977 21.8667 151.983 21.7543 152.066 21.7105L153.68 20.8761C154.529 20.437 155.158 19.6842 155.423 18.7895L155.928 17.0875C155.954 16.9999 156.068 16.9703 156.135 17.0342L157.454 18.2616C158.148 18.9066 159.082 19.2534 160.043 19.2215L161.872 19.1611C161.966 19.1575 162.03 19.2522 161.988 19.3351L161.189 20.9282C160.77 21.7661 160.719 22.7319 161.046 23.6078L161.671 25.2719C161.703 25.3571 161.63 25.4459 161.537 25.4328V25.4317Z" fill="#FFBE93"/>
<path d="M91.5419 68.3343L89.5075 66.8163C88.4383 66.0181 87.0971 65.6701 85.7907 65.853L83.3045 66.2008C83.1765 66.2179 83.0716 66.0956 83.1131 65.9757L83.9 63.6441C84.3139 62.419 84.2005 61.066 83.585 59.896L82.4146 57.6706C82.354 57.556 82.4374 57.4238 82.5678 57.4268L85.0891 57.5047C86.415 57.5451 87.6856 57.0565 88.6116 56.1505L90.3733 54.4272C90.4636 54.3383 90.6215 54.3792 90.66 54.5021L91.4317 56.8817C91.8372 58.1322 92.7363 59.1837 93.9238 59.7939L96.182 60.9551C96.2986 61.0144 96.3118 61.1721 96.2055 61.2445L94.1613 62.6376C93.0867 63.3707 92.3724 64.5074 92.1785 65.791L91.8129 68.2313C91.794 68.3561 91.645 68.4142 91.5411 68.3357L91.5419 68.3343Z" fill="#FFBE93"/>
<path d="M32.2587 24.6474L29.3588 24.2835C27.8346 24.0917 26.2888 24.4681 25.0756 25.3274L22.7667 26.9625C22.6473 27.0459 22.4732 26.9856 22.4477 26.8507L21.9331 24.2356C21.6631 22.8614 20.7904 21.6435 19.5146 20.8624L17.0883 19.3764C16.9631 19.3001 16.9729 19.1314 17.1059 19.0657L19.6888 17.8141C21.0467 17.1554 22.0525 16.0263 22.4771 14.6841L23.2852 12.1312C23.3263 11.9998 23.5083 11.9554 23.6159 12.0513L25.7272 13.8923C26.8366 14.8599 28.3316 15.3801 29.8695 15.3321L32.7948 15.2416C32.9455 15.2363 33.0472 15.3783 32.9807 15.5026L31.703 17.8922C31.0318 19.1492 30.9496 20.5978 31.474 21.9116L32.4739 24.4078C32.5248 24.5356 32.4074 24.6687 32.2587 24.6492V24.6474Z" fill="#FFBE93"/>
<path d="M9.4684 65.9953L8.70406 62.3938C8.30285 60.5005 7.17418 58.8376 5.57537 57.7865L2.53283 55.7859C2.37692 55.682 2.37971 55.4484 2.53958 55.3574L5.62898 53.5695C7.25249 52.6304 8.42396 51.0473 8.87298 49.1831L9.72736 45.6376C9.77101 45.4547 9.98841 45.3903 10.1277 45.5185L12.801 48.0165C14.2073 49.3296 16.0597 50.0133 17.9361 49.9121L21.5055 49.7201C21.689 49.7097 21.822 49.9054 21.7462 50.0761L20.3098 53.4082C19.5548 55.1592 19.5283 57.1656 20.2384 58.9672L21.5882 62.3942C21.6585 62.5704 21.5219 62.755 21.3367 62.7321L17.7755 62.2938C15.9027 62.0643 14.0362 62.6194 12.5964 63.8328L9.86235 66.1425C9.7222 66.2604 9.50426 66.1812 9.46615 65.9961L9.4684 65.9953Z" fill="#FFBE93"/>
<path d="M152.609 53.6815C152.609 53.6815 151.524 55.1067 150.41 56.2328C140.946 65.8036 125.515 65.8898 115.944 56.4253C106.373 46.9608 106.287 31.53 115.752 21.9591C122.935 14.695 133.556 12.8975 142.444 16.5906C130.874 9.12374 115.278 10.505 105.212 20.6844C93.6691 32.3569 93.7742 51.1752 105.447 62.718C117.119 74.2608 135.938 74.1557 147.48 62.4832C150.298 59.6341 152.26 56.1517 152.26 56.1517C153.336 54.2365 154.038 52.4879 154.503 51.1155C154.07 51.7477 153.432 52.6442 152.606 53.6815L152.609 53.6815Z" fill="#FFBE93"/>
<path d="M36.095 49.9999H34.655V35.6399H34.955L44.475 46.6399V35.6399H45.915V49.9999H45.595L36.095 39.1399V49.9999ZM49.0197 49.9999V39.3799H50.3797V49.9999H49.0197ZM49.6797 34.9999C50.2997 34.9999 50.8197 35.4999 50.8197 36.1199C50.8197 36.7399 50.2997 37.2599 49.6797 37.2599C49.0597 37.2599 48.5597 36.7399 48.5597 36.1199C48.5597 35.4799 49.0797 34.9999 49.6797 34.9999ZM63.7436 39.3799V47.8399C63.7436 49.5799 63.6436 51.0199 62.7836 52.1999C61.8836 53.4199 60.3036 54.1399 58.2836 54.1399C55.2236 54.1399 53.7436 52.8999 52.8036 50.8399H54.2836C55.0836 52.2399 56.3236 52.8999 58.2036 52.8999C59.9636 52.8999 61.2636 52.2599 61.9036 51.0999C62.3036 50.3599 62.3636 49.5999 62.3636 48.7799V47.9799C61.3036 49.3199 59.7636 49.9999 58.1036 49.9999C55.1636 49.9999 52.6636 47.7599 52.6636 44.6199C52.6636 41.4599 55.2836 39.0999 58.1036 39.0999C59.9836 39.0999 61.2436 39.8999 62.3636 41.2199V39.3799H63.7436ZM58.3236 40.4199C55.9436 40.4199 54.0636 42.2399 54.0636 44.6999C54.0636 46.8199 55.5636 48.6799 58.3636 48.6799C60.6836 48.6799 62.4236 47.0799 62.4236 44.5999C62.4236 42.0399 60.5236 40.4199 58.3236 40.4199ZM66.6606 49.9999V35.2799H68.0206V41.2799C69.1206 39.8399 70.4206 39.0999 72.0006 39.0999C74.3006 39.0999 75.9206 40.7199 75.9206 43.8999V49.9999H74.5606V44.2199C74.5606 41.7199 73.8006 40.3399 71.7406 40.3399C70.6006 40.3399 69.6606 40.8399 68.9406 41.7799C68.1606 42.7999 68.0206 43.8399 68.0206 45.5399V49.9999H66.6606ZM80.0877 39.3799V35.4199H81.4477V39.3799H83.6277V40.5799H81.4477V49.9999H80.0877V40.5799H78.2077V39.3799H80.0877Z" fill="#F2E8E1"/>
</svg>
