<svg width="291" height="181" viewBox="0 0 291 181" fill="none" xmlns="http://www.w3.org/2000/svg">
<path d="M58.8 0.820312H70.35V2.19031C67.67 2.46031 66.68 3.61031 65.53 6.95031L55.18 39.1403H52.11L42.86 10.1803L33.55 39.1403H30.48L20.2 6.95031C19.16 4.21031 18.17 3.28031 16.04 3.28031H15.27C7.94 3.28031 2.74 6.95031 2.74 13.5803C2.74 18.0103 5.81 21.3003 9.31 21.3003C11.23 21.3003 12.32 20.5903 12.32 19.2703C12.32 18.1703 11.23 17.2403 11.23 15.7103C11.23 13.6303 12.65 12.3703 14.46 12.3703C16.7 12.3703 17.91 14.2903 17.91 16.4203C17.91 20.8503 14.41 23.8103 9.7 23.8103C4 23.8203 0 19.6503 0 13.5803C0 6.57031 5.69 0.820312 15.27 0.820312H30V2.19031C25.62 2.46031 24.8 3.61031 25.89 6.95031L33.5 30.6603L41.49 6.02031C40.56 3.39031 39.85 2.46031 37.22 2.19031V0.820312H51.62V2.19031C47.19 2.46031 46.42 3.61031 47.51 6.95031L55.12 30.6603L62.78 6.95031C63.88 3.56031 63.16 2.46031 58.78 2.19031V0.820312H58.8Z" fill="#F0E7D2"/>
<path d="M87.3306 39.1502V37.7802C90.3406 37.5102 91.0005 36.9002 91.0005 34.9302V21.0202C91.0005 17.7902 89.3006 16.4202 86.7306 16.4202C84.1606 16.4202 81.7506 17.3002 79.6105 18.7702V34.9202C79.6105 36.8902 80.3205 37.4902 83.2805 37.7702V39.1402H71.0705V37.7702C74.0805 37.5002 74.7906 36.8902 74.7906 34.9202V7.17023C74.7906 5.86023 74.3005 5.36023 73.0905 5.36023H71.0605V4.26023L77.9006 -0.00976562H79.6005V16.3602C81.7405 15.0502 85.0705 13.6202 88.0905 13.6202C91.3205 13.6202 95.8605 14.8802 95.8605 21.0102V34.9202C95.8605 36.8902 96.5705 37.4902 99.5305 37.7702V39.1402H87.3205L87.3306 39.1502Z" fill="#F0E7D2"/>
<path d="M128.671 26.7699C128.671 34.2699 123.471 39.9599 115.751 39.9599C108.031 39.9599 102.881 34.2699 102.881 26.7699C102.881 19.2699 108.031 13.6299 115.751 13.6299C123.471 13.6299 128.671 19.3199 128.671 26.7699ZM123.411 26.7699C123.411 20.4199 121.271 15.7699 115.741 15.7699C110.211 15.7699 108.131 20.4199 108.131 26.7699C108.131 33.1199 110.211 37.8299 115.741 37.8299C121.271 37.8299 123.411 33.1199 123.411 26.7699Z" fill="#F0E7D2"/>
<path d="M137.861 3.99977C137.861 7.49977 135.181 12.2698 132.661 14.6798L131.561 13.7998C133.421 11.3898 134.461 9.41977 134.901 6.84977C132.331 6.84977 130.961 5.31977 130.961 3.39977C130.961 1.47977 132.331 0.00976562 134.411 0.00976562C136.491 0.00976562 137.861 1.48977 137.861 4.00977V3.99977Z" fill="#F0E7D2"/>
<path d="M160.589 31.8606C160.589 36.7906 156.379 39.9606 150.789 39.9606C147.289 39.9606 143.999 38.8106 142.079 37.3306L141.419 39.1406H139.999L138.029 30.8706L139.229 30.4906C142.519 35.6906 146.069 37.8306 150.729 37.8306C153.629 37.8306 156.529 36.5206 156.529 33.4006C156.529 30.2806 152.969 29.3506 148.649 28.4206C143.999 27.3306 138.899 26.0106 138.899 20.8106C138.899 16.8706 142.509 13.6406 147.819 13.6406C151.269 13.6406 153.729 14.5706 155.369 15.8306L155.919 14.4606H157.289L158.879 21.5206L157.679 21.9606C155.109 17.4206 151.879 15.7206 148.149 15.7206C144.809 15.7206 143.169 17.2506 143.169 19.2806C143.169 22.0206 146.399 22.8406 150.719 23.7706C155.539 24.9706 160.569 26.4006 160.569 31.8706L160.589 31.8606Z" fill="#F0E7D2"/>
<path d="M48.8902 93.7307C48.8902 100.741 42.6502 105.671 34.0002 105.671C29.2902 105.671 25.1302 104.471 21.7902 102.601L20.8602 104.851H19.2202L15.6602 93.0807L16.9202 92.7007C20.7502 99.9807 27.0502 103.321 33.8402 103.321C39.4802 103.321 44.0202 100.031 43.9702 95.4407C43.9202 90.2407 38.5502 88.7607 31.3802 86.9007C24.6502 85.1507 17.8002 83.1207 17.8002 75.7907C17.8002 69.9307 23.6002 65.7207 30.8802 65.7207C35.9202 65.7207 39.5302 67.0307 41.7802 68.4607L42.5502 66.5407H44.1902L47.5302 77.2207L46.3302 77.6607C43.3202 71.5307 38.5002 68.0807 31.2202 68.0807C25.8002 68.0807 22.6202 70.8707 22.6202 74.1607C22.6202 78.5907 27.8202 80.0207 33.9502 81.6107C41.0702 83.4207 48.9002 85.5507 48.9002 93.7607L48.8902 93.7307Z" fill="#F0E7D2"/>
<path d="M68.9907 104.85V103.48C72.0007 103.21 72.6607 102.6 72.6607 100.63V86.7204C72.6607 83.4904 70.9607 82.1204 68.3907 82.1204C65.8207 82.1204 63.4107 83.0004 61.2707 84.4704V100.62C61.2707 102.59 61.9807 103.19 64.9407 103.47V104.84H52.7307V103.47C55.7407 103.2 56.4507 102.59 56.4507 100.62V72.8604C56.4507 71.5504 55.9607 71.0504 54.7507 71.0504H52.7207V69.9604L59.5607 65.6904H61.2607V82.0604C63.4007 80.7504 66.7307 79.3204 69.7507 79.3204C72.9807 79.3204 77.5207 80.5804 77.5207 86.7104V100.62C77.5207 102.59 78.2307 103.19 81.1907 103.47V104.84H68.9807L68.9907 104.85Z" fill="#F0E7D2"/>
<path d="M91.9291 105.561C87.3891 105.561 84.5391 103.531 84.5391 99.7006C84.5391 93.7906 91.5491 91.7606 100.909 90.2306V86.9506C100.909 82.9506 100.029 81.4206 96.9691 81.4206C93.9091 81.4206 91.9291 82.7306 91.2791 85.4206C90.7891 87.2806 89.7491 88.0506 88.5391 88.0506C87.1691 88.0506 86.4091 87.2306 86.4091 85.5906C86.4091 82.4706 90.5691 79.3506 97.2491 79.3506C101.899 79.3506 105.789 81.0506 105.789 87.0706V99.9406C105.789 101.971 106.339 102.901 107.539 102.901C108.089 102.901 108.739 102.741 109.569 102.301V104.271C108.419 105.041 107.109 105.481 105.299 105.481C103.109 105.481 101.469 104.441 101.029 102.091C98.5091 103.841 95.2791 105.591 91.9391 105.591L91.9291 105.561ZM100.909 92.3106C94.2291 93.3006 89.7991 94.8306 89.7991 99.0406C89.7991 101.611 91.4391 102.761 93.6891 102.761C96.1491 102.761 98.5591 101.551 100.919 99.9106V92.3006L100.909 92.3106Z" fill="#F0E7D2"/>
<path d="M112.401 104.85V103.48C115.411 103.21 116.121 102.6 116.121 100.63V72.8702C116.121 71.5602 115.631 71.0602 114.421 71.0602H112.391V69.9702L119.231 65.7002H120.931V92.1402L128.321 84.6902C129.631 83.4302 130.131 81.7902 125.801 81.5102V80.1402H138.671V81.5102C135.551 81.7802 133.911 82.6102 131.391 85.0702L127.561 88.9002L136.651 100.23C138.681 102.69 139.661 103.19 141.411 103.46V104.83H127.831V103.46C131.611 103.19 131.661 101.54 130.511 100.12L124.101 92.2902L120.921 95.4602V100.61C120.921 102.58 121.631 103.18 124.591 103.46V104.83H112.381L112.401 104.85Z" fill="#F0E7D2"/>
<path d="M141.811 104.85V103.48C144.821 103.21 145.531 102.6 145.531 100.63V86.5104C145.531 85.2004 145.041 84.7004 143.831 84.7004H141.801V83.6104L148.641 79.3404H150.341V100.64C150.341 102.61 151.051 103.21 154.011 103.49V104.86H141.801L141.811 104.85ZM151.281 70.5204C151.281 72.1604 149.971 73.5904 148.051 73.5904C146.131 73.5904 144.821 72.1704 144.821 70.5204C144.821 68.8704 146.081 67.4004 148.051 67.4004C150.021 67.4004 151.281 68.8204 151.281 70.5204Z" fill="#F0E7D2"/>
<path d="M173.18 104.85V103.48C176.19 103.21 176.85 102.6 176.85 100.63V86.7201C176.85 83.4901 175.15 82.1201 172.58 82.1201C170.01 82.1201 167.6 83.0001 165.46 84.4701V100.62C165.46 102.59 166.17 103.19 169.13 103.47V104.84H156.92V103.47C159.93 103.2 160.64 102.59 160.64 100.62V86.5001C160.64 85.1901 160.15 84.6901 158.94 84.6901H156.91V83.6001L163.75 79.3301H165.45V82.0701C167.59 80.7601 170.93 79.3301 173.94 79.3301C177.17 79.3301 181.71 80.5901 181.71 86.7201V100.63C181.71 102.6 182.42 103.2 185.38 103.48V104.85H173.17H173.18Z" fill="#F0E7D2"/>
<path d="M215.88 79.9905C215.88 81.0805 215.17 82.1205 213.8 82.1205C212.16 82.1205 211.99 80.7505 210.62 80.7505C209.69 80.7505 209.03 81.5205 208.43 82.6705C209.91 84.3105 210.67 86.5605 210.67 89.0205C210.67 94.4405 206.84 98.6605 200.21 98.6605C197.25 98.6605 196.54 97.8905 194.68 97.8905C192.71 97.8905 191.78 98.8205 191.78 99.8105C191.78 101.62 194.08 101.95 202.51 102.22C210.94 102.49 213.57 104.52 213.57 108.46C213.57 113.11 208.81 115.74 201.36 115.74C193.91 115.74 188.77 114.37 188.77 109.88C188.77 107.8 190.03 106.38 191.78 105.45C189.59 104.52 188.82 103.1 188.82 101.02C188.82 98.1705 190.68 96.5305 192.93 96.2605C190.8 94.5105 189.7 91.9305 189.7 89.0305C189.7 83.5005 193.53 79.3405 200.21 79.3405C202.95 79.3405 205.19 80.0505 206.89 81.2605C208.37 79.0105 210.61 77.4805 212.8 77.4805C214.55 77.4805 215.87 78.4105 215.87 80.0005L215.88 79.9905ZM201.81 106.98C198.85 106.87 196.55 106.65 194.69 106.32C192.94 106.92 192.17 108.02 192.17 109.39C192.17 112.24 195.67 113.61 201.37 113.61C207.07 113.61 210.08 111.8 210.08 109.67C210.08 107.42 208.22 107.15 201.81 106.99V106.98ZM205.7 89.0305C205.7 84.7005 204.49 81.4705 200.22 81.4705C195.95 81.4705 194.69 84.7005 194.69 89.0305C194.69 93.3605 195.89 96.5305 200.22 96.5305C204.55 96.5305 205.7 93.3605 205.7 89.0305Z" fill="#F0E7D2"/>
<path d="M15.1702 170.551V169.181C18.1802 168.911 18.8902 168.301 18.8902 166.331V152.211C18.8902 150.901 18.4002 150.401 17.1902 150.401H15.1602V149.311L22.0002 145.041H23.7002V166.341C23.7002 168.311 24.4102 168.911 27.3702 169.191V170.561H15.1602L15.1702 170.551ZM24.6402 136.221C24.6402 137.861 23.3302 139.291 21.4102 139.291C19.4902 139.291 18.1802 137.871 18.1802 136.221C18.1802 134.571 19.4402 133.101 21.4102 133.101C23.3802 133.101 24.6402 134.521 24.6402 136.221Z" fill="#F0E7D2"/>
<path d="M44.8901 170.11C43.6301 170.71 41.6601 171.15 39.9101 171.15C36.2401 171.15 33.5001 169.73 33.5001 164.74V148.1H29.8301V146.95C34.1001 145.42 35.8001 142.46 36.6201 137.75H38.3201V145.85H44.8901V148.09H38.3201V164.79C38.3201 167.42 39.2501 168.62 41.5001 168.62C42.6501 168.62 43.7401 168.4 44.8901 167.96V170.1V170.11Z" fill="#F0E7D2"/>
<path d="M71.9392 159.27C71.9392 165.95 76.4792 168.85 82.7792 168.85C88.1992 168.85 92.7392 165.84 92.7392 159.38V138.36C92.7392 134.14 91.8092 133.87 87.4292 133.6V132.23H100.839V133.6C96.4592 133.87 95.5292 134.15 95.5292 138.36V159.38C95.5292 165.84 91.0992 171.37 81.8392 171.37C72.5792 171.37 66.5092 167.32 66.5092 159.38V138.36C66.5092 134.14 65.5792 133.87 61.1992 133.6V132.23H77.2392V133.6C72.8592 133.87 71.9292 134.15 71.9292 138.36V159.27H71.9392Z" fill="#F0E7D2"/>
<path d="M102.99 180.62V179.25C106 178.98 106.71 178.37 106.71 176.46V152.21C106.71 150.9 106.22 150.4 105.01 150.4H102.82V149.31L109.83 145.04H111.53V147.83C113.23 146.08 115.64 145.04 118.81 145.04C126.09 145.04 130.2 150.79 130.2 158.18C130.2 165.57 126.09 171.37 118.48 171.37C115.41 171.37 113.17 170.44 111.53 168.85V176.46C111.53 178.38 112.24 178.98 115.2 179.25V180.62H102.99ZM111.53 166.01C112.9 167.87 114.92 169.02 117.61 169.02C123.08 169.02 124.95 164.53 124.95 158.18C124.95 151.83 123.09 147.39 117.61 147.39C114.93 147.39 112.9 148.54 111.53 150.4V166V166.01Z" fill="#F0E7D2"/>
<path d="M140.329 160.37H138.029V150.02C144.049 150.02 148.379 148.27 148.379 142.08C148.379 137.92 145.209 134.09 140.329 134.09C135.899 134.09 136.989 139.18 132.939 139.18C131.519 139.18 130.369 138.03 130.369 136.33C130.369 132.94 134.039 131.4 138.309 131.4C147.889 131.4 152.649 137.92 152.649 143.94C152.649 151.39 147.559 154.83 140.609 154.94L140.339 160.36L140.329 160.37ZM142.679 167.65C142.679 169.57 141.259 171.1 139.229 171.1C137.199 171.1 135.729 169.57 135.729 167.65C135.729 165.73 137.149 164.26 139.229 164.26C141.309 164.26 142.679 165.74 142.679 167.65Z" fill="#F0E7D2"/>
<path d="M266.369 117.52C265.799 118.09 265.119 118.09 264.439 117.4L263.979 116.94C263.409 116.36 263.299 115.67 263.979 114.98L281.829 97.1102H236.229C235.429 97.1102 234.869 96.5402 234.869 95.7302V95.0402C234.869 94.2302 235.439 93.6602 236.229 93.6602H281.829L263.979 75.6702C263.299 74.9802 263.299 74.5202 263.979 73.8302L264.439 73.3702C265.119 72.6702 265.689 72.6702 266.369 73.2502L289.229 93.5502C289.909 94.1202 290.249 94.8202 290.249 95.3902C290.249 96.0802 289.909 96.6602 289.229 97.2302L266.369 117.53V117.52Z" fill="#F0E7D2"/>
<path d="M167.081 143.85C167.081 140 169.381 137.47 172.881 137.47C175.921 137.47 177.331 139.27 177.331 140.35C177.331 140.82 177.061 141.08 176.591 141.08C176.001 141.08 175.801 140.62 175.571 140.06C175.211 139.22 174.741 138.15 172.711 138.15C170.091 138.15 168.201 140.24 168.201 143.25C168.201 146.26 169.941 149.34 173.101 149.34C175.181 149.34 176.121 148.03 176.681 147.26C176.921 146.93 177.041 146.73 177.201 146.73C177.321 146.73 177.381 146.84 177.381 147C177.381 147.8 176.011 150.23 172.811 150.23C169.361 150.23 167.061 147.7 167.061 143.85H167.081Z" fill="#F0E7D2"/>
<path d="M179.211 149.66C179.211 149.39 179.371 149.28 179.551 149.15C179.731 149.04 179.911 148.9 179.911 148.64V139.06C179.911 138.79 179.731 138.66 179.551 138.55C179.371 138.42 179.211 138.3 179.211 138.04C179.211 137.78 179.391 137.66 179.641 137.66H181.361C181.631 137.66 181.791 137.79 181.791 138.04C181.791 138.29 181.631 138.42 181.451 138.55C181.271 138.66 181.091 138.79 181.091 139.06V148.86C181.091 149.15 181.281 149.35 181.581 149.35H185.681C186.261 149.35 186.491 148.82 186.691 148.33C186.851 147.96 186.971 147.64 187.251 147.64C187.491 147.64 187.651 147.82 187.651 148.08V149.48C187.651 149.83 187.411 150.04 187.041 150.04H179.661C179.411 150.04 179.231 149.91 179.231 149.66H179.211Z" fill="#F0E7D2"/>
<path d="M189.289 149.66C189.289 149.39 189.449 149.28 189.629 149.15C189.809 149.04 189.989 148.9 189.989 148.64V139.06C189.989 138.79 189.809 138.66 189.629 138.55C189.449 138.42 189.289 138.3 189.289 138.04C189.289 137.78 189.469 137.66 189.719 137.66H191.439C191.709 137.66 191.869 137.79 191.869 138.04C191.869 138.29 191.709 138.42 191.529 138.55C191.349 138.66 191.169 138.79 191.169 139.06V148.64C191.169 148.89 191.349 149.04 191.529 149.15C191.709 149.28 191.869 149.39 191.869 149.66C191.869 149.91 191.709 150.04 191.439 150.04H189.719C189.469 150.04 189.289 149.91 189.289 149.66Z" fill="#F0E7D2"/>
<path d="M193.67 143.85C193.67 140 195.97 137.47 199.47 137.47C202.51 137.47 203.92 139.27 203.92 140.35C203.92 140.82 203.65 141.08 203.18 141.08C202.59 141.08 202.39 140.62 202.16 140.06C201.8 139.22 201.33 138.15 199.3 138.15C196.68 138.15 194.79 140.24 194.79 143.25C194.79 146.26 196.53 149.34 199.7 149.34C201.78 149.34 202.72 148.03 203.28 147.26C203.51 146.93 203.64 146.73 203.8 146.73C203.92 146.73 203.98 146.84 203.98 147C203.98 147.8 202.61 150.23 199.42 150.23C195.97 150.23 193.67 147.7 193.67 143.85Z" fill="#F0E7D2"/>
<path d="M205.801 149.66C205.801 149.39 205.961 149.28 206.141 149.15C206.321 149.04 206.501 148.9 206.501 148.64V139.06C206.501 138.79 206.321 138.66 206.141 138.55C205.961 138.42 205.801 138.3 205.801 138.04C205.801 137.78 205.981 137.66 206.231 137.66H207.951C208.221 137.66 208.381 137.79 208.381 138.04C208.381 138.29 208.221 138.42 208.041 138.55C207.861 138.66 207.681 138.79 207.681 139.06V144.34L213.201 138.95C213.511 138.64 213.401 138.55 213.221 138.4C213.131 138.33 213.021 138.2 213.021 138.03C213.021 137.79 213.181 137.65 213.441 137.65H214.821C215.071 137.65 215.251 137.8 215.251 138.03C215.251 138.26 215.071 138.4 214.761 138.58C214.541 138.71 214.241 138.93 213.911 139.24L210.141 142.9L214.651 148.78C215.011 149.24 215.351 149.38 215.571 149.46C215.751 149.53 215.881 149.57 215.881 149.75C215.881 150.04 215.611 150.22 215.181 150.22C214.601 150.22 213.991 149.91 213.471 149.22L209.291 143.75L207.691 145.28V148.63C207.691 148.88 207.871 149.03 208.051 149.14C208.231 149.27 208.391 149.38 208.391 149.65C208.391 149.9 208.231 150.03 207.961 150.03H206.241C205.991 150.03 205.811 149.9 205.811 149.65L205.801 149.66Z" fill="#F0E7D2"/>
<path d="M166.881 161.89C166.881 159.63 168.551 158.16 171.081 158.16H174.511C174.751 158.16 174.871 158.25 174.941 158.47L179.201 169.11L183.531 158.47C183.621 158.25 183.731 158.16 183.961 158.16H185.361C185.611 158.16 185.791 158.29 185.791 158.54C185.791 158.79 185.611 158.92 185.431 159.05C185.251 159.16 185.071 159.29 185.071 159.56V169.14C185.071 169.39 185.251 169.54 185.431 169.65C185.611 169.78 185.791 169.89 185.791 170.16C185.791 170.41 185.611 170.54 185.361 170.54H183.621C183.371 170.54 183.191 170.41 183.191 170.16C183.191 169.89 183.371 169.78 183.551 169.65C183.711 169.54 183.891 169.4 183.891 169.14V159.32L179.471 170.23C179.401 170.43 179.271 170.54 179.071 170.54H178.831C178.651 170.54 178.501 170.43 178.431 170.23L174.071 159.34V168.98C174.071 169.36 174.321 169.51 174.541 169.67C174.761 169.8 174.921 169.92 174.921 170.16C174.921 170.41 174.741 170.54 174.491 170.54H173.131C172.881 170.54 172.701 170.41 172.701 170.16C172.701 169.91 172.841 169.78 173.041 169.65C173.241 169.52 173.401 169.4 173.401 169.12V160.57C173.401 159.46 172.471 158.82 170.921 158.82C168.951 158.82 167.631 159.91 167.631 161.66C167.631 162.82 168.211 163.65 169.161 163.65C169.461 163.65 169.701 163.58 169.931 163.49C170.151 163.42 170.341 163.36 170.561 163.36C171.051 163.36 171.351 163.69 171.351 164.13C171.351 164.73 170.771 165.12 169.861 165.12C168.081 165.12 166.881 163.82 166.881 161.89Z" fill="#F0E7D2"/>
<path d="M187.84 170.16C187.84 169.89 188 169.78 188.18 169.65C188.36 169.54 188.54 169.4 188.54 169.14V159.56C188.54 159.29 188.36 159.16 188.18 159.05C188 158.92 187.84 158.8 187.84 158.54C187.84 158.28 188.02 158.16 188.27 158.16H196.16C196.52 158.16 196.75 158.38 196.75 158.72V160.05C196.75 160.29 196.6 160.47 196.37 160.47C196.1 160.47 195.99 160.18 195.85 159.81C195.69 159.37 195.49 158.84 194.88 158.84H189.73V163.74H193.97C194.33 163.74 194.47 163.49 194.6 163.25C194.73 163.01 194.84 162.85 195.09 162.85C195.34 162.85 195.47 163.01 195.47 163.27V164.91C195.47 165.16 195.35 165.33 195.09 165.33C194.83 165.33 194.73 165.17 194.6 164.93C194.48 164.68 194.33 164.44 193.97 164.44H189.73V169.36C189.73 169.65 189.92 169.85 190.22 169.85H195.07C195.68 169.85 195.91 169.3 196.09 168.83C196.25 168.45 196.38 168.14 196.65 168.14C196.89 168.14 197.03 168.32 197.03 168.58V169.98C197.03 170.33 196.79 170.54 196.44 170.54H188.28C188.03 170.54 187.85 170.41 187.85 170.16H187.84Z" fill="#F0E7D2"/>
</svg>
