<svg width="296" height="91" viewBox="0 0 296 91" fill="none" xmlns="http://www.w3.org/2000/svg">
<path d="M15.1702 2.02988C11.0102 4.98988 8.44016 10.7399 8.44016 20.3699C8.44016 30.6099 11.6702 37.9399 20.5902 37.9399C29.5102 37.9399 32.8002 30.5999 32.8002 20.3699C32.8002 10.1399 29.4502 2.89988 22.8302 2.89988C18.8302 2.89988 15.6002 5.90988 15.6002 10.6699C15.6002 14.0099 17.0802 16.2499 19.2702 16.2499C21.7302 16.2499 22.0102 14.0599 24.1402 14.0599C26.0002 14.0599 27.2602 15.5899 27.2602 17.3399C27.2602 19.6399 25.1802 21.3399 21.6202 21.3399C17.1902 21.3399 12.9202 17.5599 12.9202 11.3199C12.9202 5.07988 17.7902 0.379883 23.4902 0.379883C31.7002 0.379883 38.8202 8.80988 38.8202 20.3599C38.8202 31.9099 31.8702 40.3399 20.5902 40.3399C9.31016 40.3399 2.41016 31.9199 2.41016 20.3699C2.41016 8.81988 8.54016 3.33988 14.5102 0.879883L15.1702 2.02988Z" fill="#F0E7D2"/>
<path d="M58.4209 18.2895L65.2609 14.0195H66.9609V35.3195C66.9609 37.2895 67.6709 37.8895 70.6309 38.1695V39.5395C67.8409 39.5395 64.9409 39.8095 62.1409 40.3595V37.6795C60.0009 38.9895 56.6109 40.3595 53.6509 40.3595C50.4209 40.3595 45.8809 39.0995 45.8809 32.9695V21.1995C45.8809 19.8895 45.3909 19.3895 44.1809 19.3895H42.2109V18.2895L49.0509 14.0195H50.6909V32.9595C50.6909 36.1895 52.4409 37.5595 55.0109 37.5595C57.5809 37.5595 59.8809 36.6295 62.1309 35.2095V21.1895C62.1309 19.8795 61.6409 19.3795 60.3809 19.3795H58.4109V18.2795L58.4209 18.2895Z" fill="#F0E7D2"/>
<path d="M86.3995 17.6298C85.0895 17.6298 83.3295 18.5098 82.0695 20.4198V35.3098C82.0695 37.2798 82.7795 37.8798 85.7395 38.1598V39.5298H73.5295V38.1598C76.5395 37.8898 77.2495 37.2798 77.2495 35.3098V21.1898C77.2495 19.8798 76.7595 19.3798 75.5495 19.3798H73.5195V18.2798L80.3595 14.0098H82.0595V17.6198C83.9795 15.3198 86.8795 14.0098 89.3395 14.0098C92.3495 14.0098 93.5595 15.5998 93.5595 17.3498C93.5595 19.0998 92.4695 20.1398 90.8795 20.1398C88.5295 20.1398 88.1995 17.6198 86.3895 17.6198L86.3995 17.6298Z" fill="#F0E7D2"/>
<path d="M131.571 7.44977C131.571 4.54977 130.691 3.61977 127.191 3.61977H123.301C115.361 3.61977 110.541 7.61977 110.541 13.9698C110.541 18.2898 113.331 21.6898 117.111 21.6898C119.031 21.6898 120.121 20.9798 120.121 19.7198C120.121 18.6198 119.021 17.6398 119.021 16.1098C119.021 14.0298 120.441 12.7698 122.251 12.7698C124.501 12.7698 125.701 14.6898 125.701 16.8198C125.701 21.2498 122.201 24.2098 117.491 24.2098C111.801 24.2098 107.801 20.0498 107.801 13.9698C107.801 6.95977 113.381 1.20977 123.291 1.20977H144.591C145.411 1.20977 145.961 0.829766 146.231 0.00976562H147.601L151.821 10.1398L150.671 10.7398C147.221 5.15977 144.591 3.67977 138.631 3.67977C137.591 3.67977 136.991 4.27977 136.991 5.31977V33.4098C136.991 37.5698 137.921 37.8998 142.301 38.1698V39.5398H126.261V38.1698C130.641 37.8998 131.571 37.5698 131.571 33.4098V7.44977Z" fill="#F0E7D2"/>
<path d="M154.669 40.2395C150.129 40.2395 147.279 38.2095 147.279 34.3795C147.279 28.4695 154.289 26.4395 163.649 24.9095V21.6195C163.649 17.6195 162.769 16.0895 159.709 16.0895C156.649 16.0895 154.669 17.3995 154.019 20.0895C153.529 21.9495 152.489 22.7195 151.279 22.7195C149.909 22.7195 149.139 21.8995 149.139 20.2595C149.139 17.1395 153.299 14.0195 159.979 14.0195C164.629 14.0195 168.519 15.7195 168.519 21.7395V34.6095C168.519 36.6395 169.069 37.5695 170.269 37.5695C170.819 37.5695 171.479 37.4095 172.299 36.9695V38.9395C171.149 39.7095 169.839 40.1395 168.029 40.1395C165.839 40.1395 164.199 39.0995 163.759 36.7495C161.239 38.4995 158.009 40.2495 154.669 40.2495V40.2395ZM163.649 26.9895C156.969 27.9795 152.539 29.5095 152.539 33.7195C152.539 36.2895 154.179 37.4395 156.429 37.4395C158.889 37.4395 161.299 36.2395 163.659 34.5895V26.9795L163.649 26.9895Z" fill="#F0E7D2"/>
<path d="M175.151 39.5299V38.1599C178.161 37.8899 178.871 37.2799 178.871 35.3099V7.55988C178.871 6.24988 178.381 5.74988 177.171 5.74988H175.141V4.64988L181.981 0.379883H183.681V35.3099C183.681 37.2799 184.391 37.8799 187.351 38.1599V39.5299H175.141H175.151Z" fill="#F0E7D2"/>
<path d="M190.26 39.5299V38.1599C193.27 37.8899 193.98 37.2799 193.98 35.3099V7.55988C193.98 6.24988 193.49 5.74988 192.28 5.74988H190.25V4.64988L197.09 0.379883H198.79V26.8199L206.18 19.3699C207.49 18.1099 207.99 16.4699 203.66 16.1899V14.8199H216.53V16.1899C213.41 16.4599 211.77 17.2799 209.25 19.7499L205.42 23.5799L214.51 34.9099C216.54 37.3699 217.52 37.8699 219.27 38.1399V39.5099H205.69V38.1399C209.47 37.8699 209.52 36.2199 208.37 34.7999L201.96 26.9699L198.78 30.1499V35.2999C198.78 37.2699 199.49 37.8699 202.45 38.1499V39.5199H190.24L190.26 39.5299Z" fill="#F0E7D2"/>
<path d="M23.76 57.8502C23.76 54.9502 22.88 54.0202 19.38 54.0202H15.49C7.55 54.0202 2.73 58.0202 2.73 64.3702C2.73 68.7002 5.52 72.0902 9.3 72.0902C11.22 72.0902 12.31 71.3802 12.31 70.1202C12.31 69.0302 11.22 68.0402 11.22 66.5102C11.22 64.4302 12.64 63.1702 14.45 63.1702C16.69 63.1702 17.9 65.0902 17.9 67.2202C17.9 71.6502 14.4 74.6102 9.69 74.6102C4 74.6102 0 70.4502 0 64.3702C0 57.3602 5.58 51.6102 15.49 51.6102H36.79C37.61 51.6102 38.16 51.2302 38.43 50.4102H39.8L44.02 60.5402L42.87 61.1402C39.42 55.5602 36.79 54.0802 30.83 54.0802C29.79 54.0802 29.19 54.6802 29.19 55.7202V83.8102C29.19 87.9702 30.12 88.3002 34.5 88.5702V89.9402H18.46V88.5702C22.84 88.3002 23.77 87.9702 23.77 83.8102V57.8602L23.76 57.8502Z" fill="#F0E7D2"/>
<path d="M44.6803 74.9299C44.6203 75.8099 44.5703 76.6799 44.5703 77.5599C44.5703 83.9099 46.8203 88.4499 53.1103 88.4499C56.6703 88.4499 59.7303 86.0399 61.3803 82.1499L63.4103 83.0799C61.4903 87.6199 57.9903 90.7499 52.7903 90.7499C44.0303 90.7499 39.3203 85.0599 39.3203 77.5599C39.3203 70.0599 43.9703 64.4199 51.6903 64.4199C58.1003 64.4199 62.4803 68.1999 62.4803 74.9299H44.6903H44.6803ZM57.6003 72.7399C57.6003 68.7399 55.0803 66.5499 51.7403 66.5499C47.5203 66.5499 45.6603 68.9599 44.9503 72.7399H57.6003Z" fill="#F0E7D2"/>
<path d="M74.5697 90.6397C70.0297 90.6397 67.1797 88.6097 67.1797 84.7797C67.1797 78.8697 74.1897 76.8397 83.5497 75.3097V72.0297C83.5497 68.0297 82.6697 66.4997 79.6097 66.4997C76.5497 66.4997 74.5697 67.8097 73.9197 70.4997C73.4297 72.3597 72.3897 73.1297 71.1797 73.1297C69.8097 73.1297 69.0397 72.3097 69.0397 70.6697C69.0397 67.5497 73.1997 64.4297 79.8797 64.4297C84.5297 64.4297 88.4197 66.1297 88.4197 72.1497V85.0197C88.4197 87.0497 88.9697 87.9797 90.1697 87.9797C90.7197 87.9797 91.3697 87.8197 92.1997 87.3797V89.3497C91.0497 90.1197 89.7397 90.5597 87.9297 90.5597C85.7397 90.5597 84.0997 89.5197 83.6597 87.1697C81.1397 88.9197 77.9097 90.6697 74.5697 90.6697V90.6397ZM83.5497 77.3897C76.8697 78.3797 72.4397 79.9097 72.4397 84.1197C72.4397 86.6897 74.0797 87.8397 76.3297 87.8397C78.7897 87.8397 81.1997 86.6297 83.5597 84.9897V77.3797L83.5497 77.3897Z" fill="#F0E7D2"/>
<path d="M111.309 89.9302V88.5602C114.319 88.2902 114.979 87.6802 114.979 85.7102V71.8002C114.979 68.5702 113.279 67.2001 110.709 67.2001C108.139 67.2001 105.729 68.0802 103.589 69.5502V85.7001C103.589 87.6701 104.299 88.2702 107.259 88.5502V89.9202H95.0491V88.5502C98.0591 88.2802 98.7691 87.6701 98.7691 85.7001V71.5802C98.7691 70.2702 98.2791 69.7701 97.0691 69.7701H95.0391V68.6802L101.879 64.4102H103.579V67.1502C105.719 65.8402 109.049 64.4102 112.069 64.4102C114.369 64.4102 117.439 65.0701 118.909 67.7001C121.319 66.0001 125.209 64.4102 128.269 64.4102C131.549 64.4102 136.039 65.6702 136.039 71.8002V85.7102C136.039 87.6802 136.749 88.2802 139.759 88.5602V89.9302H127.549V88.5602C130.509 88.2902 131.219 87.6802 131.219 85.7102V71.8002C131.219 68.5702 129.519 67.2001 126.949 67.2001C124.379 67.2001 121.799 68.1302 119.559 69.6602C119.719 70.3202 119.829 71.0302 119.829 71.7902V85.7001C119.829 87.6701 120.539 88.2702 123.499 88.5502V89.9202H111.289L111.309 89.9302Z" fill="#F0E7D2"/>
<path d="M271.301 61.6696C270.731 62.2396 270.051 62.2396 269.371 61.5496L268.911 61.0896C268.341 60.5096 268.231 59.8196 268.911 59.1296L286.761 41.2596H241.161C240.361 41.2596 239.801 40.6896 239.801 39.8796V39.1896C239.801 38.3796 240.371 37.8096 241.161 37.8096H286.761L268.911 19.8196C268.231 19.1296 268.231 18.6696 268.911 17.9796L269.371 17.5196C270.051 16.8196 270.621 16.8196 271.301 17.3996L294.161 37.6996C294.841 38.2696 295.181 38.9696 295.181 39.5396C295.181 40.2296 294.841 40.8096 294.161 41.3796L271.301 61.6796V61.6696Z" fill="#F0E7D2"/>
<path d="M153.76 62.0997C153.76 58.2497 156.06 55.7197 159.56 55.7197C162.6 55.7197 164.01 57.5197 164.01 58.5997C164.01 59.0697 163.74 59.3297 163.27 59.3297C162.68 59.3297 162.48 58.8697 162.25 58.3097C161.89 57.4697 161.42 56.3997 159.39 56.3997C156.77 56.3997 154.88 58.4897 154.88 61.4997C154.88 64.5097 156.62 67.5897 159.78 67.5897C161.86 67.5897 162.8 66.2797 163.36 65.5097C163.6 65.1797 163.72 64.9797 163.88 64.9797C164 64.9797 164.06 65.0897 164.06 65.2497C164.06 66.0497 162.69 68.4797 159.49 68.4797C156.04 68.4797 153.74 65.9497 153.74 62.0997H153.76Z" fill="#F0E7D2"/>
<path d="M165.891 67.9102C165.891 67.6402 166.051 67.5302 166.231 67.4002C166.411 67.2902 166.591 67.1502 166.591 66.8902V57.3102C166.591 57.0402 166.411 56.9102 166.231 56.8002C166.051 56.6702 165.891 56.5502 165.891 56.2902C165.891 56.0302 166.071 55.9102 166.321 55.9102H168.041C168.311 55.9102 168.471 56.0402 168.471 56.2902C168.471 56.5402 168.311 56.6702 168.131 56.8002C167.951 56.9102 167.771 57.0402 167.771 57.3102V67.1102C167.771 67.4002 167.961 67.6002 168.261 67.6002H172.361C172.941 67.6002 173.171 67.0702 173.371 66.5802C173.531 66.2102 173.651 65.8902 173.931 65.8902C174.171 65.8902 174.331 66.0702 174.331 66.3302V67.7302C174.331 68.0802 174.091 68.2902 173.721 68.2902H166.341C166.091 68.2902 165.911 68.1602 165.911 67.9102H165.891Z" fill="#F0E7D2"/>
<path d="M175.971 67.9102C175.971 67.6402 176.131 67.5302 176.311 67.4002C176.491 67.2902 176.671 67.1502 176.671 66.8902V57.3102C176.671 57.0402 176.491 56.9102 176.311 56.8002C176.131 56.6702 175.971 56.5502 175.971 56.2902C175.971 56.0302 176.151 55.9102 176.401 55.9102H178.121C178.391 55.9102 178.551 56.0402 178.551 56.2902C178.551 56.5402 178.391 56.6702 178.211 56.8002C178.031 56.9102 177.851 57.0402 177.851 57.3102V66.8902C177.851 67.1402 178.031 67.2902 178.211 67.4002C178.391 67.5302 178.551 67.6402 178.551 67.9102C178.551 68.1602 178.391 68.2902 178.121 68.2902H176.401C176.151 68.2902 175.971 68.1602 175.971 67.9102Z" fill="#F0E7D2"/>
<path d="M180.35 62.0997C180.35 58.2497 182.65 55.7197 186.15 55.7197C189.19 55.7197 190.6 57.5197 190.6 58.5997C190.6 59.0697 190.33 59.3297 189.86 59.3297C189.27 59.3297 189.07 58.8697 188.84 58.3097C188.48 57.4697 188.01 56.3997 185.98 56.3997C183.36 56.3997 181.47 58.4897 181.47 61.4997C181.47 64.5097 183.21 67.5897 186.38 67.5897C188.46 67.5897 189.4 66.2797 189.96 65.5097C190.19 65.1797 190.32 64.9797 190.48 64.9797C190.6 64.9797 190.66 65.0897 190.66 65.2497C190.66 66.0497 189.29 68.4797 186.1 68.4797C182.65 68.4797 180.35 65.9497 180.35 62.0997Z" fill="#F0E7D2"/>
<path d="M192.48 67.9094C192.48 67.6394 192.64 67.5294 192.82 67.3994C193 67.2894 193.18 67.1494 193.18 66.8894V57.3094C193.18 57.0394 193 56.9094 192.82 56.7994C192.64 56.6694 192.48 56.5494 192.48 56.2894C192.48 56.0294 192.66 55.9094 192.91 55.9094H194.63C194.9 55.9094 195.06 56.0394 195.06 56.2894C195.06 56.5394 194.9 56.6694 194.72 56.7994C194.54 56.9094 194.36 57.0394 194.36 57.3094V62.5894L199.88 57.1994C200.19 56.8894 200.08 56.7994 199.9 56.6494C199.81 56.5794 199.7 56.4494 199.7 56.2794C199.7 56.0394 199.86 55.8994 200.12 55.8994H201.5C201.75 55.8994 201.93 56.0494 201.93 56.2794C201.93 56.5094 201.75 56.6494 201.44 56.8294C201.22 56.9594 200.92 57.1794 200.59 57.4894L196.82 61.1494L201.33 67.0294C201.69 67.4894 202.03 67.6294 202.25 67.7094C202.43 67.7794 202.56 67.8194 202.56 67.9994C202.56 68.2894 202.29 68.4694 201.86 68.4694C201.28 68.4694 200.67 68.1594 200.15 67.4694L195.97 61.9994L194.37 63.5294V66.8794C194.37 67.1294 194.55 67.2794 194.73 67.3894C194.91 67.5194 195.07 67.6294 195.07 67.8994C195.07 68.1494 194.91 68.2794 194.64 68.2794H192.92C192.67 68.2794 192.49 68.1494 192.49 67.8994L192.48 67.9094Z" fill="#F0E7D2"/>
<path d="M153.561 80.1294C153.561 77.8694 155.231 76.3994 157.761 76.3994H161.191C161.431 76.3994 161.551 76.4894 161.621 76.7094L165.881 87.3494L170.211 76.7094C170.301 76.4894 170.411 76.3994 170.641 76.3994H172.041C172.291 76.3994 172.471 76.5294 172.471 76.7794C172.471 77.0294 172.291 77.1594 172.111 77.2894C171.931 77.3994 171.751 77.5294 171.751 77.7994V87.3794C171.751 87.6294 171.931 87.7794 172.111 87.8894C172.291 88.0194 172.471 88.1294 172.471 88.3994C172.471 88.6494 172.291 88.7794 172.041 88.7794H170.301C170.051 88.7794 169.871 88.6494 169.871 88.3994C169.871 88.1294 170.051 88.0194 170.231 87.8894C170.391 87.7794 170.571 87.6394 170.571 87.3794V77.5594L166.151 88.4694C166.081 88.6694 165.951 88.7794 165.751 88.7794H165.511C165.331 88.7794 165.181 88.6694 165.111 88.4694L160.751 77.5794V87.2194C160.751 87.5994 161.001 87.7494 161.221 87.9094C161.441 88.0394 161.601 88.1594 161.601 88.3994C161.601 88.6494 161.421 88.7794 161.171 88.7794H159.811C159.561 88.7794 159.381 88.6494 159.381 88.3994C159.381 88.1494 159.521 88.0194 159.721 87.8894C159.921 87.7594 160.081 87.6394 160.081 87.3594V78.8094C160.081 77.6994 159.151 77.0594 157.601 77.0594C155.631 77.0594 154.311 78.1494 154.311 79.8994C154.311 81.0594 154.891 81.8894 155.841 81.8894C156.141 81.8894 156.381 81.8194 156.611 81.7294C156.831 81.6594 157.021 81.5994 157.241 81.5994C157.731 81.5994 158.031 81.9294 158.031 82.3694C158.031 82.9694 157.451 83.3594 156.541 83.3594C154.761 83.3594 153.561 82.0594 153.561 80.1294Z" fill="#F0E7D2"/>
<path d="M174.52 88.3994C174.52 88.1294 174.68 88.0194 174.86 87.8894C175.04 87.7794 175.22 87.6394 175.22 87.3794V77.7994C175.22 77.5294 175.04 77.3994 174.86 77.2894C174.68 77.1594 174.52 77.0394 174.52 76.7794C174.52 76.5194 174.7 76.3994 174.95 76.3994H182.84C183.2 76.3994 183.43 76.6194 183.43 76.9594V78.2894C183.43 78.5294 183.28 78.7094 183.05 78.7094C182.78 78.7094 182.67 78.4194 182.53 78.0494C182.37 77.6094 182.17 77.0794 181.56 77.0794H176.41V81.9794H180.65C181.01 81.9794 181.15 81.7294 181.28 81.4894C181.41 81.2494 181.52 81.0894 181.77 81.0894C182.02 81.0894 182.15 81.2494 182.15 81.5094V83.1494C182.15 83.3994 182.03 83.5694 181.77 83.5694C181.51 83.5694 181.41 83.4094 181.28 83.1694C181.16 82.9194 181.01 82.6794 180.65 82.6794H176.41V87.5994C176.41 87.8894 176.6 88.0894 176.9 88.0894H181.75C182.36 88.0894 182.59 87.5394 182.77 87.0694C182.93 86.6894 183.06 86.3794 183.33 86.3794C183.57 86.3794 183.71 86.5594 183.71 86.8194V88.2194C183.71 88.5694 183.47 88.7794 183.12 88.7794H174.96C174.71 88.7794 174.53 88.6494 174.53 88.3994H174.52Z" fill="#F0E7D2"/>
</svg>
