<svg width="271" height="103" viewBox="0 0 271 103" fill="none" xmlns="http://www.w3.org/2000/svg">
<g clip-path="url(#clip0_725_522)">
<path d="M1.02204 45.0933C0.340679 44.5191 0 43.9399 0 43.2489C0 42.6697 0.340679 41.9787 1.02204 41.4046L23.8776 21.1064C24.5589 20.5271 25.1301 20.5271 25.8114 21.2232L26.2673 21.6856C26.9487 22.3766 26.9487 22.8389 26.2673 23.53L8.41677 41.5214H54.0176C54.8142 41.5214 55.3804 42.0956 55.3804 42.9034V43.5944C55.3804 44.4023 54.8142 44.9764 54.0176 44.9764H8.41677L26.2673 62.851C26.9487 63.542 26.8385 64.233 26.2673 64.8123L25.8114 65.2746C25.1301 65.9656 24.4487 65.9656 23.8776 65.3915L1.02204 45.0933Z" fill="#F0E7D2"/>
<path d="M95.9167 42.6033L85.551 7.9617C84.6943 5.10116 82.1192 4.04433 78.497 4.04433C71.9339 4.04433 67.5802 7.71274 67.5802 13.3729C67.5802 17.1683 69.4189 19.7189 72.485 19.7189C73.5271 19.7189 74.3236 19.4699 75.1202 19.16C75.8567 18.8501 76.5932 18.6621 77.3898 18.6621C79.4138 18.6621 80.6412 19.9679 80.6412 21.7716C80.6412 24.1952 78.497 25.7499 75 25.7499C68.8077 25.7499 64.5742 21.2076 64.5742 14.4907C64.5742 6.65591 70.3407 1.55469 79.1082 1.55469H91.3726C92.2945 1.55469 92.9057 2.11359 92.9057 2.9875C92.9057 3.92239 92.4147 4.35426 91.9838 4.6642C91.3075 5.16213 90.9418 5.59908 91.2474 6.77785L99.7092 37.563L110.025 2.79951C110.27 1.99164 110.881 1.55469 111.678 1.55469H113.577C114.434 1.55469 114.985 1.92559 115.23 2.79951L124.98 37.6291L133.932 6.8439C134.298 5.66005 133.687 5.22818 133.076 4.79122C132.525 4.42032 131.908 3.98336 131.908 2.9875C131.908 2.11867 132.52 1.55469 133.441 1.55469H138.471C139.393 1.55469 140.005 2.11359 140.005 2.9875C140.005 3.98336 139.453 4.35426 138.657 4.85219C137.98 5.28915 137.244 5.72103 136.938 6.77785L126.147 42.6033C125.901 43.4111 125.225 43.8481 124.428 43.8481H122.71C121.913 43.8481 121.297 43.4111 121.057 42.6033L111.307 7.83976L101.007 42.6033C100.761 43.4111 100.085 43.8481 99.2884 43.8481H97.57C96.7734 43.8481 96.1572 43.4111 95.9167 42.6033Z" fill="#F0E7D2"/>
<path d="M142.89 42.542C142.89 41.6732 143.441 41.2972 143.992 40.9263C144.603 40.4893 145.159 40.0574 145.159 39.1226V5.59879C145.159 4.41494 144.483 3.91701 143.872 3.48513C143.321 3.04818 142.77 2.6163 142.77 1.74238C142.77 0.934521 143.381 0.30957 144.242 0.30957H148.536C149.763 0.30957 150.56 1.1784 150.56 2.4842V17.2849C153.26 13.7384 157.369 11.5028 161.782 11.5028C167.484 11.5028 170.795 15.1712 171.412 21.1413L173.25 39.1175C173.376 40.0524 173.801 40.4842 174.418 40.9212C174.969 41.2921 175.52 41.6681 175.52 42.5369C175.52 43.3448 174.909 43.8427 174.047 43.8427H166.993C166.136 43.8427 165.58 43.3448 165.58 42.5369C165.58 41.6681 166.131 41.2921 166.682 40.9212C167.359 40.4842 167.97 40.0524 167.85 39.1175L166.011 21.4563C165.58 17.4779 163.436 14.8663 159.573 14.8663C155.956 14.8663 152.519 17.168 150.56 20.7754V39.1226C150.56 40.0574 151.111 40.4893 151.727 40.9263C152.278 41.2972 152.83 41.6732 152.83 42.542C152.83 43.3499 152.278 43.8478 151.417 43.8478H144.363C143.506 43.8478 142.89 43.3499 142.89 42.542Z" fill="#F0E7D2"/>
<path d="M178.211 27.9854C178.211 18.037 184.343 11.5029 193.667 11.5029C202.99 11.5029 209.057 18.0319 209.057 27.9854C209.057 37.9389 202.925 44.4678 193.667 44.4678C184.408 44.4678 178.211 37.9389 178.211 27.9854ZM203.662 29.8501C203.662 20.5825 199.002 13.8655 192.56 13.8655C187.409 13.8655 183.607 19.0887 183.607 26.2426C183.607 35.4492 188.331 42.1001 194.769 42.1001C199.919 42.1001 203.662 36.9379 203.662 29.8501Z" fill="#F0E7D2"/>
<path d="M227.448 42.5424C227.448 41.6735 227.999 41.2976 228.551 40.9266C229.162 40.4897 229.718 40.0578 229.718 39.1229V17.4173C229.718 16.2335 229.042 15.7406 228.43 15.3037C227.879 14.8667 227.328 14.4348 227.328 13.5609C227.328 12.7531 227.939 12.1281 228.801 12.1281H233.095C234.322 12.1281 235.119 12.9969 235.119 14.3027V39.1178C235.119 40.0527 235.67 40.4846 236.286 40.9216C236.837 41.2925 237.388 41.6685 237.388 42.5373C237.388 43.3452 236.837 43.8431 235.975 43.8431H228.921C228.065 43.8431 227.448 43.3452 227.448 42.5373V42.5424ZM228.495 3.54647C228.495 1.43281 229.908 0 232.053 0C234.197 0 235.61 1.43281 235.61 3.54647C235.61 5.66012 234.197 7.09294 232.053 7.09294C229.908 7.09294 228.495 5.66012 228.495 3.54647Z" fill="#F0E7D2"/>
<path d="M241.616 36.6329C241.616 35.0171 242.538 34.0213 244.191 34.0213C246.215 34.0213 246.827 35.4541 247.503 37.1918C248.425 39.5544 249.712 42.293 254.983 42.293C259.768 42.293 262.954 39.9913 262.954 36.4449C262.954 32.3395 258.54 31.1607 253.816 29.9159C248.36 28.4831 242.473 26.9283 242.473 20.5874C242.473 14.8663 247.132 11.5078 254.923 11.5078C261.666 11.5078 266.636 14.3684 266.636 18.5347C266.636 20.2774 265.654 20.8973 264.367 20.8973C262.588 20.8973 262.037 19.6525 261.421 18.1587C260.564 16.106 259.522 13.6824 254.737 13.6824C250.198 13.6824 247.438 15.8571 247.438 19.0326C247.438 23.199 251.852 24.4438 256.636 25.6886C262.092 27.1214 267.919 28.8591 267.919 35.0781C267.919 41.2971 262.523 44.4676 254.858 44.4676C246.762 44.4676 241.611 40.4232 241.611 36.6329H241.616Z" fill="#F0E7D2"/>
<path d="M64.5795 73.0229C64.5795 65.1881 70.346 60.0869 79.1134 60.0869H109.038C110.386 60.0869 111.182 60.8948 111.182 62.1396V68.4196C111.182 69.3545 110.631 70.0353 109.77 70.0353C108.667 70.0353 108.111 68.6686 107.5 67.1138C106.703 65.1221 105.782 62.8865 103.452 62.8865H96.5833V97.2181C96.5833 98.153 97.2596 98.6509 97.9309 99.0828C98.6073 99.5198 99.2786 99.9516 99.2786 100.948C99.2786 101.882 98.6674 102.38 97.7456 102.38H89.6494C88.7276 102.38 88.1164 101.882 88.1164 100.948C88.1164 99.9516 88.7927 99.5147 89.4641 99.0828C90.1404 98.6459 90.8118 98.1479 90.8118 97.2181V62.8865H78.362C71.9241 62.8865 67.5704 66.4939 67.5704 72.154C67.5704 75.8225 69.4091 78.2511 72.4752 78.2511C73.5774 78.2511 74.3139 78.0022 75.1105 77.6922C75.8469 77.3823 76.5183 77.1943 77.38 77.1943C79.404 77.1943 80.6315 78.5001 80.6315 80.3038C80.6315 82.7274 78.4872 84.2822 74.9902 84.2822C68.7979 84.2822 64.5645 79.7398 64.5645 73.0229H64.5795Z" fill="#F0E7D2"/>
<path d="M112.29 94.4794C112.29 87.0765 120.692 84.094 133.387 83.967V80.6085C133.387 75.1973 130.136 72.3368 125.351 72.3368C120.567 72.3368 119.955 74.8874 119.339 77.123C118.848 78.9267 118.417 80.4205 116.213 80.4205C114.495 80.4205 113.452 79.4247 113.452 77.748C113.452 74.3285 117.686 70.0352 125.777 70.0352C133.382 70.0352 138.778 73.8306 138.778 81.3554V97.5279C138.778 98.7118 139.454 99.2046 140.126 99.7025C140.677 100.073 141.168 100.449 141.168 101.257C141.168 102.375 139.76 103 137.981 103C135.101 103 133.382 101.257 133.382 98.8337C130.927 101.445 127.25 103 122.896 103C116.519 103 112.285 99.6416 112.285 94.4794H112.29ZM125.416 99.8296C128.608 99.8296 131.609 98.3967 133.387 96.1002V87.2086C132.1 86.7107 130.687 86.5227 128.848 86.5227C122.225 86.5227 117.626 89.0733 117.626 93.4276C117.626 97.284 121.123 99.8346 125.416 99.8346V99.8296Z" fill="#F0E7D2"/>
<path d="M144.974 101.074C144.974 100.205 145.525 99.8294 146.076 99.4585C146.687 99.0216 147.243 98.5897 147.243 97.6548V64.131C147.243 62.9472 146.567 62.4492 145.956 62.0174C145.405 61.5804 144.854 61.1485 144.854 60.2746C144.854 59.4667 145.465 58.8418 146.326 58.8418H150.62C151.847 58.8418 152.644 59.7106 152.644 61.0164V97.6497C152.644 98.5846 153.195 99.0165 153.811 99.4534C154.362 99.8243 154.914 100.2 154.914 101.069C154.914 101.877 154.362 102.375 153.501 102.375H146.447C145.59 102.375 144.974 101.877 144.974 101.069V101.074Z" fill="#F0E7D2"/>
<path d="M159.323 101.074C159.323 100.205 159.874 99.8294 160.426 99.4585C161.037 99.0216 161.593 98.5897 161.593 97.6548V64.131C161.593 62.9472 160.917 62.4492 160.305 62.0174C159.754 61.5804 159.203 61.1485 159.203 60.2746C159.203 59.4667 159.814 58.8418 160.676 58.8418H164.97C166.197 58.8418 166.994 59.7106 166.994 61.0164V87.1983L179.749 75.0092C180.36 74.3894 179.995 74.0134 179.504 73.5154C179.133 73.1395 178.707 72.7076 178.707 71.9607C178.707 71.1528 179.258 70.6549 180.12 70.6549H185.33C186.187 70.6549 186.743 71.1528 186.743 71.9607C186.743 72.9565 185.886 73.5764 184.659 74.3233C183.737 74.8822 182.94 75.5072 181.958 76.437L174.97 83.0929L184.719 97.3347C186.067 99.2604 187.174 99.7583 188.031 100.073C188.707 100.322 189.013 100.51 189.013 101.191C189.013 102.187 187.91 102.995 186.192 102.995C183.677 102.995 181.102 101.628 179.263 98.9504L171.047 86.7613L166.999 90.6177V97.6446C166.999 98.5795 167.55 99.0114 168.166 99.4483C168.717 99.8193 169.268 100.195 169.268 101.064C169.268 101.872 168.717 102.37 167.855 102.37H160.801C159.945 102.37 159.328 101.872 159.328 101.064L159.323 101.074Z" fill="#F0E7D2"/>
<path d="M202.435 89.3783C202.555 83.5301 205.01 80.7356 207.465 78.058C209.549 75.7564 211.513 73.5817 211.513 69.5983C211.513 65.056 208.812 62.0735 203.847 62.0735C198.882 62.0735 197.835 65.4929 197.104 68.4805C196.553 70.8431 195.937 72.8958 193.547 72.8958C191.648 72.8958 190.355 71.651 190.355 69.3493C190.355 64.5631 195.691 59.4619 204.644 59.4619C212.615 59.4619 217.339 63.4403 217.339 70.0962C217.339 75.3804 214.393 77.809 211.327 80.2326C208.447 82.4733 205.626 84.7089 204.889 89.5612C204.829 90.1201 204.398 90.43 203.907 90.43H203.356C202.805 90.43 202.435 90.0591 202.435 89.3732V89.3783ZM200.285 99.0218C200.285 96.7811 201.758 95.2924 204.028 95.2924C206.297 95.2924 207.83 96.7862 207.83 99.0218C207.83 101.257 206.297 102.817 204.028 102.817C201.758 102.817 200.285 101.323 200.285 99.0218Z" fill="#F0E7D2"/>
<path d="M224.207 72.3765C224.207 68.5303 226.507 66 230.009 66C233.045 66 234.462 67.8037 234.462 68.8809C234.462 69.3534 234.192 69.6074 233.726 69.6074C233.135 69.6074 232.934 69.1502 232.704 68.5862C232.343 67.7478 231.877 66.6758 229.848 66.6758C227.223 66.6758 225.339 68.7691 225.339 71.777C225.339 74.7849 227.083 77.8639 230.244 77.8639C232.328 77.8639 233.26 76.553 233.821 75.7858C234.057 75.4556 234.182 75.2574 234.342 75.2574C234.467 75.2574 234.523 75.3641 234.523 75.5318C234.523 76.3345 233.155 78.7581 229.958 78.7581C226.512 78.7581 224.212 76.2278 224.212 72.3816L224.207 72.3765Z" fill="#F0E7D2"/>
<path d="M236.332 78.1894C236.332 77.915 236.492 77.8083 236.673 77.6813C236.853 77.5695 237.033 77.4272 237.033 77.1732V67.5906C237.033 67.3162 236.853 67.1892 236.673 67.0825C236.492 66.9555 236.332 66.8285 236.332 66.5744C236.332 66.3204 236.512 66.1934 236.763 66.1934H238.486C238.757 66.1934 238.917 66.3204 238.917 66.5744C238.917 66.8285 238.757 66.9555 238.576 67.0825C238.396 67.1943 238.216 67.3213 238.216 67.5906V77.3917C238.216 77.6813 238.411 77.8845 238.702 77.8845H242.8C243.376 77.8845 243.607 77.3561 243.807 76.8632C243.967 76.4974 244.092 76.1722 244.363 76.1722C244.599 76.1722 244.759 76.3552 244.759 76.6092V78.0115C244.759 78.357 244.523 78.5755 244.148 78.5755H236.763C236.512 78.5755 236.332 78.4485 236.332 78.1944V78.1894Z" fill="#F0E7D2"/>
<path d="M246.412 78.1894C246.412 77.915 246.572 77.8083 246.753 77.6813C246.933 77.5695 247.114 77.4272 247.114 77.1732V67.5906C247.114 67.3162 246.933 67.1892 246.753 67.0825C246.572 66.9555 246.412 66.8285 246.412 66.5744C246.412 66.3204 246.592 66.1934 246.843 66.1934H248.566C248.837 66.1934 248.997 66.3204 248.997 66.5744C248.997 66.8285 248.837 66.9555 248.657 67.0825C248.476 67.1943 248.296 67.3213 248.296 67.5906V77.1732C248.296 77.4272 248.476 77.5746 248.657 77.6813C248.837 77.8083 248.997 77.9201 248.997 78.1894C248.997 78.4434 248.837 78.5704 248.566 78.5704H246.843C246.592 78.5704 246.412 78.4434 246.412 78.1894Z" fill="#F0E7D2"/>
<path d="M250.797 72.3765C250.797 68.5303 253.096 66 256.598 66C259.634 66 261.052 67.8037 261.052 68.8809C261.052 69.3534 260.782 69.6074 260.316 69.6074C259.725 69.6074 259.524 69.1502 259.294 68.5862C258.933 67.7478 258.467 66.6758 256.438 66.6758C253.813 66.6758 251.929 68.7691 251.929 71.777C251.929 74.7849 253.673 77.8639 256.834 77.8639C258.918 77.8639 259.85 76.553 260.411 75.7858C260.646 75.4556 260.772 75.2574 260.932 75.2574C261.057 75.2574 261.112 75.3641 261.112 75.5318C261.112 76.3345 259.745 78.7581 256.548 78.7581C253.101 78.7581 250.802 76.2278 250.802 72.3816L250.797 72.3765Z" fill="#F0E7D2"/>
<path d="M262.926 78.1896C262.926 77.9152 263.086 77.8085 263.266 77.6815C263.447 77.5697 263.627 77.4274 263.627 77.1734V67.5908C263.627 67.3164 263.447 67.1894 263.266 67.0827C263.086 66.9557 262.926 66.8287 262.926 66.5746C262.926 66.3206 263.106 66.1936 263.357 66.1936H265.08C265.351 66.1936 265.511 66.3206 265.511 66.5746C265.511 66.8287 265.351 66.9557 265.17 67.0827C264.99 67.1945 264.81 67.3215 264.81 67.5908V72.8749L270.326 67.4841C270.631 67.1742 270.521 67.0827 270.346 66.9354C270.255 66.8642 270.15 66.7372 270.15 66.5695C270.15 66.3307 270.31 66.1885 270.566 66.1885H271.949C272.199 66.1885 272.38 66.3358 272.38 66.5695C272.38 66.8033 272.199 66.9354 271.894 67.1183C271.678 67.2453 271.373 67.4638 271.047 67.7737L267.274 71.437L271.783 77.3207C272.144 77.778 272.485 77.9203 272.7 77.9965C272.881 78.0676 273.006 78.1032 273.006 78.2861C273.006 78.5757 272.735 78.7586 272.304 78.7586C271.728 78.7586 271.117 78.4487 270.596 77.7577L266.413 72.2906L264.815 73.82V77.1734C264.815 77.4274 264.995 77.5748 265.175 77.6815C265.356 77.8085 265.516 77.9203 265.516 78.1896C265.516 78.4436 265.356 78.5706 265.085 78.5706H263.362C263.111 78.5706 262.931 78.4436 262.931 78.1896H262.926Z" fill="#F0E7D2"/>
<path d="M224 90.4141C224 88.1531 225.668 86.6797 228.203 86.6797H231.635C231.871 86.6797 231.996 86.7711 232.066 86.9896L236.325 97.629L240.653 86.9896C240.743 86.7711 240.849 86.6797 241.084 86.6797H242.487C242.737 86.6797 242.918 86.8067 242.918 87.0608C242.918 87.3148 242.737 87.4418 242.557 87.5688C242.377 87.6806 242.196 87.8076 242.196 88.0769V97.6595C242.196 97.9136 242.377 98.0609 242.557 98.1676C242.737 98.2946 242.918 98.4064 242.918 98.6757C242.918 98.9297 242.737 99.0568 242.487 99.0568H240.743C240.493 99.0568 240.313 98.9297 240.313 98.6757C240.313 98.4013 240.493 98.2946 240.673 98.1676C240.834 98.0558 241.014 97.9136 241.014 97.6595V87.8381L236.595 98.7519C236.525 98.9501 236.4 99.0618 236.199 99.0618H235.964C235.783 99.0618 235.638 98.9551 235.568 98.7519L231.204 87.8585V97.4969C231.204 97.878 231.455 98.0253 231.67 98.1879C231.886 98.3149 232.046 98.442 232.046 98.6808C232.046 98.9348 231.866 99.0618 231.615 99.0618H230.252C230.002 99.0618 229.822 98.9348 229.822 98.6808C229.822 98.4267 229.967 98.2997 230.162 98.1727C230.358 98.0457 230.523 97.9186 230.523 97.6443V89.0982C230.523 87.9855 229.591 87.3504 228.043 87.3504C226.069 87.3504 224.756 88.4428 224.756 90.1906C224.756 91.3541 225.333 92.1772 226.285 92.1772C226.59 92.1772 226.826 92.1061 227.056 92.0146C227.272 91.9435 227.467 91.8876 227.682 91.8876C228.168 91.8876 228.474 92.2179 228.474 92.6548C228.474 93.2544 227.898 93.6405 226.981 93.6405C225.202 93.6405 224 92.3449 224 90.4141Z" fill="#F0E7D2"/>
<path d="M244.966 98.6855C244.966 98.4111 245.126 98.3044 245.307 98.1774C245.487 98.0656 245.667 97.9233 245.667 97.6693V88.0867C245.667 87.8123 245.487 87.6853 245.307 87.5786C245.126 87.4516 244.966 87.3246 244.966 87.0705C244.966 86.8165 245.146 86.6895 245.397 86.6895H253.283C253.643 86.6895 253.874 86.9079 253.874 87.2534V88.5846C253.874 88.8234 253.728 89.0063 253.498 89.0063C253.227 89.0063 253.122 88.7167 252.977 88.3509C252.817 87.9139 252.616 87.3855 252.005 87.3855H246.85V92.2886H251.088C251.449 92.2886 251.589 92.0346 251.714 91.7958C251.84 91.5569 251.95 91.3944 252.2 91.3944C252.451 91.3944 252.576 91.5569 252.576 91.811V93.4521C252.576 93.7062 252.451 93.8688 252.2 93.8688C251.95 93.8688 251.84 93.7062 251.714 93.4674C251.589 93.2133 251.444 92.9745 251.088 92.9745H246.85V97.8928C246.85 98.1824 247.045 98.3857 247.336 98.3857H252.185C252.797 98.3857 253.027 97.8369 253.207 97.3644C253.368 96.9834 253.493 96.6734 253.763 96.6734C253.999 96.6734 254.139 96.8563 254.139 97.1104V98.5127C254.139 98.8582 253.904 99.0767 253.548 99.0767H245.392C245.141 99.0767 244.961 98.9497 244.961 98.6956L244.966 98.6855Z" fill="#F0E7D2"/>
</g>
<defs>
<clipPath id="clip0_725_522">
<rect width="271" height="103" fill="white"/>
</clipPath>
</defs>
</svg>
